<?xml version="1.0" encoding="utf-8"?>
<!-- Generator: Adobe Illustrator 16.0.0, SVG Export Plug-In . SVG Version: 6.00 Build 0)  -->
<!DOCTYPE svg PUBLIC "-//W3C//DTD SVG 1.1//EN" "http://www.w3.org/Graphics/SVG/1.1/DTD/svg11.dtd">
<svg version="1.1" id="Layer_1" xmlns="http://www.w3.org/2000/svg" xmlns:xlink="http://www.w3.org/1999/xlink" x="0px" y="0px"
	 width="220.875px" height="138.951px" viewBox="0 0 220.875 138.951" enable-background="new 0 0 220.875 138.951"
	 xml:space="preserve">
<g>
	<g>
		<defs>
			<rect id="SVGID_1_" x="0.632" y="0.049" width="219.862" height="81.722"/>
		</defs>
		<clipPath id="SVGID_2_">
			<use xlink:href="#SVGID_1_"  overflow="visible"/>
		</clipPath>
		<path clip-path="url(#SVGID_2_)" fill="#FFEBA2" d="M181.298,0.342L26.126,0.049v0.185c-0.912-0.109-1.836-0.185-2.778-0.185
			c-12.546,0-22.717,10.073-22.717,22.498v11.402c0,12.426,10.171,22.499,22.717,22.499c0.942,0,1.866-0.075,2.778-0.186v0.186
			l155.172,0.293c12.545,0,22.715-10.073,22.715-22.499V22.84C204.014,10.415,193.843,0.342,181.298,0.342"/>
	</g>
	<g>
		<defs>
			<rect id="SVGID_3_" x="0.632" y="0.049" width="219.862" height="81.722"/>
		</defs>
		<clipPath id="SVGID_4_">
			<use xlink:href="#SVGID_3_"  overflow="visible"/>
		</clipPath>
		<path clip-path="url(#SVGID_4_)" fill="#FFEBA2" d="M158.625,49.409c0-13.704,8.517-25.41,20.539-30.13
			c-3.656-1.435-7.634-2.231-11.799-2.231c-17.861,0-32.34,14.488-32.34,32.361c0,17.872,14.479,32.361,32.34,32.361
			c4.165,0,8.143-0.797,11.799-2.231C167.14,74.819,158.625,63.113,158.625,49.409"/>
	</g>
</g>
<g enable-background="new    ">
	<path fill="#6D5D4B" d="M25.537,21.487c0-0.666-0.036-1.261-0.126-1.908h1.44c-0.09,0.558-0.126,1.152-0.126,1.908v2.179h3.601
		v-2.251c0-0.666-0.036-1.26-0.126-1.854h1.404c-0.09,0.595-0.126,1.171-0.126,1.837v2.269h3.835v-2.269
		c0-0.685-0.036-1.225-0.126-1.837h1.386c-0.09,0.63-0.126,1.171-0.126,1.837v2.269h1.152c0.774,0,1.333-0.036,1.818-0.108v1.261
		c-0.522-0.072-1.08-0.108-1.818-0.108h-1.152v4.52c0,0.576,0.018,1.026,0.072,1.477c-0.396-0.054-0.828-0.072-1.44-0.072h-3.367
		c-0.63,0-1.026,0.019-1.458,0.072c0.054-0.414,0.072-0.864,0.072-1.459V24.71h-3.601v9.129h9.957c0.811,0,1.333-0.036,1.927-0.108
		v1.314c-0.558-0.071-1.152-0.107-1.927-0.107h-9.633c-0.702,0-1.062,0.018-1.584,0.071c0.054-0.468,0.072-0.81,0.072-1.476V24.71
		H24.69c-0.738,0-1.296,0.036-1.818,0.108v-1.261c0.504,0.072,1.044,0.108,1.818,0.108h0.847V21.487z M31.479,24.71v4.897h3.835
		V24.71H31.479z"/>
	<path fill="#6D5D4B" d="M49.785,27.735c0.036,0.018,0.036,0.018,0.324,0.216c1.729,1.152,4.123,1.927,7.31,2.341
		c-0.252,0.414-0.36,0.648-0.468,1.098c-1.747-0.323-2.935-0.63-4.231-1.08c-0.144-0.036-0.198-0.054-0.288-0.09
		c0,0.18,0,0.271,0,0.414v3.313c0,0.756,0.036,1.278,0.108,1.818h-1.368c0.072-0.486,0.108-0.973,0.108-1.818v-3.224
		c0-0.468-0.018-0.81-0.036-1.008c-0.666-0.342-1.224-0.702-2.179-1.387c-0.594,0.486-1.098,0.811-1.891,1.188
		c-0.036,0.306-0.036,0.486-0.054,0.811c-0.09,1.603-0.216,2.106-0.63,2.862c-0.378,0.648-0.828,1.116-1.638,1.639
		c-0.576,0.378-0.955,0.559-2.287,1.044c-0.216-0.378-0.306-0.468-0.792-1.026c1.747-0.521,2.611-0.972,3.259-1.656
		c0.685-0.702,0.937-1.584,0.955-3.15c-1.477,0.54-2.647,0.828-4.682,1.206c-0.162-0.504-0.234-0.63-0.522-1.08
		c4.051-0.522,6.518-1.477,8.066-3.062h-4.357c-0.63,0-1.134,0.019-1.674,0.091c0.054-0.486,0.072-0.955,0.072-1.693v-3.69
		c0-0.793-0.018-1.278-0.072-1.765c0.504,0.072,1.026,0.09,1.729,0.09h9.363c0.666,0,1.206-0.018,1.71-0.09
		c-0.054,0.468-0.072,0.937-0.072,1.765v3.69c0,0.774,0.018,1.225,0.072,1.693c-0.541-0.072-1.044-0.091-1.71-0.091h-4.339
		l0.504,0.36L49.785,27.735z M44.005,23.162h4.574v-2.071h-4.574V23.162z M44.005,26.187h4.574v-2.089h-4.574V26.187z
		 M49.641,23.162h4.79v-2.071h-4.79V23.162z M49.641,26.187h4.79v-2.089h-4.79V26.187z"/>
	<path fill="#6D5D4B" d="M62.437,21.523c-0.828,0-1.458,0.036-2.196,0.126v-1.333c0.684,0.091,1.332,0.126,2.196,0.126h9.399
		c0.9,0,1.387-0.018,1.729-0.071l0.702,0.828c-0.684,0.702-1.026,1.044-1.477,1.44c-1.494,1.332-2.772,2.196-4.843,3.277v8.138
		c0,0.612-0.18,1.009-0.558,1.207c-0.252,0.126-0.72,0.18-1.639,0.18c-0.648,0-1.224-0.036-2.431-0.162
		c-0.036-0.504-0.108-0.756-0.252-1.261c1.116,0.198,1.962,0.288,2.881,0.288c0.576,0,0.738-0.09,0.738-0.396v-7.311
		c0-0.756-0.018-1.242-0.09-1.782h1.062c1.747-0.9,3.025-1.801,4.609-3.295H62.437z"/>
	<path fill="#6D5D4B" d="M79.663,27.663c0-0.811,0.018-1.278,0.054-2.179c-0.702,1.225-1.26,1.98-2.143,2.935
		c-0.18-0.342-0.234-0.432-0.288-0.521c-0.054-0.055-0.144-0.162-0.288-0.324c-0.036-0.036-0.108-0.108-0.18-0.198
		c1.584-1.62,2.719-3.313,3.655-5.42c0.468-1.044,0.702-1.782,0.81-2.503l1.297,0.414c-0.955,2.396-1.243,3.043-1.765,4.033v9.508
		c0,0.899,0.036,1.548,0.09,2.16l-1.351-0.018c0.072-0.648,0.108-1.243,0.108-2.197V27.663z M91.312,25.502
		c0.9,0,1.548-0.035,2.106-0.107v1.332c-0.63-0.072-1.242-0.107-2.106-0.107h-3.241v7.075c0,0.738,0.036,1.297,0.126,1.927h-1.458
		c0.09-0.612,0.126-1.206,0.126-1.944v-7.058h-2.899c-0.828,0-1.477,0.035-2.071,0.107v-1.332c0.558,0.072,1.17,0.107,2.089,0.107
		h2.881v-4.104c0-0.721-0.036-1.261-0.126-1.873h1.458c-0.09,0.631-0.126,1.152-0.126,1.854v4.123H91.312z"/>
	<path fill="#6D5D4B" d="M103.947,20.064c-0.18,0.271-0.252,0.378-0.54,0.883c-1.116,1.891-2.269,3.295-3.853,4.681
		c-1.243,1.099-1.747,1.459-3.835,2.81c-0.252-0.469-0.432-0.685-0.828-1.045c3.043-1.71,5.167-3.547,6.644-5.689
		c0.612-0.864,0.954-1.53,1.116-2.16L103.947,20.064z M105.495,25.269c-0.306,0.378-0.306,0.378-1.242,1.818
		c-0.648,1.008-1.98,2.755-3.097,4.033c-1.207,1.387-1.801,2.017-2.503,2.646c3.889-0.18,7.616-0.521,9.777-0.918
		c-1.584-2.467-2.143-3.241-2.989-4.249l0.972-0.576c0.522,0.594,1.999,2.646,2.647,3.655c0.702,1.098,1.224,1.944,1.945,3.276
		l-1.099,0.702c-0.504-1.098-0.612-1.314-0.882-1.818c-0.756,0.145-0.972,0.162-1.854,0.271c-3.277,0.396-4.988,0.558-7.184,0.702
		c-2.053,0.126-2.719,0.197-3.439,0.324l-0.324-1.351c0.558,0,0.81-0.055,1.08-0.217c1.44-1.313,2.935-2.988,4.447-5.023
		c1.207-1.638,1.854-2.683,2.413-3.907L105.495,25.269z"/>
	<path fill="#6D5D4B" d="M115.159,22.55c-0.595,1.08-0.937,1.566-1.656,2.358c-0.253-0.396-0.433-0.612-0.757-0.918
		c0.955-1.009,1.514-1.873,2.071-3.205c0.198-0.504,0.323-0.864,0.414-1.351l1.242,0.324c-0.144,0.27-0.216,0.414-0.612,1.351
		c-0.054,0.126-0.09,0.18-0.197,0.414h2.25c0.846,0,1.351-0.036,1.729-0.09v1.206c-0.486-0.072-0.954-0.09-1.729-0.09H115.159z
		 M115.177,25.664c-0.36,0-0.865,0.036-1.189,0.072v-1.134c0.324,0.054,0.667,0.071,1.207,0.071h2.809
		c0.504,0,0.865-0.018,1.207-0.071v1.116c-0.396-0.036-0.793-0.055-1.207-0.055h-0.936v2.647h0.918c0.702,0,1.152-0.019,1.656-0.09
		v1.17c-0.576-0.072-1.08-0.09-1.656-0.09h-0.918v4.231c1.062-0.541,1.584-0.829,2.592-1.495l0.055,1.242
		c-1.477,0.847-2.341,1.333-2.557,1.459c-0.918,0.468-0.918,0.468-1.08,0.558l-0.648-1.152c0.359-0.18,0.468-0.27,0.521-0.45v-4.393
		h-1.098c-0.685,0-1.242,0.036-1.693,0.09v-1.17c0.451,0.054,0.99,0.09,1.711,0.09h1.08v-2.647H115.177z M123.927,21.487
		c0-0.847-0.035-1.404-0.107-1.98h1.332c-0.09,0.594-0.107,1.134-0.107,1.998v1.621h2.286c0.81,0,1.314-0.019,1.729-0.072
		c-0.072,0.486-0.072,0.792-0.072,1.53v4.537c0,1.009,0.019,1.387,0.091,1.854h-1.207v-1.044h-2.826v3.565
		c0,0.954,0.035,1.674,0.107,2.196h-1.351c0.091-0.63,0.126-1.225,0.126-2.179v-3.583h-2.611v1.062h-1.17
		c0.055-0.504,0.09-0.954,0.09-1.873v-4.555c0-0.685-0.018-1.062-0.072-1.513c0.396,0.054,0.883,0.072,1.711,0.072h2.053V21.487z
		 M121.334,24.17v4.735h2.593V24.17H121.334z M127.871,28.905V24.17h-2.826v4.735H127.871z"/>
	<path fill="#6D5D4B" d="M139.875,19.669c-0.054,0.306-0.09,1.044-0.09,1.603c0,1.044,0.198,2.917,0.396,3.907
		c0.306,1.458,1.278,3.564,2.322,5.041c0.721,1.009,1.693,2.035,2.665,2.845c0.576,0.486,1.044,0.792,2.089,1.404
		c-0.433,0.396-0.631,0.612-0.937,1.135c-2.196-1.494-3.493-2.755-4.771-4.609c-1.116-1.639-1.8-3.313-2.341-5.726
		c-0.324,1.71-0.63,2.683-1.242,4.015c-0.631,1.387-1.422,2.539-2.574,3.691c-1.009,1.044-1.747,1.639-3.313,2.629
		c-0.306-0.486-0.522-0.721-0.972-1.062c1.818-1.008,2.628-1.603,3.672-2.719c2.521-2.683,3.746-6.14,3.746-10.587
		c0-0.721-0.019-1.099-0.09-1.566H139.875z"/>
	<path fill="#6D5D4B" d="M154.58,24.782c1.026-1.135,1.729-2.125,2.467-3.475c0.234-0.433,0.414-0.865,0.504-1.188l1.117,0.647
		c-0.181,0.217-0.252,0.324-0.433,0.631c-0.919,1.603-1.386,2.269-2.323,3.385h0.576c0.919,0,1.404-0.018,1.891-0.09v1.134
		c-0.504-0.054-0.99-0.071-1.729-0.071h-1.62c-0.647,0.666-1.368,1.332-2.052,1.908h2.664c0.811,0,1.297-0.018,1.639-0.072
		c-0.055,0.486-0.055,0.792-0.055,1.891v4.178c0,0.846,0.019,1.314,0.072,1.782h-1.135v-0.811h-4.051v1.099h-1.17
		c0.054-0.36,0.107-1.116,0.107-1.963v-4.573c-0.936,0.702-0.953,0.721-1.801,1.278c-0.197-0.45-0.323-0.63-0.629-0.972
		c1.872-1.009,3.528-2.233,5.023-3.745h-2.575c-0.9,0-1.333,0.018-1.837,0.107v-1.188c0.504,0.091,0.937,0.108,1.837,0.108h1.854
		v-2.287h-1.332c-0.738,0-1.152,0.019-1.639,0.091v-1.171c0.432,0.09,0.828,0.108,1.639,0.108h1.332v-0.595
		c0-0.702-0.036-1.116-0.107-1.584h1.296c-0.072,0.414-0.091,0.846-0.091,1.584v0.595h0.559c0.738,0,1.045-0.019,1.477-0.108v1.152
		c-0.504-0.054-0.846-0.072-1.404-0.072h-0.631v2.287H154.58z M152.113,30.562h4.051V28.6h-4.051V30.562z M152.113,33.677h4.051
		v-2.179h-4.051V33.677z M165.167,20.659c-0.127,0.252-0.127,0.252-0.775,1.71c-0.467,1.026-0.99,2.071-1.764,3.439
		c0.973,0.972,1.387,1.513,1.818,2.413c0.469,0.936,0.702,1.89,0.702,2.79c0,1.045-0.343,1.765-0.99,2.125
		c-0.396,0.216-0.9,0.306-1.837,0.306c-0.324,0-0.611-0.018-1.188-0.054c-0.037-0.504-0.09-0.792-0.252-1.225
		c0.647,0.108,1.134,0.162,1.619,0.162c0.631,0,0.991-0.107,1.171-0.342c0.181-0.216,0.271-0.612,0.271-1.116
		c0-0.973-0.307-2.017-0.847-2.899c-0.414-0.702-0.81-1.152-1.765-1.998c1.152-1.963,1.711-3.133,2.395-5.006h-3.582v12.388
		c0,0.954,0.035,1.801,0.125,2.449h-1.367c0.071-0.486,0.107-1.135,0.107-2.467V21.56c0-0.595-0.018-1.026-0.072-1.639
		c0.469,0.036,0.793,0.054,1.477,0.054h2.826c0.686,0,1.081-0.018,1.387-0.072L165.167,20.659z"/>
	<path fill="#6D5D4B" d="M169.231,22.783c-0.829,0-1.405,0.036-1.999,0.108v-1.297c0.576,0.072,1.135,0.108,1.999,0.108h3.619
		c0.36-0.811,0.558-1.53,0.666-2.305l1.314,0.162c-0.091,0.198-0.108,0.252-0.36,0.99c-0.107,0.288-0.252,0.666-0.449,1.152h7.184
		c0.828,0,1.387-0.036,1.963-0.108v1.297c-0.541-0.072-1.207-0.108-1.963-0.108h-7.688c-0.36,0.721-0.792,1.44-1.224,2.035h6.571
		c0.919,0,1.386-0.019,1.927-0.09c-0.055,0.54-0.072,1.17-0.072,2.106v7.22c0,0.559-0.162,0.937-0.486,1.152
		c-0.27,0.181-0.63,0.234-1.512,0.234c-0.576,0-1.1-0.019-1.98-0.072c-0.055-0.486-0.109-0.72-0.271-1.152
		c0.9,0.145,1.514,0.181,2.287,0.181c0.703,0,0.828-0.091,0.828-0.541V31.66h-7.598v1.927c0,0.9,0.018,1.477,0.09,2.053h-1.332
		c0.072-0.631,0.107-1.278,0.107-2.053v-6.914c-1.025,1.17-1.836,1.927-3.295,3.024c-0.216-0.396-0.359-0.558-0.792-0.918
		c1.314-0.847,2.448-1.818,3.547-3.061c0.829-0.919,1.423-1.801,2.034-2.936H169.231z M179.583,27.753v-1.908h-7.598v1.908H179.583z
		 M171.986,30.688h7.598v-1.962h-7.598V30.688z"/>
</g>
<g enable-background="new    ">
	<path fill="#6D5D4B" d="M190.112,32.885c0,1.494-1.206,2.7-2.7,2.7c-1.495,0-2.701-1.206-2.701-2.7
		c0-1.495,1.206-2.701,2.701-2.701C188.906,30.184,190.112,31.39,190.112,32.885z M185.737,32.885c0,0.918,0.756,1.675,1.675,1.675
		c0.918,0,1.674-0.757,1.674-1.675c0-0.919-0.756-1.675-1.674-1.675C186.493,31.21,185.737,31.966,185.737,32.885z"/>
</g>
</svg>
