<?xml version="1.0" encoding="utf-8"?>
<!-- Generator: Adobe Illustrator 16.0.0, SVG Export Plug-In . SVG Version: 6.00 Build 0)  -->
<!DOCTYPE svg PUBLIC "-//W3C//DTD SVG 1.1//EN" "http://www.w3.org/Graphics/SVG/1.1/DTD/svg11.dtd">
<svg version="1.1" id="Layer_1" xmlns="http://www.w3.org/2000/svg" xmlns:xlink="http://www.w3.org/1999/xlink" x="0px" y="0px"
	 width="220.875px" height="138.951px" viewBox="0 0 220.875 138.951" enable-background="new 0 0 220.875 138.951"
	 xml:space="preserve">
<path fill="#FFEBA2" d="M180.541,0.293L25.369,0v0.185C24.457,0.075,23.533,0,22.591,0C10.045,0-0.126,10.073-0.126,22.498v45.123
	c0,12.426,10.171,22.498,22.717,22.498c0.942,0,1.866-0.074,2.778-0.185v0.185l155.171,0.293c12.545,0,22.715-10.072,22.715-22.498
	V22.791C203.255,10.366,193.085,0.293,180.541,0.293"/>
<path fill="#FFEBA2" d="M157.867,83.08c0-13.703,8.516-25.41,20.539-30.129c-3.656-1.436-7.634-2.232-11.799-2.232
	c-17.861,0-32.34,14.488-32.34,32.361s14.479,32.36,32.34,32.36c4.165,0,8.143-0.797,11.799-2.229
	C166.382,108.49,157.867,96.785,157.867,83.08"/>
<g enable-background="new    ">
	<path fill="#6D5D4B" d="M29.172,36.994c-0.684-1.135-1.207-1.909-1.8-2.737c-1.261,2.557-2.449,4.033-4.556,5.636
		c-0.324-0.559-0.36-0.612-0.792-1.008c1.638-1.243,2.557-2.197,3.493-3.71c0.378-0.576,0.792-1.368,1.062-1.98
		c-0.99-1.314-1.765-2.179-3.529-3.961l0.846-0.72c0.972,0.99,2.197,2.34,3.151,3.492c0.54-1.476,0.846-2.881,1.17-5.257h-4.159
		c-0.667,0-1.099,0.018-1.549,0.09v-1.261c0.45,0.072,0.882,0.09,1.567,0.09h4.051c0.594,0,0.973-0.018,1.423-0.054
		c-0.09,0.522-0.09,0.54-0.18,1.261c-0.27,2.25-0.774,4.339-1.495,6.193c0.954,1.278,1.477,1.999,2.233,3.098L29.172,36.994z
		 M36.896,28.063c0.721,0,1.243-0.036,1.711-0.108v1.225c-0.504-0.055-1.044-0.09-1.693-0.09H36.23v9.452
		c0,1.152-0.342,1.387-2.017,1.387c-0.558,0-1.044-0.019-1.782-0.072c-0.072-0.54-0.108-0.684-0.306-1.17
		c0.792,0.126,1.386,0.18,2.07,0.18c0.756,0,0.9-0.072,0.9-0.486v-9.29h-3.367c-0.738,0-1.44,0.035-1.89,0.107v-1.242
		c0.486,0.072,1.134,0.108,1.872,0.108h3.385v-1.819c0-0.864-0.036-1.53-0.126-2.106h1.368c-0.072,0.631-0.108,1.261-0.108,2.125
		v1.801H36.896z M32.54,35.283c-0.756-1.765-1.243-2.646-2.305-4.105l0.9-0.576c1.188,1.675,1.711,2.557,2.413,4.088L32.54,35.283z"
		/>
	<path fill="#6D5D4B" d="M42.599,34.113c-0.234,2.881-0.684,4.519-1.657,6.104c-0.072-0.072-0.126-0.145-0.162-0.198
		c-0.27-0.324-0.342-0.396-0.756-0.666c1.314-2.089,1.638-4.411,1.638-11.722c0-2.034-0.018-2.448-0.09-2.988
		c0.486,0.054,0.936,0.071,1.747,0.071h2.485c0.81,0,1.242-0.018,1.729-0.071c-0.054,0.432-0.072,0.99-0.072,1.71v12.063
		c0,1.116-0.414,1.44-1.836,1.44c-0.378,0-0.846-0.018-1.566-0.072c-0.054-0.485-0.108-0.72-0.306-1.206
		c0.864,0.145,1.495,0.216,2.035,0.216c0.432,0,0.558-0.126,0.558-0.612v-4.068H42.599z M42.743,29.81c0,1.351,0,1.351-0.09,3.331
		h3.691V29.81H42.743z M46.344,28.837v-3.133h-3.583v3.133H46.344z M50.432,34.095c-0.216,2.719-0.738,4.502-1.711,5.906
		c-0.342-0.414-0.504-0.576-0.936-0.847c1.404-1.98,1.729-4.268,1.729-12.243c0-1.333-0.018-1.765-0.072-2.269
		c0.504,0.054,0.918,0.071,1.729,0.071h2.827c0.792,0,1.224-0.018,1.71-0.071c-0.054,0.414-0.072,0.954-0.072,1.746v11.793
		c0,1.351-0.36,1.693-1.818,1.693c-0.54,0-1.062-0.019-1.765-0.091c-0.054-0.54-0.108-0.773-0.306-1.26
		c0.846,0.162,1.458,0.233,2.071,0.233c0.63,0,0.702-0.09,0.702-0.72v-3.943H50.432z M50.611,29.81
		c-0.036,2.125-0.036,2.125-0.108,3.331h4.015V29.81H50.611z M54.519,28.837v-3.133h-3.889v3.133H54.519z"/>
	<path fill="#6D5D4B" d="M72.123,31.034c-0.108,0.18-0.198,0.342-0.504,0.972c-0.756,1.495-1.71,2.846-2.881,4.069
		c0.937,0.685,1.207,0.883,1.927,1.278c1.314,0.738,2.377,1.171,4.069,1.621c-0.396,0.432-0.558,0.666-0.792,1.17
		c-2.376-0.828-4.429-1.944-6.014-3.295c-1.783,1.566-3.421,2.449-6.122,3.313c-0.198-0.469-0.342-0.685-0.721-1.099
		c2.629-0.702,4.231-1.494,5.996-2.953c-1.495-1.513-2.269-2.665-2.989-4.394c-0.991,3.367-2.449,5.708-5.06,8.085
		c-0.468-0.612-0.522-0.666-0.9-0.954c1.26-1.062,1.945-1.783,2.737-2.936c1.477-2.124,2.395-4.789,2.791-8.192h-3.295
		c-0.774,0-1.458,0.036-1.891,0.108v-1.297c0.504,0.072,1.08,0.108,1.891,0.108h3.421c0.054-0.612,0.108-1.332,0.108-1.801
		c0-0.342-0.018-0.576-0.072-0.972l1.404,0.018c-0.072,0.36-0.09,0.559-0.162,1.692c-0.036,0.45-0.054,0.685-0.09,1.062h7.562
		c0.828,0,1.386-0.036,1.909-0.108v1.297c-0.576-0.072-1.062-0.108-1.909-0.108h-7.688c-0.144,1.242-0.234,1.765-0.432,2.665h5.474
		c0.792,0,1.225-0.018,1.603-0.09L72.123,31.034z M65.101,31.412c0.432,0.99,0.684,1.44,1.278,2.251
		c0.504,0.666,0.882,1.098,1.512,1.692c1.17-1.188,2.035-2.449,2.755-3.943H65.101z"/>
	<path fill="#6D5D4B" d="M75.934,31.971c0.541-1.459,0.756-2.575,0.864-4.556l0.955,0.252c-0.162,2.053-0.36,3.187-0.864,4.699
		L75.934,31.971z M79.715,23.868c-0.09,0.594-0.108,1.044-0.108,2.106v12.046c0,1.062,0.036,1.638,0.108,2.179h-1.333
		c0.072-0.522,0.108-1.188,0.108-2.197V25.975c0-1.026-0.018-1.494-0.108-2.106H79.715z M80.796,30.674
		c-0.198-1.278-0.396-1.927-0.829-2.935l0.738-0.343c0.45,1.081,0.667,1.747,0.9,2.863L80.796,30.674z M86.755,28.855h-1.548
		c-0.522,0-0.918,0.018-1.296,0.072v-1.062c0.414,0.072,0.738,0.09,1.333,0.09h1.512v-0.09c0-0.342-0.036-0.738-0.072-1.026h1.134
		c-0.054,0.396-0.072,0.702-0.072,1.026v0.09h1.927c0.612,0,1.062-0.018,1.404-0.054c-0.036,0.359-0.054,0.63-0.054,1.08v1.188
		h0.072c0.558,0,0.918-0.036,1.296-0.108v1.152c-0.378-0.072-0.738-0.107-1.296-0.107h-0.072v1.26c0,0.469,0.018,0.811,0.054,1.152
		c-0.414-0.036-0.792-0.054-1.26-0.054h-1.962c0.45,0.9,0.666,1.242,1.386,2.179c0.81-0.702,1.225-1.152,1.639-1.854l0.9,0.612
		c-0.666,0.738-1.422,1.494-1.962,1.926c0.918,1.009,1.801,1.675,2.989,2.27c-0.306,0.359-0.468,0.611-0.684,1.062
		c-1.17-0.792-1.747-1.26-2.485-2.053c-0.792-0.863-1.224-1.494-1.98-2.952c0.054,0.702,0.09,1.44,0.09,1.782v2.305
		c0,0.99-0.378,1.314-1.53,1.314c-0.45,0-0.918-0.036-1.44-0.09c-0.036-0.486-0.072-0.631-0.234-1.135
		c0.54,0.145,1.152,0.217,1.603,0.217c0.504,0,0.612-0.072,0.612-0.415v-1.729c-1.008,0.648-1.782,1.062-3.277,1.747
		c-0.216,0.09-0.378,0.162-0.558,0.27l-0.432-1.062c1.08-0.198,2.376-0.793,4.267-1.945v-2.448h-1.656
		c-0.486,0-0.846,0.018-1.243,0.072v-1.026c0.342,0.054,0.559,0.071,1.243,0.071h1.656v-1.476h-3.727
		c-0.108,2.719-0.144,3.15-0.36,4.501c-0.27,1.675-0.63,2.772-1.369,4.177c-0.306-0.359-0.54-0.558-0.936-0.792
		c1.314-2.286,1.638-4.537,1.638-11.434c0-1.242-0.018-1.638-0.072-2.124c0.468,0.054,1.044,0.071,1.782,0.071h2.935
		c-0.27-0.468-0.45-0.737-0.774-1.188l0.882-0.45c0.486,0.63,0.522,0.702,1.099,1.638h2.628c0.702,0,1.188-0.035,1.729-0.107v1.134
		c-0.504-0.071-0.936-0.09-1.729-0.09h-7.4v1.278c0,0.379-0.018,1.188-0.036,2.449h3.709V28.855z M84.127,33.825
		c0.72,0.666,1.152,1.116,1.674,1.746l-0.738,0.702c-0.504-0.738-0.918-1.206-1.639-1.818L84.127,33.825z M90.05,30.17v-1.314
		h-2.305v1.314H90.05z M90.05,32.582v-1.476h-2.305v1.476H90.05z"/>
	<path fill="#6D5D4B" d="M93.79,32.114c0.468-1.477,0.63-2.557,0.756-4.844l0.9,0.126c-0.108,2.125-0.306,3.457-0.738,5.078
		L93.79,32.114z M95.879,40.289c0.072-0.505,0.108-1.242,0.108-2.053V25.704c0-0.756-0.036-1.296-0.108-1.818h1.296
		c-0.072,0.54-0.108,1.026-0.108,1.818v12.604c0,0.828,0.036,1.494,0.108,1.98H95.879z M98.021,30.98
		c-0.126-1.314-0.306-2.179-0.702-3.386l0.774-0.27c0.36,1.17,0.54,1.944,0.756,3.331L98.021,30.98z M100.074,36.777
		c0.882-0.485,1.242-0.702,2.431-1.494c-0.45-0.828-0.594-1.044-1.099-1.729l0.829-0.396c0.72,1.009,1.224,1.837,1.944,3.205
		l-0.918,0.559c-0.162-0.396-0.234-0.576-0.324-0.792c-1.351,0.882-2.359,1.512-3.691,2.25l-0.559-0.936
		c0.271-0.162,0.342-0.271,0.396-0.541V26.461c0-0.883-0.018-1.404-0.072-1.854c0.378,0.036,0.811,0.054,1.387,0.054h1.854
		c0.594,0,0.954-0.018,1.404-0.054c-0.054,0.396-0.072,0.828-0.072,1.729v4.537c0,1.026,0.018,1.261,0.072,1.656
		c-0.324-0.054-0.594-0.072-1.548-0.072h-2.035V36.777z M102.595,28.027v-2.395h-2.521v2.395H102.595z M100.074,31.502h2.521v-2.539
		h-2.521V31.502z M105.313,32.042c-0.45,0-0.918,0.036-1.206,0.072c0.108-0.432,0.234-1.278,0.378-2.269l0.252-2.035
		c0.054-0.63,0.072-0.954,0.072-0.972c0-0.09,0-0.126,0-0.234l1.152,0.09c-0.036,0.126-0.09,0.505-0.18,1.116l-0.432,3.224h1.53
		c0.342-1.729,0.415-2.467,0.541-5.366h-1.693c-0.828,0-1.116,0.019-1.53,0.055v-1.099c0.468,0.072,0.828,0.09,1.422,0.09h3.331
		c0.522,0,0.937-0.018,1.422-0.09v1.116c-0.54-0.054-0.846-0.072-1.368-0.072h-0.522c-0.018,0.469-0.018,0.486-0.054,0.99
		c-0.072,1.711-0.216,2.881-0.522,4.376h1.513c0.558,0,0.81-0.019,1.134-0.09v1.188c-0.36-0.055-0.702-0.091-1.116-0.091h-1.747
		c-0.198,0.847-0.252,0.99-0.45,1.585h0.648c-0.072,0.324-0.09,0.63-0.09,1.17l-0.018,3.583c0,0.433,0.162,0.522,0.846,0.522
		c0.774,0,0.991-0.108,1.099-0.486c0.126-0.468,0.162-1.08,0.198-2.395c0.414,0.234,0.63,0.342,0.99,0.432
		c-0.18,3.098-0.414,3.439-2.305,3.439c-1.494,0-1.854-0.216-1.854-1.08l0.018-4.105c-0.504,1.009-1.026,1.818-1.71,2.665
		c-0.846,1.044-1.53,1.656-3.079,2.845c-0.27-0.307-0.36-0.414-0.45-0.468c-0.324-0.234-0.324-0.234-0.45-0.343
		c0.756-0.468,1.26-0.864,2.287-1.782c1.17-1.08,2.161-2.503,2.755-3.979c0.216-0.54,0.306-0.792,0.522-1.603H105.313z"/>
	<path fill="#6D5D4B" d="M128.337,32.601c-0.648-0.09-1.261-0.126-2.377-0.126h-11.092c-0.99,0-1.818,0.036-2.395,0.126v-1.494
		c0.576,0.09,1.351,0.126,2.395,0.126h11.092c1.062,0,1.836-0.036,2.377-0.126V32.601z"/>
</g>
<g enable-background="new    ">
	<path fill="#6D5D4B" d="M129.773,39.515c0.684-0.648,0.953-0.99,1.404-1.692c0.468-0.738,0.648-1.152,0.972-2.125l1.062,0.469
		c-0.685,1.71-1.296,2.754-2.377,3.997L129.773,39.515z M143.205,26.227c0.756,0,1.297-0.036,1.801-0.108v1.243
		c-0.613-0.072-1.171-0.108-1.801-0.108h-5.078v2.377h3.476c0.99,0,1.548-0.019,2.034-0.091c-0.054,0.396-0.072,0.811-0.072,1.351
		v2.881c0,0.54,0.019,0.864,0.072,1.297c-0.611-0.054-1.044-0.072-1.854-0.072h-7.761c-0.791,0-1.277,0.019-1.854,0.072
		c0.054-0.433,0.072-0.828,0.072-1.297V30.89c0-0.504-0.019-0.882-0.072-1.351c0.539,0.055,1.206,0.091,2.034,0.091h2.755v-3.907
		c0-0.666-0.036-1.242-0.126-1.783h1.423c-0.09,0.505-0.127,1.045-0.127,1.711v0.576H143.205z M133.392,30.674v3.259h9.02v-3.259
		H133.392z M135.48,40.181c0-1.549-0.107-2.503-0.396-3.961l1.027-0.181c0.342,1.603,0.485,2.539,0.558,3.89L135.48,40.181z
		 M139.963,40.199c-0.343-1.477-0.685-2.432-1.423-3.962l0.99-0.324c0.703,1.405,1.099,2.377,1.585,3.8L139.963,40.199z
		 M144.554,40.163c-0.81-1.729-1.332-2.629-2.395-4.069l0.99-0.45c1.099,1.513,1.531,2.179,2.467,3.871L144.554,40.163z"/>
</g>
<g enable-background="new    ">
	<path fill="#6D5D4B" d="M153.39,24.588c-0.09,0.504-0.107,0.864-0.107,1.513v3.475c0,3.169-0.379,5.366-1.225,7.076
		c-0.666,1.369-1.495,2.305-3.025,3.439c-0.359-0.486-0.594-0.738-1.008-1.009c1.529-0.954,2.358-1.836,3.006-3.223
		c0.721-1.53,1.027-3.331,1.027-6.176v-3.583c0-0.738-0.019-1.026-0.108-1.513H153.39z M158.935,24.643
		c-0.09,0.54-0.125,1.08-0.125,1.8v11.452c0,0.504,0.234,0.594,1.548,0.594c1.368,0,1.854-0.09,2.089-0.378s0.324-1.081,0.324-2.863
		c0.449,0.307,0.684,0.414,1.188,0.559c-0.071,1.656-0.215,2.503-0.504,3.043c-0.359,0.63-0.99,0.792-3.24,0.792
		c-2.18,0-2.629-0.271-2.629-1.549V26.442c0-0.792-0.018-1.242-0.108-1.8H158.935z"/>
	<path fill="#6D5D4B" d="M171.625,37.372c0,1.494-1.207,2.7-2.701,2.7s-2.701-1.206-2.701-2.7c0-1.495,1.207-2.701,2.701-2.701
		S171.625,35.877,171.625,37.372z M167.25,37.372c0,0.918,0.756,1.675,1.674,1.675s1.674-0.757,1.674-1.675
		c0-0.919-0.756-1.675-1.674-1.675S167.25,36.453,167.25,37.372z"/>
</g>
<g enable-background="new    ">
	<path fill="#6D5D4B" d="M24.401,54.307c-0.684,0-1.386,0.036-1.962,0.108v-1.314c0.558,0.071,1.152,0.107,1.944,0.107h11.974
		c0.864,0,1.44-0.036,1.963-0.107v1.314c-0.559-0.072-1.207-0.108-1.945-0.108h-4.519c-0.433,0.882-0.648,1.278-1.152,2.017v9.975
		c0,0.738,0.036,1.333,0.126,1.945h-1.477c0.072-0.595,0.126-1.279,0.126-1.945V59.87c0-0.72,0.018-1.332,0.036-2.053
		c-0.667,0.918-1.603,1.909-2.755,2.917c-1.099,0.99-2.215,1.801-3.889,2.827c-0.216-0.396-0.396-0.631-0.828-1.062
		c2.323-1.261,3.925-2.484,5.582-4.178c1.26-1.332,2.161-2.593,2.845-4.015H24.401z M32.215,57.35
		c1.783,1.206,4.538,3.385,6.5,5.149l-0.828,1.008c-0.973-0.972-1.387-1.332-3.169-2.79c-1.225-1.026-1.909-1.566-3.223-2.575
		L32.215,57.35z"/>
	<path fill="#6D5D4B" d="M54.411,54.522c0.936,0,1.512-0.036,1.962-0.107v1.26c-0.486-0.054-1.098-0.09-1.962-0.09h-7.742
		c-0.594,1.188-1.675,2.898-2.449,3.889v6.86c0,0.792,0.036,1.351,0.108,1.854h-1.369c0.072-0.468,0.108-0.99,0.108-1.854v-5.491
		c-0.811,0.9-1.135,1.224-2.035,1.98c-0.234-0.378-0.468-0.612-0.864-0.918c1.242-0.955,1.98-1.639,2.899-2.72
		c-0.018-0.485-0.036-0.792-0.09-1.152h0.99c0.63-0.882,0.864-1.242,1.495-2.448h-2.845c-0.9,0-1.495,0.036-1.98,0.09v-1.26
		c0.45,0.071,1.026,0.107,1.98,0.107h3.349c0.522-1.17,0.792-1.998,0.9-2.701l1.333,0.271c-0.108,0.198-0.18,0.36-0.342,0.811
		c-0.18,0.432-0.522,1.26-0.684,1.62H54.411z M53.78,60.194c0.846,0,1.278-0.036,1.71-0.108v1.207
		c-0.486-0.055-0.954-0.072-1.71-0.072h-2.827v5.096h3.583c0.882,0,1.351-0.019,1.783-0.091v1.243
		c-0.685-0.072-1.17-0.108-1.801-0.108h-7.814c-0.72,0-1.278,0.036-1.8,0.108v-1.243c0.54,0.055,1.08,0.091,1.8,0.091h3.061v-5.096
		h-2.413c-0.774,0-1.242,0.018-1.729,0.072v-1.207c0.432,0.072,0.864,0.108,1.729,0.108h2.413v-1.53
		c0-0.973-0.036-1.477-0.108-1.909h1.404c-0.072,0.396-0.108,0.9-0.108,1.927v1.513H53.78z"/>
	<path fill="#6D5D4B" d="M67.261,60.015h5.383c0.774,0,1.333-0.036,1.819-0.108v1.296c-0.522-0.071-1.081-0.107-1.819-0.107h-5.383
		v5.329c0,1.351-0.36,1.566-2.557,1.566c-0.576,0-1.188-0.018-1.8-0.054c-0.072-0.54-0.162-0.846-0.342-1.242
		c0.973,0.126,1.675,0.18,2.413,0.18c0.972,0,1.062-0.054,1.062-0.576v-5.203h-5.833c-0.738,0-1.296,0.036-1.819,0.107v-1.296
		c0.486,0.072,1.044,0.108,1.819,0.108h5.833v-5.6c-2.305,0.287-3.529,0.378-6.32,0.485c-0.126-0.485-0.216-0.684-0.468-1.116
		c4.033,0,7.437-0.378,10.587-1.17c0.972-0.252,1.692-0.486,2.143-0.738l0.864,1.116c-0.27,0.054-0.27,0.054-1.495,0.396
		c-1.188,0.323-3.061,0.72-4.087,0.864V60.015z M62.85,59.42c-0.684-1.729-1.044-2.377-1.98-3.619l1.044-0.468
		c0.864,1.188,1.333,1.998,2.035,3.564L62.85,59.42z M69.08,59.042c1.242-1.513,1.854-2.611,2.539-4.592l1.152,0.541
		c-0.972,2.178-1.584,3.24-2.665,4.591L69.08,59.042z"/>
	<path fill="#6D5D4B" d="M80.147,61.707c-0.234,1.062-0.504,1.944-0.882,2.862c-0.576,1.387-1.062,2.161-2.232,3.547
		c-0.27-0.359-0.522-0.611-0.9-0.882c1.026-1.08,1.495-1.782,2.035-2.971c0.36-0.811,0.576-1.44,0.846-2.557h-0.72
		c-0.738,0-1.08,0.018-1.53,0.09v-1.188c0.396,0.072,0.738,0.09,1.458,0.09h1.009c0.126-0.774,0.216-1.513,0.342-3.061h-1.314
		c-0.702,0-1.08,0.018-1.494,0.09v-1.188c0.45,0.072,0.738,0.09,1.494,0.09h1.369c0.018-0.521,0.018-0.521,0.054-2.826h-1.278
		c-0.81,0-1.278,0.036-1.71,0.107v-1.242c0.414,0.072,0.972,0.108,1.818,0.108h4.357c0.792,0,1.44-0.036,1.854-0.09
		c-0.054,0.414-0.054,0.414-0.09,2.574c-0.054,4.718-0.306,8.931-0.63,10.695c-0.144,0.811-0.288,1.17-0.54,1.44
		c-0.306,0.324-0.738,0.45-1.512,0.45c-0.756,0-1.261-0.019-2.017-0.072c-0.036-0.522-0.09-0.738-0.288-1.225
		c0.828,0.145,1.494,0.198,2.214,0.198c0.63,0,0.864-0.198,0.99-0.828c0.18-0.937,0.342-2.448,0.45-4.213H80.147z M80.67,57.638
		c-0.072,1.225-0.162,2.017-0.324,3.061h3.025c0.054-1.044,0.072-1.387,0.108-3.061H80.67z M83.497,56.629
		c0.036-1.152,0.036-2.088,0.036-2.826h-2.755c-0.018,2.143-0.018,2.143-0.054,2.826H83.497z M92.427,53.442
		c-0.072,0.144-0.126,0.216-0.288,0.594c-0.756,1.729-1.477,3.115-2.359,4.556c1.188,1.062,1.657,1.639,2.089,2.539
		c0.342,0.72,0.522,1.512,0.522,2.305c0,0.99-0.324,1.692-0.936,2.053c-0.342,0.216-0.864,0.323-1.584,0.323
		c-0.504,0-0.937-0.018-1.531-0.071c-0.018-0.505-0.072-0.811-0.216-1.225c0.774,0.144,1.134,0.18,1.747,0.18
		c0.972,0,1.35-0.378,1.35-1.368c0-0.774-0.198-1.458-0.576-2.179c-0.486-0.882-0.972-1.404-2.196-2.358
		c1.17-1.854,1.764-3.007,2.557-5.023h-3.637v12.352c0,0.918,0.018,1.477,0.108,2.053h-1.332c0.072-0.504,0.108-1.045,0.108-2.053
		V54.343c0-0.595-0.018-1.026-0.072-1.639c0.486,0.036,0.829,0.054,1.458,0.054h2.881c0.666,0,1.062-0.018,1.369-0.071
		L92.427,53.442z"/>
	<path fill="#6D5D4B" d="M110.337,60.645c-0.648-0.09-1.26-0.126-2.376-0.126H96.869c-0.99,0-1.818,0.036-2.395,0.126V59.15
		c0.576,0.09,1.35,0.126,2.395,0.126h11.091c1.062,0,1.836-0.036,2.376-0.126V60.645z"/>
</g>
<g enable-background="new    ">
	<path fill="#6D5D4B" d="M119.172,63.003c-0.378-1.098-0.828-2.196-1.278-3.024c-0.198,0.864-0.379,1.44-0.702,2.179
		c-0.54,1.206-0.972,1.836-2.053,2.988c-0.324-0.486-0.522-0.72-0.81-0.936c1.025-0.865,1.71-1.909,2.232-3.422
		c0.324-0.9,0.521-1.98,0.63-3.24h-2.935v8.696c0,0.828,0.035,1.458,0.107,1.98h-1.35c0.071-0.576,0.107-1.188,0.107-1.98v-8.085
		c0-0.63-0.018-1.188-0.072-1.71c0.469,0.054,0.9,0.072,1.656,0.072h2.557c0.037-0.667,0.055-1.278,0.055-2.773h-3.367
		c-0.738,0-1.26,0.036-1.891,0.108v-1.225c0.576,0.072,1.117,0.108,1.891,0.108h12.082c0.738,0,1.35-0.036,1.891-0.108v1.225
		c-0.559-0.072-1.189-0.108-1.891-0.108h-3.151c-0.019,1.243-0.019,1.243-0.09,2.773h2.467c0.738,0,1.206-0.019,1.692-0.072
		c-0.055,0.504-0.072,0.973-0.072,1.656v8.535c0,0.684-0.145,1.008-0.559,1.206c-0.27,0.144-0.684,0.198-1.512,0.198
		c-0.576,0-1.17-0.036-2.107-0.126c-0.035-0.559-0.09-0.793-0.252-1.225c1.062,0.216,1.783,0.288,2.575,0.288
		c0.595,0,0.72-0.09,0.72-0.504v-8.931h-3.024c-0.036,0.342-0.036,0.504-0.09,0.972c0.181,0.324,0.181,0.324,0.595,1.009
		c0.684,1.188,1.764,3.223,2.395,4.52l-0.918,0.684c-1.207-2.665-1.262-2.772-2.323-4.753c-0.126,0.576-0.414,1.351-0.774,2.16
		c-0.594,1.297-1.026,1.944-1.98,2.953c-0.234-0.36-0.432-0.595-0.774-0.9c1.062-0.918,1.71-1.891,2.215-3.385
		c0.324-0.919,0.54-2.106,0.63-3.259h-3.421c-0.054,0.432-0.054,0.432-0.126,0.99c0.846,1.477,1.225,2.215,1.908,3.673
		L119.172,63.003z M118.434,53.748c-0.036,1.621-0.036,1.692-0.09,2.773h3.421c0.055-1.333,0.055-1.333,0.055-2.143v-0.631H118.434z
		"/>
</g>
<g enable-background="new    ">
	<path fill="#6D5D4B" d="M133.787,56.737c0.631,0,0.955-0.018,1.352-0.072v1.152c-0.595-0.054-0.847-0.072-1.314-0.072h-0.595v5.51
		c0.702-0.252,1.009-0.378,1.909-0.773l0.035,1.134c-1.62,0.666-2.322,0.937-4.23,1.585c-0.379,0.107-0.811,0.27-0.955,0.342
		l-0.324-1.242c0.541-0.072,1.441-0.324,2.467-0.666v-5.889h-0.863c-0.541,0-0.955,0.019-1.423,0.091v-1.188
		c0.468,0.054,0.9,0.09,1.44,0.09h0.846v-2.665c0-0.882-0.035-1.44-0.107-1.98h1.314c-0.09,0.576-0.108,1.08-0.108,1.999v2.646
		H133.787z M139.009,60.032c0.144-0.937,0.216-2.053,0.216-3.385v-0.793h-1.692c-0.774,0-1.261,0.019-1.746,0.091v-1.207
		c0.504,0.072,0.972,0.091,1.764,0.091h1.675v-1.062c0-0.774-0.036-1.242-0.126-1.783h1.332c-0.09,0.522-0.107,0.883-0.107,1.783
		v1.062h2.557c0.792,0,1.188-0.019,1.566-0.072c-0.055,0.378-0.072,0.846-0.072,1.566v3.709h0.126c0.648,0,1.099-0.036,1.585-0.108
		v1.243c-0.469-0.072-1.099-0.108-1.801-0.108h-3.619c0.973,2.629,2.773,4.591,5.527,5.96c-0.359,0.414-0.521,0.648-0.738,1.17
		c-2.898-1.729-4.717-3.853-5.672-6.662c-0.414,1.513-0.756,2.323-1.387,3.295c-0.899,1.387-1.926,2.305-3.78,3.386
		c-0.198-0.45-0.396-0.702-0.811-1.026c1.062-0.486,1.603-0.828,2.341-1.477c1.332-1.207,2.179-2.665,2.665-4.646h-1.819
		c-0.756,0-1.422,0.036-1.891,0.108v-1.243c0.451,0.072,1.062,0.108,1.873,0.108H139.009z M143.258,60.032v-4.178h-2.935v0.541
		c0,1.296-0.09,2.538-0.234,3.637H143.258z"/>
</g>
<g enable-background="new    ">
	<path fill="#6D5D4B" d="M149.878,55.135c-0.539,1.009-0.936,1.549-1.674,2.395c-0.252-0.432-0.414-0.63-0.756-0.954
		c0.953-1.008,1.512-1.873,2.07-3.205c0.197-0.504,0.324-0.864,0.414-1.351l1.26,0.324c-0.144,0.271-0.233,0.45-0.611,1.351
		c-0.055,0.126-0.108,0.234-0.198,0.414h2.448c0.847,0,1.351-0.036,1.729-0.09v1.206c-0.486-0.072-0.954-0.09-1.729-0.09H149.878z
		 M149.554,61.995c-0.684,0-1.242,0.036-1.691,0.09v-1.171c0.449,0.055,0.99,0.091,1.71,0.091h1.152v-2.737h-0.847
		c-0.342,0-0.882,0.036-1.188,0.072v-1.135c0.342,0.055,0.666,0.072,1.206,0.072h2.935c0.504,0,0.865-0.018,1.207-0.072v1.116
		c-0.396-0.035-0.793-0.054-1.207-0.054h-0.99v2.737h0.865c0.701,0,1.152-0.019,1.656-0.091v1.171
		c-0.576-0.072-1.08-0.09-1.656-0.09h-0.865V66.1c0.9-0.396,1.675-0.792,2.755-1.458l0.036,1.278
		c-0.612,0.378-1.692,0.954-2.736,1.458c-0.828,0.396-0.9,0.433-1.08,0.522l-0.505-1.17c0.271-0.145,0.36-0.252,0.414-0.505v-4.23
		H149.554z M163.33,61.869c-0.217,0.216-0.252,0.252-0.576,0.684c-0.721,0.919-1.314,1.549-2.161,2.305
		c0.702,1.368,1.44,2.197,1.944,2.197c0.396,0,0.666-0.9,0.828-2.953c0.36,0.324,0.559,0.432,0.99,0.648
		c-0.306,2.502-0.773,3.493-1.711,3.493c-0.899,0-2.088-1.081-2.916-2.701c-1.656,1.242-2.988,1.98-4.934,2.755
		c-0.252-0.433-0.396-0.612-0.774-0.973c2.125-0.756,3.548-1.494,5.239-2.755c-0.468-1.17-0.648-1.818-0.99-3.673l-1.529,0.342
		c-0.595,0.126-1.189,0.288-1.604,0.45l-0.27-1.242c0.648-0.036,0.9-0.09,1.674-0.252l1.549-0.342c0-0.036,0-0.036-0.018-0.108
		c-0.108-0.828-0.108-0.828-0.271-2.629l-1.009,0.198c-0.72,0.144-1.188,0.252-1.62,0.396l-0.233-1.171
		c0.432-0.018,0.918-0.072,1.639-0.216l1.152-0.216c-0.234-3.025-0.234-3.025-0.414-3.89h1.386
		c-0.054,0.378-0.054,0.612-0.054,0.954c0,0.486,0.054,1.692,0.107,2.539c0,0.09,0,0.126,0.018,0.18l2.791-0.54
		c0.721-0.144,1.225-0.27,1.639-0.432l0.234,1.17c-0.54,0.055-0.721,0.072-1.692,0.271l-2.899,0.558
		c0.108,1.009,0.108,1.009,0.307,2.719l2.826-0.611c0.847-0.181,1.135-0.271,1.621-0.45l0.252,1.206
		c-0.504,0.036-0.99,0.126-1.692,0.27l-2.845,0.631c0.27,1.512,0.486,2.305,0.811,3.169c1.025-0.919,1.836-1.927,2.105-2.575
		L163.33,61.869z M160.197,52.362c0.918,0.414,1.512,0.756,2.52,1.477l-0.701,0.81c-0.828-0.684-1.495-1.099-2.467-1.548
		L160.197,52.362z"/>
</g>
<g enable-background="new    ">
	<path fill="#6D5D4B" d="M171.625,65.416c0,1.494-1.207,2.7-2.701,2.7s-2.701-1.206-2.701-2.7c0-1.495,1.207-2.701,2.701-2.701
		S171.625,63.921,171.625,65.416z M167.25,65.416c0,0.918,0.756,1.675,1.674,1.675s1.674-0.757,1.674-1.675
		c0-0.919-0.756-1.675-1.674-1.675S167.25,64.497,167.25,65.416z"/>
</g>
</svg>
