<?xml version="1.0" encoding="utf-8"?>
<!-- Generator: Adobe Illustrator 16.0.0, SVG Export Plug-In . SVG Version: 6.00 Build 0)  -->
<!DOCTYPE svg PUBLIC "-//W3C//DTD SVG 1.1//EN" "http://www.w3.org/Graphics/SVG/1.1/DTD/svg11.dtd">
<svg version="1.1" id="Layer_1" xmlns="http://www.w3.org/2000/svg" xmlns:xlink="http://www.w3.org/1999/xlink" x="0px" y="0px"
	 width="220.875px" height="138.951px" viewBox="0 0 220.875 138.951" enable-background="new 0 0 220.875 138.951"
	 xml:space="preserve">
<g>
	<g>
		<g>
			<defs>
				<rect id="SVGID_1_" x="-0.126" y="0.951" width="171.381" height="115.718"/>
			</defs>
			<clipPath id="SVGID_2_">
				<use xlink:href="#SVGID_1_"  overflow="visible"/>
			</clipPath>
			<path clip-path="url(#SVGID_2_)" fill="#FFEBA2" d="M130.854,1.011L25.369,0.951v0.185c-0.912-0.11-1.836-0.185-2.779-0.185
				c-12.546,0-22.716,10.072-22.716,22.498V69.08c0,12.426,10.17,22.499,22.716,22.499c0.943,0,1.867-0.075,2.779-0.186v0.186
				l105.484,0.061c12.545,0,22.715-10.072,22.715-22.499V23.509C153.568,11.084,143.398,1.011,130.854,1.011"/>
		</g>
	</g>
	<g>
		<g>
			<defs>
				<rect id="SVGID_3_" x="-0.126" y="0.951" width="171.381" height="115.718"/>
			</defs>
			<clipPath id="SVGID_4_">
				<use xlink:href="#SVGID_3_"  overflow="visible"/>
			</clipPath>
			<path clip-path="url(#SVGID_4_)" fill="#FFEBA2" d="M108.178,84.308c0-13.703,8.517-25.41,20.54-30.13
				c-3.655-1.435-7.635-2.229-11.799-2.229c-17.861,0-32.34,14.488-32.34,32.359c0,17.873,14.479,32.361,32.34,32.361
				c4.164,0,8.144-0.797,11.799-2.23C116.695,109.718,108.178,98.013,108.178,84.308"/>
		</g>
	</g>
</g>
<path fill="#6D5D4B" d="M22.935,25.694c-0.829,0-1.405,0.036-1.999,0.108v-1.297c0.576,0.072,1.134,0.108,1.999,0.108h3.619
	c0.36-0.811,0.558-1.53,0.666-2.305l1.314,0.162c-0.09,0.198-0.108,0.252-0.36,0.99c-0.108,0.288-0.252,0.666-0.45,1.152h7.184
	c0.828,0,1.386-0.036,1.962-0.108v1.297c-0.54-0.072-1.207-0.108-1.962-0.108H27.22c-0.36,0.721-0.792,1.44-1.224,2.035h6.572
	c0.918,0,1.386-0.019,1.926-0.09c-0.054,0.54-0.072,1.17-0.072,2.106v7.22c0,0.559-0.162,0.937-0.486,1.152
	c-0.27,0.181-0.63,0.234-1.512,0.234c-0.576,0-1.099-0.019-1.98-0.072c-0.054-0.486-0.108-0.72-0.271-1.152
	c0.9,0.145,1.513,0.181,2.287,0.181c0.702,0,0.828-0.091,0.828-0.541V34.57H25.69v1.927c0,0.9,0.018,1.477,0.09,2.053h-1.333
	c0.072-0.631,0.108-1.278,0.108-2.053v-6.914c-1.026,1.17-1.837,1.927-3.295,3.024c-0.216-0.396-0.36-0.558-0.792-0.918
	c1.314-0.847,2.449-1.818,3.547-3.061c0.829-0.919,1.422-1.801,2.035-2.936h-3.115V25.694z M33.288,30.664v-1.908H25.69v1.908
	H33.288z M25.69,33.599h7.598v-1.962H25.69V33.599z"/>
<path fill="#6D5D4B" d="M43.69,25.137c0.9-0.019,1.422-0.036,1.584-0.055c-0.036,0.469-0.054,0.937-0.054,1.585v9.165
	c0,0.81,0.036,1.422,0.09,1.854h-1.188v-1.152h-3.511v1.584h-1.207c0.072-0.468,0.09-1.134,0.09-2.196v-9.129
	c0-0.846-0.018-1.261-0.072-1.711c0.378,0.036,0.702,0.055,1.603,0.055h0.36c0.36-0.883,0.63-1.783,0.774-2.719l1.278,0.252
	c-0.324,0.973-0.648,1.872-0.918,2.467H43.69z M40.611,30.142h3.511v-4.015h-3.511V30.142z M40.611,35.525h3.511v-4.393h-3.511
	V35.525z M53.053,25.118c0.72,0,1.224-0.018,1.584-0.071c-0.054,0.324-0.054,0.468-0.072,1.134
	c-0.162,7.13-0.396,9.543-1.044,10.983c-0.36,0.828-0.936,1.152-2.017,1.152c-0.648,0-1.17-0.036-2.287-0.126
	c-0.036-0.522-0.108-0.828-0.306-1.278c1.099,0.216,1.909,0.306,2.557,0.306c0.666,0,0.9-0.162,1.134-0.738
	c0.306-0.828,0.54-2.557,0.666-4.969c0.09-1.44,0.108-2.683,0.126-5.33h-5.186c-0.612,1.242-1.134,2.071-2.07,3.277
	c-0.234-0.307-0.559-0.612-0.864-0.811c1.098-1.17,1.98-2.7,2.646-4.537c0.252-0.685,0.432-1.351,0.468-1.747l1.242,0.234
	c-0.054,0.108-0.144,0.36-0.252,0.685c-0.216,0.63-0.396,1.116-0.684,1.836H53.053z M50.189,33.599
	c-1.008-2.16-1.692-3.295-2.736-4.555l0.918-0.559c1.134,1.368,1.891,2.557,2.845,4.483L50.189,33.599z"/>
<path fill="#6D5D4B" d="M65.579,22.58c-0.054,0.306-0.09,1.044-0.09,1.603c0,1.044,0.198,2.917,0.396,3.907
	c0.306,1.458,1.279,3.564,2.323,5.041c0.72,1.009,1.693,2.035,2.665,2.845c0.576,0.486,1.044,0.792,2.088,1.404
	c-0.432,0.396-0.63,0.612-0.936,1.135c-2.197-1.494-3.493-2.755-4.771-4.609c-1.116-1.639-1.8-3.313-2.341-5.726
	c-0.324,1.71-0.63,2.683-1.242,4.015c-0.63,1.387-1.422,2.539-2.575,3.691c-1.008,1.044-1.747,1.639-3.313,2.629
	c-0.306-0.486-0.522-0.721-0.972-1.062c1.818-1.008,2.628-1.603,3.673-2.719c2.521-2.683,3.745-6.14,3.745-10.587
	c0-0.721-0.018-1.099-0.09-1.566L65.579,22.58L65.579,22.58z"/>
<path fill="#6D5D4B" d="M78.573,23.966c0.774,0,1.135-0.018,1.621-0.071c-0.054,0.414-0.072,0.936-0.072,1.692v8.246
	c0,0.918,0.018,1.351,0.054,1.854h-1.134v-1.152h-2.575v2.143H75.26c0.072-0.576,0.108-1.134,0.108-1.944v-9.093
	c0-0.738-0.036-1.332-0.072-1.746c0.432,0.054,0.828,0.071,1.639,0.071H78.573z M76.467,33.509h2.575v-8.517h-2.575V33.509z
	 M89.25,25.082c0.864,0,1.369-0.035,1.873-0.107v1.26c-0.522-0.071-1.026-0.107-1.854-0.107h-5.762
	c-0.648,1.152-1.26,1.963-2.341,3.097c-0.234-0.27-0.504-0.468-0.882-0.702c1.404-1.332,2.196-2.503,2.898-4.268
	c0.288-0.684,0.504-1.44,0.576-1.908l1.207,0.306c-0.108,0.288-0.144,0.379-0.342,0.937c-0.216,0.612-0.36,0.99-0.594,1.494h5.221
	V25.082z M89.701,29.277c-0.612,0.36-1.584,1.152-3.259,2.611c-2.773,2.431-3.637,3.457-3.637,4.285
	c0,0.721,0.738,0.937,3.097,0.937c2.197,0,3.151-0.145,3.511-0.54c0.306-0.343,0.432-0.99,0.504-2.503
	c0.468,0.216,0.72,0.306,1.17,0.396c-0.126,1.477-0.36,2.359-0.756,2.846c-0.522,0.666-1.566,0.864-4.43,0.864
	c-2.034,0-3.042-0.145-3.619-0.522c-0.486-0.307-0.703-0.738-0.703-1.332c0-1.135,0.685-2.179,2.629-3.943
	c0.702-0.648,0.828-0.757,1.729-1.495c0.522-0.432,0.955-0.792,1.296-1.08c0.18-0.144,0.18-0.144,0.432-0.342h-3.781
	c-0.738,0-1.188,0.018-1.674,0.09v-1.17c0.504,0.071,0.9,0.09,1.692,0.09h3.763c0.738,0,1.099-0.019,1.458-0.072L89.701,29.277z"/>
<path fill="#6D5D4B" d="M115.689,25.137c0.899-0.019,1.424-0.036,1.586-0.055c-0.037,0.469-0.055,0.937-0.055,1.585v9.165
	c0,0.81,0.035,1.422,0.09,1.854h-1.188v-1.152h-3.513v1.584h-1.207c0.072-0.468,0.092-1.134,0.092-2.196v-9.129
	c0-0.846-0.02-1.261-0.072-1.711c0.378,0.036,0.702,0.055,1.604,0.055h0.359c0.36-0.883,0.631-1.783,0.774-2.719l1.276,0.252
	c-0.322,0.973-0.646,1.872-0.918,2.467H115.689z M112.611,30.142h3.512v-4.015h-3.512V30.142z M112.611,35.525h3.512v-4.393h-3.512
	V35.525z M125.052,25.118c0.722,0,1.226-0.018,1.585-0.071c-0.054,0.324-0.054,0.468-0.072,1.134
	c-0.162,7.13-0.396,9.543-1.043,10.983c-0.36,0.828-0.938,1.152-2.019,1.152c-0.647,0-1.17-0.036-2.286-0.126
	c-0.035-0.522-0.107-0.828-0.306-1.278c1.098,0.216,1.907,0.306,2.557,0.306c0.666,0,0.9-0.162,1.136-0.738
	c0.306-0.828,0.539-2.557,0.666-4.969c0.09-1.44,0.106-2.683,0.125-5.33h-5.187c-0.61,1.242-1.134,2.071-2.069,3.277
	c-0.234-0.307-0.56-0.612-0.863-0.811c1.098-1.17,1.979-2.7,2.646-4.537c0.252-0.685,0.433-1.351,0.468-1.747l1.242,0.234
	c-0.054,0.108-0.145,0.36-0.252,0.685c-0.216,0.63-0.396,1.116-0.686,1.836H125.052z M122.189,33.599
	c-1.008-2.16-1.691-3.295-2.736-4.555l0.918-0.559c1.135,1.368,1.891,2.557,2.846,4.483L122.189,33.599z"/>
<g enable-background="new    ">
	<path fill="#6D5D4B" d="M131.188,37.164c0,1.332-0.234,1.782-1.136,2.305l-0.485-0.594c0.721-0.324,0.883-0.631,0.865-1.711h-1.045
		v-1.782h1.801V37.164L131.188,37.164z"/>
</g>
<g enable-background="new    ">
	<path fill="#6D5D4B" d="M22.863,52.73c-0.684,0-1.386,0.036-1.962,0.108v-1.314c0.558,0.071,1.152,0.107,1.944,0.107h11.974
		c0.864,0,1.44-0.036,1.963-0.107v1.314c-0.559-0.072-1.207-0.108-1.945-0.108h-4.519c-0.433,0.882-0.648,1.278-1.152,2.017v9.975
		c0,0.738,0.036,1.333,0.126,1.945h-1.477c0.072-0.595,0.126-1.279,0.126-1.945v-6.428c0-0.72,0.018-1.332,0.036-2.053
		c-0.667,0.918-1.603,1.909-2.755,2.917c-1.099,0.99-2.215,1.801-3.889,2.827c-0.216-0.396-0.396-0.631-0.828-1.062
		c2.323-1.261,3.925-2.484,5.582-4.178c1.26-1.332,2.161-2.593,2.845-4.015H22.863z M30.677,55.773
		c1.783,1.206,4.538,3.385,6.5,5.149l-0.828,1.008c-0.973-0.972-1.387-1.332-3.169-2.79c-1.225-1.026-1.909-1.566-3.223-2.575
		L30.677,55.773z"/>
	<path fill="#6D5D4B" d="M42.573,52.01c0.774,0,1.135-0.018,1.621-0.071c-0.054,0.414-0.072,0.936-0.072,1.692v8.246
		c0,0.918,0.018,1.351,0.054,1.854h-1.134v-1.152h-2.575v2.143H39.26c0.072-0.576,0.108-1.134,0.108-1.944v-9.093
		c0-0.738-0.036-1.332-0.072-1.746c0.432,0.054,0.828,0.071,1.639,0.071H42.573z M40.467,61.553h2.575v-8.517h-2.575V61.553z
		 M53.25,53.126c0.864,0,1.369-0.035,1.873-0.107v1.26c-0.522-0.071-1.026-0.107-1.854-0.107h-5.762
		c-0.648,1.152-1.26,1.963-2.341,3.097c-0.234-0.27-0.504-0.468-0.882-0.702c1.404-1.332,2.196-2.503,2.898-4.268
		c0.288-0.684,0.504-1.44,0.576-1.908l1.207,0.306c-0.108,0.288-0.144,0.379-0.342,0.937c-0.216,0.612-0.36,0.99-0.594,1.494h5.221
		V53.126z M53.701,57.321c-0.612,0.36-1.584,1.152-3.259,2.611c-2.773,2.431-3.637,3.457-3.637,4.285
		c0,0.721,0.738,0.937,3.097,0.937c2.197,0,3.151-0.145,3.511-0.54c0.306-0.343,0.432-0.99,0.504-2.503
		c0.468,0.216,0.72,0.306,1.17,0.396c-0.126,1.477-0.36,2.359-0.756,2.846c-0.522,0.666-1.566,0.864-4.43,0.864
		c-2.034,0-3.042-0.145-3.619-0.522c-0.486-0.307-0.703-0.738-0.703-1.332c0-1.135,0.685-2.179,2.629-3.943
		c0.702-0.648,0.828-0.757,1.729-1.495c0.522-0.432,0.955-0.792,1.296-1.08c0.18-0.144,0.18-0.144,0.432-0.342h-3.781
		c-0.738,0-1.188,0.018-1.674,0.09v-1.17c0.504,0.071,0.9,0.09,1.692,0.09h3.763c0.738,0,1.099-0.019,1.458-0.072L53.701,57.321z"/>
	<path fill="#6D5D4B" d="M60.465,52.172c-0.252,1.692-0.558,2.899-1.17,4.573h1.963c0.576,0,0.792-0.018,1.116-0.054
		c-0.036,0.36-0.054,0.738-0.054,1.44v5.365c0,0.612,0.018,1.117,0.054,1.477h-1.081v-0.63h-1.944v1.891h-1.17
		c0.072-0.486,0.108-0.937,0.108-1.729v-4.051c0-0.576,0.018-1.171,0.054-1.927c-0.432,0.99-0.756,1.566-1.351,2.412
		c-0.198-0.414-0.45-0.773-0.684-1.008c1.026-1.225,1.765-2.665,2.376-4.663c0.378-1.207,0.504-1.783,0.685-3.098h-0.811
		c-0.72,0-1.062,0.019-1.566,0.108v-1.225c0.486,0.09,0.864,0.108,1.621,0.108h2.683c0.703,0,1.062-0.019,1.531-0.108v1.188
		c-0.486-0.054-0.864-0.072-1.477-0.072h-0.883V52.172z M59.349,63.39h1.944v-5.654h-1.944V63.39z M68.532,53.991h2.395
		c0.702,0,1.188-0.019,1.602-0.091c-0.054,0.396-0.072,0.937-0.072,1.819v3.024c0,0.882,0.018,1.404,0.072,1.818
		c-0.45-0.072-0.864-0.09-1.494-0.09h-2.827c-0.234,1.152-0.522,1.963-1.062,2.772c1.638,1.171,3.691,1.854,6.392,2.107
		c-0.288,0.54-0.36,0.72-0.504,1.206c-2.719-0.45-4.699-1.206-6.518-2.485c-1.116,1.152-2.323,1.873-4.195,2.503
		c-0.216-0.432-0.36-0.647-0.666-0.99c1.747-0.45,3.043-1.152,4.051-2.179c-0.468-0.414-0.828-0.811-1.603-1.765
		c-0.09-0.126-0.162-0.18-0.27-0.306l0.99-0.594c0.288,0.594,0.81,1.224,1.512,1.872c0.378-0.576,0.63-1.225,0.792-2.143h-2.269
		c-0.541,0-0.882,0.018-1.333,0.09c0.054-0.396,0.072-0.937,0.072-1.71v-3.224c0-0.774-0.018-1.26-0.072-1.729
		c0.432,0.055,0.972,0.091,1.639,0.091h2.287V52.19h-2.323c-0.882,0-1.296,0.018-1.801,0.09v-1.206
		c0.522,0.071,1.044,0.107,1.837,0.107h6.14c0.774,0,1.333-0.036,1.854-0.107v1.206c-0.504-0.072-0.937-0.09-1.783-0.09H68.53v1.801
		H68.532z M67.434,54.909h-2.791v1.801h2.773L67.434,54.909z M67.253,59.555c0.108-1.278,0.108-1.314,0.126-1.945h-2.737v1.945
		H67.253z M71.395,59.555V57.61H68.46c-0.036,0.847-0.054,1.188-0.126,1.945H71.395z M71.395,56.71v-1.801h-2.881l-0.018,1.801
		H71.395z"/>
	<path fill="#6D5D4B" d="M79.69,53.181c0.9-0.019,1.422-0.036,1.584-0.055c-0.036,0.469-0.054,0.937-0.054,1.585v9.165
		c0,0.81,0.036,1.422,0.09,1.854h-1.188v-1.152h-3.511v1.584h-1.207c0.072-0.468,0.09-1.134,0.09-2.196v-9.129
		c0-0.846-0.018-1.261-0.072-1.711c0.378,0.036,0.702,0.055,1.603,0.055h0.36c0.36-0.883,0.63-1.783,0.774-2.719l1.278,0.252
		c-0.324,0.973-0.648,1.872-0.918,2.467H79.69L79.69,53.181z M76.611,58.186h3.511v-4.015h-3.511V58.186z M76.611,63.569h3.511
		v-4.393h-3.511V63.569z M89.053,53.162c0.72,0,1.224-0.018,1.584-0.071c-0.054,0.324-0.054,0.468-0.072,1.134
		c-0.162,7.13-0.396,9.543-1.044,10.983c-0.36,0.828-0.936,1.152-2.017,1.152c-0.648,0-1.17-0.036-2.287-0.126
		c-0.036-0.522-0.108-0.828-0.306-1.278c1.099,0.216,1.909,0.306,2.557,0.306c0.666,0,0.9-0.162,1.134-0.738
		c0.306-0.828,0.54-2.557,0.666-4.969c0.09-1.44,0.108-2.683,0.126-5.33h-5.186c-0.612,1.242-1.134,2.071-2.07,3.277
		c-0.234-0.307-0.559-0.612-0.864-0.811c1.098-1.17,1.98-2.7,2.646-4.537c0.252-0.685,0.432-1.351,0.468-1.747l1.242,0.234
		c-0.054,0.108-0.144,0.36-0.252,0.685c-0.216,0.63-0.396,1.116-0.684,1.836H89.053z M86.189,61.643
		c-1.008-2.16-1.692-3.295-2.736-4.555l0.918-0.559c1.134,1.368,1.891,2.557,2.845,4.483L86.189,61.643z"/>
</g>
<g enable-background="new    ">
	<path fill="#6D5D4B" d="M98.266,63.84c0,1.494-1.206,2.7-2.701,2.7s-2.701-1.206-2.701-2.7c0-1.495,1.206-2.701,2.701-2.701
		S98.266,62.345,98.266,63.84z M93.891,63.84c0,0.918,0.756,1.675,1.674,1.675s1.674-0.757,1.674-1.675
		c0-0.919-0.756-1.675-1.674-1.675S93.891,62.921,93.891,63.84z"/>
</g>
<g>
	<path fill="#6D5D4B" d="M98.562,33.812c0.781-0.159,1.224-0.266,2.765-0.691l-0.017,1.01c-0.922,0.266-0.922,0.266-2.748,0.673
		v2.269c0,0.727,0.036,1.277,0.124,1.861h-1.31c0.088-0.62,0.124-1.187,0.124-1.878v-2.003c-0.373,0.07-0.639,0.124-0.815,0.159
		c-0.728,0.16-0.728,0.16-2.074,0.408c-0.319,0.053-0.497,0.089-0.869,0.195l-0.16-1.24c0.958-0.018,2.164-0.178,3.67-0.497
		c0.142-0.017,0.176-0.017,0.249-0.035v-2.747h-2.022c-0.478,0-0.584,0-1.258,0.07l-0.39-0.886c0.301-0.284,0.319-0.337,0.479-0.78
		c0.017-0.017,0.035-0.071,0.071-0.16l1.046-3.668H95c-0.691,0-1.046,0.018-1.507,0.089v-1.188c0.407,0.071,0.798,0.088,1.524,0.088
		h0.691l0.053-0.159c0.195-0.656,0.302-1.276,0.373-2.057l1.293,0.231c-0.266,0.744-0.266,0.744-0.567,1.808l-0.035,0.177h2.658
		c0.727,0,1.063-0.018,1.489-0.088v1.188c-0.479-0.071-0.815-0.089-1.507-0.089h-2.942l-1.276,4.449H97.5v-1.347
		c0-0.549-0.036-0.957-0.107-1.418h1.276c-0.088,0.514-0.107,0.869-0.107,1.418v1.347h0.462c0.815,0,1.347-0.035,1.843-0.106v1.187
		c-0.514-0.071-1.222-0.106-1.843-0.106h-0.462V33.812z M105.35,28.016c-0.053,0.354-0.053,0.443-0.053,0.709
		c0,1.897,0.373,3.581,1.134,5.229c0.497,1.063,1.081,1.879,1.879,2.659c0.373,0.354,0.655,0.567,1.507,1.187
		c-0.373,0.39-0.46,0.514-0.798,1.028c-1.152-0.904-1.86-1.648-2.535-2.641c-0.869-1.33-1.312-2.464-1.684-4.325
		c-0.283,1.932-0.743,3.173-1.683,4.573c-0.691,1.028-1.382,1.737-2.517,2.552c-0.267-0.372-0.532-0.621-0.886-0.869
		c1.577-0.957,2.569-2.038,3.296-3.58c0.762-1.56,1.135-3.474,1.135-5.689c0-0.319-0.018-0.584-0.054-0.833H105.35z M103.49,26.615
		c-0.516,1.489-0.905,2.287-1.755,3.616c-0.302-0.372-0.479-0.514-0.886-0.762c0.991-1.347,1.612-2.747,2.091-4.804
		c0.194-0.868,0.283-1.417,0.301-1.984l1.276,0.177c-0.071,0.266-0.071,0.266-0.248,1.028c-0.107,0.443-0.302,1.187-0.479,1.79
		h3.546c0.833,0,1.293-0.018,1.629-0.088l0.621,0.638c-0.088,0.177-0.105,0.195-0.283,0.745c-0.604,1.737-1.029,2.64-1.862,4.023
		c-0.354-0.249-0.602-0.354-1.045-0.479c0.921-1.276,1.312-2.109,1.878-3.899H103.49z"/>
</g>
</svg>
