<?xml version="1.0" encoding="utf-8"?>
<!-- Generator: Adobe Illustrator 16.0.0, SVG Export Plug-In . SVG Version: 6.00 Build 0)  -->
<!DOCTYPE svg PUBLIC "-//W3C//DTD SVG 1.1//EN" "http://www.w3.org/Graphics/SVG/1.1/DTD/svg11.dtd">
<svg version="1.1" id="Layer_1" xmlns="http://www.w3.org/2000/svg" xmlns:xlink="http://www.w3.org/1999/xlink" x="0px" y="0px"
	 width="220.875px" height="138.951px" viewBox="0 0 220.875 138.951" enable-background="new 0 0 220.875 138.951"
	 xml:space="preserve">
<g>
	<g>
		<defs>
			<rect id="SVGID_1_" x="-0.252" y="0.181" width="138.733" height="74.783"/>
		</defs>
		<clipPath id="SVGID_2_">
			<use xlink:href="#SVGID_1_"  overflow="visible"/>
		</clipPath>
		<path clip-path="url(#SVGID_2_)" fill="#BCD9D8" d="M17.185,0.181l100.869,0.771v0.145c0.701-0.086,1.41-0.145,2.133-0.145
			c9.631,0,17.438,7.92,17.438,17.688l0.273,18.724c0,9.77-7.807,17.688-17.438,17.688c-0.725,0-1.434-0.059-2.133-0.145v0.145
			L17.457,55.284c-9.63,0-17.437-7.92-17.437-17.69l-0.272-19.723C-0.252,8.101,7.555,0.181,17.185,0.181"/>
	</g>
	<g>
		<defs>
			<rect id="SVGID_3_" x="-0.252" y="0.181" width="138.733" height="74.783"/>
		</defs>
		<clipPath id="SVGID_4_">
			<use xlink:href="#SVGID_3_"  overflow="visible"/>
		</clipPath>
		<path clip-path="url(#SVGID_4_)" fill="#BCD9D8" d="M97.266,49.52c0-10.776,6.538-19.98,15.767-23.69
			c-2.807-1.128-5.86-1.755-9.057-1.755c-13.711,0-24.825,11.393-24.825,25.445s11.114,25.445,24.825,25.445
			c3.197,0,6.25-0.628,9.057-1.756C103.804,69.499,97.266,60.294,97.266,49.52"/>
	</g>
</g>
<g enable-background="new    ">
	<path fill="#6D5D4B" d="M32.596,30.171c-0.792,0-1.351,0.036-1.891,0.108v-1.242c0.522,0.071,1.098,0.107,1.873,0.107h5.419v-0.306
		c0-0.36-0.018-0.685-0.054-1.062H38.7c1.243-0.594,2.269-1.242,3.223-2.034h-6.59c-0.612,0-1.225,0.035-1.71,0.09v-1.171
		c0.504,0.055,1.08,0.09,1.746,0.09h6.5c0.667,0,1.026-0.018,1.333-0.071l0.684,0.72c-0.234,0.181-0.234,0.181-0.63,0.522
		c-1.207,1.008-2.323,1.746-4.105,2.665v0.558h5.348c0.81,0,1.386-0.036,1.891-0.107v1.242c-0.504-0.072-1.116-0.108-1.909-0.108
		h-5.33v3.781c0,1.116-0.324,1.314-2.07,1.314c-0.559,0-1.351-0.036-2.017-0.09c-0.126-0.522-0.198-0.757-0.378-1.152
		c0.972,0.126,1.71,0.18,2.395,0.18c0.792,0,0.918-0.054,0.918-0.414v-3.619H32.596z M38.142,22.032
		c-0.324-0.899-0.702-1.656-1.314-2.593l1.117-0.306c0.684,1.206,0.972,1.801,1.368,2.898h1.98c0.811-0.918,1.351-1.764,1.854-2.898
		l1.135,0.486c-0.738,1.188-1.207,1.836-1.729,2.412h1.404c1.044,0,1.44-0.018,2.07-0.071c-0.054,0.468-0.072,0.828-0.072,1.494
		v1.332c0,0.414,0.036,0.847,0.09,1.261h-1.188v-3.025H32.146v3.025h-1.188c0.054-0.414,0.09-0.811,0.09-1.261v-1.332
		c0-0.666-0.018-1.026-0.072-1.494c0.666,0.071,1.062,0.09,2.053,0.09h1.26c-0.468-0.864-0.846-1.387-1.692-2.341l1.08-0.342
		c0.828,1.008,1.242,1.62,1.836,2.664H38.142z"/>
	<path fill="#6D5D4B" d="M51.893,21.673c-0.9,0-1.513,0.036-2.179,0.107v-1.35c0.594,0.071,1.26,0.107,2.197,0.107h9.309
		c1.026,0,1.477-0.018,2.143-0.09c-0.09,1.404-0.108,1.927-0.144,2.881c-0.108,3.781-0.414,7.364-0.774,9.057
		c-0.396,1.837-0.882,2.269-2.484,2.269c-0.846,0-1.71-0.072-2.971-0.252c-0.054-0.522-0.144-0.882-0.324-1.368
		c1.44,0.324,2.197,0.432,3.007,0.432c0.774,0,1.08-0.126,1.296-0.558c0.324-0.631,0.666-3.043,0.864-6.068
		c0.09-1.566,0.09-1.566,0.198-5.167H51.893z M60.481,29.001c-2.629,1.116-3.997,1.584-8.373,2.898
		c-0.702,0.216-1.098,0.342-1.747,0.595l-0.594-1.387c3.097-0.576,7.004-1.818,10.498-3.367L60.481,29.001z M52.451,22.915
		c2.431,1.513,3.295,2.16,4.861,3.637l-0.9,0.99c-1.566-1.603-2.502-2.322-4.771-3.727L52.451,22.915z"/>
	<path fill="#6D5D4B" d="M77.995,26.786c-1.53,2.539-1.656,2.736-2.646,3.854c0.684,0.594,1.512,1.206,2.269,1.638
		c1.422,0.847,2.971,1.44,4.97,1.945c-0.36,0.468-0.468,0.647-0.648,1.188c-2.106-0.612-3.565-1.243-5.167-2.233
		c-0.864-0.54-1.531-1.044-2.25-1.729c-0.685,0.631-1.495,1.261-2.341,1.801c-1.513,0.954-2.917,1.585-4.826,2.161
		c-0.162-0.433-0.306-0.685-0.666-1.117c1.747-0.468,2.917-0.918,4.429-1.746c1.044-0.576,1.621-0.99,2.611-1.908
		c-1.224-1.333-1.404-1.603-2.647-3.871l1.099-0.559c0.198,0.54,0.396,0.918,0.72,1.44c0.54,0.864,1.17,1.729,1.621,2.196
		c0.612-0.647,0.954-1.098,1.692-2.305c0.27-0.414,0.45-0.81,0.612-1.35L77.995,26.786z M80.299,21.438
		c0.9,0,1.549-0.036,2.035-0.126v1.296c-0.414-0.071-1.08-0.107-2.052-0.107H68.794c-0.99,0-1.512,0.036-2.017,0.107v-1.296
		c0.504,0.09,1.134,0.126,2.017,0.126h5.222c-0.468-0.685-1.008-1.314-1.566-1.908l0.972-0.541c0.9,0.973,1.333,1.549,1.927,2.449
		H80.299z M72.467,23.689c-0.864,1.351-1.404,2.017-2.359,2.935c-0.828,0.774-1.44,1.278-2.376,1.908
		c-0.252-0.359-0.468-0.594-0.882-0.9c1.062-0.63,1.818-1.206,2.611-1.962c0.81-0.757,1.314-1.404,1.98-2.557L72.467,23.689z
		 M76.915,23.059c1.873,1.495,3.277,2.791,4.987,4.592l-0.864,0.954c-1.44-1.71-2.935-3.15-4.951-4.825L76.915,23.059z"/>
	<path fill="#6D5D4B" d="M98.228,26.246c-0.108,0.18-0.198,0.342-0.504,0.972c-0.756,1.495-1.71,2.846-2.881,4.069
		c0.937,0.685,1.207,0.883,1.927,1.278c1.314,0.738,2.377,1.171,4.069,1.621c-0.396,0.432-0.558,0.666-0.792,1.17
		c-2.376-0.828-4.429-1.944-6.014-3.295c-1.783,1.566-3.421,2.449-6.122,3.313c-0.198-0.469-0.342-0.685-0.721-1.099
		c2.629-0.702,4.231-1.494,5.996-2.953c-1.495-1.513-2.269-2.665-2.989-4.394c-0.991,3.367-2.449,5.708-5.06,8.085
		c-0.468-0.612-0.522-0.666-0.9-0.954c1.26-1.062,1.945-1.783,2.737-2.936c1.477-2.124,2.395-4.789,2.791-8.192H86.47
		c-0.774,0-1.458,0.036-1.891,0.108v-1.297c0.504,0.072,1.08,0.108,1.891,0.108h3.421c0.054-0.612,0.108-1.332,0.108-1.801
		c0-0.342-0.018-0.576-0.072-0.972l1.404,0.018c-0.072,0.36-0.09,0.559-0.162,1.692c-0.036,0.45-0.054,0.685-0.09,1.062h7.562
		c0.828,0,1.386-0.036,1.909-0.108v1.297c-0.576-0.072-1.062-0.108-1.909-0.108h-7.688c-0.144,1.242-0.234,1.765-0.432,2.665h5.474
		c0.792,0,1.225-0.018,1.603-0.09L98.228,26.246z M91.206,26.624c0.432,0.99,0.684,1.44,1.278,2.251
		c0.504,0.666,0.882,1.098,1.512,1.692c1.17-1.188,2.035-2.449,2.755-3.943H91.206z"/>
</g>
<g enable-background="new    ">
	<path fill="#6D5D4B" d="M107.909,32.584c0,1.494-1.206,2.7-2.701,2.7s-2.701-1.206-2.701-2.7c0-1.495,1.206-2.701,2.701-2.701
		S107.909,31.089,107.909,32.584z M103.534,32.584c0,0.918,0.756,1.675,1.674,1.675s1.674-0.757,1.674-1.675
		c0-0.919-0.756-1.675-1.674-1.675S103.534,31.665,103.534,32.584z"/>
</g>
</svg>
