<?xml version="1.0" encoding="utf-8"?>
<!-- Generator: Adobe Illustrator 16.0.0, SVG Export Plug-In . SVG Version: 6.00 Build 0)  -->
<!DOCTYPE svg PUBLIC "-//W3C//DTD SVG 1.1//EN" "http://www.w3.org/Graphics/SVG/1.1/DTD/svg11.dtd">
<svg version="1.1" id="Layer_1" xmlns="http://www.w3.org/2000/svg" xmlns:xlink="http://www.w3.org/1999/xlink" x="0px" y="0px"
	 width="220.875px" height="138.951px" viewBox="0 0 220.875 138.951" enable-background="new 0 0 220.875 138.951"
	 xml:space="preserve">
<g>
	<path fill="#FFEBA2" d="M155.055,0.293L25.496,0v0.185C24.583,0.075,23.659,0,22.717,0C10.17,0,0,10.073,0,22.498v17.194
		c0,12.426,10.17,22.5,22.717,22.5c0.942,0,1.866-0.075,2.779-0.187v0.187l129.559,0.293c12.545,0,22.715-10.073,22.715-22.5V22.791
		C177.77,10.366,167.6,0.293,155.055,0.293"/>
	<path fill="#FFEBA2" d="M132.378,55.152c0-13.704,8.517-25.41,20.539-30.13c-3.655-1.435-7.633-2.231-11.799-2.231
		c-17.861,0-32.34,14.488-32.34,32.361c0,17.871,14.479,32.361,32.34,32.361c4.166,0,8.144-0.798,11.799-2.23
		C140.896,80.562,132.378,68.855,132.378,55.152"/>
	<g>
		<g enable-background="new    ">
			<path fill="#6D5D4B" d="M26.145,23.853c-0.684,0-1.386,0.036-1.962,0.108v-1.314c0.558,0.071,1.152,0.107,1.944,0.107H38.1
				c0.864,0,1.44-0.036,1.963-0.107v1.314c-0.559-0.072-1.207-0.108-1.945-0.108h-4.519c-0.433,0.882-0.648,1.278-1.152,2.017v9.975
				c0,0.738,0.036,1.333,0.126,1.945h-1.477c0.072-0.595,0.126-1.279,0.126-1.945v-6.428c0-0.72,0.018-1.332,0.036-2.053
				c-0.667,0.918-1.603,1.909-2.755,2.917c-1.099,0.99-2.215,1.801-3.889,2.827c-0.216-0.396-0.396-0.631-0.828-1.062
				c2.323-1.261,3.925-2.484,5.582-4.178c1.26-1.332,2.161-2.593,2.845-4.015H26.145z M33.959,26.896
				c1.783,1.206,4.538,3.385,6.5,5.149l-0.828,1.008c-0.973-0.972-1.387-1.332-3.169-2.79c-1.225-1.026-1.909-1.566-3.223-2.575
				L33.959,26.896z"/>
			<path fill="#6D5D4B" d="M49.528,26.806c-0.234-0.486-0.288-0.576-0.486-0.955c-1.08,0.145-1.206,0.145-2.197,0.253
				c-0.774,0.071-1.332,0.144-1.584,0.162c-1.495,0.18-2.251,0.252-2.305,0.27l-0.271-0.973c0.541-0.18,0.756-0.359,1.207-1.062
				c0.504-0.774,1.008-1.909,1.386-3.098l1.243,0.36c-0.216,0.433-0.216,0.433-0.774,1.566c-0.198,0.433-0.828,1.494-1.224,2.106
				c1.152-0.144,1.692-0.216,2.125-0.27c1.242-0.145,1.242-0.145,1.891-0.234c-0.396-0.685-0.738-1.206-1.207-1.872l0.846-0.433
				c0.541,0.685,0.667,0.847,1.225,1.765c0.702,1.152,0.702,1.152,1.098,1.854L49.528,26.806z M43.28,28.948
				c0-0.667-0.018-1.171-0.072-1.657c0.45,0.055,0.792,0.072,1.458,0.072h3.151c0.774,0,1.188-0.018,1.674-0.072
				c-0.018,0.271-0.054,0.793-0.054,0.99v7.869c0,1.17-0.27,1.332-2.269,1.332c-0.108,0-0.306,0-0.522-0.018
				c-0.036-0.324-0.144-0.793-0.27-1.117c0.414,0.055,0.846,0.091,1.296,0.091c0.594,0,0.684-0.055,0.684-0.396V33.72h-3.979v2.25
				c0,0.864,0.018,1.351,0.09,1.837H43.19c0.072-0.486,0.09-0.973,0.09-1.801V28.948z M44.379,30.046h3.979v-1.692h-3.979V30.046z
				 M44.379,32.765h3.979v-1.764h-3.979V32.765z M52.211,24.482c1.819-0.504,3.709-1.422,4.771-2.286l0.792,0.954
				c-0.288,0.144-0.288,0.144-1.008,0.54c-1.314,0.738-2.809,1.332-4.556,1.854v1.62c0,0.505,0.18,0.559,1.945,0.559
				c1.656,0,2.143-0.036,2.395-0.198c0.288-0.18,0.378-0.648,0.45-2.251c0.36,0.217,0.666,0.343,1.062,0.45
				c-0.126,1.513-0.288,2.197-0.594,2.557c-0.306,0.379-0.99,0.469-3.331,0.469c-2.593,0-3.025-0.18-3.025-1.225v-4.249
				c0-0.648-0.036-1.099-0.108-1.566h1.314c-0.09,0.414-0.108,0.81-0.108,1.566V24.482z M52.229,32.387
				c1.818-0.45,3.601-1.278,4.844-2.25l0.846,0.936c-0.829,0.469-2.269,1.207-2.917,1.459c-1.044,0.432-1.422,0.558-2.773,0.936
				v2.144c0,0.359,0.126,0.485,0.576,0.558c0.396,0.072,0.792,0.09,1.71,0.09c1.458,0,2.017-0.09,2.251-0.396
				c0.198-0.252,0.324-1.026,0.378-2.323c0.306,0.181,0.702,0.36,1.081,0.469c-0.145,1.71-0.342,2.412-0.774,2.826
				c-0.396,0.379-0.99,0.469-3.007,0.469c-1.71,0-2.251-0.055-2.737-0.271c-0.432-0.18-0.576-0.45-0.576-1.044v-4.502
				c0-0.9-0.018-1.242-0.09-1.62h1.278c-0.072,0.378-0.09,0.685-0.09,1.566V32.387z"/>
			<path fill="#6D5D4B" d="M68.717,35.934h5.347c0.811,0,1.477-0.035,1.945-0.107v1.278c-0.63-0.09-1.207-0.126-1.945-0.126H62.397
				c-0.792,0-1.369,0.036-1.999,0.126v-1.278c0.432,0.072,1.207,0.107,1.999,0.107h5.149v-4.123h-3.547
				c-0.864,0-1.278,0.019-1.782,0.108v-1.242c0.504,0.09,0.864,0.107,1.729,0.107h8.39c0.792,0,1.351-0.036,1.873-0.107v1.242
				c-0.541-0.072-1.062-0.108-1.819-0.108h-3.673V35.934z M66.79,26.139c-0.792,1.045-1.26,1.531-2.106,2.215
				c-0.955,0.757-1.675,1.188-3.241,1.927c-0.252-0.486-0.468-0.738-0.828-0.99c1.548-0.612,2.287-0.99,3.205-1.639
				c0.756-0.558,1.188-0.972,1.962-1.927L66.79,26.139z M67.69,23.601c-0.324-0.685-0.667-1.242-1.152-1.909l0.936-0.45
				c0.648,0.937,0.973,1.477,1.422,2.359h4.916c0.685,0,1.152-0.019,1.819-0.09c-0.054,0.378-0.072,0.702-0.072,1.242v0.99
				c0,0.486,0.018,0.846,0.09,1.26h-1.207v-2.376H62v2.502h-1.206c0.072-0.468,0.09-0.899,0.09-1.422v-0.954
				c0-0.505-0.018-0.864-0.072-1.242c0.667,0.071,1.135,0.09,1.819,0.09H67.69z M70.391,25.725c1.962,1.188,3.187,2.053,5.293,3.764
				l-0.882,0.846c-1.692-1.512-3.439-2.845-5.131-3.907L70.391,25.725z"/>
			<path fill="#6D5D4B" d="M86.825,26.877h4.357c0.846,0,1.386-0.035,1.908-0.107v1.26c-0.504-0.071-1.116-0.107-1.908-0.107h-4.357
				v2.826h5.149c0.828,0,1.369-0.035,1.891-0.107v1.278c-0.558-0.072-1.08-0.108-1.891-0.108h-5.149v4.159
				c0,1.116-0.432,1.423-1.98,1.423c-0.72,0-1.711-0.054-2.683-0.162c-0.054-0.486-0.126-0.721-0.324-1.242
				c1.152,0.198,2.269,0.306,3.042,0.306c0.594,0,0.774-0.126,0.774-0.522v-3.961h-5.545c-0.811,0-1.351,0.036-1.891,0.108v-1.278
				c0.504,0.072,1.044,0.107,1.891,0.107h5.545v-2.826h-4.538c-0.72,0-1.368,0.036-1.908,0.107v-1.26
				c0.522,0.072,1.062,0.107,1.908,0.107h4.538v-2.862c-0.054,0.018-0.072,0.018-0.126,0.018c-1.945,0.252-3.583,0.396-5.78,0.45
				c-0.108-0.468-0.198-0.648-0.468-1.116h0.36c4.447,0,9.795-0.828,11.686-1.801l0.99,1.062c-2.647,0.757-3.619,0.973-5.492,1.225
				V26.877z"/>
			<path fill="#6D5D4B" d="M103.438,23.15c0-0.757-0.018-1.135-0.108-1.566h1.422c-0.09,0.45-0.126,0.864-0.126,1.566v1.494h4.43
				c0.81,0,1.206-0.018,1.674-0.09v1.242c-0.486-0.072-0.955-0.09-1.674-0.09h-4.43v3.565h5.546c0.792,0,1.386-0.036,1.873-0.108
				v1.296c-0.648-0.071-1.225-0.107-1.873-0.107h-6.698c-1.062,1.765-1.206,1.98-2.214,3.331c-0.72,1.008-1.044,1.404-1.855,2.305
				c3.943-0.252,3.943-0.252,6.248-0.522c1.729-0.198,2.053-0.234,3.025-0.396c-0.666-0.99-1.368-1.89-2.593-3.295l1.044-0.504
				c1.782,2.053,2.683,3.259,4.232,5.636l-1.117,0.738c-0.504-0.9-0.684-1.225-0.936-1.62c-1.891,0.378-3.583,0.558-8.877,0.954
				c-0.468,0.036-0.936,0.072-1.368,0.107c-0.738,0.055-0.864,0.072-1.44,0.108l-0.27-1.152c0.594-0.09,0.792-0.18,1.098-0.504
				c0.99-1.062,2.521-3.241,3.637-5.186h-3.925c-0.63,0-1.224,0.036-1.873,0.107v-1.296c0.486,0.072,1.081,0.108,1.873,0.108h5.275
				v-3.565h-4.033c-0.72,0-1.188,0.018-1.674,0.09v-1.242c0.468,0.072,0.882,0.09,1.674,0.09h4.033V23.15z"/>
			<path fill="#6D5D4B" d="M122.861,21.746c-0.055,0.306-0.091,1.044-0.091,1.603c0,1.044,0.198,2.917,0.396,3.907
				c0.307,1.458,1.279,3.564,2.323,5.041c0.72,1.009,1.692,2.035,2.665,2.845c0.576,0.486,1.045,0.792,2.088,1.404
				c-0.432,0.396-0.629,0.612-0.936,1.135c-2.197-1.494-3.493-2.755-4.771-4.609c-1.116-1.639-1.801-3.313-2.341-5.726
				c-0.323,1.71-0.63,2.683-1.242,4.015c-0.63,1.387-1.423,2.539-2.575,3.691c-1.008,1.044-1.746,1.639-3.312,2.629
				c-0.307-0.486-0.522-0.721-0.973-1.062c1.818-1.008,2.629-1.603,3.674-2.719c2.52-2.683,3.744-6.14,3.744-10.587
				c0-0.721-0.018-1.099-0.09-1.566H122.861z"/>
			<path fill="#6D5D4B" d="M146.19,28.029c-0.378,0.324-0.378,0.324-1.081,0.99c-0.486,0.469-1.188,1.026-1.656,1.369
				c0.631,1.242,0.774,1.494,1.225,2.07c0.918,1.261,2.035,2.232,3.709,3.241c-0.307,0.27-0.559,0.558-0.883,1.008
				c-1.871-1.404-2.754-2.25-3.69-3.619c-0.45-0.666-0.81-1.296-1.188-2.124c-0.486,0.288-0.521,0.324-1.062,0.612
				c0.324,1.206,0.451,2.07,0.451,3.15c0,1.135-0.181,1.98-0.523,2.413c-0.324,0.396-0.773,0.54-1.674,0.54
				c-0.576,0-1.297-0.036-2.125-0.126c-0.035-0.522-0.107-0.774-0.287-1.207c0.899,0.181,1.656,0.271,2.305,0.271
				c0.936,0,1.188-0.432,1.188-2.16c0-0.595-0.035-1.099-0.107-1.603c-1.117,0.9-1.656,1.278-2.701,1.854
				c-1.603,0.9-3.079,1.53-5.222,2.232c-0.233-0.433-0.396-0.666-0.702-1.009c1.998-0.504,3.709-1.17,5.365-2.088
				c1.189-0.631,1.927-1.171,3.008-2.107c-0.181-0.666-0.324-1.008-0.541-1.439c-0.107,0.071-0.197,0.126-0.252,0.161
				c-1.944,1.351-4.033,2.305-6.734,3.079c-0.197-0.432-0.359-0.648-0.666-0.99c1.656-0.396,2.629-0.72,4.123-1.368
				c1.225-0.54,1.855-0.9,3.043-1.747c-0.396-0.576-0.63-0.846-1.062-1.206c-1.566,0.883-2.754,1.351-5.023,1.98
				c-0.252-0.468-0.359-0.63-0.666-0.954c2.809-0.612,4.592-1.314,6.284-2.467h-2.646c-0.648,0-1.206,0.036-1.747,0.09v-1.152
				c0.469,0.072,0.937,0.108,1.747,0.108h7.616c0.846,0,1.314-0.018,1.764-0.108v1.152c-0.539-0.054-1.08-0.09-1.764-0.09h-3.493
				c-0.09,0.072-0.09,0.072-0.216,0.198c-0.342,0.271-0.469,0.36-1.026,0.738c0.792,0.63,1.494,1.692,1.962,2.898
				c1.693-0.972,3.403-2.467,3.926-3.402L146.19,28.029z M139.618,23.15c-0.323-0.612-0.504-0.9-0.918-1.44l0.937-0.469
				c0.539,0.793,0.828,1.243,1.188,1.909h5.113c0.775,0,1.243-0.019,1.819-0.072c-0.054,0.342-0.072,0.648-0.072,1.188v1.116
				c0,0.559,0.019,0.847,0.072,1.225h-1.171v-2.467h-12.729v2.467h-1.171c0.055-0.414,0.072-0.702,0.072-1.242v-1.099
				c0-0.486-0.018-0.811-0.072-1.188c0.576,0.054,1.027,0.072,1.801,0.072H139.618z"/>
		</g>
		<g enable-background="new    ">
			<path fill="#6D5D4B" d="M155.131,36.104v1.782h-1.782v-1.782H155.131z"/>
		</g>
	</g>
</g>
</svg>
