<?xml version="1.0" encoding="utf-8"?>
<!-- Generator: Adobe Illustrator 16.0.0, SVG Export Plug-In . SVG Version: 6.00 Build 0)  -->
<!DOCTYPE svg PUBLIC "-//W3C//DTD SVG 1.1//EN" "http://www.w3.org/Graphics/SVG/1.1/DTD/svg11.dtd">
<svg version="1.1" id="Layer_1" xmlns="http://www.w3.org/2000/svg" xmlns:xlink="http://www.w3.org/1999/xlink" x="0px" y="0px"
	 width="220.875px" height="138.951px" viewBox="0 0 220.875 138.951" enable-background="new 0 0 220.875 138.951"
	 xml:space="preserve">
<g>
	<g>
		<defs>
			<rect id="SVGID_1_" x="15.055" y="-0.951" width="204.764" height="138.951"/>
		</defs>
		<clipPath id="SVGID_2_">
			<use xlink:href="#SVGID_1_"  overflow="visible"/>
		</clipPath>
		<path clip-path="url(#SVGID_2_)" fill="#FFEBA2" d="M37.77-0.658l155.172-0.293v0.185c0.912-0.109,1.836-0.185,2.778-0.185
			c12.546,0,22.717,10.073,22.717,22.498v68.632c0,12.426-10.171,22.499-22.717,22.499c-0.942,0-1.866-0.075-2.778-0.185v0.185
			L37.77,112.972c-12.545,0-22.715-10.074-22.715-22.5V21.84C15.055,9.415,25.225-0.658,37.77-0.658"/>
	</g>
	<g>
		<defs>
			<rect id="SVGID_3_" x="15.055" y="-0.951" width="204.764" height="138.951"/>
		</defs>
		<clipPath id="SVGID_4_">
			<use xlink:href="#SVGID_3_"  overflow="visible"/>
		</clipPath>
		<path clip-path="url(#SVGID_4_)" fill="#FFEBA2" d="M60.445,105.64c0-13.705-8.517-25.41-20.54-30.131
			c3.656-1.435,7.634-2.23,11.799-2.23c17.861,0,32.34,14.488,32.34,32.361c0,17.871-14.479,32.36-32.34,32.36
			c-4.165,0-8.143-0.797-11.799-2.231C51.928,131.049,60.445,119.343,60.445,105.64"/>
	</g>
</g>
<g enable-background="new    ">
	<path fill="#6D5D4B" d="M40.029,28.111l-4.267-7.221h1.422l2.683,4.592c0.378,0.648,0.774,1.513,0.774,1.513h0.036
		c0,0,0.378-0.847,0.774-1.513l2.683-4.592h1.404l-4.249,7.221v5.438h-1.261V28.111z"/>
</g>
<g enable-background="new    ">
	<path fill="#6D5D4B" d="M50.289,24.276c2.647,0,4.79,2.017,4.79,4.699c0,2.736-2.143,4.789-4.79,4.789
		c-2.646,0-4.79-2.053-4.79-4.789C45.5,26.293,47.643,24.276,50.289,24.276z M50.289,32.667c1.945,0,3.529-1.585,3.529-3.691
		c0-2.053-1.584-3.583-3.529-3.583c-1.944,0-3.529,1.53-3.529,3.583C46.76,31.082,48.345,32.667,50.289,32.667z"/>
</g>
<g enable-background="new    ">
	<path fill="#6D5D4B" d="M57.164,24.492h1.224v5.438c0,1.423,0.216,2.683,1.962,2.683c2.071,0,3.349-1.818,3.349-3.781v-4.339h1.225
		v9.057h-1.188v-1.351c0-0.396,0.036-0.72,0.036-0.72h-0.036c-0.36,0.882-1.548,2.286-3.547,2.286c-2.125,0-3.025-1.152-3.025-3.511
		V24.492z"/>
</g>
<g enable-background="new    ">
	<path fill="#6D5D4B" d="M76.676,24.276c2.647,0,4.79,2.017,4.79,4.699c0,2.736-2.143,4.789-4.79,4.789
		c-2.646,0-4.79-2.053-4.79-4.789C71.887,26.293,74.03,24.276,76.676,24.276z M76.676,32.667c1.945,0,3.529-1.585,3.529-3.691
		c0-2.053-1.584-3.583-3.529-3.583c-1.944,0-3.529,1.53-3.529,3.583C73.147,31.082,74.732,32.667,76.676,32.667z"/>
</g>
<g enable-background="new    ">
	<path fill="#6D5D4B" d="M83.659,24.492h1.206v1.351c0,0.396-0.036,0.72-0.036,0.72h0.036c0.324-0.828,1.477-2.286,3.619-2.286
		c2.233,0,3.025,1.278,3.025,3.511v5.762h-1.224v-5.438c0-1.423-0.216-2.683-1.963-2.683c-1.548,0-2.881,1.062-3.295,2.557
		c-0.108,0.378-0.144,0.792-0.144,1.225v4.339h-1.224V24.492z"/>
	<path fill="#6D5D4B" d="M94.243,20.891h1.225v10.245c0,1.188,0.54,1.369,1.008,1.369c0.162,0,0.306-0.019,0.306-0.019v1.099
		c0,0-0.216,0.036-0.45,0.036c-0.756,0-2.089-0.234-2.089-2.215V20.891z"/>
</g>
<g enable-background="new    ">
	<path fill="#6D5D4B" d="M97.753,35.817c0,0,0.504,0.414,1.08,0.414c0.792,0,1.351-0.648,1.71-1.477l0.559-1.278l-3.781-8.984h1.351
		l2.665,6.607c0.18,0.45,0.324,0.955,0.324,0.955h0.036c0,0,0.126-0.505,0.306-0.955l2.611-6.607h1.333l-4.465,10.947
		c-0.468,1.152-1.404,1.891-2.611,1.891c-0.936,0-1.584-0.54-1.584-0.54L97.753,35.817z"/>
</g>
<g enable-background="new    ">
	<path fill="#6D5D4B" d="M112.279,24.492h1.207v1.351c0,0.396-0.036,0.72-0.036,0.72h0.036c0.324-0.828,1.477-2.286,3.619-2.286
		c2.232,0,3.024,1.278,3.024,3.511v5.762h-1.224v-5.438c0-1.423-0.217-2.683-1.963-2.683c-1.549,0-2.881,1.062-3.295,2.557
		c-0.108,0.378-0.145,0.792-0.145,1.225v4.339h-1.225V24.492z"/>
</g>
<g enable-background="new    ">
	<path fill="#6D5D4B" d="M126.716,24.276c2.503,0,3.781,1.927,3.781,4.177c0,0.216-0.036,0.631-0.036,0.631h-6.95
		c0.055,2.322,1.639,3.583,3.512,3.583c1.656,0,2.754-1.099,2.754-1.099l0.559,0.937c0,0-1.314,1.26-3.35,1.26
		c-2.7,0-4.734-1.944-4.734-4.735C122.251,26.059,124.267,24.276,126.716,24.276z M129.255,28.075
		c-0.072-1.891-1.225-2.772-2.575-2.772c-1.513,0-2.827,0.954-3.114,2.772H129.255z"/>
</g>
<g enable-background="new    ">
	<path fill="#6D5D4B" d="M136.58,24.276c2.504,0,3.781,1.927,3.781,4.177c0,0.216-0.035,0.631-0.035,0.631h-6.951
		c0.055,2.322,1.639,3.583,3.512,3.583c1.656,0,2.755-1.099,2.755-1.099l0.558,0.937c0,0-1.314,1.26-3.349,1.26
		c-2.7,0-4.735-1.944-4.735-4.735C132.115,26.059,134.131,24.276,136.58,24.276z M139.119,28.075
		c-0.072-1.891-1.225-2.772-2.574-2.772c-1.513,0-2.827,0.954-3.115,2.772H139.119z"/>
	<path fill="#6D5D4B" d="M146.174,24.276c2.196,0,2.952,1.71,2.952,1.71h0.037c0,0-0.037-0.306-0.037-0.684v-4.412h1.225v12.658
		h-1.188v-0.954c0-0.396,0.035-0.648,0.035-0.648h-0.035c0,0-0.738,1.818-3.115,1.818c-2.432,0-3.943-1.944-3.943-4.753
		C142.105,26.148,143.797,24.276,146.174,24.276z M146.228,32.667c1.513,0,2.936-1.081,2.936-3.655c0-1.837-0.938-3.638-2.881-3.638
		c-1.604,0-2.918,1.351-2.918,3.638C143.365,31.244,144.536,32.667,146.228,32.667z"/>
</g>
<g enable-background="new    ">
	<path fill="#6D5D4B" d="M162.715,27.949h0.505v-0.234c0-1.746-0.955-2.341-2.252-2.341c-1.494,0-2.557,0.864-2.557,0.864
		l-0.576-0.936c0,0,1.189-1.026,3.224-1.026c2.179,0,3.385,1.206,3.385,3.475v5.798h-1.171v-0.99c0-0.45,0.037-0.756,0.037-0.756
		h-0.037c0,0-0.756,1.962-3.023,1.962c-1.514,0-3.08-0.882-3.08-2.683C157.169,28.021,161.149,27.949,162.715,27.949z
		 M160.447,32.721c1.729,0,2.773-1.801,2.773-3.367v-0.396h-0.523c-1.422,0-4.267,0.055-4.267,2.053
		C158.43,31.856,159.097,32.721,160.447,32.721z"/>
</g>
<g enable-background="new    ">
	<path fill="#6D5D4B" d="M41.091,50.269c2.215,0,3.313,1.296,3.313,1.296l-0.63,0.918c0,0-1.008-1.098-2.646-1.098
		c-1.98,0-3.529,1.477-3.529,3.637c0,2.125,1.566,3.638,3.565,3.638c1.836,0,2.898-1.278,2.898-1.278l0.559,0.954
		c0,0-1.225,1.422-3.529,1.422c-2.683,0-4.753-1.927-4.753-4.735C36.338,52.23,38.427,50.269,41.091,50.269z"/>
	<path fill="#6D5D4B" d="M50.973,50.269c2.647,0,4.79,2.017,4.79,4.699c0,2.736-2.143,4.789-4.79,4.789
		c-2.646,0-4.79-2.053-4.79-4.789C46.184,52.285,48.327,50.269,50.973,50.269z M50.973,58.659c1.945,0,3.529-1.585,3.529-3.691
		c0-2.053-1.584-3.583-3.529-3.583c-1.944,0-3.529,1.53-3.529,3.583C47.444,57.074,49.029,58.659,50.973,58.659z"/>
</g>
<g enable-background="new    ">
	<path fill="#6D5D4B" d="M57.74,50.484h1.224v5.438c0,1.423,0.216,2.683,1.962,2.683c2.071,0,3.349-1.818,3.349-3.781v-4.339H65.5
		v9.057h-1.188V58.19c0-0.396,0.036-0.72,0.036-0.72h-0.036c-0.36,0.882-1.548,2.286-3.547,2.286c-2.125,0-3.025-1.152-3.025-3.511
		V50.484z"/>
	<path fill="#6D5D4B" d="M68.45,50.484h1.17v0.882c0,0.396-0.036,0.702-0.036,0.702h0.036c0,0,0.738-1.8,3.133-1.8
		c2.431,0,3.943,1.944,3.943,4.753c0,2.863-1.71,4.735-4.051,4.735c-2.179,0-2.971-1.729-2.971-1.729h-0.036
		c0,0,0.036,0.324,0.036,0.792v4.322H68.45V50.484z M72.52,58.677c1.602,0,2.917-1.351,2.917-3.655c0-2.215-1.17-3.637-2.863-3.637
		c-1.512,0-2.935,1.08-2.935,3.655C69.639,56.858,70.646,58.677,72.52,58.677z"/>
	<path fill="#6D5D4B" d="M78.961,46.883h1.225v10.245c0,1.188,0.54,1.369,1.008,1.369c0.162,0,0.306-0.019,0.306-0.019v1.099
		c0,0-0.216,0.036-0.45,0.036c-0.756,0-2.089-0.234-2.089-2.215V46.883z"/>
</g>
<g enable-background="new    ">
	<path fill="#6D5D4B" d="M87.116,50.269c2.503,0,3.781,1.927,3.781,4.177c0,0.216-0.036,0.631-0.036,0.631h-6.95
		c0.054,2.322,1.639,3.583,3.511,3.583c1.657,0,2.755-1.099,2.755-1.099l0.558,0.937c0,0-1.314,1.26-3.349,1.26
		c-2.701,0-4.735-1.944-4.735-4.735C82.651,52.051,84.667,50.269,87.116,50.269z M89.655,54.067
		c-0.072-1.891-1.225-2.772-2.575-2.772c-1.512,0-2.827,0.954-3.115,2.772H89.655z"/>
</g>
<g enable-background="new    ">
	<path fill="#6D5D4B" d="M101.03,62.224c1.765,0,3.169-0.828,3.169-2.845v-0.828c0-0.342,0.036-0.648,0.036-0.648h-0.036
		c-0.54,1.009-1.458,1.585-2.863,1.585c-2.431,0-4.033-1.927-4.033-4.646s1.495-4.573,3.925-4.573c2.395,0,2.989,1.512,2.989,1.512
		h0.036c0,0-0.018-0.107-0.018-0.306v-0.99h1.188v8.841c0,2.881-2.125,3.997-4.339,3.997c-1.044,0-2.089-0.271-2.971-0.721
		l0.468-1.008C98.582,61.594,99.698,62.224,101.03,62.224z M104.217,54.842c0-2.646-1.26-3.457-2.863-3.457
		c-1.765,0-2.791,1.278-2.791,3.438c0,2.161,1.17,3.565,2.971,3.565C102.957,58.389,104.217,57.507,104.217,54.842z"/>
</g>
<g enable-background="new    ">
	<path fill="#6D5D4B" d="M112.424,50.269c2.647,0,4.79,2.017,4.79,4.699c0,2.736-2.143,4.789-4.79,4.789
		c-2.646,0-4.79-2.053-4.79-4.789C107.635,52.285,109.778,50.269,112.424,50.269z M112.424,58.659c1.944,0,3.529-1.585,3.529-3.691
		c0-2.053-1.585-3.583-3.529-3.583s-3.529,1.53-3.529,3.583C108.896,57.074,110.48,58.659,112.424,58.659z"/>
</g>
<g enable-background="new    ">
	<path fill="#6D5D4B" d="M123.531,50.269c2.646,0,4.789,2.017,4.789,4.699c0,2.736-2.143,4.789-4.789,4.789s-4.79-2.053-4.79-4.789
		C118.741,52.285,120.884,50.269,123.531,50.269z M123.531,58.659c1.944,0,3.529-1.585,3.529-3.691c0-2.053-1.585-3.583-3.529-3.583
		c-1.945,0-3.529,1.53-3.529,3.583C120.001,57.074,121.585,58.659,123.531,58.659z"/>
	<path fill="#6D5D4B" d="M134.078,50.269c2.197,0,2.953,1.71,2.953,1.71h0.036c0,0-0.036-0.306-0.036-0.684v-4.412h1.225v12.658
		h-1.188v-0.954c0-0.396,0.036-0.648,0.036-0.648h-0.036c0,0-0.738,1.818-3.114,1.818c-2.432,0-3.943-1.944-3.943-4.753
		C130.009,52.141,131.701,50.269,134.078,50.269z M134.132,58.659c1.512,0,2.935-1.081,2.935-3.655c0-1.837-0.937-3.638-2.881-3.638
		c-1.603,0-2.917,1.351-2.917,3.638C131.269,57.236,132.439,58.659,134.132,58.659z"/>
</g>
<g enable-background="new    ">
	<path fill="#6D5D4B" d="M146.228,51.619h-1.135v-1.026h1.135V50.16c0-2.989,2.105-3.367,3.133-3.367
		c0.342,0,0.558,0.036,0.558,0.036v1.099c0,0-0.181-0.036-0.433-0.036c-0.701,0-2.034,0.252-2.034,2.269v0.433h2.323v1.026h-2.323
		v7.922h-1.224V51.619z"/>
	<path fill="#6D5D4B" d="M151.574,50.484h1.205v1.603c0,0.396-0.035,0.72-0.035,0.72h0.035c0.433-1.368,1.441-2.412,2.863-2.412
		c0.252,0,0.486,0.054,0.486,0.054v1.206c0,0-0.216-0.035-0.45-0.035c-1.278,0-2.232,1.008-2.628,2.34
		c-0.181,0.576-0.253,1.188-0.253,1.765v3.817h-1.224V50.484z"/>
</g>
<g enable-background="new    ">
	<path fill="#6D5D4B" d="M157.8,46.883h1.278v1.531H157.8V46.883z M157.836,50.484h1.224v9.057h-1.224V50.484z"/>
</g>
<g enable-background="new    ">
	<path fill="#6D5D4B" d="M165.757,50.269c2.503,0,3.781,1.927,3.781,4.177c0,0.216-0.036,0.631-0.036,0.631h-6.95
		c0.055,2.322,1.639,3.583,3.512,3.583c1.656,0,2.754-1.099,2.754-1.099l0.559,0.937c0,0-1.314,1.26-3.35,1.26
		c-2.7,0-4.734-1.944-4.734-4.735C161.292,52.051,163.308,50.269,165.757,50.269z M168.296,54.067
		c-0.072-1.891-1.225-2.772-2.575-2.772c-1.513,0-2.827,0.954-3.114,2.772H168.296z"/>
	<path fill="#6D5D4B" d="M171.876,50.484h1.206v1.351c0,0.396-0.036,0.72-0.036,0.72h0.036c0.324-0.828,1.477-2.286,3.619-2.286
		c2.233,0,3.024,1.278,3.024,3.511v5.762h-1.224v-5.438c0-1.423-0.216-2.683-1.963-2.683c-1.548,0-2.881,1.062-3.295,2.557
		c-0.108,0.378-0.144,0.792-0.144,1.225v4.339h-1.225V50.484z"/>
	<path fill="#6D5D4B" d="M186.025,50.269c2.196,0,2.953,1.71,2.953,1.71h0.035c0,0-0.035-0.306-0.035-0.684v-4.412h1.225v12.658
		h-1.189v-0.954c0-0.396,0.037-0.648,0.037-0.648h-0.037c0,0-0.738,1.818-3.114,1.818c-2.431,0-3.943-1.944-3.943-4.753
		C181.956,52.141,183.648,50.269,186.025,50.269z M186.079,58.659c1.513,0,2.935-1.081,2.935-3.655c0-1.837-0.936-3.638-2.881-3.638
		c-1.602,0-2.916,1.351-2.916,3.638C183.216,57.236,184.386,58.659,186.079,58.659z"/>
</g>
<g enable-background="new    ">
	<path fill="#6D5D4B" d="M192.865,57.561c0,0,1.008,1.099,2.701,1.099c0.972,0,1.818-0.486,1.818-1.44
		c0-1.981-4.88-1.495-4.88-4.447c0-1.621,1.458-2.503,3.097-2.503c1.908,0,2.791,0.99,2.791,0.99l-0.559,0.937
		c0,0-0.773-0.829-2.268-0.829c-0.919,0-1.801,0.396-1.801,1.405c0,1.998,4.879,1.458,4.879,4.447c0,1.476-1.278,2.538-3.097,2.538
		c-2.196,0-3.349-1.314-3.349-1.314L192.865,57.561z"/>
</g>
<g enable-background="new    ">
	<path fill="#6D5D4B" d="M37.31,77.611h-1.188v-1.026h1.206v-2.611h1.207v2.611h2.269v1.026h-2.269v4.501
		c0,2.124,1.351,2.395,2.035,2.395c0.252,0,0.414-0.036,0.414-0.036v1.099c0,0-0.198,0.036-0.522,0.036
		c-1.044,0-3.151-0.343-3.151-3.367V77.611z"/>
</g>
<g enable-background="new    ">
	<path fill="#6D5D4B" d="M47.049,76.261c2.647,0,4.79,2.017,4.79,4.699c0,2.736-2.143,4.789-4.79,4.789
		c-2.646,0-4.79-2.053-4.79-4.789C42.26,78.277,44.403,76.261,47.049,76.261z M47.049,84.651c1.945,0,3.529-1.585,3.529-3.691
		c0-2.053-1.584-3.583-3.529-3.583c-1.944,0-3.529,1.53-3.529,3.583C43.521,83.066,45.105,84.651,47.049,84.651z"/>
</g>
<g enable-background="new    ">
	<path fill="#6D5D4B" d="M58.874,72.875h1.224v4.394c0,0.414-0.036,0.738-0.036,0.738h0.036c0,0,0.756-1.746,3.079-1.746
		c2.431,0,3.943,1.944,3.943,4.753c0,2.863-1.71,4.735-4.087,4.735c-2.161,0-2.971-1.765-2.971-1.765h-0.036
		c0,0,0.036,0.307,0.036,0.738v0.811h-1.188V72.875z M62.943,84.669c1.602,0,2.917-1.351,2.917-3.655
		c0-2.215-1.17-3.637-2.863-3.637c-1.512,0-2.935,1.08-2.935,3.655C60.062,82.851,60.999,84.669,62.943,84.669z"/>
	<path fill="#6D5D4B" d="M73.311,76.261c2.503,0,3.781,1.927,3.781,4.177c0,0.216-0.036,0.631-0.036,0.631h-6.95
		c0.054,2.322,1.639,3.583,3.511,3.583c1.656,0,2.755-1.099,2.755-1.099l0.558,0.937c0,0-1.314,1.26-3.349,1.26
		c-2.701,0-4.735-1.944-4.735-4.735C68.846,78.043,70.862,76.261,73.311,76.261z M75.85,80.06c-0.072-1.891-1.224-2.772-2.575-2.772
		c-1.512,0-2.827,0.954-3.115,2.772H75.85z"/>
</g>
<g enable-background="new    ">
	<path fill="#6D5D4B" d="M83.966,72.875h1.224v4.897c0,0.415-0.036,0.738-0.036,0.738h0.036c0.342-0.864,1.548-2.25,3.601-2.25
		c2.233,0,3.025,1.278,3.025,3.511v5.762h-1.224v-5.438c0-1.423-0.216-2.683-1.963-2.683c-1.548,0-2.881,1.062-3.295,2.574
		c-0.108,0.36-0.144,0.774-0.144,1.207v4.339h-1.224V72.875z"/>
	<path fill="#6D5D4B" d="M99.447,79.934h0.504v-0.234c0-1.746-0.954-2.341-2.251-2.341c-1.494,0-2.557,0.864-2.557,0.864
		l-0.576-0.936c0,0,1.188-1.026,3.223-1.026c2.179,0,3.385,1.206,3.385,3.475v5.798h-1.17v-0.99c0-0.45,0.036-0.756,0.036-0.756
		h-0.036c0,0-0.756,1.962-3.024,1.962c-1.513,0-3.079-0.882-3.079-2.683C93.902,80.006,97.881,79.934,99.447,79.934z M97.179,84.705
		c1.729,0,2.773-1.801,2.773-3.367v-0.396h-0.522c-1.422,0-4.267,0.055-4.267,2.053C95.162,83.841,95.829,84.705,97.179,84.705z"/>
	<path fill="#6D5D4B" d="M104,76.477h1.17v0.882c0,0.396-0.036,0.702-0.036,0.702h0.036c0,0,0.738-1.8,3.133-1.8
		c2.431,0,3.943,1.944,3.943,4.753c0,2.863-1.711,4.735-4.051,4.735c-2.179,0-2.971-1.729-2.971-1.729h-0.036
		c0,0,0.036,0.324,0.036,0.792v4.322H104V76.477z M108.069,84.669c1.603,0,2.917-1.351,2.917-3.655c0-2.215-1.17-3.637-2.863-3.637
		c-1.512,0-2.935,1.08-2.935,3.655C105.188,82.851,106.197,84.669,108.069,84.669z"/>
	<path fill="#6D5D4B" d="M114.601,76.477h1.171v0.882c0,0.396-0.036,0.702-0.036,0.702h0.036c0,0,0.738-1.8,3.133-1.8
		c2.431,0,3.943,1.944,3.943,4.753c0,2.863-1.711,4.735-4.052,4.735c-2.178,0-2.971-1.729-2.971-1.729h-0.036
		c0,0,0.036,0.324,0.036,0.792v4.322h-1.225V76.477z M118.67,84.669c1.603,0,2.917-1.351,2.917-3.655
		c0-2.215-1.17-3.637-2.863-3.637c-1.512,0-2.935,1.08-2.935,3.655C115.79,82.851,116.798,84.669,118.67,84.669z"/>
</g>
<g enable-background="new    ">
	<path fill="#6D5D4B" d="M124.032,87.802c0,0,0.504,0.414,1.08,0.414c0.792,0,1.351-0.648,1.71-1.477l0.559-1.278l-3.781-8.984
		h1.352l2.664,6.607c0.18,0.45,0.324,0.955,0.324,0.955h0.035c0,0,0.127-0.505,0.307-0.955l2.611-6.607h1.332l-4.465,10.947
		c-0.469,1.152-1.404,1.891-2.611,1.891c-0.936,0-1.584-0.54-1.584-0.54L124.032,87.802z"/>
</g>
<g enable-background="new    ">
	<path fill="#6D5D4B" d="M133.41,84.093h1.423v1.44h-1.423V84.093z"/>
</g>
</svg>
