<?xml version="1.0" encoding="utf-8"?>
<!-- Generator: Adobe Illustrator 16.0.0, SVG Export Plug-In . SVG Version: 6.00 Build 0)  -->
<!DOCTYPE svg PUBLIC "-//W3C//DTD SVG 1.1//EN" "http://www.w3.org/Graphics/SVG/1.1/DTD/svg11.dtd">
<svg version="1.1" id="Layer_1" xmlns="http://www.w3.org/2000/svg" xmlns:xlink="http://www.w3.org/1999/xlink" x="0px" y="0px"
	 width="220.875px" height="138.951px" viewBox="0 0 220.875 138.951" enable-background="new 0 0 220.875 138.951"
	 xml:space="preserve">
<g>
	<g>
		<defs>
			<rect id="SVGID_1_" x="9.297" y="-1.196" width="213.578" height="117.951"/>
		</defs>
		<clipPath id="SVGID_2_">
			<use xlink:href="#SVGID_1_"  overflow="visible"/>
		</clipPath>
		<path clip-path="url(#SVGID_2_)" fill="#FFEBA2" d="M32.012-0.903l162.172-0.293v0.185c0.912-0.109,1.836-0.185,2.778-0.185
			c12.545,0,22.717,10.073,22.717,22.498v47.632c0,12.426-10.172,22.499-22.717,22.499c-0.942,0-1.866-0.074-2.778-0.185v0.185
			L32.012,91.726c-12.545,0-22.715-10.072-22.715-22.499V21.595C9.297,9.17,19.467-0.903,32.012-0.903"/>
	</g>
	<g>
		<defs>
			<rect id="SVGID_3_" x="9.297" y="-1.196" width="213.578" height="117.951"/>
		</defs>
		<clipPath id="SVGID_4_">
			<use xlink:href="#SVGID_3_"  overflow="visible"/>
		</clipPath>
		<path clip-path="url(#SVGID_4_)" fill="#FFEBA2" d="M54.688,84.394c0-13.703-8.517-25.41-20.54-30.129
			c3.656-1.435,7.634-2.231,11.799-2.231c17.861,0,32.34,14.488,32.34,32.36c0,17.873-14.479,32.361-32.34,32.361
			c-4.165,0-8.143-0.797-11.799-2.23C46.17,109.804,54.688,98.099,54.688,84.394"/>
	</g>
</g>
<g enable-background="new    ">
	<path fill="#6D5D4B" d="M28.936,36.074c0,0,1.314,1.386,3.313,1.386c1.386,0,2.521-0.828,2.521-2.196
		c0-3.187-6.32-2.377-6.32-6.302c0-1.818,1.603-3.403,3.943-3.403c2.196,0,3.385,1.225,3.385,1.225l-0.612,1.044
		c0,0-1.116-1.08-2.772-1.08c-1.621,0-2.665,1.062-2.665,2.179c0,3.007,6.32,2.143,6.32,6.302c0,1.891-1.458,3.421-3.835,3.421
		c-2.593,0-4.015-1.62-4.015-1.62L28.936,36.074z"/>
	<path fill="#6D5D4B" d="M42.581,29.16c2.215,0,3.313,1.296,3.313,1.296l-0.63,0.918c0,0-1.009-1.098-2.647-1.098
		c-1.98,0-3.529,1.477-3.529,3.637c0,2.125,1.567,3.638,3.565,3.638c1.836,0,2.899-1.278,2.899-1.278l0.558,0.954
		c0,0-1.225,1.422-3.529,1.422c-2.683,0-4.753-1.927-4.753-4.735C37.827,31.122,39.916,29.16,42.581,29.16z"/>
</g>
<g enable-background="new    ">
	<path fill="#6D5D4B" d="M47.979,29.376h1.206v1.603c0,0.396-0.036,0.72-0.036,0.72h0.036c0.432-1.368,1.44-2.412,2.863-2.412
		c0.252,0,0.486,0.054,0.486,0.054v1.206c0,0-0.216-0.035-0.45-0.035c-1.278,0-2.232,1.008-2.628,2.34
		c-0.18,0.576-0.252,1.188-0.252,1.765v3.817h-1.224V29.376z"/>
</g>
<g enable-background="new    ">
	<path fill="#6D5D4B" d="M57.953,29.16c2.503,0,3.781,1.927,3.781,4.177c0,0.216-0.036,0.631-0.036,0.631h-6.95
		c0.054,2.322,1.639,3.583,3.511,3.583c1.657,0,2.755-1.099,2.755-1.099l0.558,0.937c0,0-1.314,1.26-3.349,1.26
		c-2.701,0-4.735-1.944-4.735-4.735C53.487,30.942,55.504,29.16,57.953,29.16z M60.492,32.959c-0.072-1.891-1.225-2.772-2.575-2.772
		c-1.512,0-2.827,0.954-3.115,2.772H60.492z"/>
</g>
<g enable-background="new    ">
	<path fill="#6D5D4B" d="M67.744,29.16c2.503,0,3.781,1.927,3.781,4.177c0,0.216-0.036,0.631-0.036,0.631h-6.95
		c0.054,2.322,1.639,3.583,3.511,3.583c1.657,0,2.755-1.099,2.755-1.099l0.558,0.937c0,0-1.314,1.26-3.349,1.26
		c-2.701,0-4.735-1.944-4.735-4.735C63.278,30.942,65.295,29.16,67.744,29.16z M70.283,32.959c-0.072-1.891-1.225-2.772-2.575-2.772
		c-1.512,0-2.827,0.954-3.115,2.772H70.283z"/>
</g>
<g enable-background="new    ">
	<path fill="#6D5D4B" d="M73.683,29.376h1.206v1.351c0,0.396-0.036,0.72-0.036,0.72h0.036c0.324-0.828,1.477-2.286,3.619-2.286
		c2.233,0,3.025,1.278,3.025,3.511v5.762h-1.224v-5.438c0-1.423-0.216-2.683-1.963-2.683c-1.548,0-2.881,1.062-3.295,2.557
		c-0.108,0.378-0.144,0.792-0.144,1.225v4.339h-1.224V29.376z"/>
	<path fill="#6D5D4B" d="M84.698,30.511H83.51v-1.026h1.206v-2.611h1.207v2.611h2.269v1.026h-2.269v4.501
		c0,2.124,1.351,2.395,2.035,2.395c0.252,0,0.414-0.036,0.414-0.036v1.099c0,0-0.198,0.036-0.522,0.036
		c-1.044,0-3.151-0.343-3.151-3.367V30.511z"/>
</g>
<g enable-background="new    ">
	<path fill="#6D5D4B" d="M90.026,25.774h1.278v1.531h-1.278V25.774z M90.062,29.376h1.224v9.057h-1.224V29.376z"/>
</g>
<g enable-background="new    ">
	<path fill="#6D5D4B" d="M94.059,29.376h1.206v1.351c0,0.396-0.036,0.72-0.036,0.72h0.036c0.432-1.225,1.873-2.286,3.277-2.286
		c1.674,0,2.539,0.774,2.809,2.269h0.036c0.486-1.225,1.8-2.269,3.331-2.269c2.196,0,3.007,1.278,3.007,3.511v5.762H106.5v-5.456
		c0-1.476-0.306-2.7-1.962-2.7c-1.386,0-2.521,1.225-2.863,2.557c-0.126,0.396-0.162,0.828-0.162,1.314v4.285h-1.225v-5.456
		c0-1.368-0.198-2.7-1.908-2.7c-1.477,0-2.593,1.278-2.971,2.665c-0.09,0.378-0.126,0.792-0.126,1.206v4.285h-1.224V29.376z"/>
</g>
<g enable-background="new    ">
	<path fill="#6D5D4B" d="M114.219,29.16c2.503,0,3.781,1.927,3.781,4.177c0,0.216-0.036,0.631-0.036,0.631h-6.95
		c0.054,2.322,1.639,3.583,3.511,3.583c1.657,0,2.756-1.099,2.756-1.099l0.558,0.937c0,0-1.314,1.26-3.349,1.26
		c-2.701,0-4.736-1.944-4.736-4.735C109.754,30.942,111.771,29.16,114.219,29.16z M116.758,32.959
		c-0.072-1.891-1.225-2.772-2.575-2.772c-1.512,0-2.826,0.954-3.115,2.772H116.758z"/>
	<path fill="#6D5D4B" d="M129.303,29.16c2.215,0,3.313,1.296,3.313,1.296l-0.631,0.918c0,0-1.008-1.098-2.646-1.098
		c-1.98,0-3.529,1.477-3.529,3.637c0,2.125,1.566,3.638,3.565,3.638c1.837,0,2.898-1.278,2.898-1.278l0.559,0.954
		c0,0-1.225,1.422-3.529,1.422c-2.683,0-4.753-1.927-4.753-4.735C124.55,31.122,126.638,29.16,129.303,29.16z"/>
</g>
<g enable-background="new    ">
	<path fill="#6D5D4B" d="M139.33,32.833h0.504v-0.234c0-1.746-0.953-2.341-2.25-2.341c-1.494,0-2.557,0.864-2.557,0.864
		l-0.576-0.936c0,0,1.188-1.026,3.223-1.026c2.179,0,3.385,1.206,3.385,3.475v5.798h-1.17v-0.99c0-0.45,0.035-0.756,0.035-0.756
		h-0.035c0,0-0.756,1.962-3.025,1.962c-1.512,0-3.078-0.882-3.078-2.683C133.785,32.905,137.763,32.833,139.33,32.833z
		 M137.061,37.604c1.729,0,2.772-1.801,2.772-3.367v-0.396h-0.521c-1.423,0-4.268,0.055-4.268,2.053
		C135.044,36.74,135.71,37.604,137.061,37.604z"/>
	<path fill="#6D5D4B" d="M143.882,29.376h1.206v1.351c0,0.396-0.036,0.72-0.036,0.72h0.036c0.324-0.828,1.477-2.286,3.619-2.286
		c2.233,0,3.024,1.278,3.024,3.511v5.762h-1.224v-5.438c0-1.423-0.216-2.683-1.963-2.683c-1.548,0-2.881,1.062-3.295,2.557
		c-0.108,0.378-0.144,0.792-0.144,1.225v4.339h-1.225V29.376z"/>
	<path fill="#6D5D4B" d="M159.398,29.376h1.206v1.351c0,0.396-0.036,0.72-0.036,0.72h0.036c0.324-0.828,1.477-2.286,3.619-2.286
		c2.233,0,3.024,1.278,3.024,3.511v5.762h-1.224v-5.438c0-1.423-0.216-2.683-1.963-2.683c-1.548,0-2.881,1.062-3.295,2.557
		c-0.108,0.378-0.144,0.792-0.144,1.225v4.339h-1.225V29.376z"/>
</g>
<g enable-background="new    ">
	<path fill="#6D5D4B" d="M173.258,29.16c2.503,0,3.781,1.927,3.781,4.177c0,0.216-0.036,0.631-0.036,0.631h-6.95
		c0.054,2.322,1.639,3.583,3.511,3.583c1.657,0,2.756-1.099,2.756-1.099l0.558,0.937c0,0-1.314,1.26-3.349,1.26
		c-2.701,0-4.736-1.944-4.736-4.735C168.792,30.942,170.81,29.16,173.258,29.16z M175.797,32.959
		c-0.072-1.891-1.225-2.772-2.575-2.772c-1.512,0-2.826,0.954-3.115,2.772H175.797z"/>
</g>
<g enable-background="new    ">
	<path fill="#6D5D4B" d="M177.954,29.376h1.296l2.521,6.644c0.162,0.45,0.307,1.081,0.307,1.081h0.035c0,0,0.145-0.612,0.324-1.081
		l2.503-6.644h1.278l-3.457,9.057h-1.332L177.954,29.376z"/>
	<path fill="#6D5D4B" d="M191.761,29.16c2.502,0,3.781,1.927,3.781,4.177c0,0.216-0.037,0.631-0.037,0.631h-6.949
		c0.054,2.322,1.639,3.583,3.511,3.583c1.657,0,2.755-1.099,2.755-1.099l0.559,0.937c0,0-1.314,1.26-3.35,1.26
		c-2.701,0-4.735-1.944-4.735-4.735C187.295,30.942,189.312,29.16,191.761,29.16z M194.3,32.959
		c-0.072-1.891-1.225-2.772-2.576-2.772c-1.512,0-2.826,0.954-3.114,2.772H194.3z"/>
</g>
<g enable-background="new    ">
	<path fill="#6D5D4B" d="M197.556,29.376h1.207v1.603c0,0.396-0.036,0.72-0.036,0.72h0.036c0.432-1.368,1.439-2.412,2.863-2.412
		c0.252,0,0.485,0.054,0.485,0.054v1.206c0,0-0.216-0.035-0.45-0.035c-1.278,0-2.232,1.008-2.629,2.34
		c-0.18,0.576-0.252,1.188-0.252,1.765v3.817h-1.225V29.376z"/>
</g>
<g enable-background="new    ">
	<path fill="#6D5D4B" d="M28.773,55.368h1.206v1.603c0,0.396-0.036,0.72-0.036,0.72h0.036c0.432-1.368,1.44-2.412,2.863-2.412
		c0.252,0,0.486,0.054,0.486,0.054v1.206c0,0-0.216-0.035-0.45-0.035c-1.278,0-2.232,1.008-2.628,2.34
		c-0.18,0.576-0.252,1.188-0.252,1.765v3.817h-1.224V55.368z"/>
</g>
<g enable-background="new    ">
	<path fill="#6D5D4B" d="M38.836,55.152c2.503,0,3.781,1.927,3.781,4.177c0,0.216-0.036,0.631-0.036,0.631h-6.95
		c0.054,2.322,1.639,3.583,3.511,3.583c1.657,0,2.755-1.099,2.755-1.099l0.558,0.937c0,0-1.314,1.26-3.349,1.26
		c-2.701,0-4.735-1.944-4.735-4.735C34.371,56.935,36.388,55.152,38.836,55.152z M41.375,58.951
		c-0.072-1.891-1.225-2.772-2.575-2.772c-1.512,0-2.827,0.954-3.115,2.772H41.375z"/>
</g>
<g enable-background="new    ">
	<path fill="#6D5D4B" d="M44.865,55.368h1.17v0.882c0,0.396-0.036,0.702-0.036,0.702h0.036c0,0,0.738-1.8,3.133-1.8
		c2.431,0,3.943,1.944,3.943,4.753c0,2.863-1.71,4.735-4.051,4.735c-2.179,0-2.971-1.729-2.971-1.729h-0.036
		c0,0,0.036,0.324,0.036,0.792v4.322h-1.224V55.368z M48.935,63.561c1.602,0,2.917-1.351,2.917-3.655
		c0-2.215-1.17-3.637-2.863-3.637c-1.512,0-2.935,1.08-2.935,3.655C46.054,61.742,47.062,63.561,48.935,63.561z"/>
</g>
<g enable-background="new    ">
	<path fill="#6D5D4B" d="M55.305,51.767h1.225v10.245c0,1.188,0.54,1.369,1.008,1.369c0.162,0,0.306-0.019,0.306-0.019v1.099
		c0,0-0.216,0.036-0.45,0.036c-0.756,0-2.089-0.234-2.089-2.215V51.767z"/>
</g>
<g enable-background="new    ">
	<path fill="#6D5D4B" d="M64.559,58.825h0.504v-0.234c0-1.746-0.954-2.341-2.251-2.341c-1.494,0-2.557,0.864-2.557,0.864
		l-0.576-0.936c0,0,1.188-1.026,3.223-1.026c2.179,0,3.385,1.206,3.385,3.475v5.798h-1.17v-0.99c0-0.45,0.036-0.756,0.036-0.756
		h-0.036c0,0-0.756,1.962-3.024,1.962c-1.513,0-3.079-0.882-3.079-2.683C59.013,58.897,62.992,58.825,64.559,58.825z M62.29,63.597
		c1.729,0,2.773-1.801,2.773-3.367v-0.396h-0.522c-1.422,0-4.267,0.055-4.267,2.053C60.273,62.732,60.94,63.597,62.29,63.597z"/>
</g>
<g enable-background="new    ">
	<path fill="#6D5D4B" d="M73.162,55.152c2.215,0,3.313,1.296,3.313,1.296l-0.63,0.918c0,0-1.008-1.098-2.646-1.098
		c-1.98,0-3.529,1.477-3.529,3.637c0,2.125,1.566,3.638,3.565,3.638c1.836,0,2.898-1.278,2.898-1.278l0.559,0.954
		c0,0-1.225,1.422-3.529,1.422c-2.683,0-4.753-1.927-4.753-4.735C68.408,57.114,70.497,55.152,73.162,55.152z"/>
	<path fill="#6D5D4B" d="M82.755,55.152c2.503,0,3.781,1.927,3.781,4.177c0,0.216-0.036,0.631-0.036,0.631h-6.95
		c0.054,2.322,1.639,3.583,3.511,3.583c1.657,0,2.755-1.099,2.755-1.099l0.558,0.937c0,0-1.314,1.26-3.349,1.26
		c-2.701,0-4.735-1.944-4.735-4.735C78.29,56.935,80.307,55.152,82.755,55.152z M85.294,58.951
		c-0.072-1.891-1.225-2.772-2.575-2.772c-1.512,0-2.827,0.954-3.115,2.772H85.294z"/>
</g>
<g enable-background="new    ">
	<path fill="#6D5D4B" d="M93.86,56.503h-1.134v-1.026h1.134v-0.433c0-2.989,2.106-3.367,3.133-3.367
		c0.342,0,0.558,0.036,0.558,0.036v1.099c0,0-0.18-0.036-0.432-0.036c-0.702,0-2.035,0.252-2.035,2.269v0.433h2.323v1.026h-2.323
		v7.922H93.86V56.503z"/>
	<path fill="#6D5D4B" d="M104.013,58.825h0.504v-0.234c0-1.746-0.954-2.341-2.251-2.341c-1.494,0-2.557,0.864-2.557,0.864
		l-0.576-0.936c0,0,1.188-1.026,3.223-1.026c2.179,0,3.385,1.206,3.385,3.475v5.798h-1.17v-0.99c0-0.45,0.036-0.756,0.036-0.756
		h-0.036c0,0-0.756,1.962-3.024,1.962c-1.513,0-3.079-0.882-3.079-2.683C98.468,58.897,102.447,58.825,104.013,58.825z
		 M101.745,63.597c1.729,0,2.773-1.801,2.773-3.367v-0.396h-0.522c-1.422,0-4.267,0.055-4.267,2.053
		C99.728,62.732,100.395,63.597,101.745,63.597z"/>
</g>
<g enable-background="new    ">
	<path fill="#6D5D4B" d="M112.544,55.152c2.215,0,3.312,1.296,3.312,1.296l-0.63,0.918c0,0-1.008-1.098-2.646-1.098
		c-1.98,0-3.529,1.477-3.529,3.637c0,2.125,1.566,3.638,3.565,3.638c1.836,0,2.898-1.278,2.898-1.278l0.559,0.954
		c0,0-1.225,1.422-3.529,1.422c-2.683,0-4.753-1.927-4.753-4.735C107.791,57.114,109.88,55.152,112.544,55.152z"/>
	<path fill="#6D5D4B" d="M122.138,55.152c2.503,0,3.781,1.927,3.781,4.177c0,0.216-0.036,0.631-0.036,0.631h-6.95
		c0.055,2.322,1.639,3.583,3.512,3.583c1.656,0,2.754-1.099,2.754-1.099l0.559,0.937c0,0-1.314,1.26-3.35,1.26
		c-2.7,0-4.734-1.944-4.734-4.735C117.673,56.935,119.689,55.152,122.138,55.152z M124.677,58.951
		c-0.072-1.891-1.225-2.772-2.575-2.772c-1.513,0-2.827,0.954-3.114,2.772H124.677z"/>
</g>
<g enable-background="new    ">
	<path fill="#6D5D4B" d="M128.419,56.503h-1.188v-1.026h1.205v-2.611h1.207v2.611h2.269v1.026h-2.269v4.501
		c0,2.124,1.351,2.395,2.035,2.395c0.252,0,0.414-0.036,0.414-0.036v1.099c0,0-0.199,0.036-0.522,0.036
		c-1.044,0-3.151-0.343-3.151-3.367V56.503z"/>
</g>
<g enable-background="new    ">
	<path fill="#6D5D4B" d="M134,51.767h1.278v1.531H134V51.767z M134.036,55.368h1.224v9.057h-1.224V55.368z"/>
</g>
<g enable-background="new    ">
	<path fill="#6D5D4B" d="M138.122,55.368h1.206v1.351c0,0.396-0.035,0.72-0.035,0.72h0.035c0.432-1.225,1.873-2.286,3.277-2.286
		c1.674,0,2.539,0.774,2.809,2.269h0.036c0.486-1.225,1.8-2.269,3.331-2.269c2.196,0,3.007,1.278,3.007,3.511v5.762h-1.225v-5.456
		c0-1.476-0.306-2.7-1.962-2.7c-1.387,0-2.521,1.225-2.863,2.557c-0.126,0.396-0.162,0.828-0.162,1.314v4.285h-1.225v-5.456
		c0-1.368-0.197-2.7-1.908-2.7c-1.477,0-2.593,1.278-2.971,2.665c-0.09,0.378-0.127,0.792-0.127,1.206v4.285h-1.224V55.368z"/>
	<path fill="#6D5D4B" d="M158.445,55.152c2.502,0,3.781,1.927,3.781,4.177c0,0.216-0.037,0.631-0.037,0.631h-6.949
		c0.054,2.322,1.639,3.583,3.511,3.583c1.656,0,2.755-1.099,2.755-1.099l0.559,0.937c0,0-1.314,1.26-3.35,1.26
		c-2.701,0-4.735-1.944-4.735-4.735C153.979,56.935,155.996,55.152,158.445,55.152z M160.983,58.951
		c-0.071-1.891-1.224-2.772-2.575-2.772c-1.512,0-2.826,0.954-3.114,2.772H160.983z"/>
</g>
<g enable-background="new    ">
	<path fill="#6D5D4B" d="M164.456,62.984h1.423v1.44h-1.423V62.984z"/>
</g>
</svg>
