<?xml version="1.0" encoding="utf-8"?>
<!-- Generator: Adobe Illustrator 16.0.0, SVG Export Plug-In . SVG Version: 6.00 Build 0)  -->
<!DOCTYPE svg PUBLIC "-//W3C//DTD SVG 1.1//EN" "http://www.w3.org/Graphics/SVG/1.1/DTD/svg11.dtd">
<svg version="1.1" id="Layer_1" xmlns="http://www.w3.org/2000/svg" xmlns:xlink="http://www.w3.org/1999/xlink" x="0px" y="0px"
	 width="220.875px" height="138.951px" viewBox="0 0 220.875 138.951" enable-background="new 0 0 220.875 138.951"
	 xml:space="preserve">
<g>
	<path fill="#BCD9D8" d="M59.207,0.413L194.766,0.12v0.185c0.911-0.109,1.836-0.185,2.778-0.185
		c12.545,0,22.717,10.073,22.717,22.498V63.02c0,12.426-10.172,22.5-22.717,22.5c-0.942,0-1.866-0.076-2.778-0.188v0.188
		L59.207,85.812c-12.545,0-22.715-10.074-22.715-22.5V22.911C36.492,10.486,46.662,0.413,59.207,0.413"/>
	<path fill="#BCD9D8" d="M87.882,78.479c0-13.706-8.517-25.411-20.54-30.13c3.656-1.434,7.634-2.231,11.799-2.231
		c17.861,0,32.339,14.489,32.339,32.361c0,17.871-14.479,32.36-32.339,32.36c-4.165,0-8.143-0.797-11.799-2.231
		C79.365,103.892,87.882,92.185,87.882,78.479"/>
	<g enable-background="new    ">
		<path fill="#6D5D4B" d="M59.173,24.094h-4.556v-1.117h10.335v1.117h-4.537v11.541h-1.242V24.094z"/>
	</g>
	<g enable-background="new    ">
		<path fill="#6D5D4B" d="M68.515,26.362c2.503,0,3.781,1.927,3.781,4.177c0,0.216-0.036,0.631-0.036,0.631h-6.95
			c0.054,2.322,1.639,3.583,3.511,3.583c1.657,0,2.755-1.099,2.755-1.099l0.558,0.937c0,0-1.314,1.26-3.349,1.26
			c-2.701,0-4.735-1.944-4.735-4.735C64.05,28.145,66.066,26.362,68.515,26.362z M71.054,30.161
			c-0.072-1.891-1.225-2.772-2.575-2.772c-1.512,0-2.827,0.954-3.115,2.772H71.054z"/>
	</g>
	<g enable-background="new    ">
		<path fill="#6D5D4B" d="M79.261,30.035h0.504v-0.234c0-1.746-0.954-2.341-2.251-2.341c-1.494,0-2.557,0.864-2.557,0.864
			l-0.576-0.936c0,0,1.188-1.026,3.223-1.026c2.179,0,3.385,1.206,3.385,3.475v5.798h-1.17v-0.99c0-0.45,0.036-0.756,0.036-0.756
			h-0.036c0,0-0.756,1.962-3.024,1.962c-1.513,0-3.079-0.882-3.079-2.683C73.716,30.107,77.695,30.035,79.261,30.035z
			 M76.993,34.807c1.729,0,2.773-1.801,2.773-3.367v-0.396h-0.522c-1.422,0-4.267,0.055-4.267,2.053
			C74.976,33.942,75.643,34.807,76.993,34.807z"/>
	</g>
	<g enable-background="new    ">
		<path fill="#6D5D4B" d="M87.775,26.362c2.215,0,3.313,1.296,3.313,1.296l-0.63,0.918c0,0-1.008-1.098-2.646-1.098
			c-1.98,0-3.529,1.477-3.529,3.637c0,2.125,1.566,3.638,3.565,3.638c1.836,0,2.898-1.278,2.898-1.278l0.559,0.954
			c0,0-1.225,1.422-3.529,1.422c-2.683,0-4.753-1.927-4.753-4.735C83.022,28.324,85.111,26.362,87.775,26.362z"/>
	</g>
	<g enable-background="new    ">
		<path fill="#6D5D4B" d="M93.354,22.977h1.224v4.897c0,0.415-0.036,0.738-0.036,0.738h0.036c0.342-0.864,1.548-2.25,3.601-2.25
			c2.233,0,3.025,1.278,3.025,3.511v5.762H99.98v-5.438c0-1.423-0.216-2.683-1.963-2.683c-1.548,0-2.881,1.062-3.295,2.574
			c-0.108,0.36-0.144,0.774-0.144,1.207v4.339h-1.224V22.977z"/>
	</g>
	<g enable-background="new    ">
		<path fill="#6D5D4B" d="M107.825,37.903c0,0,0.504,0.414,1.08,0.414c0.792,0,1.351-0.648,1.71-1.477l0.559-1.278l-3.781-8.984
			h1.351l2.665,6.607c0.18,0.45,0.324,0.955,0.324,0.955h0.035c0,0,0.127-0.505,0.307-0.955l2.61-6.607h1.333l-4.466,10.947
			c-0.468,1.152-1.404,1.891-2.611,1.891c-0.936,0-1.584-0.54-1.584-0.54L107.825,37.903z"/>
		<path fill="#6D5D4B" d="M121.812,26.362c2.646,0,4.789,2.017,4.789,4.699c0,2.736-2.143,4.789-4.789,4.789
			c-2.647,0-4.79-2.053-4.79-4.789C117.022,28.379,119.165,26.362,121.812,26.362z M121.812,34.753c1.944,0,3.529-1.585,3.529-3.691
			c0-2.053-1.585-3.583-3.529-3.583c-1.945,0-3.529,1.53-3.529,3.583C118.283,33.168,119.867,34.753,121.812,34.753z"/>
		<path fill="#6D5D4B" d="M128.759,26.578h1.224v5.438c0,1.423,0.217,2.683,1.963,2.683c2.07,0,3.35-1.818,3.35-3.781v-4.339h1.225
			v9.057h-1.189v-1.351c0-0.396,0.037-0.72,0.037-0.72h-0.037c-0.359,0.882-1.548,2.286-3.547,2.286
			c-2.125,0-3.024-1.152-3.024-3.511V26.578z"/>
	</g>
	<g enable-background="new    ">
		<path fill="#6D5D4B" d="M138.75,26.578h1.205v1.603c0,0.396-0.035,0.72-0.035,0.72h0.035c0.433-1.368,1.441-2.412,2.863-2.412
			c0.252,0,0.486,0.054,0.486,0.054v1.206c0,0-0.216-0.035-0.45-0.035c-1.278,0-2.232,1.008-2.628,2.34
			c-0.181,0.576-0.253,1.188-0.253,1.765v3.817h-1.224V26.578z"/>
	</g>
	<g enable-background="new    ">
		<path fill="#6D5D4B" d="M149.658,22.977h1.224v4.394c0,0.414-0.036,0.738-0.036,0.738h0.036c0,0,0.757-1.746,3.079-1.746
			c2.431,0,3.943,1.944,3.943,4.753c0,2.863-1.711,4.735-4.088,4.735c-2.16,0-2.971-1.765-2.971-1.765h-0.035
			c0,0,0.035,0.307,0.035,0.738v0.811h-1.188V22.977z M153.727,34.771c1.603,0,2.917-1.351,2.917-3.655
			c0-2.215-1.171-3.637-2.862-3.637c-1.513,0-2.936,1.08-2.936,3.655C150.846,32.952,151.782,34.771,153.727,34.771z"/>
	</g>
	<g enable-background="new    ">
		<path fill="#6D5D4B" d="M160.096,26.578h1.207v1.603c0,0.396-0.036,0.72-0.036,0.72h0.036c0.432-1.368,1.439-2.412,2.863-2.412
			c0.252,0,0.485,0.054,0.485,0.054v1.206c0,0-0.216-0.035-0.45-0.035c-1.278,0-2.232,1.008-2.629,2.34
			c-0.18,0.576-0.252,1.188-0.252,1.765v3.817h-1.225V26.578z"/>
	</g>
	<g enable-background="new    ">
		<path fill="#6D5D4B" d="M170.34,26.362c2.647,0,4.79,2.017,4.79,4.699c0,2.736-2.143,4.789-4.79,4.789
			c-2.646,0-4.789-2.053-4.789-4.789C165.551,28.379,167.693,26.362,170.34,26.362z M170.34,34.753c1.945,0,3.529-1.585,3.529-3.691
			c0-2.053-1.584-3.583-3.529-3.583c-1.943,0-3.528,1.53-3.528,3.583C166.812,33.168,168.396,34.753,170.34,34.753z"/>
		<path fill="#6D5D4B" d="M177.755,27.713h-1.188v-1.026h1.207v-2.611h1.206v2.611h2.269v1.026h-2.269v4.501
			c0,2.124,1.351,2.395,2.034,2.395c0.252,0,0.414-0.036,0.414-0.036v1.099c0,0-0.197,0.036-0.521,0.036
			c-1.045,0-3.151-0.343-3.151-3.367V27.713z"/>
		<path fill="#6D5D4B" d="M183.443,22.977h1.224v4.897c0,0.415-0.036,0.738-0.036,0.738h0.036c0.343-0.864,1.548-2.25,3.601-2.25
			c2.233,0,3.025,1.278,3.025,3.511v5.762h-1.225v-5.438c0-1.423-0.216-2.683-1.963-2.683c-1.548,0-2.881,1.062-3.295,2.574
			c-0.107,0.36-0.144,0.774-0.144,1.207v4.339h-1.224V22.977z"/>
	</g>
	<g enable-background="new    ">
		<path fill="#6D5D4B" d="M197.465,26.362c2.504,0,3.781,1.927,3.781,4.177c0,0.216-0.035,0.631-0.035,0.631h-6.951
			c0.055,2.322,1.639,3.583,3.512,3.583c1.656,0,2.755-1.099,2.755-1.099l0.558,0.937c0,0-1.314,1.26-3.349,1.26
			c-2.7,0-4.735-1.944-4.735-4.735C193,28.145,195.017,26.362,197.465,26.362z M200.004,30.161
			c-0.072-1.891-1.225-2.772-2.574-2.772c-1.513,0-2.827,0.954-3.115,2.772H200.004z"/>
	</g>
	<g enable-background="new    ">
		<path fill="#6D5D4B" d="M203.404,26.578h1.205v1.603c0,0.396-0.035,0.72-0.035,0.72h0.035c0.433-1.368,1.441-2.412,2.863-2.412
			c0.252,0,0.486,0.054,0.486,0.054v1.206c0,0-0.216-0.035-0.45-0.035c-1.278,0-2.232,1.008-2.628,2.34
			c-0.181,0.576-0.253,1.188-0.253,1.765v3.817h-1.224V26.578z"/>
	</g>
	<g enable-background="new    ">
		<path fill="#6D5D4B" d="M56.31,53.705h-1.188v-1.026h1.206v-2.611h1.207v2.611h2.269v1.026h-2.269v4.501
			c0,2.124,1.351,2.395,2.035,2.395c0.252,0,0.414-0.036,0.414-0.036v1.099c0,0-0.198,0.036-0.522,0.036
			c-1.044,0-3.151-0.343-3.151-3.367V53.705z"/>
	</g>
	<g enable-background="new    ">
		<path fill="#6D5D4B" d="M65.959,52.354c2.647,0,4.79,2.017,4.79,4.699c0,2.736-2.143,4.789-4.79,4.789
			c-2.646,0-4.79-2.053-4.79-4.789C61.17,54.371,63.313,52.354,65.959,52.354z M65.959,60.745c1.945,0,3.529-1.585,3.529-3.691
			c0-2.053-1.584-3.583-3.529-3.583c-1.944,0-3.529,1.53-3.529,3.583C62.431,59.16,64.015,60.745,65.959,60.745z"/>
	</g>
	<g enable-background="new    ">
		<path fill="#6D5D4B" d="M77.514,48.969h1.224v4.394c0,0.414-0.036,0.738-0.036,0.738h0.036c0,0,0.756-1.746,3.079-1.746
			c2.431,0,3.943,1.944,3.943,4.753c0,2.863-1.71,4.735-4.087,4.735c-2.161,0-2.971-1.765-2.971-1.765h-0.036
			c0,0,0.036,0.307,0.036,0.738v0.811h-1.188V48.969z M81.583,60.763c1.602,0,2.917-1.351,2.917-3.655
			c0-2.215-1.17-3.637-2.863-3.637c-1.512,0-2.935,1.08-2.935,3.655C78.703,58.944,79.639,60.763,81.583,60.763z"/>
		<path fill="#6D5D4B" d="M91.951,52.354c2.503,0,3.781,1.927,3.781,4.177c0,0.216-0.036,0.631-0.036,0.631h-6.95
			c0.054,2.322,1.639,3.583,3.511,3.583c1.657,0,2.755-1.099,2.755-1.099l0.558,0.937c0,0-1.314,1.26-3.349,1.26
			c-2.701,0-4.735-1.944-4.735-4.735C87.485,54.137,89.502,52.354,91.951,52.354z M94.49,56.153
			c-0.072-1.891-1.225-2.772-2.575-2.772c-1.512,0-2.827,0.954-3.115,2.772H94.49z"/>
	</g>
	<g enable-background="new    ">
		<path fill="#6D5D4B" d="M102.335,59.646c0,0,1.008,1.099,2.701,1.099c0.972,0,1.818-0.486,1.818-1.44
			c0-1.981-4.879-1.495-4.879-4.447c0-1.621,1.458-2.503,3.097-2.503c1.909,0,2.791,0.99,2.791,0.99l-0.558,0.937
			c0,0-0.774-0.829-2.269-0.829c-0.918,0-1.801,0.396-1.801,1.405c0,1.998,4.879,1.458,4.879,4.447c0,1.476-1.278,2.538-3.097,2.538
			c-2.197,0-3.349-1.314-3.349-1.314L102.335,59.646z"/>
	</g>
	<g enable-background="new    ">
		<path fill="#6D5D4B" d="M114.342,52.354c2.647,0,4.79,2.017,4.79,4.699c0,2.736-2.143,4.789-4.79,4.789
			c-2.646,0-4.789-2.053-4.789-4.789C109.553,54.371,111.695,52.354,114.342,52.354z M114.342,60.745
			c1.945,0,3.529-1.585,3.529-3.691c0-2.053-1.584-3.583-3.529-3.583c-1.943,0-3.528,1.53-3.528,3.583
			C110.813,59.16,112.398,60.745,114.342,60.745z"/>
		<path fill="#6D5D4B" d="M125.538,52.354c2.215,0,3.313,1.296,3.313,1.296l-0.631,0.918c0,0-1.008-1.098-2.646-1.098
			c-1.98,0-3.529,1.477-3.529,3.637c0,2.125,1.566,3.638,3.565,3.638c1.837,0,2.899-1.278,2.899-1.278l0.558,0.954
			c0,0-1.225,1.422-3.529,1.422c-2.683,0-4.753-1.927-4.753-4.735C120.785,54.316,122.873,52.354,125.538,52.354z"/>
		<path fill="#6D5D4B" d="M131.261,48.969h1.278V50.5h-1.278V48.969z M131.297,52.57h1.225v9.057h-1.225V52.57z"/>
	</g>
	<g enable-background="new    ">
		<path fill="#6D5D4B" d="M139.74,56.027h0.504v-0.234c0-1.746-0.953-2.341-2.25-2.341c-1.494,0-2.557,0.864-2.557,0.864
			l-0.576-0.936c0,0,1.188-1.026,3.223-1.026c2.179,0,3.385,1.206,3.385,3.475v5.798h-1.17v-0.99c0-0.45,0.035-0.756,0.035-0.756
			h-0.035c0,0-0.756,1.962-3.025,1.962c-1.512,0-3.078-0.882-3.078-2.683C134.195,56.1,138.174,56.027,139.74,56.027z
			 M137.472,60.799c1.729,0,2.772-1.801,2.772-3.367v-0.396h-0.521c-1.423,0-4.268,0.055-4.268,2.053
			C135.455,59.935,136.121,60.799,137.472,60.799z"/>
	</g>
	<g enable-background="new    ">
		<path fill="#6D5D4B" d="M144.041,48.969h1.225v10.245c0,1.188,0.54,1.369,1.008,1.369c0.162,0,0.307-0.019,0.307-0.019v1.099
			c0,0-0.217,0.036-0.45,0.036c-0.757,0-2.089-0.234-2.089-2.215V48.969z"/>
	</g>
	<g enable-background="new    ">
		<path fill="#6D5D4B" d="M148.434,60.187h1.423v1.44h-1.423V60.187z"/>
	</g>
</g>
</svg>
