<?xml version="1.0" encoding="utf-8"?>
<!-- Generator: Adobe Illustrator 16.0.0, SVG Export Plug-In . SVG Version: 6.00 Build 0)  -->
<!DOCTYPE svg PUBLIC "-//W3C//DTD SVG 1.1//EN" "http://www.w3.org/Graphics/SVG/1.1/DTD/svg11.dtd">
<svg version="1.1" id="Layer_1" xmlns="http://www.w3.org/2000/svg" xmlns:xlink="http://www.w3.org/1999/xlink" x="0px" y="0px"
	 width="220.875px" height="138.951px" viewBox="0 0 220.875 138.951" enable-background="new 0 0 220.875 138.951"
	 xml:space="preserve">
<g>
	<g>
		<defs>
			<rect id="SVGID_1_" x="42.183" width="207.382" height="106.963"/>
		</defs>
		<clipPath id="SVGID_2_">
			<use xlink:href="#SVGID_1_"  overflow="visible"/>
		</clipPath>
		<path clip-path="url(#SVGID_2_)" fill="#FFEBA2" d="M64.898,0.293L194.457,0v0.186C195.371,0.075,196.292,0,197.236,0
			c12.547,0,22.717,10.073,22.717,22.498v11.304c0,12.427-10.17,22.499-22.717,22.499c-0.941,0-1.865-0.074-2.779-0.185v0.185
			L64.898,56.594c-12.545,0-22.715-10.072-22.715-22.499V22.791C42.184,10.366,52.354,0.293,64.898,0.293"/>
	</g>
	<g>
		<defs>
			<rect id="SVGID_3_" x="42.183" width="207.382" height="106.963"/>
		</defs>
		<clipPath id="SVGID_4_">
			<use xlink:href="#SVGID_3_"  overflow="visible"/>
		</clipPath>
		<path clip-path="url(#SVGID_4_)" fill="#FFEBA2" d="M87.574,49.263c0-13.705-8.517-25.411-20.54-30.13
			c3.656-1.436,7.634-2.232,11.799-2.232c17.861,0,32.34,14.489,32.34,32.362c0,17.872-14.479,32.361-32.34,32.361
			c-4.165,0-8.143-0.798-11.799-2.232C79.057,74.673,87.574,62.967,87.574,49.263"/>
	</g>
</g>
<g enable-background="new    ">
	<path fill="#6D5D4B" d="M58.02,21.005h1.243v5.762h7.346v-5.762h1.242v12.658h-1.242v-5.779h-7.346v5.779H58.02V21.005z"/>
</g>
<g enable-background="new    ">
	<path fill="#6D5D4B" d="M75.877,28.063h0.504v-0.234c0-1.746-0.954-2.341-2.251-2.341c-1.494,0-2.557,0.864-2.557,0.864
		l-0.576-0.936c0,0,1.188-1.026,3.223-1.026c2.179,0,3.385,1.206,3.385,3.475v5.798h-1.17v-0.99c0-0.45,0.036-0.756,0.036-0.756
		h-0.036c0,0-0.756,1.962-3.024,1.962c-1.513,0-3.079-0.882-3.079-2.683C70.332,28.136,74.311,28.063,75.877,28.063z M73.608,32.835
		c1.729,0,2.773-1.801,2.773-3.367v-0.396h-0.522c-1.422,0-4.267,0.055-4.267,2.053C71.592,31.971,72.258,32.835,73.608,32.835z"/>
</g>
<g enable-background="new    ">
	<path fill="#6D5D4B" d="M79.061,24.606h1.296l2.521,6.644c0.162,0.45,0.306,1.081,0.306,1.081h0.036c0,0,0.144-0.612,0.324-1.081
		l2.503-6.644h1.278l-3.457,9.057h-1.333L79.061,24.606z"/>
</g>
<g enable-background="new    ">
	<path fill="#6D5D4B" d="M92.797,24.391c2.503,0,3.781,1.927,3.781,4.177c0,0.216-0.036,0.631-0.036,0.631h-6.95
		c0.054,2.322,1.639,3.583,3.511,3.583c1.657,0,2.755-1.099,2.755-1.099l0.558,0.937c0,0-1.314,1.26-3.349,1.26
		c-2.701,0-4.735-1.944-4.735-4.735C88.332,26.173,90.348,24.391,92.797,24.391z M95.336,28.189
		c-0.072-1.891-1.225-2.772-2.575-2.772c-1.512,0-2.827,0.954-3.115,2.772H95.336z"/>
</g>
<g enable-background="new    ">
	<path fill="#6D5D4B" d="M104.009,25.741h-1.188v-1.026h1.206v-2.611h1.207v2.611h2.269v1.026h-2.269v4.501
		c0,2.124,1.351,2.395,2.035,2.395c0.252,0,0.414-0.036,0.414-0.036v1.099c0,0-0.198,0.036-0.522,0.036
		c-1.044,0-3.151-0.343-3.151-3.367V25.741z"/>
	<path fill="#6D5D4B" d="M109.697,21.005h1.224v4.897c0,0.415-0.036,0.738-0.036,0.738h0.036c0.342-0.864,1.549-2.25,3.602-2.25
		c2.232,0,3.024,1.278,3.024,3.511v5.762h-1.224v-5.438c0-1.423-0.217-2.683-1.963-2.683c-1.549,0-2.881,1.062-3.295,2.574
		c-0.108,0.36-0.145,0.774-0.145,1.207v4.339h-1.224V21.005z"/>
	<path fill="#6D5D4B" d="M120.335,21.005h1.277v1.531h-1.277V21.005z M120.371,24.606h1.225v9.057h-1.225V24.606z"/>
</g>
<g enable-background="new    ">
	<path fill="#6D5D4B" d="M128.382,24.391c2.215,0,3.312,1.296,3.312,1.296l-0.631,0.918c0,0-1.008-1.098-2.646-1.098
		c-1.98,0-3.529,1.477-3.529,3.637c0,2.125,1.566,3.638,3.566,3.638c1.836,0,2.898-1.278,2.898-1.278l0.559,0.954
		c0,0-1.225,1.422-3.529,1.422c-2.684,0-4.754-1.927-4.754-4.735C123.628,26.353,125.717,24.391,128.382,24.391z"/>
</g>
<g enable-background="new    ">
	<path fill="#6D5D4B" d="M134.05,21.005h1.225v7.059h1.44l2.719-3.457h1.477l-3.151,3.943v0.036l3.457,5.077h-1.458l-3.024-4.537
		h-1.459v4.537h-1.225V21.005z"/>
</g>
<g enable-background="new    ">
	<path fill="#6D5D4B" d="M146.687,24.391c2.504,0,3.781,1.927,3.781,4.177c0,0.216-0.035,0.631-0.035,0.631h-6.951
		c0.055,2.322,1.639,3.583,3.512,3.583c1.656,0,2.755-1.099,2.755-1.099l0.558,0.937c0,0-1.314,1.26-3.349,1.26
		c-2.7,0-4.735-1.944-4.735-4.735C142.222,26.173,144.239,24.391,146.687,24.391z M149.226,28.189
		c-0.072-1.891-1.225-2.772-2.574-2.772c-1.513,0-2.827,0.954-3.115,2.772H149.226z"/>
</g>
<g enable-background="new    ">
	<path fill="#6D5D4B" d="M152.716,24.606h1.207v1.603c0,0.396-0.036,0.72-0.036,0.72h0.036c0.432-1.368,1.439-2.412,2.863-2.412
		c0.252,0,0.485,0.054,0.485,0.054v1.206c0,0-0.216-0.035-0.45-0.035c-1.278,0-2.232,1.008-2.629,2.34
		c-0.18,0.576-0.252,1.188-0.252,1.765v3.817h-1.225V24.606z"/>
</g>
<g enable-background="new    ">
	<path fill="#6D5D4B" d="M163.822,31.683c0,0,1.009,1.099,2.701,1.099c0.973,0,1.818-0.486,1.818-1.44
		c0-1.981-4.879-1.495-4.879-4.447c0-1.621,1.459-2.503,3.097-2.503c1.909,0,2.791,0.99,2.791,0.99l-0.558,0.937
		c0,0-0.775-0.829-2.27-0.829c-0.918,0-1.801,0.396-1.801,1.405c0,1.998,4.88,1.458,4.88,4.447c0,1.476-1.278,2.538-3.097,2.538
		c-2.197,0-3.35-1.314-3.35-1.314L163.822,31.683z"/>
	<path fill="#6D5D4B" d="M171.869,21.005h1.225v7.059h1.439l2.719-3.457h1.477l-3.15,3.943v0.036l3.457,5.077h-1.459l-3.024-4.537
		h-1.458v4.537h-1.225V21.005z"/>
</g>
<g enable-background="new    ">
	<path fill="#6D5D4B" d="M180.597,21.005h1.279v1.531h-1.279V21.005z M180.634,24.606h1.224v9.057h-1.224V24.606z"/>
	<path fill="#6D5D4B" d="M184.81,24.606h1.205v1.351c0,0.396-0.035,0.72-0.035,0.72h0.035c0.324-0.828,1.477-2.286,3.619-2.286
		c2.233,0,3.025,1.278,3.025,3.511v5.762h-1.225v-5.438c0-1.423-0.216-2.683-1.963-2.683c-1.548,0-2.881,1.062-3.295,2.557
		c-0.107,0.378-0.144,0.792-0.144,1.225v4.339h-1.224V24.606z"/>
</g>
<g enable-background="new    ">
	<path fill="#6D5D4B" d="M195.953,32.276h1.386v1.387h-1.386V32.276z M195.988,21.005h1.26l-0.053,9.346h-1.152L195.988,21.005z"/>
</g>
</svg>
