<?xml version="1.0" encoding="utf-8"?>
<!-- Generator: Adobe Illustrator 16.0.0, SVG Export Plug-In . SVG Version: 6.00 Build 0)  -->
<!DOCTYPE svg PUBLIC "-//W3C//DTD SVG 1.1//EN" "http://www.w3.org/Graphics/SVG/1.1/DTD/svg11.dtd">
<svg version="1.1" id="Layer_1" xmlns="http://www.w3.org/2000/svg" xmlns:xlink="http://www.w3.org/1999/xlink" x="0px" y="0px"
	 width="1024px" height="40px" viewBox="0 0 1024 40" enable-background="new 0 0 1024 40" xml:space="preserve">
<g>
	<defs>
		<rect id="SVGID_1_" y="0.248" width="1024" height="39.417"/>
	</defs>
	<clipPath id="SVGID_2_">
		<use xlink:href="#SVGID_1_"  overflow="visible"/>
	</clipPath>
	<g clip-path="url(#SVGID_2_)">
		<rect y="0.914" fill="#F1EEEC" width="1024" height="39.417"/>
		<rect x="118.121" y="-1" fill="none" stroke="#FFFFFF" stroke-width="0.757" width="146.314" height="43.243"/>
		<rect x="412.263" y="-1" fill="none" stroke="#FFFFFF" stroke-width="0.757" width="118.484" height="43.243"/>
		<rect x="666.7" y="-1" fill="none" stroke="#FFFFFF" stroke-width="0.757" width="109.922" height="43.243"/>
		<path fill="#6D5D4B" d="M224.457,24.907h0.925v-3.285c0-0.327,0.027-0.64,0.109-0.926c0.313-1.132,1.322-1.937,2.495-1.937
			c1.323,0,1.486,0.954,1.486,2.031v4.116h0.925v-4.361c0-1.689-0.598-2.656-2.288-2.656c-1.623,0-2.495,1.103-2.741,1.729h-0.027
			c0,0.001,0.027-0.244,0.027-0.544v-1.022h-0.911V24.907z M216.496,21.446c0-1.555,1.199-2.713,2.672-2.713
			c1.472,0,2.672,1.158,2.672,2.713c0,1.595-1.2,2.795-2.672,2.795C217.695,24.241,216.496,23.041,216.496,21.446 M215.543,21.446
			c0,2.072,1.621,3.625,3.625,3.625s3.624-1.553,3.624-3.625c0-2.031-1.62-3.557-3.624-3.557S215.543,19.415,215.543,21.446
			 M212.954,24.907h0.925v-6.854h-0.925V24.907z M212.926,16.484h0.966v-1.157h-0.966V16.484z M208.715,22.414
			c0,2.289,1.593,2.548,2.384,2.548c0.245,0,0.395-0.028,0.395-0.028v-0.828c0,0-0.123,0.026-0.314,0.026
			c-0.518,0-1.54-0.205-1.54-1.812V18.91h1.718v-0.775h-1.718v-1.976h-0.911v1.976h-0.913v0.775h0.899V22.414z M200.565,21.487
			c0,2.127,1.566,3.584,3.596,3.584c1.745,0,2.672-1.075,2.672-1.075l-0.423-0.723c0,0-0.804,0.968-2.194,0.968
			c-1.513,0-2.699-1.146-2.699-2.754c0-1.637,1.172-2.754,2.672-2.754c1.24,0,2.003,0.832,2.003,0.832l0.477-0.696
			c0,0-0.831-0.979-2.508-0.979C202.144,17.89,200.565,19.374,200.565,21.487 M193.001,22.415c0,1.785,0.68,2.656,2.288,2.656
			c1.514,0,2.414-1.062,2.686-1.73h0.028c0-0.001-0.028,0.244-0.028,0.544v1.022h0.898v-6.854h-0.925v3.284
			c0,1.487-0.968,2.863-2.536,2.863c-1.323,0-1.486-0.954-1.486-2.031v-4.116h-0.925V22.415z M185.639,21.473
			c0-1.73,0.996-2.754,2.209-2.754c1.473,0,2.182,1.364,2.182,2.754c0,1.95-1.077,2.769-2.223,2.769
			C186.526,24.241,185.639,23.164,185.639,21.473 M184.687,21.473c0,2.127,1.143,3.599,2.984,3.599c1.8,0,2.359-1.375,2.359-1.375
			h0.027c0-0.002-0.027,0.188-0.027,0.489v0.722h0.897v-9.58h-0.925v3.338c0,0.286,0.028,0.518,0.028,0.518h-0.028
			c0,0-0.572-1.293-2.236-1.293C185.967,17.89,184.687,19.306,184.687,21.473 M177.176,21.446c0-1.555,1.199-2.713,2.672-2.713
			c1.472,0,2.672,1.158,2.672,2.713c0,1.595-1.2,2.795-2.672,2.795C178.375,24.241,177.176,23.041,177.176,21.446 M176.223,21.446
			c0,2.072,1.621,3.625,3.625,3.625c2.004,0,3.624-1.553,3.624-3.625c0-2.031-1.62-3.557-3.624-3.557
			C177.844,17.89,176.223,19.415,176.223,21.446 M172.026,24.907h0.925v-2.889c0-0.437,0.054-0.9,0.19-1.337
			c0.3-1.009,1.023-1.771,1.99-1.771c0.178,0,0.341,0.028,0.341,0.028v-0.912c0,0-0.177-0.041-0.368-0.041
			c-1.077,0-1.84,0.789-2.167,1.825h-0.027c0,0.001,0.027-0.244,0.027-0.545v-1.213h-0.911V24.907z M167.787,22.414
			c0,2.289,1.593,2.548,2.383,2.548c0.246,0,0.396-0.028,0.396-0.028v-0.828c0,0-0.123,0.026-0.314,0.026
			c-0.518,0-1.54-0.205-1.54-1.812V18.91h1.717v-0.775h-1.717v-1.976h-0.911v1.976h-0.914v0.775h0.9V22.414z M159.514,24.907h0.925
			v-3.285c0-0.327,0.028-0.64,0.109-0.926c0.314-1.132,1.323-1.937,2.496-1.937c1.322,0,1.486,0.954,1.486,2.031v4.116h0.925v-4.361
			c0-1.689-0.599-2.656-2.289-2.656c-1.622,0-2.495,1.103-2.74,1.729h-0.028c0,0.001,0.028-0.244,0.028-0.544v-1.022h-0.912V24.907z
			 M156.134,24.907h0.939v-9.58h-0.939V24.907z"/>
		<path fill="#6D5D4B" d="M373.041,24.036c-1.364,0-2.25-1.062-2.25-2.699c0-1.636,0.777-2.604,2.114-2.604
			c1.213,0,2.168,0.613,2.168,2.618C375.073,23.368,374.118,24.036,373.041,24.036 M370.805,26.462l-0.354,0.764
			c0.667,0.34,1.458,0.544,2.249,0.544c1.677,0,3.284-0.843,3.284-3.025v-6.69h-0.898v0.748c0,0.149,0.014,0.231,0.014,0.231h-0.027
			c0,0-0.45-1.143-2.264-1.143c-1.841,0-2.97,1.401-2.97,3.461c0,2.058,1.211,3.515,3.052,3.515c1.063,0,1.759-0.435,2.168-1.198
			h0.027c0,0-0.027,0.232-0.027,0.491v0.626c0,1.527-1.064,2.154-2.4,2.154C371.65,26.939,370.805,26.462,370.805,26.462
			 M362.275,24.907h0.925v-3.285c0-0.327,0.027-0.64,0.109-0.926c0.314-1.132,1.323-1.936,2.495-1.936
			c1.323,0,1.486,0.953,1.486,2.03v4.116h0.925v-4.361c0-1.689-0.598-2.655-2.288-2.655c-1.623,0-2.495,1.102-2.741,1.729h-0.027
			c0,0.001,0.027-0.244,0.027-0.544v-1.021h-0.911V24.907z M359.181,24.907h0.925v-6.854h-0.925V24.907z M359.154,16.484h0.966
			v-1.157h-0.966V16.484z M354.328,24.907h1.009l2.616-6.854h-0.968l-1.893,5.028c-0.137,0.355-0.246,0.818-0.246,0.818h-0.027
			c0,0-0.109-0.478-0.232-0.818l-1.907-5.028h-0.981L354.328,24.907z M349.545,24.907h0.925v-6.854h-0.925V24.907z M349.518,16.484
			h0.966v-1.157h-0.966V16.484z M342.826,24.907h5.382v-0.843h-4.443v-8.737h-0.939V24.907z M331.201,27.361
			c0,0,0.49,0.408,1.199,0.408c0.913,0,1.621-0.559,1.975-1.43l3.38-8.286h-1.009l-1.975,5.002
			c-0.137,0.341-0.232,0.722-0.232,0.722h-0.027c0,0-0.109-0.381-0.246-0.722l-2.016-5.002h-1.022l2.861,6.801l-0.422,0.968
			c-0.273,0.627-0.695,1.117-1.294,1.117c-0.437,0-0.818-0.313-0.818-0.313L331.201,27.361z M325.161,21.5
			c0-1.948,1.077-2.767,2.223-2.767c1.281,0,2.168,1.077,2.168,2.754c0,1.745-0.996,2.767-2.209,2.767
			C325.925,24.254,325.161,22.877,325.161,21.5 M324.264,27.633h0.925v-3.27c0-0.354-0.028-0.599-0.028-0.599h0.028
			c0,0,0.6,1.307,2.249,1.307c1.773,0,3.066-1.416,3.066-3.584c0-2.127-1.143-3.597-2.984-3.597c-1.813,0-2.372,1.36-2.372,1.36
			h-0.027c0,0,0.027-0.231,0.027-0.53v-0.667h-0.884V27.633z M317.202,21.5c0-1.948,1.077-2.767,2.222-2.767
			c1.282,0,2.168,1.077,2.168,2.754c0,1.745-0.995,2.767-2.208,2.767C317.966,24.254,317.202,22.877,317.202,21.5 M316.304,27.633
			h0.925v-3.27c0-0.354-0.027-0.599-0.027-0.599h0.027c0,0,0.6,1.307,2.25,1.307c1.772,0,3.066-1.416,3.066-3.584
			c0-2.127-1.144-3.597-2.984-3.597c-1.814,0-2.373,1.36-2.373,1.36h-0.027c0,0,0.027-0.231,0.027-0.53v-0.667h-0.884V27.633z
			 M309.679,22.986c0-1.514,2.154-1.554,3.231-1.554h0.396v0.3c0,1.186-0.791,2.55-2.1,2.55
			C310.183,24.282,309.679,23.627,309.679,22.986 M308.726,23.041c0,1.363,1.185,2.03,2.33,2.03c1.718,0,2.291-1.485,2.291-1.485
			h0.027c0-0.001-0.027,0.231-0.027,0.571v0.75h0.884v-4.387c0-1.719-0.912-2.63-2.561-2.63c-1.541,0-2.44,0.774-2.44,0.774
			l0.435,0.709c0,0,0.805-0.654,1.936-0.654c0.982,0,1.705,0.449,1.705,1.773v0.177h-0.382
			C311.738,20.67,308.726,20.725,308.726,23.041 M299.404,24.907h0.939v-4.375h5.562v4.375h0.939v-9.58h-0.939v4.362h-5.562v-4.362
			h-0.939V24.907z"/>
		<path fill="#6D5D4B" d="M483.677,25.664h0.925v-3.285c0-0.326,0.027-0.64,0.109-0.912c0.313-1.146,1.322-1.949,2.495-1.949
			c1.323,0,1.486,0.954,1.486,2.031v4.115h0.925v-4.36c0-1.69-0.598-2.656-2.288-2.656c-1.555,0-2.468,1.047-2.727,1.702h-0.027
			c0,0,0.027-0.246,0.027-0.56v-3.706h-0.925V25.664z M479.438,23.171c0,2.289,1.593,2.549,2.384,2.549
			c0.245,0,0.395-0.028,0.395-0.028v-0.829c0,0-0.123,0.027-0.314,0.027c-0.518,0-1.54-0.205-1.54-1.813v-3.409h1.717v-0.774h-1.717
			v-1.977h-0.911v1.977h-0.913v0.774h0.899V23.171z M475.813,24.044c0,1.498,1.007,1.676,1.579,1.676
			c0.177,0,0.341-0.028,0.341-0.028v-0.829c0,0-0.109,0.013-0.232,0.013c-0.354,0-0.763-0.136-0.763-1.035v-7.756h-0.925V24.044z
			 M469.256,23.743c0-1.514,2.154-1.554,3.231-1.554h0.396v0.3c0,1.187-0.791,2.55-2.1,2.55
			C469.76,25.039,469.256,24.385,469.256,23.743 M468.303,23.799c0,1.362,1.184,2.029,2.33,2.029c1.718,0,2.29-1.484,2.29-1.484
			h0.028c0-0.001-0.028,0.23-0.028,0.57v0.75h0.885v-4.387c0-1.719-0.912-2.63-2.562-2.63c-1.54,0-2.439,0.775-2.439,0.775
			l0.435,0.709c0,0,0.804-0.655,1.936-0.655c0.982,0,1.705,0.45,1.705,1.773v0.178h-0.382
			C471.315,21.428,468.303,21.481,468.303,23.799 M461.909,21.522c0.219-1.377,1.214-2.1,2.359-2.1c1.023,0,1.895,0.668,1.95,2.1
			H461.909z M460.917,22.243c0,2.114,1.539,3.585,3.584,3.585c1.541,0,2.534-0.953,2.534-0.953l-0.421-0.709
			c0,0-0.831,0.832-2.086,0.832c-1.418,0-2.618-0.955-2.658-2.714h5.26c0,0,0.028-0.312,0.028-0.476
			c0-1.704-0.966-3.161-2.861-3.161C462.441,18.647,460.917,19.995,460.917,22.243 M451.512,25.664h0.939v-4.375h5.562v4.375h0.939
			v-9.58h-0.939v4.362h-5.562v-4.362h-0.939V25.664z"/>
		<path fill="#6D5D4B" d="M622.831,22.258c0-1.949,1.077-2.768,2.222-2.768c1.282,0,2.168,1.077,2.168,2.754
			c0,1.745-0.995,2.769-2.209,2.769C623.594,25.013,622.831,23.635,622.831,22.258 M621.933,28.391h0.926V25.12
			c0-0.354-0.027-0.599-0.027-0.599h0.027c0,0,0.6,1.307,2.25,1.307c1.771,0,3.064-1.416,3.064-3.584
			c0-2.127-1.143-3.597-2.983-3.597c-1.813,0-2.372,1.361-2.372,1.361h-0.027c0,0,0.027-0.232,0.027-0.531v-0.667h-0.885V28.391z
			 M618.839,25.664h0.925v-6.854h-0.925V25.664z M618.812,17.241h0.967v-1.157h-0.967V17.241z M610.825,25.664h0.925v-3.285
			c0-0.326,0.028-0.64,0.109-0.912c0.313-1.146,1.322-1.949,2.496-1.949c1.321,0,1.485,0.954,1.485,2.031v4.115h0.925v-4.36
			c0-1.69-0.599-2.656-2.289-2.656c-1.554,0-2.468,1.047-2.727,1.702h-0.027c0,0,0.027-0.246,0.027-0.56v-3.706h-0.925V25.664z
			 M604.297,24.834c0,0,0.871,0.994,2.534,0.994c1.378,0,2.344-0.803,2.344-1.921c0-2.263-3.694-1.854-3.694-3.367
			c0-0.764,0.668-1.063,1.364-1.063c1.132,0,1.717,0.627,1.717,0.627l0.423-0.708c0,0-0.667-0.748-2.112-0.748
			c-1.241,0-2.343,0.666-2.343,1.893c0,2.236,3.692,1.868,3.692,3.367c0,0.723-0.641,1.091-1.377,1.091
			c-1.282,0-2.044-0.832-2.044-0.832L604.297,24.834z M597.398,22.23c0-1.731,0.995-2.754,2.21-2.754
			c1.472,0,2.181,1.364,2.181,2.754c0,1.95-1.077,2.768-2.222,2.768C598.285,24.998,597.398,23.921,597.398,22.23 M596.447,22.23
			c0,2.127,1.143,3.598,2.983,3.598c1.8,0,2.358-1.375,2.358-1.375h0.027c0-0.002-0.027,0.189-0.027,0.489v0.722h0.897v-9.58h-0.925
			v3.339c0,0.285,0.027,0.518,0.027,0.518h-0.027c0,0-0.572-1.293-2.235-1.293C597.726,18.647,596.447,20.063,596.447,22.23
			 M588.883,25.664h0.925v-3.285c0-0.326,0.027-0.64,0.109-0.926c0.313-1.132,1.322-1.936,2.495-1.936
			c1.323,0,1.486,0.954,1.486,2.031v4.115h0.925v-4.36c0-1.69-0.599-2.656-2.288-2.656c-1.623,0-2.496,1.102-2.741,1.729h-0.027
			c0,0.001,0.027-0.243,0.027-0.544v-1.021h-0.911V25.664z M581.93,21.522c0.219-1.377,1.214-2.1,2.359-2.1
			c1.021,0,1.895,0.668,1.95,2.1H581.93z M580.937,22.243c0,2.114,1.538,3.585,3.584,3.585c1.54,0,2.534-0.953,2.534-0.953
			l-0.422-0.709c0,0-0.831,0.832-2.085,0.832c-1.418,0-2.618-0.955-2.659-2.714h5.262c0,0,0.026-0.312,0.026-0.476
			c0-1.704-0.966-3.161-2.86-3.161C582.462,18.647,580.937,19.995,580.937,22.243 M578.32,25.664h0.925v-6.854h-0.925V25.664z
			 M578.293,17.241h0.966v-1.157h-0.966V17.241z M573.536,25.664h0.925v-2.889c0-0.438,0.055-0.9,0.191-1.336
			c0.3-1.009,1.021-1.772,1.989-1.772c0.178,0,0.342,0.027,0.342,0.027v-0.911c0,0-0.178-0.041-0.368-0.041
			c-1.077,0-1.84,0.789-2.167,1.825h-0.027c0,0.001,0.027-0.244,0.027-0.544v-1.213h-0.912V25.664z M566.967,25.664h0.939v-4.293
			h3.516v-0.844h-3.516v-3.599h4.102v-0.845h-5.041V25.664z"/>
		<path fill="#6D5D4B" d="M741.045,24.835c0,0,0.871,0.993,2.535,0.993c1.377,0,2.343-0.802,2.343-1.92
			c0-2.265-3.694-1.854-3.694-3.368c0-0.763,0.669-1.063,1.364-1.063c1.132,0,1.718,0.627,1.718,0.627l0.421-0.709
			c0,0-0.666-0.748-2.112-0.748c-1.24,0-2.343,0.668-2.343,1.894c0,2.236,3.694,1.868,3.694,3.368c0,0.722-0.641,1.09-1.378,1.09
			c-1.282,0-2.044-0.831-2.044-0.831L741.045,24.835z M735.075,24.835c0,0,0.871,0.993,2.534,0.993c1.377,0,2.343-0.802,2.343-1.92
			c0-2.265-3.692-1.854-3.692-3.368c0-0.763,0.668-1.063,1.364-1.063c1.132,0,1.717,0.627,1.717,0.627l0.422-0.709
			c0,0-0.667-0.748-2.112-0.748c-1.241,0-2.343,0.668-2.343,1.894c0,2.236,3.693,1.868,3.693,3.368c0,0.722-0.642,1.09-1.377,1.09
			c-1.282,0-2.044-0.831-2.044-0.831L735.075,24.835z M728.682,21.523c0.218-1.379,1.214-2.102,2.359-2.102
			c1.021,0,1.895,0.669,1.949,2.102H728.682z M727.688,22.244c0,2.113,1.538,3.584,3.584,3.584c1.54,0,2.534-0.952,2.534-0.952
			l-0.422-0.71c0,0-0.831,0.832-2.085,0.832c-1.418,0-2.618-0.954-2.659-2.714h5.261c0,0,0.027-0.312,0.027-0.477
			c0-1.704-0.966-3.161-2.861-3.161C729.214,18.646,727.688,19.995,727.688,22.244 M720.274,22.244c0,2.127,1.565,3.584,3.597,3.584
			c1.743,0,2.671-1.075,2.671-1.075l-0.423-0.723c0,0-0.804,0.968-2.194,0.968c-1.513,0-2.698-1.146-2.698-2.754
			c0-1.636,1.172-2.754,2.671-2.754c1.241,0,2.004,0.832,2.004,0.832l0.478-0.695c0,0-0.832-0.98-2.508-0.98
			C721.854,18.646,720.274,20.131,720.274,22.244 M712.859,22.244c0,2.127,1.566,3.584,3.598,3.584c1.743,0,2.671-1.075,2.671-1.075
			l-0.423-0.723c0,0-0.805,0.968-2.194,0.968c-1.513,0-2.698-1.146-2.698-2.754c0-1.636,1.172-2.754,2.671-2.754
			c1.24,0,2.003,0.832,2.003,0.832l0.478-0.695c0,0-0.831-0.98-2.507-0.98C714.439,18.646,712.859,20.131,712.859,22.244
			 M705.296,23.172c0,1.785,0.68,2.656,2.289,2.656c1.513,0,2.413-1.062,2.686-1.729h0.027c0-0.002-0.027,0.244-0.027,0.544v1.021
			h0.898v-6.854h-0.927v3.283c0,1.487-0.968,2.863-2.535,2.863c-1.322,0-1.486-0.954-1.486-2.03v-4.116h-0.925V23.172z
			 M697.69,24.603c0,0,1.075,1.226,3.038,1.226c1.8,0,2.903-1.157,2.903-2.588c0-3.149-4.784-2.495-4.784-4.771
			c0-0.846,0.791-1.649,2.018-1.649c1.254,0,2.1,0.817,2.1,0.817l0.463-0.791c0,0-0.899-0.925-2.562-0.925
			c-1.772,0-2.983,1.198-2.983,2.575c0,2.972,4.784,2.357,4.784,4.771c0,1.036-0.859,1.663-1.909,1.663
			c-1.515,0-2.508-1.05-2.508-1.05L697.69,24.603z"/>
		<path fill="#6D5D4B" d="M75.43,24.907h1.048v-1.048H75.43V24.907z M75.505,22.401h0.871l0.04-7.074h-0.952L75.505,22.401z
			 M67.005,21.446c0-1.554,1.2-2.713,2.673-2.713c1.472,0,2.672,1.159,2.672,2.713c0,1.595-1.2,2.795-2.672,2.795
			C68.205,24.241,67.005,23.041,67.005,21.446 M66.053,21.446c0,2.072,1.621,3.625,3.625,3.625s3.624-1.553,3.624-3.625
			c0-2.031-1.62-3.556-3.624-3.556S66.053,19.415,66.053,21.446 M63.191,23.287c0,1.498,1.007,1.675,1.579,1.675
			c0.178,0,0.341-0.027,0.341-0.027v-0.829c0,0-0.109,0.013-0.232,0.013c-0.354,0-0.763-0.136-0.763-1.036v-7.755h-0.925V23.287z
			 M59.893,23.287c0,1.498,1.007,1.675,1.579,1.675c0.177,0,0.341-0.027,0.341-0.027v-0.829c0,0-0.109,0.013-0.232,0.013
			c-0.354,0-0.763-0.136-0.763-1.036v-7.755h-0.925V23.287z M53.008,20.766c0.219-1.377,1.214-2.101,2.359-2.101
			c1.023,0,1.895,0.668,1.95,2.101H53.008z M52.015,21.486c0,2.114,1.539,3.585,3.584,3.585c1.541,0,2.534-0.953,2.534-0.953
			l-0.421-0.709c0,0-0.831,0.832-2.086,0.832c-1.418,0-2.618-0.955-2.658-2.714h5.261c0,0,0.027-0.313,0.027-0.476
			c0-1.704-0.966-3.161-2.861-3.161C53.54,17.891,52.015,19.238,52.015,21.486 M42.611,24.907h0.939v-4.375h5.562v4.375h0.939v-9.58
			h-0.939v4.362H43.55v-4.362h-0.939V24.907z"/>
	</g>
</g>
</svg>
