<?xml version="1.0" encoding="utf-8"?>
<!-- Generator: Adobe Illustrator 16.0.0, SVG Export Plug-In . SVG Version: 6.00 Build 0)  -->
<!DOCTYPE svg PUBLIC "-//W3C//DTD SVG 1.1//EN" "http://www.w3.org/Graphics/SVG/1.1/DTD/svg11.dtd">
<svg version="1.1" id="Layer_1" xmlns="http://www.w3.org/2000/svg" xmlns:xlink="http://www.w3.org/1999/xlink" x="0px" y="0px"
	 width="220.875px" height="138.951px" viewBox="0 0 220.875 138.951" enable-background="new 0 0 220.875 138.951"
	 xml:space="preserve">
<g>
	<g>
		<defs>
			<rect id="SVGID_1_" x="0.126" y="-0.951" width="209.381" height="138.951"/>
		</defs>
		<clipPath id="SVGID_2_">
			<use xlink:href="#SVGID_1_"  overflow="visible"/>
		</clipPath>
		<path clip-path="url(#SVGID_2_)" fill="#FABB9E" d="M180.792-0.658L25.621-0.951v0.185c-0.912-0.109-1.836-0.185-2.778-0.185
			c-12.546,0-22.717,10.073-22.717,22.498v68.632c0,12.426,10.171,22.499,22.717,22.499c0.942,0,1.866-0.075,2.778-0.185v0.185
			l155.171,0.294c12.545,0,22.715-10.074,22.715-22.5V21.84C203.507,9.415,193.337-0.658,180.792-0.658"/>
	</g>
	<g>
		<defs>
			<rect id="SVGID_3_" x="0.126" y="-0.951" width="209.381" height="138.951"/>
		</defs>
		<clipPath id="SVGID_4_">
			<use xlink:href="#SVGID_3_"  overflow="visible"/>
		</clipPath>
		<path clip-path="url(#SVGID_4_)" fill="#FABB9E" d="M158.119,105.64c0-13.705,8.516-25.41,20.539-30.131
			c-3.656-1.435-7.634-2.23-11.799-2.23c-17.861,0-32.34,14.488-32.34,32.361c0,17.871,14.479,32.36,32.34,32.36
			c4.165,0,8.143-0.797,11.799-2.231C166.634,131.049,158.119,119.343,158.119,105.64"/>
	</g>
</g>
<g enable-background="new    ">
	<path fill="#6D5D4B" d="M28.369,18.669c-0.054,0.306-0.09,1.044-0.09,1.603c0,1.044,0.198,2.917,0.396,3.907
		c0.306,1.458,1.279,3.564,2.323,5.041c0.72,1.009,1.693,2.035,2.665,2.845c0.576,0.486,1.044,0.792,2.088,1.404
		c-0.432,0.396-0.63,0.612-0.936,1.135c-2.197-1.494-3.493-2.755-4.771-4.609c-1.116-1.639-1.8-3.313-2.341-5.726
		c-0.324,1.71-0.63,2.683-1.242,4.015c-0.63,1.387-1.422,2.539-2.575,3.691c-1.008,1.044-1.747,1.639-3.313,2.629
		c-0.306-0.486-0.522-0.721-0.972-1.062c1.818-1.008,2.628-1.603,3.673-2.719c2.521-2.683,3.745-6.14,3.745-10.587
		c0-0.721-0.018-1.099-0.09-1.566H28.369z"/>
	<path fill="#6D5D4B" d="M37.348,26.537c0.576-1.747,0.756-2.791,0.882-4.754l1.008,0.198c-0.162,1.944-0.396,3.313-0.9,4.916
		L37.348,26.537z M41.147,18.345c-0.09,0.612-0.126,1.116-0.126,1.818V32.73c0,0.811,0.036,1.44,0.126,2.053h-1.387
		c0.09-0.576,0.126-1.296,0.126-2.07v-12.55c0-0.685-0.036-1.206-0.126-1.818H41.147z M42.354,25.331
		c-0.216-1.387-0.414-2.179-0.864-3.367l0.847-0.288c0.432,1.17,0.684,2.017,0.954,3.331L42.354,25.331z M51.141,21.567
		c0.864,0,1.224-0.018,1.71-0.072C52.797,22,52.779,22.45,52.779,23.17v9.524c0,0.685,0.036,1.405,0.108,1.909h-1.26v-1.278h-6.59
		v1.332h-1.26c0.072-0.486,0.108-1.134,0.108-1.891v-9.524c0-0.774-0.018-1.225-0.072-1.747c0.504,0.055,0.918,0.072,1.729,0.072
		h1.314c0.468-1.062,0.756-1.963,0.99-3.15l1.333,0.216c-0.468,1.296-0.828,2.269-1.134,2.935H51.141z M45.037,26.717h6.59V22.63
		h-6.59V26.717z M45.037,32.263h6.59v-4.501h-6.59V32.263z"/>
	<path fill="#6D5D4B" d="M64.135,24.935h5.474c0.882,0,1.531-0.036,1.999-0.126v1.387c-0.486-0.091-1.08-0.126-1.98-0.126h-5.492
		v6.787c0,0.738,0.036,1.333,0.126,1.945h-1.512c0.09-0.631,0.126-1.242,0.126-1.945v-6.787h-5.131
		c-0.882,0-1.495,0.035-1.999,0.126v-1.387c0.486,0.09,1.135,0.126,1.999,0.126h5.131v-4.699h-4.25c-0.756,0-1.296,0.036-1.89,0.107
		v-1.332c0.522,0.072,1.116,0.108,1.89,0.108h10.047c0.738,0,1.35-0.036,1.891-0.108v1.332c-0.541-0.071-1.17-0.107-1.891-0.107
		h-4.538V24.935z"/>
	<path fill="#6D5D4B" d="M74.086,23.224c1.422,0.702,2.035,1.081,3.313,2.071l-0.63,1.044c-1.188-1.026-1.999-1.566-3.313-2.232
		L74.086,23.224z M77.58,29.04c-0.558,1.224-1.477,3.007-1.891,3.654c-0.468,0.721-0.756,1.171-0.846,1.297
		c-0.126,0.216-0.126,0.216-0.252,0.414l-1.026-0.937c0.198-0.18,0.342-0.342,0.558-0.612c1.008-1.296,1.674-2.484,2.539-4.537
		L77.58,29.04z M74.879,18.687c1.386,0.918,2.125,1.494,3.097,2.395l-0.702,0.955c-0.99-0.973-1.71-1.567-3.133-2.521L74.879,18.687
		z M84.35,23.872h3.511c0.792,0,1.351-0.036,1.837-0.107v1.278c-0.522-0.072-1.099-0.108-1.837-0.108H84.35v3.061h2.881
		c0.648,0,1.08-0.018,1.386-0.071c-0.054,0.359-0.072,0.846-0.072,1.638v3.422c0,0.72,0.036,1.368,0.09,1.746h-1.224v-1.026h-6.968
		v1.026h-1.225c0.072-0.486,0.09-1.009,0.09-1.765v-3.457c0-0.612-0.018-1.134-0.072-1.584c0.36,0.054,0.738,0.071,1.314,0.071
		h2.647v-3.061h-3.421c-0.685,0-1.314,0.036-1.819,0.108v-1.278c0.468,0.071,1.044,0.107,1.819,0.107h3.421v-2.917
		c-1.495,0.234-2.755,0.378-4.123,0.45c-0.108-0.414-0.198-0.648-0.468-1.098c2.502-0.036,5.095-0.379,7.616-1.026
		c1.008-0.253,1.53-0.433,2.071-0.721l0.828,1.08c-0.216,0.055-0.216,0.055-0.594,0.162c-1.062,0.307-2.647,0.666-4.177,0.954
		V23.872z M80.442,32.641h6.968v-3.619h-6.968V32.641z"/>
	<path fill="#6D5D4B" d="M97.182,19.101c-0.09,0.504-0.108,0.864-0.108,1.513v3.475c0,3.169-0.378,5.366-1.225,7.076
		c-0.666,1.369-1.495,2.305-3.025,3.439c-0.36-0.486-0.594-0.738-1.008-1.009c1.53-0.954,2.359-1.836,3.007-3.223
		c0.72-1.53,1.026-3.331,1.026-6.176v-3.583c0-0.738-0.018-1.026-0.108-1.513H97.182z M102.728,19.155
		c-0.09,0.54-0.126,1.08-0.126,1.8v11.452c0,0.504,0.234,0.594,1.548,0.594c1.369,0,1.855-0.09,2.089-0.378s0.324-1.081,0.324-2.863
		c0.45,0.307,0.684,0.414,1.188,0.559c-0.072,1.656-0.216,2.503-0.504,3.043c-0.36,0.63-0.99,0.792-3.241,0.792
		c-2.179,0-2.628-0.271-2.628-1.549V20.955c0-0.792-0.018-1.242-0.108-1.8H102.728z"/>
	<path fill="#6D5D4B" d="M112.517,33.253c0,1.332-0.234,1.782-1.135,2.305l-0.486-0.594c0.72-0.324,0.882-0.631,0.865-1.711h-1.044
		v-1.782h1.8V33.253z"/>
	<path fill="#6D5D4B" d="M128.086,23.224c1.423,0.702,2.034,1.081,3.313,2.071l-0.631,1.044c-1.188-1.026-1.998-1.566-3.312-2.232
		L128.086,23.224z M131.58,29.04c-0.559,1.224-1.477,3.007-1.891,3.654c-0.469,0.721-0.756,1.171-0.846,1.297
		c-0.127,0.216-0.127,0.216-0.252,0.414l-1.027-0.937c0.198-0.18,0.342-0.342,0.559-0.612c1.008-1.296,1.674-2.484,2.539-4.537
		L131.58,29.04z M128.878,18.687c1.387,0.918,2.125,1.494,3.098,2.395l-0.703,0.955c-0.99-0.973-1.71-1.567-3.133-2.521
		L128.878,18.687z M138.349,23.872h3.512c0.792,0,1.35-0.036,1.836-0.107v1.278c-0.521-0.072-1.098-0.108-1.836-0.108h-3.512v3.061
		h2.881c0.648,0,1.08-0.018,1.387-0.071c-0.054,0.359-0.072,0.846-0.072,1.638v3.422c0,0.72,0.037,1.368,0.09,1.746h-1.224v-1.026
		h-6.968v1.026h-1.225c0.072-0.486,0.09-1.009,0.09-1.765v-3.457c0-0.612-0.018-1.134-0.072-1.584
		c0.36,0.054,0.738,0.071,1.314,0.071h2.646v-3.061h-3.42c-0.686,0-1.314,0.036-1.819,0.108v-1.278
		c0.468,0.071,1.044,0.107,1.819,0.107h3.42v-2.917c-1.494,0.234-2.754,0.378-4.123,0.45c-0.107-0.414-0.197-0.648-0.468-1.098
		c2.503-0.036,5.095-0.379,7.616-1.026c1.008-0.253,1.53-0.433,2.07-0.721l0.828,1.08c-0.216,0.055-0.216,0.055-0.594,0.162
		c-1.062,0.307-2.646,0.666-4.178,0.954V23.872z M134.443,32.641h6.968v-3.619h-6.968V32.641z"/>
	<path fill="#6D5D4B" d="M151.182,19.101c-0.091,0.504-0.108,0.864-0.108,1.513v3.475c0,3.169-0.378,5.366-1.225,7.076
		c-0.666,1.369-1.494,2.305-3.024,3.439c-0.36-0.486-0.595-0.738-1.009-1.009c1.531-0.954,2.359-1.836,3.008-3.223
		c0.72-1.53,1.025-3.331,1.025-6.176v-3.583c0-0.738-0.018-1.026-0.107-1.513H151.182z M156.728,19.155
		c-0.09,0.54-0.127,1.08-0.127,1.8v11.452c0,0.504,0.234,0.594,1.549,0.594c1.369,0,1.855-0.09,2.089-0.378s0.324-1.081,0.324-2.863
		c0.45,0.307,0.685,0.414,1.188,0.559c-0.072,1.656-0.217,2.503-0.504,3.043c-0.361,0.63-0.99,0.792-3.242,0.792
		c-2.178,0-2.628-0.271-2.628-1.549V20.955c0-0.792-0.019-1.242-0.108-1.8H156.728z"/>
</g>
<g enable-background="new    ">
	<path fill="#6D5D4B" d="M162.628,26.537c0.576-1.747,0.756-2.791,0.883-4.754l1.008,0.198c-0.162,1.944-0.396,3.313-0.9,4.916
		L162.628,26.537z M166.427,18.345c-0.09,0.612-0.125,1.116-0.125,1.818V32.73c0,0.811,0.035,1.44,0.125,2.053h-1.387
		c0.091-0.576,0.127-1.296,0.127-2.07v-12.55c0-0.685-0.036-1.206-0.127-1.818H166.427z M167.634,25.331
		c-0.217-1.387-0.414-2.179-0.865-3.367l0.848-0.288c0.432,1.17,0.684,2.017,0.953,3.331L167.634,25.331z M176.421,21.567
		c0.863,0,1.224-0.018,1.71-0.072c-0.054,0.505-0.072,0.955-0.072,1.675v9.524c0,0.685,0.036,1.405,0.108,1.909h-1.261v-1.278h-6.59
		v1.332h-1.261c0.072-0.486,0.108-1.134,0.108-1.891v-9.524c0-0.774-0.019-1.225-0.072-1.747c0.505,0.055,0.919,0.072,1.729,0.072
		h1.314c0.468-1.062,0.757-1.963,0.99-3.15l1.333,0.216c-0.469,1.296-0.828,2.269-1.135,2.935H176.421z M170.317,26.717h6.59V22.63
		h-6.59V26.717z M170.317,32.263h6.59v-4.501h-6.59V32.263z"/>
</g>
<g enable-background="new    ">
	<path fill="#6D5D4B" d="M28.369,46.714c-0.054,0.306-0.09,1.044-0.09,1.603c0,1.044,0.198,2.917,0.396,3.907
		c0.306,1.458,1.279,3.564,2.323,5.041c0.72,1.009,1.693,2.035,2.665,2.845c0.576,0.486,1.044,0.792,2.088,1.404
		c-0.432,0.396-0.63,0.612-0.936,1.135c-2.197-1.494-3.493-2.755-4.771-4.609c-1.116-1.639-1.8-3.313-2.341-5.726
		c-0.324,1.71-0.63,2.683-1.242,4.015c-0.63,1.387-1.422,2.539-2.575,3.691c-1.008,1.044-1.747,1.639-3.313,2.629
		c-0.306-0.486-0.522-0.721-0.972-1.062c1.818-1.008,2.628-1.603,3.673-2.719c2.521-2.683,3.745-6.14,3.745-10.587
		c0-0.721-0.018-1.099-0.09-1.566H28.369z"/>
	<path fill="#6D5D4B" d="M46.135,52.979h5.474c0.882,0,1.531-0.036,1.999-0.126v1.387c-0.486-0.091-1.08-0.126-1.98-0.126h-5.492
		v6.787c0,0.738,0.036,1.333,0.126,1.945h-1.512c0.09-0.631,0.126-1.242,0.126-1.945v-6.787h-5.131
		c-0.882,0-1.495,0.035-1.999,0.126v-1.387c0.486,0.09,1.135,0.126,1.999,0.126h5.131V48.28h-4.25c-0.756,0-1.296,0.036-1.89,0.107
		v-1.332c0.522,0.072,1.116,0.108,1.89,0.108h10.047c0.738,0,1.35-0.036,1.891-0.108v1.332c-0.541-0.071-1.17-0.107-1.891-0.107
		h-4.538V52.979z"/>
	<path fill="#6D5D4B" d="M58.787,58.093c0.036-0.414,0.054-0.792,0.054-1.062c0-0.054-0.018-0.378-0.018-0.864l-0.162-6.409
		c-0.018-0.757-0.036-1.297-0.108-1.98h1.783c-0.054,0.684-0.09,1.224-0.108,1.98l-0.144,6.409l-0.018,0.829
		c0,0.323,0.018,0.666,0.054,1.098H58.787z M58.589,61.46v-1.692h1.747v1.692H58.589z"/>
	<path fill="#6D5D4B" d="M87.5,61.208c0,1.17-0.414,1.44-2.179,1.44c-0.63,0-1.386-0.036-2.376-0.09
		c-0.036-0.433-0.126-0.793-0.288-1.225c1.044,0.144,2.07,0.216,2.827,0.216c0.702,0,0.828-0.09,0.828-0.504v-12.64H75.761
		c-0.72,0-1.332,0.036-1.89,0.107v-1.278c0.522,0.072,1.116,0.108,1.89,0.108h12.064c0.756,0,1.368-0.036,1.909-0.108v1.278
		c-0.541-0.071-1.17-0.107-1.873-0.107H87.5V61.208z M82.999,56.635c0,0.594,0.018,0.954,0.072,1.332
		c-0.36-0.036-0.99-0.054-1.513-0.054h-4.267v1.639h-1.278c0.072-0.486,0.108-0.955,0.108-1.44v-5.69
		c0-0.702-0.018-1.116-0.09-1.566c0.468,0.055,0.9,0.072,1.674,0.072h3.691c0.774,0,1.207-0.018,1.693-0.072
		c-0.072,0.45-0.09,0.774-0.09,1.513V56.635z M77.292,56.887h4.537v-4.934h-4.537V56.887z"/>
	<path fill="#6D5D4B" d="M100.423,61.046c0.99,0.162,1.945,0.216,3.295,0.216c1.17,0,2.089-0.036,3.979-0.18
		c-0.216,0.468-0.306,0.72-0.396,1.242c-1.386,0.072-2.034,0.09-2.953,0.09c-2.917,0-4.934-0.288-6.266-0.9
		c-0.954-0.432-1.854-1.152-2.719-2.16c-0.72,1.386-1.494,2.341-2.827,3.421c-0.288-0.342-0.594-0.612-0.954-0.828
		c2.035-1.387,3.313-3.403,3.691-5.798l1.26,0.306c-0.432,1.297-0.486,1.423-0.684,1.891c0.972,1.314,2.089,2.125,3.421,2.467
		v-5.455h-5.671c-0.63,0-1.207,0.036-1.837,0.107V54.24c0.504,0.071,1.044,0.107,1.837,0.107h12.153
		c0.792,0,1.333-0.036,1.836-0.107v1.224c-0.648-0.071-1.188-0.107-1.836-0.107h-5.33v2.053h3.871c0.937,0,1.261-0.019,1.693-0.091
		v1.152c-0.468-0.071-0.955-0.09-1.693-0.09h-3.871V61.046z M96.012,53.088c-0.811,0-1.387,0.018-1.98,0.071
		c0.054-0.468,0.072-0.864,0.072-1.494v-2.989c0-0.647-0.018-1.044-0.072-1.494c0.612,0.054,1.17,0.072,2.034,0.072h7.292
		c0.846,0,1.404-0.019,2.017-0.072c-0.054,0.468-0.072,0.847-0.072,1.494v2.989c0,0.63,0.018,1.008,0.072,1.494
		c-0.576-0.054-1.152-0.071-1.962-0.071H96.012z M95.201,49.685h9.003v-1.459h-9.003V49.685z M95.201,52.133h9.003v-1.512h-9.003
		V52.133z"/>
	<path fill="#6D5D4B" d="M125.589,55.158c-0.648-0.09-1.261-0.126-2.377-0.126h-11.092c-0.99,0-1.818,0.036-2.394,0.126v-1.494
		c0.576,0.09,1.35,0.126,2.394,0.126h11.092c1.062,0,1.836-0.036,2.377-0.126V55.158z"/>
	<path fill="#6D5D4B" d="M129.13,55.32c0-0.973,0.019-1.765,0.055-2.647c-0.45,0.991-0.774,1.549-1.459,2.503
		c-0.162-0.306-0.486-0.738-0.773-1.008c1.17-1.404,2.178-3.313,2.988-5.618c0.307-0.828,0.486-1.548,0.576-2.143l1.207,0.343
		c-0.072,0.161-0.108,0.252-0.217,0.594c-0.504,1.566-0.773,2.287-1.278,3.403v9.723c0,1.044,0.019,1.603,0.072,2.232h-1.278
		c0.072-0.63,0.107-1.225,0.107-2.215V55.32z M133.848,51.053h-1.171c-0.504,0-0.953,0.019-1.548,0.072v-1.152
		c0.45,0.054,0.919,0.09,1.548,0.09h1.171v-1.765c0-0.684-0.036-1.242-0.108-1.692h1.279c-0.072,0.45-0.108,0.973-0.108,1.656v1.801
		h1.026c0.666,0,1.135-0.018,1.62-0.09v1.152c-0.54-0.054-1.026-0.072-1.638-0.072h-1.009v3.151h0.847
		c0.594,0,0.828-0.019,1.188-0.072c-0.054,0.414-0.072,0.9-0.072,1.603v2.917c0,0.828,0,1.225,0.037,1.53
		c-0.379-0.036-0.631-0.036-1.279-0.036h-2.646v1.566h-1.17c0.072-0.63,0.107-1.225,0.107-1.836v-4.231
		c0-0.612-0.018-0.973-0.054-1.513c0.343,0.054,0.63,0.072,1.206,0.072h0.774V51.053z M132.984,59.155h2.863v-3.979h-2.863V59.155z
		 M142.689,50.818c-0.145,1.819-0.162,2.035-0.379,3.043c-0.287,1.44-0.666,2.575-1.35,3.979c0.792,1.44,1.729,2.521,3.295,3.799
		c-0.342,0.252-0.576,0.522-0.864,0.973c-1.458-1.44-2.251-2.413-3.007-3.728c-0.828,1.351-1.801,2.449-3.367,3.781
		c-0.307-0.468-0.432-0.594-0.811-0.882c1.693-1.297,2.665-2.377,3.602-3.961c-0.631-1.278-1.117-2.989-1.351-4.808
		c-0.252,0.594-0.378,0.828-0.757,1.458c-0.287-0.359-0.485-0.521-0.846-0.738c0.828-1.26,1.387-2.538,1.818-4.213
		c0.271-1.044,0.469-2.215,0.469-2.845c0-0.019,0-0.054,0-0.108l1.206,0.234c-0.071,0.234-0.09,0.306-0.162,0.666
		c-0.162,0.828-0.378,1.765-0.558,2.341h2.772c0.72,0,1.152-0.036,1.548-0.108v1.207c-0.359-0.055-0.773-0.091-1.188-0.091H142.689z
		 M139.322,50.818c-0.072,0.234-0.072,0.234-0.162,0.469c0.18,2.286,0.522,3.727,1.225,5.401c0.792-1.818,1.152-3.493,1.297-5.87
		H139.322z"/>
	<path fill="#6D5D4B" d="M148.517,61.298c0,1.332-0.234,1.782-1.135,2.305l-0.486-0.594c0.721-0.324,0.883-0.631,0.865-1.711h-1.045
		v-1.782h1.801V61.298z"/>
</g>
<g enable-background="new    ">
	<path fill="#6D5D4B" d="M165.582,56.725c-0.469,2.017-0.756,2.809-1.711,4.43c-0.306-0.288-0.576-0.45-0.973-0.631
		c0.938-1.386,1.333-2.322,1.657-4.087L165.582,56.725z M167.238,48.802c-0.486-1.044-0.611-1.26-1.206-2.07l1.009-0.432
		c0.504,0.756,0.684,1.044,1.277,2.07l-0.99,0.432h2.557c0.703,0,1.135-0.035,1.604-0.107V49.9c-0.451-0.072-0.828-0.09-1.604-0.09
		h-5.148c-0.793,0-1.262,0.036-1.711,0.108v-1.225c0.468,0.09,0.828,0.107,1.674,0.107H167.238z M167.869,61.352
		c0,0.54-0.145,0.864-0.469,1.045c-0.288,0.162-0.594,0.198-1.368,0.198c-0.415,0-0.685,0-1.099-0.019
		c-0.035-0.45-0.072-0.612-0.216-1.116c0.54,0.072,0.954,0.108,1.494,0.108c0.45,0,0.54-0.072,0.54-0.45V55.41h-1.008
		c-0.738,0-1.261,0.018-1.729,0.072c0.054-0.469,0.072-0.919,0.072-1.639v-1.026c0-0.738-0.019-1.188-0.072-1.675
		c0.486,0.055,0.918,0.072,1.692,0.072h3.295c0.738,0,1.171-0.018,1.639-0.072c-0.054,0.486-0.072,0.919-0.072,1.639v1.044
		c0,0.757,0.019,1.188,0.072,1.657c-0.468-0.055-0.937-0.072-1.692-0.072h-1.08V61.352z M165.185,54.456h4.285v-2.232h-4.285V54.456
		z M169.417,56.274c0.576,1.135,0.828,1.711,1.243,2.898l-0.955,0.559c-0.307-1.206-0.576-1.944-1.152-3.079L169.417,56.274z
		 M173.774,51.125c0.071-0.828,0.126-1.909,0.126-2.827c0-0.684-0.036-1.17-0.09-1.566h1.278c-0.054,0.252-0.091,0.847-0.091,1.44
		c-0.018,0.954-0.053,1.782-0.144,2.953h2.413c0.828,0,1.26-0.019,1.692-0.09v1.242c-0.45-0.072-0.864-0.09-1.692-0.09h-2.521
		c-0.414,3.402-1.062,5.474-2.357,7.616c-0.848,1.404-1.424,2.088-2.576,3.061c-0.287-0.36-0.467-0.54-0.881-0.864
		c1.098-0.828,1.746-1.548,2.502-2.755c1.135-1.818,1.891-4.159,2.25-7.058h-0.828c-0.773,0-1.205,0.018-1.602,0.09v-1.242
		c0.396,0.071,0.811,0.09,1.62,0.09H173.774z M176.06,53.628c-0.072,0.45-0.09,0.792-0.09,1.548l-0.018,5.6
		c0,0.45,0.145,0.54,0.9,0.54c0.811,0,1.025-0.107,1.152-0.594c0.126-0.522,0.18-1.261,0.18-2.557
		c0.396,0.252,0.702,0.378,1.062,0.468c-0.09,1.747-0.234,2.683-0.521,3.151c-0.253,0.432-0.775,0.576-2,0.576
		c-0.558,0-0.918-0.036-1.224-0.126c-0.468-0.126-0.63-0.414-0.612-1.116l0.018-5.942v-0.233c0-0.612-0.018-0.973-0.035-1.314
		H176.06z M176.691,47.038c0.936,1.062,1.314,1.566,1.998,2.646l-0.882,0.684c-0.648-1.206-1.062-1.782-1.944-2.772L176.691,47.038z
		"/>
</g>
<g enable-background="new    ">
	<path fill="#6D5D4B" d="M20.249,79.331c1.296,0.738,1.962,1.188,3.079,2.089l-0.685,1.008c-0.99-0.954-1.764-1.513-3.061-2.215
		L20.249,79.331z M23.328,84.984c-0.685,1.963-1.225,3.205-1.963,4.52c-0.27,0.522-0.36,0.685-0.432,0.811l-0.18,0.324l-1.081-0.9
		c0.27-0.288,0.486-0.576,0.828-1.116c0.756-1.278,1.26-2.467,1.854-4.321L23.328,84.984z M21.419,74.686
		c1.26,0.828,1.999,1.44,3.025,2.503l-0.72,0.972c-0.954-1.08-1.783-1.818-3.043-2.664L21.419,74.686z M33.951,82.824
		c-0.162,0.216-0.216,0.306-0.504,0.773c-0.846,1.387-1.603,2.27-3.061,3.584c1.332,0.99,3.295,1.891,5.474,2.467
		c-0.288,0.359-0.432,0.611-0.667,1.134c-2.431-0.774-4.177-1.656-5.708-2.881c-1.71,1.278-3.403,2.106-5.672,2.755
		c-0.198-0.486-0.306-0.685-0.63-1.08c2.214-0.559,3.835-1.261,5.456-2.395c-1.134-1.099-1.981-2.323-2.719-3.979h-0.072
		c-0.54,0-0.972,0.018-1.386,0.072v-1.188c0.432,0.072,0.972,0.107,1.584,0.107h5.671c0.72,0,1.152-0.018,1.566-0.071L33.951,82.824
		z M35.877,80.627c-1.044,0.108-1.512,0.145-2.088,0.145c-1.836,0-2.376-0.234-2.376-0.99v-3.457h-3.385
		c-0.036,1.512-0.27,2.484-0.846,3.367c-0.486,0.756-1.044,1.242-2.233,1.908c-0.27-0.433-0.432-0.594-0.81-0.864
		c2.179-1.099,2.791-2.125,2.791-4.718c0-0.342-0.018-0.486-0.054-0.81c0.324,0.036,0.594,0.054,1.296,0.054h3.115
		c0.703,0,0.973-0.018,1.296-0.054c-0.054,0.342-0.054,0.54-0.054,1.332v2.845c0,0.307,0.144,0.36,0.9,0.36
		c0.54,0,1.296-0.072,2.502-0.216L35.877,80.627z M27.055,83.202c0.684,1.477,1.188,2.143,2.484,3.295
		c1.279-1.062,1.963-1.873,2.809-3.295H27.055z"/>
	<path fill="#6D5D4B" d="M40.931,76.612c-0.828,0-1.458,0.036-2.196,0.126v-1.333c0.684,0.091,1.332,0.126,2.196,0.126h9.399
		c0.9,0,1.387-0.018,1.729-0.071l0.702,0.828c-0.684,0.702-1.026,1.044-1.477,1.44c-1.494,1.332-2.772,2.196-4.843,3.277v8.138
		c0,0.612-0.18,1.009-0.558,1.207c-0.252,0.126-0.72,0.18-1.639,0.18c-0.648,0-1.224-0.036-2.431-0.162
		c-0.036-0.504-0.108-0.756-0.252-1.261c1.116,0.198,1.962,0.288,2.881,0.288c0.576,0,0.738-0.09,0.738-0.396v-7.311
		c0-0.756-0.018-1.242-0.09-1.782h1.062c1.747-0.9,3.025-1.801,4.609-3.295H40.931z"/>
</g>
<g enable-background="new    ">
	<path fill="#6D5D4B" d="M58.607,86.137c0.036-0.414,0.054-0.792,0.054-1.062c0-0.054-0.018-0.378-0.018-0.864l-0.162-6.409
		c-0.018-0.757-0.036-1.297-0.108-1.98h1.783c-0.054,0.684-0.09,1.224-0.108,1.98l-0.144,6.409l-0.018,0.829
		c0,0.323,0.018,0.666,0.054,1.098H58.607z M58.409,89.504v-1.692h1.747v1.692H58.409z"/>
</g>
</svg>
