<?xml version="1.0" encoding="utf-8"?>
<!-- Generator: Adobe Illustrator 16.0.0, SVG Export Plug-In . SVG Version: 6.00 Build 0)  -->
<!DOCTYPE svg PUBLIC "-//W3C//DTD SVG 1.1//EN" "http://www.w3.org/Graphics/SVG/1.1/DTD/svg11.dtd">
<svg version="1.1" id="Layer_1" xmlns="http://www.w3.org/2000/svg" xmlns:xlink="http://www.w3.org/1999/xlink" x="0px" y="0px"
	 width="220.875px" height="138.951px" viewBox="0 0 220.875 138.951" enable-background="new 0 0 220.875 138.951"
	 xml:space="preserve">
<g>
	<path fill="#FFEBA2" d="M16.954-0.951l89.604,0.771l14,0.145c0.699-0.086,1.408-0.145,2.133-0.145
		c9.629,0,17.438,7.92,17.438,17.688l0.271,18.724c0,9.77-7.808,17.689-17.438,17.689c-0.723,0-1.432-0.059-2.133-0.145l-14,0.145
		l-89.604,0.231c-9.63,0-17.437-7.92-17.437-17.69l-0.272-19.723C-0.483,6.969,7.324-0.951,16.954-0.951"/>
	<path fill="#FFEBA2" d="M85.77,48.388c0-10.776,6.538-19.98,15.767-23.69c-2.807-1.128-5.86-1.755-9.057-1.755
		c-13.711,0-24.825,11.393-24.825,25.445c0,14.052,11.114,25.445,24.825,25.445c3.197,0,6.25-0.628,9.057-1.756
		C92.307,68.367,85.77,59.162,85.77,48.388"/>
	<g enable-background="new    ">
		<path fill="#6D5D4B" d="M23.73,24.725c-0.937,0-1.477,0.019-1.999,0.072c0.054-0.522,0.072-0.954,0.072-1.692v-2.053
			c0-0.738-0.018-1.134-0.072-1.692c0.558,0.072,1.044,0.09,2.07,0.09h3.457c1.152,0,1.584-0.018,2.053-0.09
			c-0.054,0.594-0.072,0.937-0.072,1.675v2.124c0,0.828,0.018,1.171,0.072,1.639c-0.558-0.054-1.152-0.072-2.053-0.072h-1.476
			c-0.036,1.585-0.036,1.585-0.09,2.143c0,0.091,0,0.091-0.018,0.181h1.927c0.774,0,1.242-0.019,1.71-0.09
			c-0.054,0.378-0.054,0.485-0.072,1.764c-0.072,2.881-0.271,4.592-0.63,5.186c-0.234,0.415-0.72,0.595-1.603,0.595
			c-0.504,0-1.062-0.036-1.818-0.145c-0.018-0.45-0.054-0.666-0.234-1.188c0.9,0.18,1.422,0.252,2.053,0.252
			c0.522,0,0.702-0.145,0.792-0.631c0.18-1.134,0.288-2.61,0.306-4.735h-2.539c-0.396,2.863-1.404,4.844-3.439,6.698
			c-0.216-0.396-0.468-0.666-0.846-0.9c1.207-0.99,1.854-1.818,2.431-3.079c0.342-0.792,0.63-1.782,0.756-2.719H23.64
			c-0.594,0-1.458,0.036-2.089,0.108v-1.261c0.63,0.09,1.351,0.145,2.106,0.145h0.937c0.054-0.612,0.054-0.612,0.09-2.323H23.73
			V24.725z M22.92,23.717h5.204v-3.259H22.92V23.717z M32.607,19.558c-0.072,0.486-0.108,1.026-0.108,2.053v6.95
			c0,1.224,0.018,1.584,0.09,2.088h-1.332c0.072-0.504,0.09-0.882,0.09-2.088v-6.95c0-0.99-0.036-1.531-0.108-2.053H32.607z
			 M36.622,18.837c-0.09,0.666-0.126,1.297-0.126,2.269v11.775c0,0.829-0.162,1.207-0.576,1.423
			c-0.324,0.162-0.648,0.198-1.477,0.198c-0.594,0-1.026-0.019-1.926-0.072c-0.09-0.468-0.18-0.792-0.36-1.206
			c0.792,0.126,1.747,0.198,2.341,0.198c0.702,0,0.846-0.091,0.846-0.541V21.105c0-1.008-0.036-1.62-0.126-2.269L36.622,18.837
			L36.622,18.837z"/>
		<path fill="#6D5D4B" d="M38.795,26.724c0.576-1.747,0.756-2.791,0.882-4.754l1.008,0.198c-0.162,1.944-0.396,3.313-0.9,4.916
			L38.795,26.724z M42.595,18.531c-0.09,0.612-0.126,1.116-0.126,1.818v12.567c0,0.811,0.036,1.44,0.126,2.053h-1.387
			c0.09-0.576,0.126-1.296,0.126-2.07V20.35c0-0.685-0.036-1.206-0.126-1.818L42.595,18.531L42.595,18.531z M43.801,25.518
			c-0.216-1.387-0.414-2.179-0.864-3.367l0.847-0.288c0.432,1.17,0.684,2.017,0.954,3.331L43.801,25.518z M52.588,21.754
			c0.864,0,1.224-0.018,1.71-0.072c-0.054,0.505-0.072,0.955-0.072,1.675v9.524c0,0.685,0.036,1.405,0.108,1.909h-1.26v-1.278h-6.59
			v1.332h-1.26c0.072-0.486,0.108-1.134,0.108-1.891v-9.524c0-0.774-0.018-1.225-0.072-1.747c0.504,0.055,0.918,0.072,1.729,0.072
			h1.314c0.468-1.062,0.756-1.963,0.99-3.15l1.333,0.216c-0.468,1.296-0.828,2.269-1.134,2.935L52.588,21.754L52.588,21.754z
			 M46.484,26.903h6.59v-4.087h-6.59V26.903z M46.484,32.449h6.59v-4.501h-6.59V32.449z"/>
		<path fill="#6D5D4B" d="M58.974,22.294c-0.072,0.595-0.09,1.009-0.09,2.035v8.57c0,1.08,0.018,1.549,0.09,2.07h-1.386
			c0.09-0.666,0.108-1.17,0.108-2.07v-8.57c0-1.009-0.018-1.369-0.108-2.035H58.974z M59.19,18.513
			c1.152,1.243,1.476,1.639,2.772,3.439L60.954,22.6c-0.972-1.549-1.116-1.747-2.683-3.529L59.19,18.513z M67.581,24.779
			c0.558,0,0.955-0.019,1.333-0.055c-0.036,0.414-0.054,0.702-0.054,1.116v4.088c0,0.45,0.018,0.738,0.054,1.098
			c-0.432-0.035-0.702-0.054-1.152-0.054h-4.879c-0.378,0-1.26,0.036-1.458,0.072c0.036-0.522,0.054-0.756,0.054-1.459v-3.727
			c0-0.414-0.018-0.721-0.054-1.135c0.432,0.036,0.756,0.055,1.26,0.055L67.581,24.779L67.581,24.779z M64.25,20.494
			c-0.792,0-1.135,0.018-1.639,0.09v-1.261c0.504,0.072,0.846,0.09,1.584,0.09h6.86c0.756,0,1.099-0.018,1.495-0.071
			c-0.054,0.449-0.072,0.882-0.072,1.602v12.55c0,0.631-0.216,1.009-0.684,1.171c-0.252,0.09-0.864,0.144-1.71,0.144
			c-0.126,0-0.702-0.018-1.71-0.054c-0.108-0.685-0.144-0.9-0.324-1.351c1.008,0.181,1.44,0.234,2.161,0.234
			c0.937,0,1.098-0.072,1.098-0.468V20.494H64.25z M62.611,29.965h5.131v-4.178h-5.131V29.965z"/>
		<path fill="#6D5D4B" d="M76.974,22.294c-0.072,0.595-0.09,1.009-0.09,2.035v8.57c0,1.08,0.018,1.549,0.09,2.07h-1.386
			c0.09-0.666,0.108-1.17,0.108-2.07v-8.57c0-1.009-0.018-1.369-0.108-2.035H76.974z M77.19,18.513
			c1.152,1.243,1.476,1.639,2.772,3.439L78.954,22.6c-0.972-1.549-1.116-1.747-2.683-3.529L77.19,18.513z M85.581,24.779
			c0.558,0,0.955-0.019,1.333-0.055c-0.036,0.414-0.054,0.702-0.054,1.116v4.088c0,0.45,0.018,0.738,0.054,1.098
			c-0.432-0.035-0.702-0.054-1.152-0.054h-4.879c-0.378,0-1.26,0.036-1.458,0.072c0.036-0.522,0.054-0.756,0.054-1.459v-3.727
			c0-0.414-0.018-0.721-0.054-1.135c0.432,0.036,0.756,0.055,1.26,0.055L85.581,24.779L85.581,24.779z M82.25,20.494
			c-0.792,0-1.135,0.018-1.639,0.09v-1.261c0.504,0.072,0.846,0.09,1.584,0.09h6.86c0.756,0,1.099-0.018,1.495-0.071
			c-0.054,0.449-0.072,0.882-0.072,1.602v12.55c0,0.631-0.216,1.009-0.684,1.171c-0.252,0.09-0.864,0.144-1.71,0.144
			c-0.126,0-0.702-0.018-1.71-0.054c-0.108-0.685-0.144-0.9-0.324-1.351c1.008,0.181,1.44,0.234,2.161,0.234
			c0.937,0,1.098-0.072,1.098-0.468V20.494H82.25z M80.611,29.965h5.131v-4.178h-5.131V29.965z"/>
	</g>
	<g enable-background="new    ">
		<path fill="#6D5D4B" d="M119.889,32.071c0,1.494-1.206,2.7-2.701,2.7c-1.494,0-2.701-1.206-2.701-2.7
			c0-1.495,1.207-2.701,2.701-2.701C118.683,29.37,119.889,30.576,119.889,32.071z M115.514,32.071c0,0.918,0.756,1.675,1.674,1.675
			s1.674-0.757,1.674-1.675c0-0.919-0.756-1.675-1.674-1.675S115.514,31.152,115.514,32.071z"/>
	</g>
	<g>
		<path fill="#6D5D4B" d="M97.544,27.093h-2.241c-0.99,0-1.364,0.018-1.831,0.093v-1.214c0.579,0.074,1.045,0.112,1.831,0.112h4.931
			c0.673,0,1.084-0.019,1.682-0.112v1.214c-0.542-0.075-0.953-0.093-1.737-0.093h-1.551v2.036h1.289
			c0.672,0,1.008-0.019,1.494-0.094v1.177c-0.486-0.075-0.878-0.112-1.513-0.112h-1.27v2.746c1.158,0.542,3.007,0.747,6.687,0.747
			c2.354,0,3.922-0.075,5.585-0.28c-0.243,0.486-0.318,0.729-0.411,1.289c-1.158,0.074-2.708,0.112-4.577,0.112
			c-3.698,0-5.847-0.187-7.173-0.616c-1.345-0.43-2.334-1.177-3.269-2.466c-0.393,1.439-0.729,2.167-1.476,3.25
			c-0.28-0.317-0.522-0.485-0.971-0.729c0.748-0.989,1.195-1.868,1.457-2.839c0.206-0.729,0.374-2.055,0.374-2.802
			c0-0.224,0-0.318-0.037-0.468l1.195,0.15c-0.037,0.243-0.037,0.336-0.075,0.635c-0.056,0.542-0.093,0.822-0.205,1.606
			c0.448,0.729,0.934,1.252,1.811,1.961V27.093z M96.331,24.907c-0.822,0-1.214,0.019-1.738,0.075
			c0.056-0.467,0.075-0.877,0.075-1.663v-2.801c0-0.766-0.019-1.158-0.075-1.682c0.486,0.056,0.859,0.075,1.738,0.075h2.97
			c0.878,0,1.195-0.019,1.737-0.075c-0.056,0.523-0.075,0.878-0.075,1.7v2.821c0,0.766,0.019,1.064,0.075,1.625
			c-0.522-0.056-0.915-0.075-1.737-0.075H96.331z M95.733,21.414h4.165v-1.57h-4.165V21.414z M95.733,24.01h4.165v-1.663h-4.165
			V24.01z M106.66,23.245c-0.075,0.355-0.075,0.355-0.075,2.502c0,2.522-0.243,3.755-0.935,4.67
			c-0.858,1.176-1.961,1.999-3.829,2.82c-0.28-0.486-0.43-0.672-0.766-0.916c1.083-0.411,1.644-0.691,2.316-1.176
			c1.121-0.803,1.663-1.551,1.887-2.596c0.131-0.523,0.224-1.943,0.224-3.026c0-1.065-0.037-1.98-0.093-2.279H106.66z
			 M103.82,30.044h-1.12c0.056-0.43,0.075-0.841,0.075-1.663v-5.062c0-0.729-0.019-1.102-0.075-1.662
			c0.542,0.037,0.878,0.056,1.644,0.056h0.561c0.28-0.748,0.43-1.195,0.561-1.719h-1.607c-0.747,0-1.326,0.037-1.849,0.094v-1.177
			c0.653,0.075,1.14,0.112,1.905,0.112h4.633c0.784,0,1.288-0.037,1.812-0.112v1.177c-0.579-0.057-1.177-0.094-1.756-0.094h-2.036
			c-0.168,0.617-0.318,1.084-0.598,1.719h1.868c0.766,0,1.046-0.019,1.644-0.056c-0.056,0.504-0.075,0.878-0.075,1.681v4.913
			c0,0.859,0.019,1.288,0.075,1.793h-1.14v-7.397h-4.521V30.044z M106.884,29.913c1.495,0.859,2.652,1.606,3.586,2.335l-0.617,0.971
			c-1.344-1.083-1.812-1.419-3.512-2.521L106.884,29.913z"/>
	</g>
</g>
</svg>
