<?xml version="1.0" encoding="utf-8"?>
<!-- Generator: Adobe Illustrator 16.0.0, SVG Export Plug-In . SVG Version: 6.00 Build 0)  -->
<!DOCTYPE svg PUBLIC "-//W3C//DTD SVG 1.1//EN" "http://www.w3.org/Graphics/SVG/1.1/DTD/svg11.dtd">
<svg version="1.1" id="Layer_1" xmlns="http://www.w3.org/2000/svg" xmlns:xlink="http://www.w3.org/1999/xlink" x="0px" y="0px"
	 width="220.875px" height="138.951px" viewBox="0 0 220.875 138.951" enable-background="new 0 0 220.875 138.951"
	 xml:space="preserve">
<g>
	<g>
		<defs>
			<rect id="SVGID_1_" x="1" y="0.951" width="203.382" height="84.722"/>
		</defs>
		<clipPath id="SVGID_2_">
			<use xlink:href="#SVGID_1_"  overflow="visible"/>
		</clipPath>
		<path clip-path="url(#SVGID_2_)" fill="#FFEBA2" d="M181.667,1.244L26.495,0.951v0.185c-0.912-0.109-1.836-0.185-2.778-0.185
			C11.171,0.951,1,11.024,1,23.449v14.402C1,50.277,11.171,60.35,23.717,60.35c0.942,0,1.866-0.075,2.778-0.186v0.186l155.172,0.293
			c12.545,0,22.715-10.073,22.715-22.499V23.742C204.382,11.317,194.212,1.244,181.667,1.244"/>
	</g>
	<g>
		<defs>
			<rect id="SVGID_3_" x="1" y="0.951" width="203.382" height="84.722"/>
		</defs>
		<clipPath id="SVGID_4_">
			<use xlink:href="#SVGID_3_"  overflow="visible"/>
		</clipPath>
		<path clip-path="url(#SVGID_4_)" fill="#FFEBA2" d="M158.992,53.312c0-13.704,8.518-25.41,20.541-30.13
			c-3.656-1.435-7.635-2.231-11.8-2.231c-17.86,0-32.34,14.488-32.34,32.361c0,17.873,14.479,32.361,32.34,32.361
			c4.165,0,8.144-0.797,11.8-2.23C167.509,78.722,158.992,67.016,158.992,53.312"/>
	</g>
</g>
<g enable-background="new    ">
	<path fill="#6D5D4B" d="M22.835,36.019c0,0.883,0.036,1.603,0.09,2.179h-1.35c0.072-0.666,0.108-1.242,0.108-2.196v-5.689
		c0-0.721,0.018-1.225,0.072-2.161c-0.54,0.973-0.99,1.621-1.746,2.503c-0.324-0.576-0.45-0.72-0.792-1.008
		c1.386-1.278,2.719-3.457,3.547-5.798c0.342-0.973,0.45-1.387,0.558-2.035l1.26,0.324c-0.108,0.307-0.162,0.45-0.342,0.973
		c-0.468,1.386-0.702,1.927-1.404,3.475V36.019z M26.778,25.9c-0.612,1.17-1.152,1.926-2.071,2.952
		c-0.342-0.342-0.468-0.432-0.937-0.666c1.261-1.351,1.999-2.503,2.719-4.268c0.378-0.899,0.594-1.656,0.648-2.25l1.26,0.288
		c-0.09,0.233-0.09,0.233-0.306,0.882c-0.198,0.595-0.324,0.883-0.846,2.089h6.806c0.756,0,1.17-0.018,1.477-0.072l0.558,0.504
		c-0.09,0.127-0.09,0.127-0.378,0.811c-0.36,0.811-0.864,1.692-1.351,2.323c-0.36-0.271-0.486-0.36-0.936-0.522
		c0.612-0.756,0.918-1.261,1.26-2.07h-4.033V36.56c0,1.08-0.432,1.404-1.836,1.404c-0.522,0-1.099-0.036-1.819-0.091
		c-0.018-0.504-0.072-0.737-0.216-1.206c0.81,0.145,1.44,0.216,2.035,0.216c0.612,0,0.72-0.071,0.72-0.504V25.9H26.778z
		 M27.858,28.673c-0.504,2.467-0.648,3.024-1.062,4.123c-0.433,1.152-0.9,2.07-1.513,2.989c-0.36-0.324-0.522-0.433-1.026-0.648
		c1.278-1.692,2.053-3.781,2.485-6.662L27.858,28.673z M35.006,35.821c-0.54-1.657-0.54-1.657-1.548-4.124
		c-0.648-1.584-0.756-1.8-1.386-2.935l0.954-0.468c1.116,2.053,2.251,4.646,3.043,7.004L35.006,35.821z"/>
	<path fill="#6D5D4B" d="M40.763,35.911c0,1.08,0.018,1.639,0.09,2.16h-1.296c0.072-0.666,0.108-1.26,0.108-2.214v-5.546
		c0-0.811,0.018-1.387,0.072-2.179c-0.45,0.99-0.864,1.656-1.675,2.719c-0.216-0.433-0.432-0.738-0.756-0.99
		c1.386-1.639,2.431-3.529,3.151-5.798c0.27-0.847,0.45-1.603,0.468-2.053l1.225,0.396c-0.108,0.306-0.126,0.378-0.234,0.774
		c-0.306,1.008-0.738,2.25-1.152,3.204V35.911z M44.238,25.54c-0.072,0.576-0.09,1.026-0.09,2.034v8.48
		c0,1.026,0.018,1.513,0.09,2.071h-1.332c0.072-0.559,0.108-1.116,0.108-2.071v-8.48c0-0.936-0.036-1.404-0.108-2.034H44.238z
		 M44.58,21.885c0.936,1.314,1.188,1.729,2.017,3.403l-1.026,0.54c-0.666-1.549-1.116-2.323-1.944-3.457L44.58,21.885z
		 M48.919,23.955c-0.72,0-1.134,0.019-1.639,0.09v-1.206c0.522,0.072,0.9,0.09,1.584,0.09h3.043c0.72,0,1.098-0.018,1.495-0.071
		c-0.054,0.396-0.072,0.972-0.072,1.603v12.243c0,0.486-0.126,0.811-0.378,1.009c-0.27,0.216-0.63,0.288-1.53,0.288
		c-0.433,0-1.17-0.036-1.585-0.072c-0.072-0.486-0.144-0.757-0.306-1.207c0.792,0.145,1.386,0.198,1.962,0.198
		c0.558,0,0.72-0.107,0.72-0.45V23.955H48.919z"/>
	<path fill="#6D5D4B" d="M59.411,28.205h0.774c0.558,0,0.756-0.019,1.188-0.091v1.152c-0.45-0.054-0.72-0.071-1.188-0.071h-0.774
		v4.321c0.702-0.307,1.116-0.505,2.323-1.135l0.018,1.135c-1.584,0.864-2.809,1.422-4.609,2.106
		c-0.396,0.144-0.72,0.288-0.972,0.396l-0.378-1.26c0.594-0.108,1.495-0.378,2.341-0.721c0.09-0.036,0.108-0.036,0.162-0.054v-4.789
		h-0.846c-0.486,0-0.792,0.018-1.207,0.09v-1.171c0.414,0.072,0.666,0.091,1.224,0.091h0.829v-4.231h-0.811
		c-0.774,0-0.99,0.018-1.512,0.09v-1.206c0.45,0.09,0.828,0.107,1.548,0.107h2.647c0.684,0,1.062-0.018,1.494-0.107v1.188
		c-0.45-0.054-0.828-0.071-1.44-0.071h-0.81V28.205z M67.352,25.18c-0.072,0.414-0.09,0.9-0.108,1.639
		c-0.018,5.006-0.234,6.464-1.207,7.94c-0.666,1.044-1.621,1.854-2.989,2.538c-0.702,0.343-1.261,0.559-2.449,0.919
		c-0.216-0.396-0.414-0.666-0.738-0.99c2.557-0.648,4.051-1.459,4.987-2.683c0.972-1.243,1.243-2.629,1.243-6.519
		c0-1.782-0.018-2.322-0.108-2.845H67.352z M62.436,33.354c0.09-0.576,0.126-1.152,0.126-1.999V24.55c0-1.135,0-1.387-0.072-1.909
		c0.558,0.055,1.116,0.072,2.035,0.072h4.429c0.9,0,1.494-0.018,2.035-0.072c-0.054,0.433-0.072,0.937-0.072,1.783v6.932
		c0,1.026,0.018,1.549,0.09,1.999h-1.332c0.09-0.576,0.126-1.152,0.126-1.999v-7.562h-6.122v7.562c0,1.026,0.018,1.549,0.09,1.999
		H62.436z M68.216,32.004c-0.036,0.576-0.054,0.99-0.054,1.639v2.557c0,0.558,0.126,0.648,0.937,0.648
		c0.918,0,1.35-0.072,1.548-0.253c0.27-0.233,0.414-1.098,0.432-2.448c0.27,0.162,0.648,0.288,1.134,0.378
		c-0.198,1.854-0.324,2.431-0.576,2.772c-0.342,0.45-1.062,0.612-2.719,0.612c-1.584,0-1.836-0.197-1.836-1.476v-2.81
		c0-0.738-0.018-1.098-0.054-1.62H68.216z"/>
	<path fill="#6D5D4B" d="M87.944,24.441c0.936,0,1.512-0.036,1.962-0.107v1.26c-0.486-0.054-1.098-0.09-1.962-0.09h-7.742
		c-0.594,1.188-1.675,2.898-2.449,3.889v6.86c0,0.792,0.036,1.351,0.108,1.854h-1.369c0.072-0.468,0.108-0.99,0.108-1.854v-5.491
		c-0.811,0.9-1.135,1.224-2.035,1.98c-0.234-0.378-0.468-0.612-0.864-0.918c1.242-0.955,1.98-1.639,2.899-2.72
		c-0.018-0.485-0.036-0.792-0.09-1.152h0.99c0.63-0.882,0.864-1.242,1.495-2.448h-2.845c-0.9,0-1.495,0.036-1.98,0.09v-1.26
		c0.45,0.071,1.026,0.107,1.98,0.107H79.5c0.522-1.17,0.792-1.998,0.9-2.701l1.333,0.271c-0.108,0.198-0.18,0.36-0.342,0.811
		c-0.18,0.432-0.522,1.26-0.684,1.62H87.944z M87.314,30.113c0.846,0,1.278-0.036,1.71-0.108v1.207
		c-0.486-0.055-0.954-0.072-1.71-0.072h-2.827v5.096h3.583c0.882,0,1.351-0.019,1.783-0.091v1.243
		c-0.685-0.072-1.17-0.108-1.801-0.108h-7.814c-0.72,0-1.278,0.036-1.8,0.108v-1.243c0.54,0.055,1.08,0.091,1.8,0.091h3.061V31.14
		h-2.413c-0.774,0-1.242,0.018-1.729,0.072v-1.207c0.432,0.072,0.864,0.108,1.729,0.108h2.413v-1.53
		c0-0.973-0.036-1.477-0.108-1.909h1.404c-0.072,0.396-0.108,0.9-0.108,1.927v1.513H87.314z"/>
	<path fill="#6D5D4B" d="M105.692,31.392c0.99,0,1.548-0.036,2.017-0.108v1.188c-0.576-0.071-1.152-0.09-2.017-0.09h-1.981
		c-0.63,1.278-1.188,2.034-2.161,2.845c2.017,0.631,3.781,1.297,5.762,2.143l-0.81,0.99c-2.035-1.008-3.331-1.53-5.942-2.412
		c-2.017,1.26-4.285,1.891-7.922,2.196c-0.126-0.414-0.252-0.685-0.522-1.116c3.007-0.072,5.06-0.522,7.076-1.494
		c-1.477-0.433-2.683-0.721-4.483-1.099c0.738-0.666,0.954-0.9,1.98-2.053h-2.467c-0.864,0-1.44,0.019-1.999,0.09v-1.188
		c0.468,0.072,1.044,0.108,1.999,0.108h3.241c0.522-0.738,0.63-0.918,1.008-1.62h-2.989c-1.008,0-1.602,0.018-2.07,0.071
		c0.054-0.468,0.072-0.846,0.072-1.566V26.98c0-0.721-0.018-1.152-0.072-1.639c0.504,0.054,1.134,0.09,1.944,0.09h2.053v-1.746
		h-3.151c-0.936,0-1.512,0.018-1.999,0.09v-1.188c0.45,0.072,1.062,0.108,2.035,0.108h11.361c1.008,0,1.584-0.036,2.053-0.108v1.188
		c-0.504-0.072-1.081-0.09-1.999-0.09h-3.367v1.746h2.143c0.864,0,1.458-0.036,1.962-0.09c-0.054,0.486-0.072,0.864-0.072,1.639
		v1.278c0,0.792,0.018,1.152,0.072,1.584c-0.45-0.054-1.026-0.071-2.07-0.071h-4.646l-0.18,0.288c-0.36,0.63-0.45,0.773-0.828,1.332
		H105.692z M97.41,26.35h-2.827v2.503h2.827V26.35z M98.004,32.382c-0.522,0.648-0.738,0.9-1.369,1.53
		c1.657,0.378,2.575,0.612,3.673,0.954c1.081-0.792,1.71-1.53,2.125-2.484H98.004z M98.436,23.686v1.746h2.881v-1.746H98.436z
		 M101.317,28.853V26.35h-2.881v2.503H101.317z M105.278,28.853V26.35h-2.935v2.503H105.278z"/>
	<path fill="#6D5D4B" d="M112.025,32.922c-0.793,0-1.351,0.036-1.891,0.108v-1.242c0.522,0.071,1.098,0.107,1.873,0.107h5.419V31.59
		c0-0.36-0.019-0.685-0.054-1.062h0.756c1.242-0.594,2.269-1.242,3.223-2.034h-6.59c-0.611,0-1.225,0.035-1.71,0.09v-1.171
		c0.504,0.055,1.08,0.09,1.746,0.09h6.5c0.667,0,1.026-0.018,1.333-0.071l0.684,0.72c-0.234,0.181-0.234,0.181-0.63,0.522
		c-1.206,1.008-2.323,1.746-4.105,2.665v0.558h5.348c0.81,0,1.386-0.036,1.891-0.107v1.242c-0.505-0.072-1.116-0.108-1.909-0.108
		h-5.329v3.781c0,1.116-0.324,1.314-2.07,1.314c-0.559,0-1.351-0.036-2.017-0.09c-0.127-0.522-0.198-0.757-0.379-1.152
		c0.973,0.126,1.711,0.18,2.396,0.18c0.792,0,0.918-0.054,0.918-0.414v-3.619H112.025z M117.57,24.783
		c-0.324-0.899-0.701-1.656-1.314-2.593l1.117-0.306c0.684,1.206,0.973,1.801,1.368,2.898h1.98c0.811-0.918,1.351-1.764,1.854-2.898
		l1.135,0.486c-0.738,1.188-1.207,1.836-1.729,2.412h1.404c1.044,0,1.44-0.018,2.07-0.071c-0.054,0.468-0.072,0.828-0.072,1.494
		v1.332c0,0.414,0.037,0.847,0.09,1.261h-1.188v-3.025h-12.712v3.025h-1.188c0.054-0.414,0.09-0.811,0.09-1.261v-1.332
		c0-0.666-0.018-1.026-0.072-1.494c0.666,0.071,1.062,0.09,2.052,0.09h1.261c-0.468-0.864-0.847-1.387-1.692-2.341l1.08-0.342
		c0.828,1.008,1.242,1.62,1.836,2.664H117.57z"/>
	<path fill="#6D5D4B" d="M132.761,24.676c0.9-0.019,1.423-0.036,1.585-0.055c-0.036,0.469-0.054,0.937-0.054,1.585v9.165
		c0,0.81,0.035,1.422,0.09,1.854h-1.188v-1.152h-3.511v1.584h-1.207c0.072-0.468,0.09-1.134,0.09-2.196v-9.129
		c0-0.846-0.018-1.261-0.072-1.711c0.379,0.036,0.703,0.055,1.604,0.055h0.359c0.36-0.883,0.631-1.783,0.774-2.719l1.278,0.252
		c-0.324,0.973-0.648,1.872-0.918,2.467H132.761z M129.683,29.681h3.511v-4.015h-3.511V29.681z M129.683,35.064h3.511v-4.393h-3.511
		V35.064z M142.125,24.657c0.721,0,1.225-0.018,1.584-0.071c-0.054,0.324-0.054,0.468-0.072,1.134
		c-0.162,7.13-0.396,9.543-1.044,10.983c-0.36,0.828-0.937,1.152-2.017,1.152c-0.648,0-1.17-0.036-2.287-0.126
		c-0.035-0.522-0.107-0.828-0.306-1.278c1.099,0.216,1.909,0.306,2.558,0.306c0.666,0,0.899-0.162,1.134-0.738
		c0.306-0.828,0.54-2.557,0.666-4.969c0.09-1.44,0.108-2.683,0.126-5.33h-5.186c-0.612,1.242-1.135,2.071-2.07,3.277
		c-0.234-0.307-0.559-0.612-0.864-0.811c1.099-1.17,1.98-2.7,2.646-4.537c0.252-0.685,0.433-1.351,0.468-1.747l1.242,0.234
		c-0.053,0.108-0.144,0.36-0.252,0.685c-0.215,0.63-0.396,1.116-0.684,1.836H142.125z M139.261,33.138
		c-1.008-2.16-1.692-3.295-2.736-4.555l0.918-0.559c1.135,1.368,1.891,2.557,2.845,4.483L139.261,33.138z"/>
	<path fill="#6D5D4B" d="M153.75,26.494h5.527c0.829,0,1.206-0.018,1.603-0.09v1.134c-0.468-0.09-0.828-0.107-1.603-0.107h-5.527
		v1.603h5.474c0.918,0,1.206-0.019,1.729-0.108v1.171c-0.504-0.091-0.883-0.108-1.729-0.108h-5.474v0.216
		c0.019,0.685,0.036,0.918,0.09,1.332h-1.332c0.071-0.54,0.09-0.936,0.09-1.71v-4.861h-1.98c-1.062,1.134-1.981,1.872-3.817,3.024
		c-0.234-0.359-0.521-0.72-0.811-0.954c1.909-0.937,3.493-2.251,4.646-3.817c0.415-0.558,0.702-1.062,0.847-1.477l1.225,0.469
		c-0.198,0.216-0.252,0.306-0.433,0.576c-0.306,0.468-0.558,0.828-0.847,1.188h8.337c0.847,0,1.278-0.019,1.837-0.108v1.188
		c-0.576-0.072-1.026-0.09-1.818-0.09h-6.032V26.494z M146.08,36.487c1.135-1.459,1.585-2.358,2.143-4.231l0.99,0.468
		c-0.647,2.053-1.098,2.972-2.178,4.466L146.08,36.487z M151.679,35.911c0,0.738,0.145,0.774,2.791,0.774
		c1.873,0,2.485-0.108,2.684-0.505c0.162-0.306,0.252-1.008,0.27-1.891c0.396,0.234,0.666,0.343,1.135,0.433
		c-0.162,1.656-0.379,2.305-0.811,2.574c-0.45,0.289-1.692,0.415-3.979,0.415c-2.737,0-3.224-0.234-3.224-1.585v-2.322
		c0-0.685-0.019-1.045-0.108-1.657h1.351c-0.09,0.469-0.108,0.829-0.108,1.657V35.911z M155.155,35.011
		c-0.595-1.116-1.116-1.782-2.106-2.683l0.846-0.559c1.027,0.937,1.495,1.477,2.215,2.611L155.155,35.011z M161.06,36.991
		c-0.953-1.927-1.494-2.736-2.862-4.304l0.882-0.54c1.351,1.531,1.945,2.359,2.989,4.159L161.06,36.991z"/>
</g>
<g enable-background="new    ">
	<path fill="#6D5D4B" d="M172.002,22.515c-0.181,0.271-0.252,0.378-0.54,0.883c-1.116,1.891-2.269,3.295-3.854,4.681
		c-1.242,1.099-1.746,1.459-3.835,2.81c-0.252-0.469-0.433-0.685-0.828-1.045c3.043-1.71,5.167-3.547,6.644-5.689
		c0.613-0.864,0.955-1.53,1.117-2.16L172.002,22.515z M173.55,27.719c-0.305,0.378-0.305,0.378-1.242,1.818
		c-0.648,1.008-1.98,2.755-3.096,4.033c-1.207,1.387-1.801,2.017-2.504,2.646c3.89-0.18,7.617-0.521,9.777-0.918
		c-1.584-2.467-2.143-3.241-2.988-4.249l0.972-0.576c0.522,0.594,1.999,2.646,2.647,3.655c0.701,1.098,1.224,1.944,1.943,3.276
		l-1.098,0.702c-0.504-1.098-0.612-1.314-0.883-1.818c-0.756,0.145-0.972,0.162-1.854,0.271c-3.277,0.396-4.988,0.558-7.185,0.702
		c-2.053,0.126-2.72,0.197-3.438,0.324l-0.324-1.351c0.558,0,0.81-0.055,1.08-0.217c1.439-1.313,2.935-2.988,4.447-5.023
		c1.206-1.638,1.854-2.683,2.412-3.907L173.55,27.719z"/>
	<path fill="#6D5D4B" d="M186.978,35.335c0,1.494-1.207,2.7-2.701,2.7s-2.701-1.206-2.701-2.7c0-1.495,1.207-2.701,2.701-2.701
		S186.978,33.84,186.978,35.335z M182.603,35.335c0,0.918,0.756,1.675,1.674,1.675s1.674-0.757,1.674-1.675
		c0-0.919-0.756-1.675-1.674-1.675S182.603,34.416,182.603,35.335z"/>
</g>
</svg>
