<?xml version="1.0" encoding="utf-8"?>
<!-- Generator: Adobe Illustrator 16.0.0, SVG Export Plug-In . SVG Version: 6.00 Build 0)  -->
<!DOCTYPE svg PUBLIC "-//W3C//DTD SVG 1.1//EN" "http://www.w3.org/Graphics/SVG/1.1/DTD/svg11.dtd">
<svg version="1.1" id="Layer_1" xmlns="http://www.w3.org/2000/svg" xmlns:xlink="http://www.w3.org/1999/xlink" x="0px" y="0px"
	 width="220.875px" height="138.951px" viewBox="0 0 220.875 138.951" enable-background="new 0 0 220.875 138.951"
	 xml:space="preserve">
<g>
	<g>
		<defs>
			<rect id="SVGID_1_" x="0.126" width="193.381" height="81.722"/>
		</defs>
		<clipPath id="SVGID_2_">
			<use xlink:href="#SVGID_1_"  overflow="visible"/>
		</clipPath>
		<path clip-path="url(#SVGID_2_)" fill="#FABB9E" d="M170.792,0.293L25.621,0v0.185C24.708,0.075,23.785,0,22.843,0
			C10.297,0,0.125,10.073,0.125,22.498V33.9c0,12.426,10.171,22.498,22.717,22.498c0.942,0,1.866-0.074,2.778-0.186v0.186
			l145.172,0.293c12.545,0,22.715-10.072,22.715-22.498V22.791C193.507,10.366,183.337,0.293,170.792,0.293"/>
	</g>
	<g>
		<defs>
			<rect id="SVGID_3_" x="0.126" width="193.381" height="81.722"/>
		</defs>
		<clipPath id="SVGID_4_">
			<use xlink:href="#SVGID_3_"  overflow="visible"/>
		</clipPath>
		<path clip-path="url(#SVGID_4_)" fill="#FABB9E" d="M148.119,49.36c0-13.704,8.516-25.41,20.539-30.13
			c-3.656-1.435-7.634-2.231-11.799-2.231c-17.861,0-32.34,14.488-32.34,32.361c0,17.872,14.479,32.36,32.34,32.36
			c4.165,0,8.143-0.797,11.799-2.229C156.634,74.771,148.119,63.064,148.119,49.36"/>
	</g>
</g>
<g enable-background="new    ">
	<path fill="#6D5D4B" d="M31.851,23.065c-0.576,0-1.026,0.036-1.476,0.108v-1.225c0.45,0.072,0.936,0.108,1.584,0.108h0.648
		c0.306-1.297,0.504-2.701,0.504-3.421c0-0.054,0-0.145-0.018-0.252l1.314,0.126c-0.072,0.288-0.108,0.468-0.252,1.386
		c-0.072,0.486-0.27,1.567-0.396,2.161h1.566c0.738,0,1.225-0.018,1.639-0.072c-0.036,0.252-0.036,0.252-0.09,0.811
		c-0.271,2.935-0.882,5.293-1.801,6.986c-0.054,0.09-0.054,0.09-0.09,0.144c0.648,0.576,1.008,0.937,1.999,2.053l-0.792,0.954
		c-0.774-0.972-1.044-1.26-1.782-2.017c-0.054,0.072-0.054,0.072-0.108,0.145c-0.882,1.386-1.782,2.25-3.439,3.421
		c-0.252-0.396-0.468-0.666-0.792-0.954c1.584-0.973,2.575-1.927,3.511-3.367c-1.242-1.045-1.584-1.278-2.881-2.071
		c0.703-1.584,1.225-3.133,1.693-5.023H31.851z M33.525,23.065c-0.522,1.945-0.829,2.936-1.477,4.609
		c0.972,0.667,1.278,0.883,2.088,1.513c0.847-1.639,1.297-3.421,1.585-6.122H33.525z M45.247,26.091
		c0.774,0,1.135-0.018,1.603-0.108v1.278c-0.486-0.09-0.864-0.107-1.603-0.107h-2.971v5.888c0,1.206-0.324,1.458-1.783,1.458
		c-0.486,0-1.206-0.054-2.161-0.144c-0.036-0.522-0.09-0.738-0.252-1.225c1.044,0.162,1.818,0.252,2.341,0.252
		c0.576,0,0.702-0.054,0.702-0.378v-5.852h-2.431c-0.72,0-1.152,0.036-1.639,0.107v-1.278c0.432,0.091,0.792,0.108,1.621,0.108
		h2.449v-0.756c0-0.648-0.036-1.117-0.126-1.765h0.63c1.152-0.919,1.855-1.675,2.773-2.972h-5.078c-0.666,0-1.314,0.036-1.764,0.108
		v-1.278c0.468,0.072,1.062,0.108,1.818,0.108h4.627c0.738,0,1.098-0.019,1.386-0.091l0.667,0.829
		c-0.126,0.126-0.126,0.126-1.278,1.603c-0.576,0.72-1.369,1.512-2.503,2.467v1.746H45.247z"/>
	<path fill="#6D5D4B" d="M49.851,23.065c-0.576,0-1.026,0.036-1.476,0.108v-1.225c0.45,0.072,0.936,0.108,1.584,0.108h0.648
		c0.306-1.297,0.504-2.701,0.504-3.421c0-0.054,0-0.145-0.018-0.252l1.314,0.126c-0.072,0.288-0.108,0.468-0.252,1.386
		c-0.072,0.486-0.27,1.567-0.396,2.161h1.566c0.738,0,1.225-0.018,1.639-0.072c-0.036,0.252-0.036,0.252-0.09,0.811
		c-0.271,2.935-0.882,5.293-1.801,6.986c-0.054,0.09-0.054,0.09-0.09,0.144c0.648,0.576,1.008,0.937,1.999,2.053l-0.792,0.954
		c-0.774-0.972-1.044-1.26-1.782-2.017c-0.054,0.072-0.054,0.072-0.108,0.145c-0.882,1.386-1.782,2.25-3.439,3.421
		c-0.252-0.396-0.468-0.666-0.792-0.954c1.584-0.973,2.575-1.927,3.511-3.367c-1.242-1.045-1.584-1.278-2.881-2.071
		c0.703-1.584,1.225-3.133,1.693-5.023H49.851z M51.525,23.065c-0.522,1.945-0.829,2.936-1.477,4.609
		c0.972,0.667,1.278,0.883,2.088,1.513c0.847-1.639,1.297-3.421,1.585-6.122H51.525z M63.247,26.091
		c0.774,0,1.135-0.018,1.603-0.108v1.278c-0.486-0.09-0.864-0.107-1.603-0.107h-2.971v5.888c0,1.206-0.324,1.458-1.783,1.458
		c-0.486,0-1.206-0.054-2.161-0.144c-0.036-0.522-0.09-0.738-0.252-1.225c1.044,0.162,1.818,0.252,2.341,0.252
		c0.576,0,0.702-0.054,0.702-0.378v-5.852h-2.431c-0.72,0-1.152,0.036-1.639,0.107v-1.278c0.432,0.091,0.792,0.108,1.621,0.108
		h2.449v-0.756c0-0.648-0.036-1.117-0.126-1.765h0.63c1.152-0.919,1.855-1.675,2.773-2.972h-5.078c-0.666,0-1.314,0.036-1.764,0.108
		v-1.278c0.468,0.072,1.062,0.108,1.818,0.108h4.627c0.738,0,1.098-0.019,1.386-0.091l0.667,0.829
		c-0.126,0.126-0.126,0.126-1.278,1.603c-0.576,0.72-1.369,1.512-2.503,2.467v1.746H63.247z"/>
	<path fill="#6D5D4B" d="M67.113,21.607c0-0.666-0.018-1.206-0.072-1.692c0.378,0.036,0.594,0.054,1.296,0.054h2.467
		c0.666,0,0.9-0.018,1.278-0.054c-0.054,0.378-0.054,0.684-0.054,1.692v7.94c0,0.54,0.018,1.152,0.072,1.513h-1.152v-1.135h-2.737
		v1.854h-1.207c0.072-0.594,0.108-1.225,0.108-1.98V21.607z M68.211,28.863h2.737v-7.832h-2.737V28.863z M79.536,32.591
		c0,0.828,0.036,1.477,0.126,2.07h-1.404c0.09-0.594,0.126-1.296,0.126-2.07v-7.58h-3.511c-0.108,2.683-0.27,3.997-0.648,5.545
		c-0.396,1.585-0.972,2.665-2.161,4.016c-0.324-0.396-0.522-0.559-0.99-0.864c1.098-1.08,1.639-1.999,2.053-3.457
		c0.252-0.973,0.396-1.872,0.522-3.349c0.072-1.026,0.126-1.999,0.126-2.647v-2.305c0-0.846-0.036-1.548-0.108-2.034
		c0.108,0,0.216,0,0.234,0c2.197,0,5.996-0.811,7.202-1.549l0.937,1.062c-1.819,0.685-4.231,1.206-7.13,1.53v1.53
		c0,0.541,0,0.541-0.018,1.459h5.617c0.9,0,1.495-0.036,2.089-0.108v1.278c-0.612-0.071-1.207-0.107-2.035-0.107h-1.026V32.591z"/>
	<path fill="#6D5D4B" d="M93.485,24.578c2.035-1.53,4.051-3.709,4.682-5.041l1.152,0.72c-0.27,0.288-0.342,0.378-0.756,0.883
		c-0.936,1.134-2.179,2.358-3.475,3.438h3.151c0.937,0,1.44-0.036,1.927-0.107v1.26c-0.594-0.072-1.17-0.107-1.962-0.107h-4.447
		c-1.009,0.756-2.359,1.638-3.854,2.502v1.692c2.125-0.576,3.601-1.08,5.204-1.764c0.882-0.36,1.333-0.612,1.692-0.883l0.918,0.99
		c-0.09,0.036-0.09,0.036-0.252,0.108c-0.036,0.018-0.108,0.054-0.216,0.09c-0.756,0.342-1.386,0.612-2.521,1.026
		c-1.836,0.666-2.305,0.811-4.826,1.477v1.53c0,0.396,0.162,0.576,0.63,0.685c0.558,0.126,1.26,0.162,2.971,0.162
		c2.575,0,3.403-0.108,3.709-0.469c0.252-0.324,0.36-0.972,0.432-2.467c0.396,0.288,0.685,0.414,1.135,0.54
		c-0.324,3.422-0.414,3.476-5.69,3.476c-2.143,0-3.061-0.09-3.673-0.36c-0.504-0.234-0.667-0.576-0.667-1.387v-3.816
		c-1.278,0.647-2.376,1.134-3.925,1.746c-0.198-0.396-0.36-0.612-0.738-1.026c2.827-0.937,5.438-2.196,7.922-3.853h-5.528
		c-0.828,0-1.404,0.035-2.017,0.107v-1.26c0.468,0.071,1.026,0.107,2.017,0.107h4.501v-2.557h-3.043c-0.918,0-1.477,0.019-1.98,0.09
		v-1.224c0.432,0.071,0.99,0.107,1.98,0.107h3.043v-0.756c0-0.811-0.018-1.225-0.108-1.729h1.368
		c-0.072,0.468-0.108,0.918-0.108,1.746v0.738h1.962c0.954,0,1.477-0.036,1.945-0.107v1.224c-0.594-0.071-0.918-0.09-1.909-0.09
		h-1.999v2.557H93.485z"/>
	<path fill="#6D5D4B" d="M102.626,27.64c0.072-0.45,0.09-0.883,0.09-1.566v-4.214c0-0.558-0.036-1.044-0.09-1.458h1.314
		c-0.072,0.378-0.09,0.792-0.09,1.458v4.214c0,0.647,0.018,1.098,0.09,1.566H102.626z M107.434,18.438
		c-0.054,0.378-0.072,0.774-0.072,1.746c-0.018,5.474-0.126,7.419-0.522,9.273c-0.415,1.908-1.314,3.438-2.971,5.023
		c-0.234-0.342-0.432-0.522-0.9-0.828c1.405-1.242,2.215-2.521,2.665-4.195c0.378-1.387,0.558-3.583,0.558-6.807
		c0-2.7-0.018-3.673-0.108-4.213H107.434z M113.952,22.85h2.629c0.595,0,1.009-0.018,1.404-0.072
		c-0.054,0.415-0.071,0.721-0.071,1.333v6.986c0,0.936-0.343,1.26-1.387,1.26c-0.414,0-0.738-0.018-1.225-0.072
		c-0.036-0.449-0.09-0.738-0.252-1.134c0.648,0.126,1.08,0.18,1.387,0.18c0.306,0,0.396-0.09,0.396-0.396v-7.112h-2.881v9.309
		c0,0.702,0.036,1.17,0.126,1.639h-1.35c0.09-0.504,0.125-0.954,0.125-1.639v-9.309h-2.791v7.076c0,0.864,0.018,1.314,0.09,1.692
		h-1.278c0.072-0.469,0.09-0.918,0.09-1.765v-6.662c0-0.612-0.018-0.972-0.072-1.387c0.486,0.055,0.847,0.072,1.549,0.072h2.412
		v-2.484h-2.935c-0.702,0-1.116,0.018-1.603,0.09v-1.206c0.504,0.071,0.937,0.107,1.639,0.107h6.896c0.684,0,1.115-0.036,1.62-0.107
		v1.206c-0.486-0.072-0.9-0.09-1.603-0.09h-2.917V22.85z"/>
	<path fill="#6D5D4B" d="M125.128,21.229c0.899-0.019,1.422-0.036,1.584-0.055c-0.036,0.469-0.055,0.937-0.055,1.585v9.165
		c0,0.81,0.037,1.422,0.09,1.854h-1.188v-1.152h-3.512v1.584h-1.206c0.072-0.468,0.091-1.134,0.091-2.196v-9.129
		c0-0.846-0.019-1.261-0.072-1.711c0.378,0.036,0.701,0.055,1.602,0.055h0.361c0.359-0.883,0.629-1.783,0.773-2.719l1.278,0.252
		c-0.323,0.973-0.647,1.872-0.918,2.467H125.128z M122.048,26.234h3.512V22.22h-3.512V26.234z M122.048,31.618h3.512v-4.393h-3.512
		V31.618z M134.491,21.211c0.72,0,1.224-0.018,1.585-0.071c-0.055,0.324-0.055,0.468-0.072,1.134
		c-0.162,7.13-0.396,9.543-1.045,10.983c-0.359,0.828-0.936,1.152-2.017,1.152c-0.647,0-1.17-0.036-2.286-0.126
		c-0.036-0.522-0.108-0.828-0.307-1.278c1.099,0.216,1.908,0.306,2.557,0.306c0.666,0,0.9-0.162,1.135-0.738
		c0.307-0.828,0.54-2.557,0.666-4.969c0.09-1.44,0.107-2.683,0.126-5.33h-5.186c-0.612,1.242-1.134,2.071-2.07,3.277
		c-0.234-0.307-0.559-0.612-0.864-0.811c1.098-1.17,1.98-2.7,2.646-4.537c0.252-0.685,0.432-1.351,0.469-1.747l1.242,0.234
		c-0.055,0.108-0.145,0.36-0.252,0.685c-0.217,0.63-0.396,1.116-0.685,1.836H134.491z M131.627,29.691
		c-1.008-2.16-1.692-3.295-2.736-4.555l0.918-0.559c1.134,1.368,1.891,2.557,2.845,4.483L131.627,29.691z"/>
	<path fill="#6D5D4B" d="M140.787,25.227h-1.277c-0.613,0-0.883,0.018-1.333,0.09v-1.261c0.45,0.072,0.72,0.091,1.404,0.091h1.081
		c0.521,0,0.953-0.036,1.386-0.091c-0.071,0.576-0.09,1.009-0.09,1.909v6.319c0.09-0.054,0.81-0.521,2.161-1.404l0.09,1.278
		c-0.595,0.307-0.595,0.307-1.639,0.973c-0.145,0.072-0.396,0.216-0.738,0.396c-0.486,0.252-0.486,0.252-0.955,0.54l-0.558-1.116
		c0.288-0.126,0.414-0.271,0.468-0.469V25.227z M140.462,18.492c1.135,0.883,1.801,1.495,2.756,2.521l-0.847,0.936
		c-0.882-1.08-1.639-1.818-2.772-2.664L140.462,18.492z M148.62,20.797c-1.062,0.217-2.377,0.396-3.8,0.54
		c-0.144-0.396-0.378-0.846-0.576-1.062c3.367-0.162,7.274-1.009,8.68-1.873l0.791,1.062c-0.071,0.018-0.125,0.036-0.162,0.054
		c-0.252,0.055-0.252,0.055-0.539,0.145c-0.037,0.018-0.145,0.054-0.271,0.09c-0.108,0.036-0.271,0.072-0.45,0.126
		c-1.387,0.414-1.765,0.504-2.539,0.685v3.331h2.899c0.899,0,1.404-0.036,1.927-0.108v1.225c-0.559-0.072-1.062-0.108-1.927-0.108
		h-2.899v3.079h2.359c0.594,0,0.972-0.019,1.35-0.072c-0.054,0.36-0.072,0.883-0.072,1.603v3.349c0,0.685,0.037,1.261,0.091,1.801
		h-1.225v-0.937h-5.905v0.937h-1.225c0.072-0.54,0.09-0.937,0.09-1.782v-3.457c0-0.63-0.018-1.026-0.072-1.513
		c0.379,0.054,0.774,0.072,1.279,0.072h2.196v-3.079h-3.097c-0.937,0-1.369,0.019-1.98,0.108v-1.225
		c0.539,0.09,1.008,0.108,1.998,0.108h3.079V20.797z M146.351,32.717h5.905v-3.745h-5.905V32.717z"/>
</g>
<g enable-background="new    ">
	<path fill="#6D5D4B" d="M161.182,31.889c0,1.494-1.206,2.7-2.7,2.7c-1.495,0-2.701-1.206-2.701-2.7
		c0-1.495,1.206-2.701,2.701-2.701C159.976,29.188,161.182,30.394,161.182,31.889z M156.807,31.889c0,0.918,0.756,1.675,1.675,1.675
		c0.918,0,1.674-0.757,1.674-1.675c0-0.919-0.756-1.675-1.674-1.675C157.563,30.214,156.807,30.97,156.807,31.889z"/>
</g>
</svg>
