<?xml version="1.0" encoding="utf-8"?>
<!-- Generator: Adobe Illustrator 16.0.0, SVG Export Plug-In . SVG Version: 6.00 Build 0)  -->
<!DOCTYPE svg PUBLIC "-//W3C//DTD SVG 1.1//EN" "http://www.w3.org/Graphics/SVG/1.1/DTD/svg11.dtd">
<svg version="1.1" id="Layer_1" xmlns="http://www.w3.org/2000/svg" xmlns:xlink="http://www.w3.org/1999/xlink" x="0px" y="0px"
	 width="220.875px" height="138.951px" viewBox="0 0 220.875 138.951" enable-background="new 0 0 220.875 138.951"
	 xml:space="preserve">
<g>
	<g>
		<defs>
			<rect id="SVGID_1_" width="128.843" height="74.783"/>
		</defs>
		<clipPath id="SVGID_2_">
			<use xlink:href="#SVGID_1_"  overflow="visible"/>
		</clipPath>
		<path clip-path="url(#SVGID_2_)" fill="#E2DAD3" d="M17.437,0l89.604,0.771v0.145c0.7-0.086,1.409-0.145,2.133-0.145
			c9.63,0,17.438,7.92,17.438,17.688l0.272,18.724c0,9.77-7.807,17.689-17.438,17.689c-0.723,0-1.432-0.059-2.133-0.145v0.145
			l-89.604,0.231c-9.63,0-17.437-7.92-17.437-17.69L0,17.69C0,7.92,7.807,0,17.437,0"/>
	</g>
	<g>
		<defs>
			<rect id="SVGID_3_" width="128.843" height="74.783"/>
		</defs>
		<clipPath id="SVGID_4_">
			<use xlink:href="#SVGID_3_"  overflow="visible"/>
		</clipPath>
		<path clip-path="url(#SVGID_4_)" fill="#E2DAD3" d="M86.253,49.339c0-10.776,6.538-19.98,15.767-23.69
			c-2.807-1.128-5.86-1.755-9.057-1.755c-13.711,0-24.825,11.392-24.825,25.445c0,14.052,11.114,25.444,24.825,25.444
			c3.197,0,6.25-0.627,9.057-1.755C92.791,69.318,86.253,60.113,86.253,49.339"/>
	</g>
</g>
<g enable-background="new    ">
	<path fill="#6D5D4B" d="M26.688,23.58c-0.576,0-1.026,0.036-1.476,0.108v-1.225c0.45,0.072,0.936,0.108,1.584,0.108h0.648
		c0.306-1.297,0.504-2.701,0.504-3.421c0-0.054,0-0.145-0.018-0.252l1.314,0.126c-0.072,0.288-0.108,0.468-0.252,1.386
		c-0.072,0.486-0.27,1.567-0.396,2.161h1.566c0.738,0,1.225-0.018,1.639-0.072c-0.036,0.252-0.036,0.252-0.09,0.811
		c-0.271,2.935-0.882,5.293-1.801,6.986c-0.054,0.09-0.054,0.09-0.09,0.144c0.648,0.576,1.008,0.937,1.999,2.053l-0.792,0.954
		c-0.774-0.972-1.044-1.26-1.782-2.017c-0.054,0.072-0.054,0.072-0.108,0.145c-0.882,1.386-1.782,2.25-3.439,3.421
		c-0.252-0.396-0.468-0.666-0.792-0.954c1.584-0.973,2.575-1.927,3.511-3.367c-1.242-1.045-1.584-1.278-2.881-2.071
		c0.703-1.584,1.225-3.133,1.693-5.023H26.688z M28.363,23.58c-0.522,1.945-0.829,2.936-1.477,4.609
		c0.972,0.667,1.278,0.883,2.088,1.513c0.847-1.639,1.297-3.421,1.585-6.122H28.363z M40.084,26.605
		c0.774,0,1.135-0.018,1.603-0.108v1.278c-0.486-0.09-0.864-0.107-1.603-0.107h-2.971v5.888c0,1.206-0.324,1.458-1.783,1.458
		c-0.486,0-1.206-0.054-2.161-0.144c-0.036-0.522-0.09-0.738-0.252-1.225c1.044,0.162,1.818,0.252,2.341,0.252
		c0.576,0,0.702-0.054,0.702-0.378v-5.852H33.53c-0.72,0-1.152,0.036-1.639,0.107v-1.278c0.432,0.091,0.792,0.108,1.621,0.108h2.449
		V25.85c0-0.648-0.036-1.117-0.126-1.765h0.63c1.152-0.919,1.855-1.675,2.773-2.972H34.16c-0.666,0-1.314,0.036-1.764,0.108v-1.278
		c0.468,0.072,1.062,0.108,1.818,0.108h4.627c0.738,0,1.098-0.019,1.386-0.091l0.667,0.829c-0.126,0.126-0.126,0.126-1.278,1.603
		c-0.576,0.72-1.369,1.512-2.503,2.467v1.746H40.084z"/>
	<path fill="#6D5D4B" d="M44.688,23.58c-0.576,0-1.026,0.036-1.476,0.108v-1.225c0.45,0.072,0.936,0.108,1.584,0.108h0.648
		c0.306-1.297,0.504-2.701,0.504-3.421c0-0.054,0-0.145-0.018-0.252l1.314,0.126c-0.072,0.288-0.108,0.468-0.252,1.386
		c-0.072,0.486-0.27,1.567-0.396,2.161h1.566c0.738,0,1.225-0.018,1.639-0.072c-0.036,0.252-0.036,0.252-0.09,0.811
		c-0.271,2.935-0.882,5.293-1.801,6.986c-0.054,0.09-0.054,0.09-0.09,0.144c0.648,0.576,1.008,0.937,1.999,2.053l-0.792,0.954
		c-0.774-0.972-1.044-1.26-1.782-2.017c-0.054,0.072-0.054,0.072-0.108,0.145c-0.882,1.386-1.782,2.25-3.439,3.421
		c-0.252-0.396-0.468-0.666-0.792-0.954c1.584-0.973,2.575-1.927,3.511-3.367c-1.242-1.045-1.584-1.278-2.881-2.071
		c0.703-1.584,1.225-3.133,1.693-5.023H44.688z M46.363,23.58c-0.522,1.945-0.829,2.936-1.477,4.609
		c0.972,0.667,1.278,0.883,2.088,1.513c0.847-1.639,1.297-3.421,1.585-6.122H46.363z M58.084,26.605
		c0.774,0,1.135-0.018,1.603-0.108v1.278c-0.486-0.09-0.864-0.107-1.603-0.107h-2.971v5.888c0,1.206-0.324,1.458-1.783,1.458
		c-0.486,0-1.206-0.054-2.161-0.144c-0.036-0.522-0.09-0.738-0.252-1.225c1.044,0.162,1.818,0.252,2.341,0.252
		c0.576,0,0.702-0.054,0.702-0.378v-5.852H51.53c-0.72,0-1.152,0.036-1.639,0.107v-1.278c0.432,0.091,0.792,0.108,1.621,0.108h2.449
		V25.85c0-0.648-0.036-1.117-0.126-1.765h0.63c1.152-0.919,1.855-1.675,2.773-2.972H52.16c-0.666,0-1.314,0.036-1.764,0.108v-1.278
		c0.468,0.072,1.062,0.108,1.818,0.108h4.627c0.738,0,1.098-0.019,1.386-0.091l0.667,0.829c-0.126,0.126-0.126,0.126-1.278,1.603
		c-0.576,0.72-1.369,1.512-2.503,2.467v1.746H58.084z"/>
	<path fill="#6D5D4B" d="M63.229,29.99c-0.792,0-1.351,0.036-1.891,0.108v-1.242c0.522,0.071,1.098,0.107,1.873,0.107h5.419v-0.306
		c0-0.36-0.018-0.685-0.054-1.062h0.756c1.243-0.594,2.269-1.242,3.223-2.034h-6.59c-0.612,0-1.225,0.035-1.71,0.09V24.48
		c0.504,0.055,1.08,0.09,1.746,0.09h6.5c0.667,0,1.026-0.018,1.333-0.071l0.684,0.72c-0.234,0.181-0.234,0.181-0.63,0.522
		c-1.207,1.008-2.323,1.746-4.105,2.665v0.558h5.348c0.81,0,1.386-0.036,1.891-0.107v1.242c-0.504-0.072-1.116-0.108-1.909-0.108
		h-5.33v3.781c0,1.116-0.324,1.314-2.07,1.314c-0.559,0-1.351-0.036-2.017-0.09c-0.126-0.522-0.198-0.757-0.378-1.152
		c0.972,0.126,1.71,0.18,2.395,0.18c0.792,0,0.918-0.054,0.918-0.414V29.99H63.229z M68.774,21.852
		c-0.324-0.899-0.702-1.656-1.314-2.593l1.117-0.306c0.684,1.206,0.972,1.801,1.368,2.898h1.98c0.811-0.918,1.351-1.764,1.854-2.898
		l1.135,0.486c-0.738,1.188-1.207,1.836-1.729,2.412h1.404c1.044,0,1.44-0.018,2.07-0.071c-0.054,0.468-0.072,0.828-0.072,1.494
		v1.332c0,0.414,0.036,0.847,0.09,1.261H75.49v-3.025H62.778v3.025H61.59c0.054-0.414,0.09-0.811,0.09-1.261v-1.332
		c0-0.666-0.018-1.026-0.072-1.494c0.666,0.071,1.062,0.09,2.053,0.09h1.26c-0.468-0.864-0.846-1.387-1.692-2.341l1.08-0.342
		c0.828,1.008,1.242,1.62,1.836,2.664H68.774z"/>
	<path fill="#6D5D4B" d="M82.525,21.492c-0.9,0-1.513,0.036-2.179,0.107v-1.35c0.594,0.071,1.26,0.107,2.197,0.107h9.309
		c1.026,0,1.477-0.018,2.143-0.09c-0.09,1.404-0.108,1.927-0.144,2.881c-0.108,3.781-0.414,7.364-0.774,9.057
		c-0.396,1.837-0.882,2.269-2.484,2.269c-0.846,0-1.71-0.072-2.971-0.252c-0.054-0.522-0.144-0.882-0.324-1.368
		c1.44,0.324,2.197,0.432,3.007,0.432c0.774,0,1.08-0.126,1.296-0.558c0.324-0.631,0.666-3.043,0.864-6.068
		c0.09-1.566,0.09-1.566,0.198-5.167H82.525z M91.113,28.82c-2.629,1.116-3.997,1.584-8.373,2.898
		c-0.702,0.216-1.098,0.342-1.747,0.595L80.4,30.927c3.097-0.576,7.004-1.818,10.498-3.367L91.113,28.82z M83.083,22.734
		c2.431,1.513,3.295,2.16,4.861,3.637l-0.9,0.99c-1.566-1.603-2.502-2.322-4.771-3.727L83.083,22.734z"/>
</g>
<g enable-background="new    ">
	<path fill="#6D5D4B" d="M102.542,32.403c0,1.494-1.206,2.7-2.701,2.7s-2.701-1.206-2.701-2.7c0-1.495,1.206-2.701,2.701-2.701
		S102.542,30.908,102.542,32.403z M98.167,32.403c0,0.918,0.756,1.675,1.674,1.675s1.674-0.757,1.674-1.675
		c0-0.919-0.756-1.675-1.674-1.675S98.167,31.484,98.167,32.403z"/>
</g>
</svg>
