<?xml version="1.0" encoding="utf-8"?>
<!-- Generator: Adobe Illustrator 16.0.0, SVG Export Plug-In . SVG Version: 6.00 Build 0)  -->
<!DOCTYPE svg PUBLIC "-//W3C//DTD SVG 1.1//EN" "http://www.w3.org/Graphics/SVG/1.1/DTD/svg11.dtd">
<svg version="1.1" id="Layer_1" xmlns="http://www.w3.org/2000/svg" xmlns:xlink="http://www.w3.org/1999/xlink" x="0px" y="0px"
	 width="220.875px" height="138.951px" viewBox="0 0 220.875 138.951" enable-background="new 0 0 220.875 138.951"
	 xml:space="preserve">
<g>
	<g>
		<defs>
			<rect id="SVGID_1_" x="29.03" width="190.845" height="74.783"/>
		</defs>
		<clipPath id="SVGID_2_">
			<use xlink:href="#SVGID_1_"  overflow="visible"/>
		</clipPath>
		<path clip-path="url(#SVGID_2_)" fill="#FFEBA2" d="M202.125,0L48.874,0.771v0.145c-0.701-0.086-1.41-0.145-2.133-0.145
			c-9.631,0-17.438,7.92-17.438,17.688L29.03,37.183c0,9.77,7.807,17.69,17.438,17.69c0.724,0,1.433-0.059,2.133-0.145v0.145
			l153.252,0.23c9.63,0,17.438-7.92,17.438-17.69l0.271-19.723C219.562,7.92,211.755,0,202.125,0"/>
	</g>
	<g>
		<defs>
			<rect id="SVGID_3_" x="29.03" width="190.845" height="74.783"/>
		</defs>
		<clipPath id="SVGID_4_">
			<use xlink:href="#SVGID_3_"  overflow="visible"/>
		</clipPath>
		<path clip-path="url(#SVGID_4_)" fill="#FFEBA2" d="M69.662,49.339c0-10.776-6.538-19.98-15.767-23.69
			c2.807-1.128,5.86-1.755,9.057-1.755c13.711,0,24.825,11.393,24.825,25.445c0,14.052-11.114,25.446-24.825,25.446
			c-3.197,0-6.25-0.629-9.057-1.757C63.124,69.318,69.662,60.113,69.662,49.339"/>
	</g>
</g>
<g enable-background="new    ">
	<path fill="#6D5D4B" d="M52.484,20.535h4.087c3.799,0,6.356,2.323,6.356,6.32c0,4.033-2.557,6.338-6.356,6.338h-4.087V20.535z
		 M56.446,32.077c3.115,0,5.186-1.837,5.186-5.222c0-3.367-2.089-5.203-5.186-5.203h-2.719v10.425H56.446z"/>
</g>
<g enable-background="new    ">
	<path fill="#6D5D4B" d="M69.496,23.921c2.647,0,4.79,2.017,4.79,4.699c0,2.736-2.143,4.789-4.79,4.789
		c-2.646,0-4.79-2.053-4.79-4.789C64.706,25.938,66.849,23.921,69.496,23.921z M69.496,32.312c1.945,0,3.529-1.585,3.529-3.691
		c0-2.053-1.584-3.583-3.529-3.583c-1.944,0-3.529,1.53-3.529,3.583C65.967,30.727,67.551,32.312,69.496,32.312z"/>
	<path fill="#6D5D4B" d="M80.24,24.137h1.296l2.197,6.752c0.144,0.432,0.27,0.973,0.27,0.973h0.036c0,0,0.126-0.541,0.27-0.973
		l2.232-6.716h1.207l2.232,6.716c0.144,0.432,0.27,0.973,0.27,0.973h0.036c0,0,0.126-0.522,0.27-0.973l2.197-6.752h1.296
		l-3.061,9.057h-1.333l-2.214-6.446c-0.162-0.45-0.288-0.972-0.288-0.972h-0.036c0,0-0.126,0.521-0.27,0.972l-2.215,6.446h-1.332
		L80.24,24.137z"/>
</g>
<g enable-background="new    ">
	<path fill="#6D5D4B" d="M95.559,20.535h1.224v4.897c0,0.415-0.036,0.738-0.036,0.738h0.036c0.342-0.864,1.548-2.25,3.601-2.25
		c2.233,0,3.025,1.278,3.025,3.511v5.762h-1.224v-5.438c0-1.423-0.216-2.683-1.963-2.683c-1.548,0-2.881,1.062-3.295,2.574
		c-0.108,0.36-0.144,0.774-0.144,1.207v4.339h-1.224V20.535z"/>
</g>
<g enable-background="new    ">
	<path fill="#6D5D4B" d="M110.966,27.594h0.505v-0.234c0-1.746-0.954-2.341-2.251-2.341c-1.494,0-2.557,0.864-2.557,0.864
		l-0.576-0.936c0,0,1.188-1.026,3.223-1.026c2.179,0,3.384,1.206,3.384,3.475v5.798h-1.17v-0.99c0-0.45,0.036-0.756,0.036-0.756
		h-0.036c0,0-0.756,1.962-3.024,1.962c-1.513,0-3.079-0.882-3.079-2.683C105.421,27.666,109.4,27.594,110.966,27.594z
		 M108.698,32.365c1.729,0,2.773-1.801,2.773-3.367v-0.396h-0.522c-1.422,0-4.267,0.055-4.267,2.053
		C106.682,31.501,107.348,32.365,108.698,32.365z"/>
</g>
<g enable-background="new    ">
	<path fill="#6D5D4B" d="M115.736,25.271h-1.188v-1.026h1.206v-2.611h1.207v2.611h2.268v1.026h-2.268v4.501
		c0,2.124,1.35,2.395,2.034,2.395c0.252,0,0.414-0.036,0.414-0.036v1.099c0,0-0.198,0.036-0.522,0.036
		c-1.044,0-3.15-0.343-3.15-3.367V25.271z"/>
</g>
<g enable-background="new    ">
	<path fill="#6D5D4B" d="M125.24,35.462c0,0,0.504,0.414,1.08,0.414c0.792,0,1.35-0.648,1.71-1.477l0.559-1.278l-3.781-8.984h1.351
		l2.664,6.607c0.181,0.45,0.324,0.955,0.324,0.955h0.036c0,0,0.126-0.505,0.306-0.955l2.611-6.607h1.332l-4.465,10.947
		c-0.469,1.152-1.404,1.891-2.611,1.891c-0.936,0-1.584-0.54-1.584-0.54L125.24,35.462z"/>
	<path fill="#6D5D4B" d="M139.226,23.921c2.647,0,4.79,2.017,4.79,4.699c0,2.736-2.143,4.789-4.79,4.789
		c-2.646,0-4.789-2.053-4.789-4.789C134.437,25.938,136.58,23.921,139.226,23.921z M139.226,32.312c1.945,0,3.529-1.585,3.529-3.691
		c0-2.053-1.584-3.583-3.529-3.583c-1.943,0-3.528,1.53-3.528,3.583C135.698,30.727,137.283,32.312,139.226,32.312z"/>
</g>
<g enable-background="new    ">
	<path fill="#6D5D4B" d="M145.994,24.137h1.225v5.438c0,1.423,0.216,2.683,1.962,2.683c2.071,0,3.349-1.818,3.349-3.781v-4.339
		h1.225v9.057h-1.188v-1.351c0-0.396,0.035-0.72,0.035-0.72h-0.035c-0.36,0.882-1.549,2.286-3.547,2.286
		c-2.125,0-3.025-1.152-3.025-3.511V24.137z"/>
	<path fill="#6D5D4B" d="M161.455,20.535h1.225V30.78c0,1.188,0.541,1.369,1.009,1.369c0.162,0,0.306-0.019,0.306-0.019v1.099
		c0,0-0.216,0.036-0.449,0.036c-0.757,0-2.09-0.234-2.09-2.215V20.535z"/>
</g>
<g enable-background="new    ">
	<path fill="#6D5D4B" d="M169.898,23.921c2.646,0,4.789,2.017,4.789,4.699c0,2.736-2.143,4.789-4.789,4.789s-4.79-2.053-4.79-4.789
		C165.108,25.938,167.251,23.921,169.898,23.921z M169.898,32.312c1.944,0,3.529-1.585,3.529-3.691c0-2.053-1.585-3.583-3.529-3.583
		c-1.945,0-3.529,1.53-3.529,3.583C166.369,30.727,167.953,32.312,169.898,32.312z"/>
</g>
<g enable-background="new    ">
	<path fill="#6D5D4B" d="M175.638,24.137h1.296l2.521,6.644c0.162,0.45,0.307,1.081,0.307,1.081h0.036c0,0,0.144-0.612,0.323-1.081
		l2.504-6.644h1.277l-3.457,9.057h-1.332L175.638,24.137z"/>
	<path fill="#6D5D4B" d="M189.445,23.921c2.503,0,3.781,1.927,3.781,4.177c0,0.216-0.036,0.631-0.036,0.631h-6.95
		c0.055,2.322,1.639,3.583,3.512,3.583c1.656,0,2.754-1.099,2.754-1.099l0.559,0.937c0,0-1.314,1.26-3.35,1.26
		c-2.7,0-4.734-1.944-4.734-4.735C184.98,25.703,186.996,23.921,189.445,23.921z M191.984,27.72
		c-0.072-1.891-1.225-2.772-2.575-2.772c-1.513,0-2.827,0.954-3.114,2.772H191.984z"/>
</g>
<g enable-background="new    ">
	<path fill="#6D5D4B" d="M196.033,31.807h1.387v1.387h-1.387V31.807z M196.068,20.535h1.261l-0.054,9.346h-1.152L196.068,20.535z"/>
</g>
</svg>
