<?xml version="1.0" encoding="utf-8"?>
<!-- Generator: Adobe Illustrator 16.0.0, SVG Export Plug-In . SVG Version: 6.00 Build 0)  -->
<!DOCTYPE svg PUBLIC "-//W3C//DTD SVG 1.1//EN" "http://www.w3.org/Graphics/SVG/1.1/DTD/svg11.dtd">
<svg version="1.1" id="Layer_1" xmlns="http://www.w3.org/2000/svg" xmlns:xlink="http://www.w3.org/1999/xlink" x="0px" y="0px"
	 width="220.875px" height="138.951px" viewBox="0 0 220.875 138.951" enable-background="new 0 0 220.875 138.951"
	 xml:space="preserve">
<g>
	<g>
		<defs>
			<polygon id="SVGID_1_" points="29.492,106.938 220.105,106.938 220.875,0 29.492,0 			"/>
		</defs>
		<clipPath id="SVGID_2_">
			<use xlink:href="#SVGID_1_"  overflow="visible"/>
		</clipPath>
		<path clip-path="url(#SVGID_2_)" fill="#FFEBA2" d="M52.208,0.294L194.38,0.001v0.185c0.912-0.109,1.836-0.185,2.777-0.185
			c12.547,0,22.717,10.073,22.717,22.498v36.618c0,12.426-10.17,22.499-22.717,22.499c-0.941,0-1.865-0.075-2.777-0.186v0.186
			L52.208,81.909c-12.545,0-22.715-10.073-22.715-22.499V22.792C29.493,10.367,39.663,0.294,52.208,0.294"/>
	</g>
	<g>
		<defs>
			<polygon id="SVGID_3_" points="29.492,106.938 220.105,106.938 220.875,0 29.492,0 			"/>
		</defs>
		<clipPath id="SVGID_4_">
			<use xlink:href="#SVGID_3_"  overflow="visible"/>
		</clipPath>
		<path clip-path="url(#SVGID_4_)" fill="#FFEBA2" d="M74.883,74.577c0-13.704-8.517-25.41-20.54-30.13
			c3.656-1.435,7.634-2.231,11.799-2.231c17.861,0,32.34,14.488,32.34,32.361c0,17.872-14.479,32.361-32.34,32.361
			c-4.165,0-8.143-0.797-11.799-2.231C66.366,99.987,74.883,88.281,74.883,74.577"/>
	</g>
</g>
<g enable-background="new    ">
	<path fill="#6D5D4B" d="M52.329,21.555h4.375c2.269,0,3.907,1.477,3.907,3.817c0,2.358-1.639,3.871-3.907,3.871h-3.133v4.97h-1.243
		V21.555z M56.542,28.127c1.692,0,2.791-1.026,2.791-2.755c0-1.71-1.099-2.7-2.773-2.7h-2.989v5.455H56.542z"/>
</g>
<g enable-background="new    ">
	<path fill="#6D5D4B" d="M62.661,25.156h1.206v1.603c0,0.396-0.036,0.72-0.036,0.72h0.036c0.432-1.368,1.44-2.412,2.863-2.412
		c0.252,0,0.486,0.054,0.486,0.054v1.206c0,0-0.216-0.035-0.45-0.035c-1.278,0-2.232,1.008-2.628,2.34
		c-0.18,0.576-0.252,1.188-0.252,1.765v3.817h-1.224V25.156z"/>
</g>
<g enable-background="new    ">
	<path fill="#6D5D4B" d="M73.011,24.94c2.647,0,4.79,2.017,4.79,4.699c0,2.736-2.143,4.789-4.79,4.789
		c-2.646,0-4.79-2.053-4.79-4.789C68.221,26.957,70.364,24.94,73.011,24.94z M73.011,33.331c1.945,0,3.529-1.585,3.529-3.691
		c0-2.053-1.584-3.583-3.529-3.583c-1.944,0-3.529,1.53-3.529,3.583C69.482,31.746,71.066,33.331,73.011,33.331z"/>
	<path fill="#6D5D4B" d="M80.425,26.291h-1.188v-1.026h1.206v-2.611h1.207v2.611h2.269v1.026H81.65v4.501
		c0,2.124,1.35,2.395,2.035,2.395c0.252,0,0.414-0.036,0.414-0.036v1.099c0,0-0.198,0.036-0.522,0.036
		c-1.044,0-3.151-0.343-3.151-3.367V26.291z"/>
</g>
<g enable-background="new    ">
	<path fill="#6D5D4B" d="M89.805,24.94c2.503,0,3.781,1.927,3.781,4.177c0,0.216-0.036,0.631-0.036,0.631H86.6
		c0.054,2.322,1.639,3.583,3.511,3.583c1.657,0,2.755-1.099,2.755-1.099l0.558,0.937c0,0-1.314,1.26-3.349,1.26
		c-2.701,0-4.735-1.944-4.735-4.735C85.339,26.723,87.356,24.94,89.805,24.94z M92.344,28.739c-0.072-1.891-1.225-2.772-2.575-2.772
		c-1.512,0-2.827,0.954-3.115,2.772H92.344z"/>
	<path fill="#6D5D4B" d="M100.047,24.94c2.215,0,3.313,1.296,3.313,1.296l-0.63,0.918c0,0-1.008-1.098-2.646-1.098
		c-1.98,0-3.529,1.477-3.529,3.637c0,2.125,1.566,3.638,3.565,3.638c1.836,0,2.898-1.278,2.898-1.278l0.559,0.954
		c0,0-1.225,1.422-3.529,1.422c-2.683,0-4.753-1.927-4.753-4.735C95.293,26.902,97.382,24.94,100.047,24.94z"/>
</g>
<g enable-background="new    ">
	<path fill="#6D5D4B" d="M105.968,26.291h-1.188v-1.026h1.206v-2.611h1.207v2.611h2.269v1.026h-2.269v4.501
		c0,2.124,1.351,2.395,2.035,2.395c0.252,0,0.414-0.036,0.414-0.036v1.099c0,0-0.198,0.036-0.522,0.036
		c-1.044,0-3.151-0.343-3.151-3.367V26.291z"/>
</g>
<g enable-background="new    ">
	<path fill="#6D5D4B" d="M115.543,36.481c0,0,0.504,0.414,1.08,0.414c0.792,0,1.351-0.648,1.71-1.477l0.559-1.278l-3.781-8.984
		h1.352l2.664,6.607c0.18,0.45,0.324,0.955,0.324,0.955h0.035c0,0,0.127-0.505,0.307-0.955l2.611-6.607h1.332l-4.465,10.947
		c-0.469,1.152-1.404,1.891-2.611,1.891c-0.936,0-1.584-0.54-1.584-0.54L115.543,36.481z"/>
</g>
<g enable-background="new    ">
	<path fill="#6D5D4B" d="M129.351,24.94c2.646,0,4.789,2.017,4.789,4.699c0,2.736-2.143,4.789-4.789,4.789s-4.79-2.053-4.79-4.789
		C124.561,26.957,126.705,24.94,129.351,24.94z M129.351,33.331c1.944,0,3.529-1.585,3.529-3.691c0-2.053-1.585-3.583-3.529-3.583
		c-1.945,0-3.529,1.53-3.529,3.583C125.822,31.746,127.406,33.331,129.351,33.331z"/>
</g>
<g enable-background="new    ">
	<path fill="#6D5D4B" d="M136.226,25.156h1.224v5.438c0,1.423,0.216,2.683,1.962,2.683c2.071,0,3.35-1.818,3.35-3.781v-4.339h1.225
		v9.057h-1.188v-1.351c0-0.396,0.036-0.72,0.036-0.72h-0.036c-0.36,0.882-1.548,2.286-3.547,2.286c-2.125,0-3.024-1.152-3.024-3.511
		V25.156z"/>
</g>
<g enable-background="new    ">
	<path fill="#6D5D4B" d="M146.845,25.156h1.205v1.603c0,0.396-0.035,0.72-0.035,0.72h0.035c0.433-1.368,1.441-2.412,2.863-2.412
		c0.252,0,0.486,0.054,0.486,0.054v1.206c0,0-0.216-0.035-0.45-0.035c-1.278,0-2.232,1.008-2.628,2.34
		c-0.181,0.576-0.253,1.188-0.253,1.765v3.817h-1.224V25.156z"/>
	<path fill="#6D5D4B" d="M162.217,24.94c2.647,0,4.79,2.017,4.79,4.699c0,2.736-2.143,4.789-4.79,4.789s-4.79-2.053-4.79-4.789
		C157.427,26.957,159.57,24.94,162.217,24.94z M162.217,33.331c1.944,0,3.529-1.585,3.529-3.691c0-2.053-1.585-3.583-3.529-3.583
		s-3.528,1.53-3.528,3.583C158.689,31.746,160.273,33.331,162.217,33.331z"/>
</g>
<g enable-background="new    ">
	<path fill="#6D5D4B" d="M167.904,25.156h1.297l2.197,6.752c0.144,0.432,0.27,0.973,0.27,0.973h0.036c0,0,0.126-0.541,0.271-0.973
		l2.232-6.716h1.206l2.232,6.716c0.144,0.432,0.271,0.973,0.271,0.973h0.035c0,0,0.127-0.522,0.271-0.973l2.196-6.752h1.297
		l-3.061,9.057h-1.333l-2.214-6.446c-0.162-0.45-0.289-0.972-0.289-0.972h-0.035c0,0-0.127,0.521-0.271,0.972l-2.215,6.446h-1.332
		L167.904,25.156z"/>
</g>
<g enable-background="new    ">
	<path fill="#6D5D4B" d="M183.403,25.156h1.206v1.351c0,0.396-0.035,0.72-0.035,0.72h0.035c0.324-0.828,1.477-2.286,3.619-2.286
		c2.232,0,3.025,1.278,3.025,3.511v5.762h-1.225v-5.438c0-1.423-0.217-2.683-1.963-2.683c-1.549,0-2.881,1.062-3.295,2.557
		c-0.107,0.378-0.145,0.792-0.145,1.225v4.339h-1.224V25.156z"/>
</g>
<g enable-background="new    ">
	<path fill="#6D5D4B" d="M51.933,47.547h1.278v1.531h-1.278V47.547z M51.969,51.148h1.224v9.057h-1.224V51.148z"/>
</g>
<g enable-background="new    ">
	<path fill="#6D5D4B" d="M56.055,51.148h1.206v1.351c0,0.396-0.036,0.72-0.036,0.72h0.036c0.324-0.828,1.477-2.286,3.619-2.286
		c2.233,0,3.025,1.278,3.025,3.511v5.762h-1.224v-5.438c0-1.423-0.216-2.683-1.963-2.683c-1.548,0-2.881,1.062-3.295,2.557
		c-0.108,0.378-0.144,0.792-0.144,1.225v4.339h-1.224V51.148z"/>
	<path fill="#6D5D4B" d="M67.07,52.283h-1.188v-1.026h1.206v-2.611h1.207v2.611h2.269v1.026h-2.269v4.501
		c0,2.124,1.351,2.395,2.035,2.395c0.252,0,0.414-0.036,0.414-0.036v1.099c0,0-0.198,0.036-0.522,0.036
		c-1.044,0-3.151-0.343-3.151-3.367V52.283z"/>
</g>
<g enable-background="new    ">
	<path fill="#6D5D4B" d="M76.45,50.933c2.503,0,3.781,1.927,3.781,4.177c0,0.216-0.036,0.631-0.036,0.631h-6.95
		c0.054,2.322,1.639,3.583,3.511,3.583c1.657,0,2.755-1.099,2.755-1.099l0.558,0.937c0,0-1.314,1.26-3.349,1.26
		c-2.701,0-4.735-1.944-4.735-4.735C71.984,52.715,74.001,50.933,76.45,50.933z M78.989,54.731
		c-0.072-1.891-1.225-2.772-2.575-2.772c-1.512,0-2.827,0.954-3.115,2.772H78.989z"/>
</g>
<g enable-background="new    ">
	<path fill="#6D5D4B" d="M82.478,51.148h1.206v1.603c0,0.396-0.036,0.72-0.036,0.72h0.036c0.432-1.368,1.44-2.412,2.863-2.412
		c0.252,0,0.486,0.054,0.486,0.054v1.206c0,0-0.216-0.035-0.45-0.035c-1.278,0-2.232,1.008-2.628,2.34
		c-0.18,0.576-0.252,1.188-0.252,1.765v3.817h-1.224V51.148z"/>
</g>
<g enable-background="new    ">
	<path fill="#6D5D4B" d="M92.541,50.933c2.503,0,3.781,1.927,3.781,4.177c0,0.216-0.036,0.631-0.036,0.631h-6.95
		c0.054,2.322,1.639,3.583,3.511,3.583c1.657,0,2.755-1.099,2.755-1.099l0.558,0.937c0,0-1.314,1.26-3.349,1.26
		c-2.701,0-4.735-1.944-4.735-4.735C88.075,52.715,90.092,50.933,92.541,50.933z M95.08,54.731
		c-0.072-1.891-1.225-2.772-2.575-2.772c-1.512,0-2.827,0.954-3.115,2.772H95.08z"/>
</g>
<g enable-background="new    ">
	<path fill="#6D5D4B" d="M98.516,58.225c0,0,1.008,1.099,2.701,1.099c0.972,0,1.818-0.486,1.818-1.44
		c0-1.981-4.879-1.495-4.879-4.447c0-1.621,1.458-2.503,3.097-2.503c1.909,0,2.791,0.99,2.791,0.99l-0.558,0.937
		c0,0-0.774-0.829-2.269-0.829c-0.918,0-1.801,0.396-1.801,1.405c0,1.998,4.879,1.458,4.879,4.447c0,1.476-1.278,2.538-3.097,2.538
		c-2.197,0-3.349-1.314-3.349-1.314L98.516,58.225z"/>
</g>
<g enable-background="new    ">
	<path fill="#6D5D4B" d="M106.813,52.283h-1.188v-1.026h1.206v-2.611h1.207v2.611h2.269v1.026h-2.269v4.501
		c0,2.124,1.351,2.395,2.035,2.395c0.252,0,0.414-0.036,0.414-0.036v1.099c0,0-0.198,0.036-0.522,0.036
		c-1.044,0-3.151-0.343-3.151-3.367V52.283z"/>
	<path fill="#6D5D4B" d="M112.429,58.225c0,0,1.008,1.099,2.701,1.099c0.973,0,1.818-0.486,1.818-1.44
		c0-1.981-4.879-1.495-4.879-4.447c0-1.621,1.458-2.503,3.096-2.503c1.909,0,2.791,0.99,2.791,0.99l-0.558,0.937
		c0,0-0.774-0.829-2.269-0.829c-0.918,0-1.801,0.396-1.801,1.405c0,1.998,4.879,1.458,4.879,4.447c0,1.476-1.277,2.538-3.096,2.538
		c-2.197,0-3.35-1.314-3.35-1.314L112.429,58.225z"/>
</g>
<g enable-background="new    ">
	<path fill="#6D5D4B" d="M120.368,58.765h1.423v1.44h-1.423V58.765z"/>
</g>
</svg>
