<?xml version="1.0" encoding="utf-8"?>
<!-- Generator: Adobe Illustrator 16.0.0, SVG Export Plug-In . SVG Version: 6.00 Build 0)  -->
<!DOCTYPE svg PUBLIC "-//W3C//DTD SVG 1.1//EN" "http://www.w3.org/Graphics/SVG/1.1/DTD/svg11.dtd">
<svg version="1.1" id="Layer_1" xmlns="http://www.w3.org/2000/svg" xmlns:xlink="http://www.w3.org/1999/xlink" x="0px" y="0px"
	 width="220.875px" height="138.951px" viewBox="0 0 220.875 138.951" enable-background="new 0 0 220.875 138.951"
	 xml:space="preserve">
<g>
	<g>
		<g>
			<defs>
				<rect id="SVGID_1_" x="16.493" y="1" width="205.381" height="117.604"/>
			</defs>
			<clipPath id="SVGID_2_">
				<use xlink:href="#SVGID_1_"  overflow="visible"/>
			</clipPath>
			<path clip-path="url(#SVGID_2_)" fill="#FFEBA2" d="M39.208,1.294L194.38,1.001v0.185c0.912-0.11,1.836-0.185,2.777-0.185
				c12.547,0,22.717,10.072,22.717,22.498v47.284c0,12.427-10.17,22.499-22.717,22.499c-0.941,0-1.865-0.074-2.777-0.186v0.186
				L39.208,93.575c-12.545,0-22.715-10.072-22.715-22.498V23.792C16.494,11.366,26.664,1.294,39.208,1.294"/>
		</g>
	</g>
	<g>
		<g>
			<defs>
				<rect id="SVGID_3_" x="16.493" y="1" width="205.381" height="117.604"/>
			</defs>
			<clipPath id="SVGID_4_">
				<use xlink:href="#SVGID_3_"  overflow="visible"/>
			</clipPath>
			<path clip-path="url(#SVGID_4_)" fill="#FFEBA2" d="M61.884,86.244c0-13.704-8.517-25.41-20.54-30.13
				c3.656-1.435,7.634-2.231,11.799-2.231c17.861,0,32.34,14.488,32.34,32.361c0,17.872-14.479,32.36-32.34,32.36
				c-4.165,0-8.143-0.797-11.799-2.23C53.367,111.653,61.884,99.948,61.884,86.244"/>
		</g>
	</g>
</g>
<g enable-background="new    ">
	<path fill="#6D5D4B" d="M40.175,27.288h-4.556v-1.117h10.335v1.117h-4.537v11.541h-1.242V27.288z"/>
</g>
<g enable-background="new    ">
	<path fill="#6D5D4B" d="M47.464,26.171h1.224v4.897c0,0.415-0.036,0.738-0.036,0.738h0.036c0.342-0.864,1.548-2.25,3.601-2.25
		c2.233,0,3.025,1.278,3.025,3.511v5.762H54.09v-5.438c0-1.423-0.216-2.683-1.963-2.683c-1.548,0-2.881,1.062-3.295,2.574
		c-0.108,0.36-0.144,0.774-0.144,1.207v4.339h-1.224V26.171z"/>
</g>
<g enable-background="new    ">
	<path fill="#6D5D4B" d="M61.901,29.557c2.503,0,3.781,1.927,3.781,4.177c0,0.216-0.036,0.631-0.036,0.631h-6.95
		c0.054,2.322,1.639,3.583,3.511,3.583c1.657,0,2.755-1.099,2.755-1.099l0.558,0.937c0,0-1.314,1.26-3.349,1.26
		c-2.701,0-4.735-1.944-4.735-4.735C57.436,31.339,59.452,29.557,61.901,29.557z M64.44,33.355
		c-0.072-1.891-1.225-2.772-2.575-2.772c-1.512,0-2.827,0.954-3.115,2.772H64.44z"/>
	<path fill="#6D5D4B" d="M72.79,36.849c0,0,1.008,1.099,2.701,1.099c0.972,0,1.818-0.486,1.818-1.44
		c0-1.981-4.879-1.495-4.879-4.447c0-1.621,1.458-2.503,3.097-2.503c1.909,0,2.791,0.99,2.791,0.99l-0.558,0.937
		c0,0-0.774-0.829-2.269-0.829c-0.918,0-1.801,0.396-1.801,1.405c0,1.998,4.879,1.458,4.879,4.447c0,1.476-1.278,2.538-3.097,2.538
		c-2.197,0-3.349-1.314-3.349-1.314L72.79,36.849z"/>
</g>
<g enable-background="new    ">
	<path fill="#6D5D4B" d="M84.04,29.557c2.196,0,2.971,1.746,2.971,1.746h0.036c0,0-0.018-0.288-0.018-0.685v-0.846h1.188v12.658
		h-1.225v-4.357c0-0.469,0.036-0.793,0.036-0.793h-0.036c0,0-0.756,1.765-3.079,1.765c-2.431,0-3.943-1.944-3.943-4.753
		C79.971,31.429,81.663,29.557,84.04,29.557z M84.094,37.947c1.513,0,2.935-1.081,2.935-3.655c0-1.837-0.937-3.638-2.881-3.638
		c-1.603,0-2.917,1.351-2.917,3.638C81.231,36.524,82.401,37.947,84.094,37.947z"/>
	<path fill="#6D5D4B" d="M91.041,29.772h1.224v5.438c0,1.423,0.216,2.683,1.962,2.683c2.071,0,3.349-1.818,3.349-3.781v-4.339h1.225
		v9.057h-1.188v-1.351c0-0.396,0.036-0.72,0.036-0.72h-0.036c-0.36,0.882-1.548,2.286-3.547,2.286c-2.125,0-3.025-1.152-3.025-3.511
		V29.772z"/>
</g>
<g enable-background="new    ">
	<path fill="#6D5D4B" d="M105.442,29.557c2.503,0,3.781,1.927,3.781,4.177c0,0.216-0.036,0.631-0.036,0.631h-6.95
		c0.054,2.322,1.639,3.583,3.511,3.583c1.657,0,2.755-1.099,2.755-1.099l0.558,0.937c0,0-1.314,1.26-3.349,1.26
		c-2.701,0-4.735-1.944-4.735-4.735C100.977,31.339,102.993,29.557,105.442,29.557z M107.981,33.355
		c-0.072-1.891-1.225-2.772-2.575-2.772c-1.512,0-2.827,0.954-3.115,2.772H107.981z"/>
</g>
<g enable-background="new    ">
	<path fill="#6D5D4B" d="M116.277,33.229h0.505v-0.234c0-1.746-0.954-2.341-2.251-2.341c-1.494,0-2.557,0.864-2.557,0.864
		l-0.576-0.936c0,0,1.188-1.026,3.223-1.026c2.18,0,3.385,1.206,3.385,3.475v5.798h-1.17v-0.99c0-0.45,0.036-0.756,0.036-0.756
		h-0.036c0,0-0.756,1.962-3.024,1.962c-1.513,0-3.079-0.882-3.079-2.683C110.732,33.302,114.711,33.229,116.277,33.229z
		 M114.01,38.001c1.729,0,2.772-1.801,2.772-3.367v-0.396h-0.522c-1.422,0-4.268,0.055-4.268,2.053
		C111.992,37.137,112.659,38.001,114.01,38.001z"/>
	<path fill="#6D5D4B" d="M120.83,26.171h1.225v7.059h1.44l2.719-3.457h1.477l-3.151,3.943v0.036l3.457,5.077h-1.458l-3.024-4.537
		h-1.459v4.537h-1.225V26.171z"/>
</g>
<g enable-background="new    ">
	<path fill="#6D5D4B" d="M128.84,41.098c0,0,0.504,0.414,1.08,0.414c0.793,0,1.351-0.648,1.711-1.477l0.559-1.278l-3.781-8.984h1.35
		l2.665,6.607c0.181,0.45,0.324,0.955,0.324,0.955h0.036c0,0,0.126-0.505,0.306-0.955l2.61-6.607h1.333l-4.466,10.947
		c-0.468,1.152-1.404,1.891-2.61,1.891c-0.937,0-1.585-0.54-1.585-0.54L128.84,41.098z"/>
</g>
<g enable-background="new    ">
	<path fill="#6D5D4B" d="M142.195,29.772h1.297l2.196,6.752c0.144,0.432,0.271,0.973,0.271,0.973h0.035c0,0,0.127-0.541,0.271-0.973
		l2.232-6.716h1.206l2.232,6.716c0.145,0.432,0.271,0.973,0.271,0.973h0.036c0,0,0.126-0.522,0.27-0.973l2.197-6.752h1.297
		l-3.062,9.057h-1.333l-2.214-6.446c-0.162-0.45-0.288-0.972-0.288-0.972h-0.036c0,0-0.126,0.521-0.271,0.972l-2.215,6.446h-1.332
		L142.195,29.772z"/>
	<path fill="#6D5D4B" d="M157.783,26.171h1.225v4.897c0,0.415-0.035,0.738-0.035,0.738h0.035c0.342-0.864,1.549-2.25,3.602-2.25
		c2.232,0,3.024,1.278,3.024,3.511v5.762h-1.224v-5.438c0-1.423-0.217-2.683-1.963-2.683c-1.549,0-2.881,1.062-3.295,2.574
		c-0.108,0.36-0.145,0.774-0.145,1.207v4.339h-1.225V26.171z"/>
	<path fill="#6D5D4B" d="M172.293,29.557c2.502,0,3.781,1.927,3.781,4.177c0,0.216-0.037,0.631-0.037,0.631h-6.949
		c0.054,2.322,1.639,3.583,3.511,3.583c1.657,0,2.755-1.099,2.755-1.099l0.559,0.937c0,0-1.314,1.26-3.35,1.26
		c-2.701,0-4.735-1.944-4.735-4.735C167.827,31.339,169.844,29.557,172.293,29.557z M174.832,33.355
		c-0.072-1.891-1.225-2.772-2.576-2.772c-1.512,0-2.826,0.954-3.114,2.772H174.832z"/>
	<path fill="#6D5D4B" d="M182.246,29.557c2.503,0,3.781,1.927,3.781,4.177c0,0.216-0.036,0.631-0.036,0.631h-6.95
		c0.055,2.322,1.639,3.583,3.512,3.583c1.656,0,2.754-1.099,2.754-1.099l0.559,0.937c0,0-1.314,1.26-3.35,1.26
		c-2.7,0-4.734-1.944-4.734-4.735C177.781,31.339,179.797,29.557,182.246,29.557z M184.785,33.355
		c-0.072-1.891-1.225-2.772-2.575-2.772c-1.513,0-2.827,0.954-3.114,2.772H184.785z"/>
</g>
<g enable-background="new    ">
	<path fill="#6D5D4B" d="M187.987,26.171h1.225v10.245c0,1.188,0.54,1.369,1.009,1.369c0.162,0,0.306-0.019,0.306-0.019v1.099
		c0,0-0.216,0.036-0.45,0.036c-0.756,0-2.089-0.234-2.089-2.215V26.171z"/>
</g>
<g enable-background="new    ">
	<path fill="#6D5D4B" d="M40.103,66.514c1.765,0,3.169-0.828,3.169-2.845v-0.828c0-0.342,0.036-0.648,0.036-0.648h-0.036
		c-0.54,1.009-1.458,1.585-2.863,1.585c-2.431,0-4.033-1.927-4.033-4.646s1.495-4.573,3.925-4.573c2.395,0,2.989,1.512,2.989,1.512
		h0.036c0,0-0.018-0.107-0.018-0.306v-0.99h1.188v8.841c0,2.881-2.125,3.997-4.339,3.997c-1.044,0-2.089-0.271-2.971-0.721
		l0.468-1.008C37.654,65.884,38.77,66.514,40.103,66.514z M43.29,59.132c0-2.646-1.26-3.457-2.863-3.457
		c-1.765,0-2.791,1.278-2.791,3.438c0,2.161,1.17,3.565,2.971,3.565C42.029,62.679,43.29,61.797,43.29,59.132z"/>
</g>
<g enable-background="new    ">
	<path fill="#6D5D4B" d="M51.208,54.559c2.503,0,3.781,1.927,3.781,4.177c0,0.216-0.036,0.631-0.036,0.631h-6.95
		c0.054,2.322,1.639,3.583,3.511,3.583c1.657,0,2.755-1.099,2.755-1.099l0.558,0.937c0,0-1.314,1.26-3.349,1.26
		c-2.701,0-4.735-1.944-4.735-4.735C46.743,56.341,48.76,54.559,51.208,54.559z M53.748,58.357
		c-0.072-1.891-1.225-2.772-2.575-2.772c-1.512,0-2.827,0.954-3.115,2.772H53.748z"/>
</g>
<g enable-background="new    ">
	<path fill="#6D5D4B" d="M57.58,55.909h-1.188v-1.026h1.206v-2.611h1.207v2.611h2.269v1.026h-2.269v4.501
		c0,2.124,1.351,2.395,2.035,2.395c0.252,0,0.414-0.036,0.414-0.036v1.099c0,0-0.198,0.036-0.522,0.036
		c-1.044,0-3.151-0.343-3.151-3.367V55.909z"/>
</g>
<g enable-background="new    ">
	<path fill="#6D5D4B" d="M63.124,61.851c0,0,1.008,1.099,2.701,1.099c0.972,0,1.818-0.486,1.818-1.44
		c0-1.981-4.879-1.495-4.879-4.447c0-1.621,1.458-2.503,3.097-2.503c1.909,0,2.791,0.99,2.791,0.99l-0.558,0.937
		c0,0-0.774-0.829-2.269-0.829c-0.918,0-1.801,0.396-1.801,1.405c0,1.998,4.879,1.458,4.879,4.447c0,1.476-1.278,2.538-3.097,2.538
		c-2.197,0-3.349-1.314-3.349-1.314L63.124,61.851z"/>
</g>
<g enable-background="new    ">
	<path fill="#6D5D4B" d="M76.172,55.909h-1.188v-1.026h1.206v-2.611h1.207v2.611h2.269v1.026h-2.269v4.501
		c0,2.124,1.351,2.395,2.035,2.395c0.252,0,0.414-0.036,0.414-0.036v1.099c0,0-0.198,0.036-0.522,0.036
		c-1.044,0-3.151-0.343-3.151-3.367V55.909z"/>
	<path fill="#6D5D4B" d="M81.86,51.173h1.224v4.897c0,0.415-0.036,0.738-0.036,0.738h0.036c0.342-0.864,1.549-2.25,3.601-2.25
		c2.233,0,3.025,1.278,3.025,3.511v5.762h-1.224v-5.438c0-1.423-0.216-2.683-1.963-2.683c-1.548,0-2.881,1.062-3.295,2.574
		c-0.108,0.36-0.144,0.774-0.144,1.207v4.339H81.86V51.173z"/>
</g>
<g enable-background="new    ">
	<path fill="#6D5D4B" d="M96.226,54.559c2.503,0,3.781,1.927,3.781,4.177c0,0.216-0.036,0.631-0.036,0.631h-6.95
		c0.054,2.322,1.639,3.583,3.511,3.583c1.657,0,2.755-1.099,2.755-1.099l0.558,0.937c0,0-1.314,1.26-3.349,1.26
		c-2.701,0-4.735-1.944-4.735-4.735C91.76,56.341,93.777,54.559,96.226,54.559z M98.765,58.357
		c-0.072-1.891-1.225-2.772-2.575-2.772c-1.512,0-2.827,0.954-3.115,2.772H98.765z"/>
</g>
<g enable-background="new    ">
	<path fill="#6D5D4B" d="M111.13,54.559c2.647,0,4.79,2.017,4.79,4.699c0,2.736-2.143,4.789-4.79,4.789
		c-2.646,0-4.79-2.053-4.79-4.789C106.34,56.575,108.483,54.559,111.13,54.559z M111.13,62.949c1.944,0,3.529-1.585,3.529-3.691
		c0-2.053-1.585-3.583-3.529-3.583s-3.529,1.53-3.529,3.583C107.601,61.364,109.186,62.949,111.13,62.949z"/>
</g>
<g enable-background="new    ">
	<path fill="#6D5D4B" d="M118.094,51.173h1.279v1.531h-1.279V51.173z M118.131,54.774h1.224v9.057h-1.224V54.774z"/>
	<path fill="#6D5D4B" d="M122.216,51.173h1.225v10.245c0,1.188,0.54,1.369,1.009,1.369c0.162,0,0.306-0.019,0.306-0.019v1.099
		c0,0-0.216,0.036-0.45,0.036c-0.756,0-2.089-0.234-2.089-2.215V51.173z"/>
</g>
<g enable-background="new    ">
	<path fill="#6D5D4B" d="M126.609,62.391h1.422v1.44h-1.422V62.391z"/>
</g>
</svg>
