<?xml version="1.0" encoding="utf-8"?>
<!-- Generator: Adobe Illustrator 16.0.0, SVG Export Plug-In . SVG Version: 6.00 Build 0)  -->
<!DOCTYPE svg PUBLIC "-//W3C//DTD SVG 1.1//EN" "http://www.w3.org/Graphics/SVG/1.1/DTD/svg11.dtd">
<svg version="1.1" id="Layer_1" xmlns="http://www.w3.org/2000/svg" xmlns:xlink="http://www.w3.org/1999/xlink" x="0px" y="0px"
	 width="220.875px" height="138.951px" viewBox="0 0 220.875 138.951" enable-background="new 0 0 220.875 138.951"
	 xml:space="preserve">
<g>
	<g>
		<defs>
			<rect id="SVGID_1_" x="83.724" y="0.049" width="135.15" height="74.783"/>
		</defs>
		<clipPath id="SVGID_2_">
			<use xlink:href="#SVGID_1_"  overflow="visible"/>
		</clipPath>
		<path clip-path="url(#SVGID_2_)" fill="#BCD9D8" d="M201.437,0.049L103.568,0.82v0.145c-0.701-0.086-1.41-0.145-2.133-0.145
			c-9.631,0-17.438,7.92-17.438,17.688l-0.273,18.724c0,9.77,7.807,17.689,17.438,17.689c0.724,0,1.433-0.059,2.133-0.145v0.145
			l97.871,0.231c9.629,0,17.437-7.92,17.437-17.69l0.272-19.723C218.875,7.969,211.067,0.049,201.437,0.049"/>
	</g>
	<g>
		<defs>
			<rect id="SVGID_3_" x="83.724" y="0.049" width="135.15" height="74.783"/>
		</defs>
		<clipPath id="SVGID_4_">
			<use xlink:href="#SVGID_3_"  overflow="visible"/>
		</clipPath>
		<path clip-path="url(#SVGID_4_)" fill="#BCD9D8" d="M124.355,49.388c0-10.776-6.538-19.98-15.767-23.69
			c2.807-1.128,5.861-1.755,9.057-1.755c13.711,0,24.825,11.393,24.825,25.445c0,14.052-11.114,25.445-24.825,25.445
			c-3.196,0-6.25-0.628-9.057-1.756C117.817,69.367,124.355,60.162,124.355,49.388"/>
	</g>
</g>
<g enable-background="new    ">
	<path fill="#6D5D4B" d="M113.406,22.611h-4.556v-1.117h10.335v1.117h-4.537v11.541h-1.242V22.611z"/>
</g>
<g enable-background="new    ">
	<path fill="#6D5D4B" d="M123.864,28.553h0.505v-0.234c0-1.746-0.955-2.341-2.252-2.341c-1.494,0-2.557,0.864-2.557,0.864
		l-0.576-0.936c0,0,1.189-1.026,3.224-1.026c2.179,0,3.385,1.206,3.385,3.475v5.798h-1.171v-0.99c0-0.45,0.037-0.756,0.037-0.756
		h-0.037c0,0-0.756,1.962-3.023,1.962c-1.514,0-3.08-0.882-3.08-2.683C118.318,28.625,122.297,28.553,123.864,28.553z
		 M121.595,33.324c1.729,0,2.773-1.801,2.773-3.367v-0.396h-0.523c-1.422,0-4.267,0.055-4.267,2.053
		C119.579,32.46,120.246,33.324,121.595,33.324z"/>
</g>
<g enable-background="new    ">
	<path fill="#6D5D4B" d="M128.345,21.494h1.224v7.059h1.44l2.719-3.457h1.477l-3.15,3.943v0.036l3.457,5.077h-1.459l-3.025-4.537
		h-1.458v4.537h-1.224V21.494z"/>
</g>
<g enable-background="new    ">
	<path fill="#6D5D4B" d="M140.982,24.88c2.502,0,3.781,1.927,3.781,4.177c0,0.216-0.037,0.631-0.037,0.631h-6.949
		c0.054,2.322,1.639,3.583,3.511,3.583c1.657,0,2.755-1.099,2.755-1.099l0.559,0.937c0,0-1.314,1.26-3.35,1.26
		c-2.701,0-4.735-1.944-4.735-4.735C136.516,26.662,138.533,24.88,140.982,24.88z M143.521,28.679
		c-0.072-1.891-1.225-2.772-2.576-2.772c-1.512,0-2.826,0.954-3.114,2.772H143.521z"/>
</g>
<g enable-background="new    ">
	<path fill="#6D5D4B" d="M151.781,25.096h1.206v1.603c0,0.396-0.036,0.72-0.036,0.72h0.036c0.433-1.368,1.44-2.412,2.863-2.412
		c0.252,0,0.485,0.054,0.485,0.054v1.206c0,0-0.215-0.035-0.449-0.035c-1.279,0-2.232,1.008-2.629,2.34
		c-0.18,0.576-0.252,1.188-0.252,1.765v3.817h-1.225V25.096z"/>
	<path fill="#6D5D4B" d="M158.152,21.494h1.279v1.531h-1.279V21.494z M158.189,25.096h1.224v9.057h-1.224V25.096z"/>
</g>
<g enable-background="new    ">
	<path fill="#6D5D4B" d="M162.148,32.172c0,0,1.008,1.099,2.701,1.099c0.972,0,1.818-0.486,1.818-1.44
		c0-1.981-4.88-1.495-4.88-4.447c0-1.621,1.458-2.503,3.097-2.503c1.908,0,2.791,0.99,2.791,0.99l-0.559,0.937
		c0,0-0.773-0.829-2.268-0.829c-0.919,0-1.801,0.396-1.801,1.405c0,1.998,4.879,1.458,4.879,4.447c0,1.476-1.278,2.538-3.097,2.538
		c-2.196,0-3.349-1.314-3.349-1.314L162.148,32.172z"/>
</g>
<g enable-background="new    ">
	<path fill="#6D5D4B" d="M170.103,21.494h1.225v7.059h1.44l2.719-3.457h1.477l-3.151,3.943v0.036l3.457,5.077h-1.458l-3.024-4.537
		h-1.459v4.537h-1.225V21.494z"/>
</g>
<g enable-background="new    ">
	<path fill="#6D5D4B" d="M178.941,32.172c0,0,1.009,1.099,2.701,1.099c0.973,0,1.818-0.486,1.818-1.44
		c0-1.981-4.879-1.495-4.879-4.447c0-1.621,1.459-2.503,3.097-2.503c1.909,0,2.791,0.99,2.791,0.99l-0.558,0.937
		c0,0-0.775-0.829-2.27-0.829c-0.918,0-1.801,0.396-1.801,1.405c0,1.998,4.88,1.458,4.88,4.447c0,1.476-1.278,2.538-3.097,2.538
		c-2.197,0-3.35-1.314-3.35-1.314L178.941,32.172z"/>
</g>
<g enable-background="new    ">
	<path fill="#6D5D4B" d="M187.509,32.766h1.387v1.387h-1.387V32.766z M187.545,21.494h1.261l-0.055,9.346h-1.152L187.545,21.494z"/>
</g>
</svg>
