<?xml version="1.0" encoding="utf-8"?>
<!-- Generator: Adobe Illustrator 16.0.0, SVG Export Plug-In . SVG Version: 6.00 Build 0)  -->
<!DOCTYPE svg PUBLIC "-//W3C//DTD SVG 1.1//EN" "http://www.w3.org/Graphics/SVG/1.1/DTD/svg11.dtd">
<svg version="1.1" id="Layer_1" xmlns="http://www.w3.org/2000/svg" xmlns:xlink="http://www.w3.org/1999/xlink" x="0px" y="0px"
	 width="220.875px" height="138.951px" viewBox="0 0 220.875 138.951" enable-background="new 0 0 220.875 138.951"
	 xml:space="preserve">
<g>
	<g>
		<defs>
			<rect id="SVGID_1_" x="15.946" y="-0.016" width="206.476" height="113.656"/>
		</defs>
		<clipPath id="SVGID_2_">
			<use xlink:href="#SVGID_1_"  overflow="visible"/>
		</clipPath>
		<path clip-path="url(#SVGID_2_)" fill="#BCD9D8" d="M38.661,0.278l155.172-0.293V0.17c0.912-0.11,1.836-0.185,2.777-0.185
			c12.547,0,22.717,10.072,22.717,22.498v43.335c0,12.426-10.17,22.5-22.717,22.5c-0.941,0-1.865-0.075-2.777-0.187v0.187
			L38.661,88.61c-12.545,0-22.715-10.073-22.715-22.5V22.776C15.946,10.351,26.116,0.278,38.661,0.278"/>
	</g>
	<g>
		<defs>
			<rect id="SVGID_3_" x="15.946" y="-0.016" width="206.476" height="113.656"/>
		</defs>
		<clipPath id="SVGID_4_">
			<use xlink:href="#SVGID_3_"  overflow="visible"/>
		</clipPath>
		<path clip-path="url(#SVGID_4_)" fill="#BCD9D8" d="M61.336,81.278c0-13.704-8.517-25.41-20.54-30.13
			c3.656-1.435,7.634-2.231,11.799-2.231c17.861,0,32.34,14.489,32.34,32.361c0,17.871-14.479,32.361-32.34,32.361
			c-4.165,0-8.143-0.798-11.799-2.231C52.819,106.688,61.336,94.981,61.336,81.278"/>
	</g>
</g>
<g enable-background="new    ">
	<path fill="#6D5D4B" d="M34.782,22.863h4.087c3.799,0,6.356,2.323,6.356,6.32c0,4.033-2.557,6.338-6.356,6.338h-4.087V22.863z
		 M38.744,34.405c3.115,0,5.186-1.837,5.186-5.222c0-3.367-2.089-5.203-5.186-5.203h-2.719v10.425H38.744z"/>
</g>
<g enable-background="new    ">
	<path fill="#6D5D4B" d="M51.793,26.249c2.647,0,4.79,2.017,4.79,4.699c0,2.736-2.143,4.789-4.79,4.789
		c-2.646,0-4.79-2.053-4.79-4.789C47.004,28.266,49.147,26.249,51.793,26.249z M51.793,34.64c1.945,0,3.529-1.585,3.529-3.691
		c0-2.053-1.584-3.583-3.529-3.583c-1.944,0-3.529,1.53-3.529,3.583C48.265,33.055,49.849,34.64,51.793,34.64z"/>
</g>
<g enable-background="new    ">
	<path fill="#6D5D4B" d="M58.776,26.465h1.206v1.351c0,0.396-0.036,0.72-0.036,0.72h0.036c0.324-0.828,1.477-2.286,3.619-2.286
		c2.233,0,3.025,1.278,3.025,3.511v5.762h-1.224v-5.438c0-1.423-0.216-2.683-1.963-2.683c-1.548,0-2.881,1.062-3.295,2.557
		C60.037,30.336,60,30.75,60,31.183v4.339h-1.224V26.465z"/>
</g>
<g enable-background="new    ">
	<path fill="#6D5D4B" d="M69.63,22.684h1.296l-1.008,3.097h-0.99L69.63,22.684z"/>
</g>
<g enable-background="new    ">
	<path fill="#6D5D4B" d="M73.391,27.6h-1.188v-1.026h1.206v-2.611h1.207v2.611h2.269V27.6h-2.269v4.501
		c0,2.124,1.351,2.395,2.035,2.395c0.252,0,0.414-0.036,0.414-0.036v1.099c0,0-0.198,0.036-0.522,0.036
		c-1.044,0-3.151-0.343-3.151-3.367V27.6z"/>
</g>
<g enable-background="new    ">
	<path fill="#6D5D4B" d="M84.983,26.465v9.398c0,3.007-2.143,3.367-3.151,3.367c-0.324,0-0.54-0.054-0.54-0.054v-1.062
		c0,0,0.162,0.018,0.396,0.018c0.702,0,2.071-0.252,2.071-2.322v-9.345H84.983z M83.741,22.863h1.26v1.531h-1.26V22.863z"/>
</g>
<g enable-background="new    ">
	<path fill="#6D5D4B" d="M87.737,26.465h1.224v5.438c0,1.423,0.216,2.683,1.962,2.683c2.071,0,3.349-1.818,3.349-3.781v-4.339h1.225
		v9.057h-1.188v-1.351c0-0.396,0.036-0.72,0.036-0.72h-0.036c-0.36,0.882-1.548,2.286-3.547,2.286c-2.125,0-3.025-1.152-3.025-3.511
		V26.465z"/>
	<path fill="#6D5D4B" d="M98.375,33.541c0,0,1.008,1.099,2.701,1.099c0.972,0,1.818-0.486,1.818-1.44
		c0-1.981-4.879-1.495-4.879-4.447c0-1.621,1.458-2.503,3.097-2.503c1.909,0,2.791,0.99,2.791,0.99l-0.558,0.937
		c0,0-0.774-0.829-2.269-0.829c-0.918,0-1.801,0.396-1.801,1.405c0,1.998,4.879,1.458,4.879,4.447c0,1.476-1.278,2.538-3.097,2.538
		c-2.197,0-3.349-1.314-3.349-1.314L98.375,33.541z"/>
</g>
<g enable-background="new    ">
	<path fill="#6D5D4B" d="M106.583,27.6h-1.188v-1.026h1.206v-2.611h1.207v2.611h2.269V27.6h-2.269v4.501
		c0,2.124,1.351,2.395,2.035,2.395c0.252,0,0.414-0.036,0.414-0.036v1.099c0,0-0.198,0.036-0.522,0.036
		c-1.044,0-3.151-0.343-3.151-3.367V27.6z"/>
</g>
<g enable-background="new    ">
	<path fill="#6D5D4B" d="M115.871,26.465h1.297l2.196,6.752c0.144,0.432,0.271,0.973,0.271,0.973h0.035c0,0,0.127-0.541,0.271-0.973
		l2.232-6.716h1.206l2.232,6.716c0.145,0.432,0.271,0.973,0.271,0.973h0.036c0,0,0.126-0.522,0.27-0.973l2.197-6.752h1.297
		l-3.062,9.057h-1.333l-2.214-6.446c-0.162-0.45-0.288-0.972-0.288-0.972h-0.036c0,0-0.126,0.521-0.271,0.972l-2.215,6.446h-1.332
		L115.871,26.465z"/>
	<path fill="#6D5D4B" d="M135.582,26.249c2.647,0,4.79,2.017,4.79,4.699c0,2.736-2.143,4.789-4.79,4.789
		c-2.646,0-4.789-2.053-4.789-4.789C130.792,28.266,132.935,26.249,135.582,26.249z M135.582,34.64c1.945,0,3.529-1.585,3.529-3.691
		c0-2.053-1.584-3.583-3.529-3.583c-1.943,0-3.528,1.53-3.528,3.583C132.053,33.055,133.638,34.64,135.582,34.64z"/>
</g>
<g enable-background="new    ">
	<path fill="#6D5D4B" d="M142.384,26.465h1.206v1.603c0,0.396-0.036,0.72-0.036,0.72h0.036c0.433-1.368,1.44-2.412,2.863-2.412
		c0.252,0,0.485,0.054,0.485,0.054v1.206c0,0-0.215-0.035-0.449-0.035c-1.279,0-2.232,1.008-2.629,2.34
		c-0.18,0.576-0.252,1.188-0.252,1.765v3.817h-1.225V26.465z"/>
</g>
<g enable-background="new    ">
	<path fill="#6D5D4B" d="M148.72,22.863h1.225v7.059h1.439l2.719-3.457h1.477l-3.15,3.943v0.036l3.457,5.077h-1.459l-3.024-4.537
		h-1.458v4.537h-1.225V22.863z"/>
</g>
<g enable-background="new    ">
	<path fill="#6D5D4B" d="M162.418,22.863h1.224v4.897c0,0.415-0.035,0.738-0.035,0.738h0.035c0.343-0.864,1.549-2.25,3.602-2.25
		c2.232,0,3.025,1.278,3.025,3.511v5.762h-1.225v-5.438c0-1.423-0.217-2.683-1.963-2.683c-1.549,0-2.881,1.062-3.295,2.574
		c-0.107,0.36-0.145,0.774-0.145,1.207v4.339h-1.224V22.863z"/>
	<path fill="#6D5D4B" d="M177.9,29.922h0.504v-0.234c0-1.746-0.954-2.341-2.251-2.341c-1.494,0-2.557,0.864-2.557,0.864
		l-0.576-0.936c0,0,1.188-1.026,3.224-1.026c2.178,0,3.385,1.206,3.385,3.475v5.798h-1.171v-0.99c0-0.45,0.036-0.756,0.036-0.756
		h-0.036c0,0-0.756,1.962-3.024,1.962c-1.513,0-3.079-0.882-3.079-2.683C172.354,29.994,176.333,29.922,177.9,29.922z
		 M175.63,34.693c1.729,0,2.773-1.801,2.773-3.367V30.93h-0.522c-1.423,0-4.267,0.055-4.267,2.053
		C173.615,33.829,174.281,34.693,175.63,34.693z"/>
</g>
<g enable-background="new    ">
	<path fill="#6D5D4B" d="M182.308,26.465h1.207v1.603c0,0.396-0.036,0.72-0.036,0.72h0.036c0.432-1.368,1.439-2.412,2.863-2.412
		c0.252,0,0.485,0.054,0.485,0.054v1.206c0,0-0.216-0.035-0.45-0.035c-1.278,0-2.232,1.008-2.629,2.34
		c-0.18,0.576-0.252,1.188-0.252,1.765v3.817h-1.225V26.465z"/>
</g>
<g enable-background="new    ">
	<path fill="#6D5D4B" d="M192.046,26.249c2.196,0,2.953,1.71,2.953,1.71h0.035c0,0-0.035-0.306-0.035-0.684v-4.412h1.225v12.658
		h-1.189v-0.954c0-0.396,0.037-0.648,0.037-0.648h-0.037c0,0-0.738,1.818-3.115,1.818c-2.43,0-3.942-1.944-3.942-4.753
		C187.977,28.121,189.669,26.249,192.046,26.249z M192.1,34.64c1.513,0,2.935-1.081,2.935-3.655c0-1.837-0.936-3.638-2.881-3.638
		c-1.602,0-2.916,1.351-2.916,3.638C189.238,33.217,190.408,34.64,192.1,34.64z"/>
</g>
<g enable-background="new    ">
	<path fill="#6D5D4B" d="M199.3,34.045h1.351l-1.333,3.223h-1.043L199.3,34.045z"/>
</g>
<g enable-background="new    ">
	<path fill="#6D5D4B" d="M33.252,52.457h1.296l2.197,6.752c0.144,0.432,0.27,0.973,0.27,0.973h0.036c0,0,0.126-0.541,0.27-0.973
		l2.232-6.716h1.207l2.232,6.716c0.144,0.432,0.27,0.973,0.27,0.973h0.036c0,0,0.126-0.522,0.27-0.973l2.197-6.752h1.296
		l-3.061,9.057h-1.333l-2.214-6.446c-0.162-0.45-0.288-0.972-0.288-0.972H40.13c0,0-0.126,0.521-0.27,0.972l-2.215,6.446h-1.332
		L33.252,52.457z"/>
	<path fill="#6D5D4B" d="M52.963,52.241c2.647,0,4.79,2.017,4.79,4.699c0,2.736-2.143,4.789-4.79,4.789
		c-2.646,0-4.79-2.053-4.79-4.789C48.174,54.258,50.317,52.241,52.963,52.241z M52.963,60.632c1.945,0,3.529-1.585,3.529-3.691
		c0-2.053-1.584-3.583-3.529-3.583c-1.944,0-3.529,1.53-3.529,3.583C49.435,59.047,51.019,60.632,52.963,60.632z"/>
</g>
<g enable-background="new    ">
	<path fill="#6D5D4B" d="M59.856,52.457h1.206v1.603c0,0.396-0.036,0.72-0.036,0.72h0.036c0.432-1.368,1.44-2.412,2.863-2.412
		c0.252,0,0.486,0.054,0.486,0.054v1.206c0,0-0.216-0.035-0.45-0.035c-1.278,0-2.232,1.008-2.628,2.34
		c-0.18,0.576-0.252,1.188-0.252,1.765v3.817h-1.224V52.457z"/>
</g>
<g enable-background="new    ">
	<path fill="#6D5D4B" d="M66.192,48.855h1.224v7.059h1.44l2.719-3.457h1.477L69.901,56.4v0.036l3.457,5.077H71.9l-3.025-4.537
		h-1.458v4.537h-1.224V48.855z"/>
	<path fill="#6D5D4B" d="M79.998,59.533c0,0,1.008,1.099,2.701,1.099c0.972,0,1.818-0.486,1.818-1.44
		c0-1.981-4.879-1.495-4.879-4.447c0-1.621,1.458-2.503,3.097-2.503c1.909,0,2.791,0.99,2.791,0.99l-0.558,0.937
		c0,0-0.774-0.829-2.269-0.829c-0.918,0-1.801,0.396-1.801,1.405c0,1.998,4.879,1.458,4.879,4.447c0,1.476-1.278,2.538-3.097,2.538
		c-2.197,0-3.349-1.314-3.349-1.314L79.998,59.533z"/>
</g>
<g enable-background="new    ">
	<path fill="#6D5D4B" d="M87.774,52.457h1.206v1.351c0,0.396-0.036,0.72-0.036,0.72h0.036c0.432-1.225,1.873-2.286,3.277-2.286
		c1.674,0,2.539,0.774,2.809,2.269h0.036c0.486-1.225,1.8-2.269,3.331-2.269c2.196,0,3.007,1.278,3.007,3.511v5.762h-1.225v-5.456
		c0-1.476-0.306-2.7-1.962-2.7c-1.386,0-2.521,1.225-2.863,2.557c-0.126,0.396-0.162,0.828-0.162,1.314v4.285h-1.225v-5.456
		c0-1.368-0.198-2.7-1.908-2.7c-1.477,0-2.593,1.278-2.971,2.665c-0.09,0.378-0.126,0.792-0.126,1.206v4.285h-1.224V52.457z"/>
	<path fill="#6D5D4B" d="M109.069,55.914h0.504V55.68c0-1.746-0.955-2.341-2.25-2.341c-1.495,0-2.557,0.864-2.557,0.864
		l-0.576-0.936c0,0,1.188-1.026,3.223-1.026c2.179,0,3.385,1.206,3.385,3.475v5.798h-1.17v-0.99c0-0.45,0.036-0.756,0.036-0.756
		h-0.036c0,0-0.756,1.962-3.025,1.962c-1.512,0-3.079-0.882-3.079-2.683C103.524,55.986,107.503,55.914,109.069,55.914z
		 M106.801,60.686c1.729,0,2.773-1.801,2.773-3.367v-0.396h-0.522c-1.423,0-4.268,0.055-4.268,2.053
		C104.784,59.821,105.45,60.686,106.801,60.686z"/>
	<path fill="#6D5D4B" d="M113.623,52.457h1.205v1.603c0,0.396-0.035,0.72-0.035,0.72h0.035c0.433-1.368,1.441-2.412,2.863-2.412
		c0.252,0,0.486,0.054,0.486,0.054v1.206c0,0-0.216-0.035-0.45-0.035c-1.278,0-2.232,1.008-2.628,2.34
		c-0.181,0.576-0.253,1.188-0.253,1.765v3.817h-1.224V52.457z"/>
	<path fill="#6D5D4B" d="M120.372,53.592h-1.188v-1.026h1.207v-2.611h1.206v2.611h2.269v1.026h-2.269v4.501
		c0,2.124,1.351,2.395,2.034,2.395c0.252,0,0.414-0.036,0.414-0.036v1.099c0,0-0.197,0.036-0.521,0.036
		c-1.045,0-3.151-0.343-3.151-3.367V53.592z"/>
</g>
<g enable-background="new    ">
	<path fill="#6D5D4B" d="M125.808,60.073h1.422v1.44h-1.422V60.073z"/>
</g>
</svg>
