<?xml version="1.0" encoding="utf-8"?>
<!-- Generator: Adobe Illustrator 16.0.0, SVG Export Plug-In . SVG Version: 6.00 Build 0)  -->
<!DOCTYPE svg PUBLIC "-//W3C//DTD SVG 1.1//EN" "http://www.w3.org/Graphics/SVG/1.1/DTD/svg11.dtd">
<svg version="1.1" id="Layer_1" xmlns="http://www.w3.org/2000/svg" xmlns:xlink="http://www.w3.org/1999/xlink" x="0px" y="0px"
	 width="220.875px" height="138.951px" viewBox="0 0 220.875 138.951" enable-background="new 0 0 220.875 138.951"
	 xml:space="preserve">
<g>
	<g>
		<defs>
			<rect id="SVGID_1_" x="0.591" width="147.737" height="99.862"/>
		</defs>
		<clipPath id="SVGID_2_">
			<use xlink:href="#SVGID_1_"  overflow="visible"/>
		</clipPath>
		<path clip-path="url(#SVGID_2_)" fill="#F9B495" d="M15.396,0.198L127.275,0v0.125C127.871,0.052,128.473,0,129.085,0
			c8.179,0,14.808,6.791,14.808,15.169v52.452c0,8.378-6.629,15.169-14.808,15.169c-0.612,0-1.215-0.051-1.811-0.125v0.125
			l-111.88,0.197c-8.176,0-14.805-6.791-14.805-15.168V15.366C0.591,6.989,7.22,0.198,15.396,0.198"/>
	</g>
	<g>
		<defs>
			<rect id="SVGID_3_" x="0.591" width="147.737" height="99.862"/>
		</defs>
		<clipPath id="SVGID_4_">
			<use xlink:href="#SVGID_3_"  overflow="visible"/>
		</clipPath>
		<path clip-path="url(#SVGID_4_)" fill="#F9B495" d="M63.402,78.045c0-9.24,5.551-17.132,13.387-20.313
			c-2.383-0.968-4.975-1.505-7.689-1.505c-11.642,0-21.077,9.769-21.077,21.818S57.459,99.862,69.1,99.862
			c2.715,0,5.307-0.537,7.689-1.506C68.953,95.177,63.402,87.284,63.402,78.045"/>
	</g>
</g>
<g enable-background="new    ">
	<path fill="#6D5D4B" d="M26.136,19.831c-0.864,1.351-1.783,2.377-3.115,3.511c-0.252-0.432-0.45-0.666-0.792-0.972
		c1.638-1.188,2.791-2.558,3.709-4.394c0.252-0.54,0.414-0.919,0.504-1.261l1.261,0.324c-0.216,0.36-0.288,0.486-0.738,1.387
		c-0.072,0.144-0.126,0.216-0.198,0.359h9.021c1.044,0,1.639-0.035,2.269-0.126v1.278c-0.702-0.071-1.296-0.107-2.269-0.107H26.136z
		 M35.984,30.004c0.811,0,1.225-0.018,1.639-0.09v1.225c-0.468-0.072-0.864-0.091-1.675-0.091h-0.72
		c-0.216,1.081-0.36,1.495-0.648,1.801c-0.324,0.36-0.72,0.469-1.657,0.469c-0.522,0-0.954-0.019-1.782-0.108
		c-0.018-0.468-0.072-0.757-0.216-1.225c0.99,0.162,1.531,0.216,2.071,0.216c0.45,0,0.72-0.126,0.846-0.414
		c0.072-0.18,0.09-0.233,0.198-0.738h-9.165c-0.774,0.036-0.774,0.036-1.026,0.055c0.486-1.278,0.756-2.341,1.207-4.483h-1.008
		c-0.864,0-1.296,0.018-1.729,0.107v-1.26c0.45,0.09,0.9,0.107,1.783,0.107h1.152c0.18-1.152,0.36-2.917,0.36-3.727
		c0-0.162,0-0.234-0.036-0.433c0.09,0,0.162,0.019,0.198,0.019c0.306,0.036,0.684,0.054,1.17,0.054h7.778
		c0.612,0,1.044-0.018,1.477-0.072c-0.054,0.414-0.072,0.559-0.108,1.297c-0.054,0.918-0.108,1.854-0.18,2.862h0.99
		c0.81,0,1.26-0.018,1.674-0.09v1.225c-0.468-0.072-0.9-0.09-1.674-0.09H35.84c-0.09,1.026-0.252,2.341-0.414,3.385H35.984z
		 M34.256,30.004c0.198-1.225,0.198-1.225,0.414-3.385h-8.462c-0.18,0.9-0.504,2.179-0.864,3.385H34.256z M34.76,25.574
		c0.072-1.116,0.09-1.458,0.162-3.061l-8.138,0.018c-0.216,1.854-0.252,2.144-0.378,3.043H34.76z M29.772,26.925
		c0.72,0.648,1.243,1.207,1.927,2.07l-0.864,0.738c-0.648-0.936-1.099-1.476-1.891-2.16L29.772,26.925z M30.024,22.693
		c0.955,0.829,1.17,1.045,1.927,1.945l-0.864,0.702c-0.792-1.045-0.918-1.171-1.891-2.053L30.024,22.693z"/>
	<path fill="#6D5D4B" d="M47.413,23.288c0.18-1.261,0.18-1.44,0.234-3.854h-4.483c-0.738,0-1.35,0.036-1.908,0.108v-1.278
		c0.54,0.072,1.098,0.107,1.908,0.107h10.623c0.811,0,1.351-0.035,1.927-0.107v1.278c-0.594-0.072-1.17-0.108-1.927-0.108h-4.951
		c-0.018,2.106-0.036,2.359-0.216,3.854h5.762c0.846,0,1.513-0.036,1.999-0.126v1.332c-0.504-0.09-1.062-0.126-1.999-0.126h-5.312
		c0.468,1.387,0.937,2.341,1.603,3.259c1.351,1.873,3.295,3.241,5.96,4.214c-0.36,0.414-0.558,0.738-0.738,1.188
		c-2.269-1.008-3.907-2.16-5.312-3.744c-0.955-1.062-1.71-2.396-2.323-4.088c-0.54,1.98-1.422,3.547-2.809,4.916
		c-1.152,1.152-2.358,1.926-4.411,2.845c-0.252-0.522-0.378-0.702-0.774-1.116c2.323-0.828,4.087-2.017,5.258-3.548
		c0.882-1.17,1.386-2.322,1.71-3.925h-4.664c-0.936,0-1.494,0.036-1.999,0.126v-1.332c0.468,0.09,1.134,0.126,1.999,0.126H47.413z"
		/>
	<path fill="#6D5D4B" d="M72.489,18.498c0.756,0,1.224-0.035,1.782-0.107v1.188c-0.576-0.072-1.062-0.09-1.782-0.09H60.371
		c-0.702,0-1.225,0.018-1.783,0.09v-1.188c0.522,0.072,1.044,0.107,1.819,0.107h5.401c-0.234-0.323-0.378-0.504-0.828-1.044
		l1.008-0.576c0.414,0.522,0.432,0.522,1.152,1.62H72.489z M59.183,27.015c0-0.63-0.018-1.08-0.072-1.62
		c0.522,0.054,1.026,0.072,1.783,0.072h11.164c0.882,0,1.278-0.019,1.746-0.072c-0.054,0.559-0.072,0.954-0.072,1.585v4.771
		c0,0.612-0.108,0.919-0.414,1.135c-0.288,0.198-0.576,0.234-1.548,0.234c-0.432,0-0.667,0-1.675-0.055
		c-0.036-0.485-0.09-0.702-0.234-1.116c0.72,0.108,1.386,0.162,2.053,0.162c0.648,0,0.72-0.036,0.72-0.414v-5.275H60.299v5.186
		c0,0.792,0.018,1.225,0.108,1.837h-1.333c0.072-0.486,0.108-1.117,0.108-1.819V27.015z M61.577,21.955
		c0-0.576-0.018-0.99-0.054-1.368c0.468,0.055,0.936,0.072,1.71,0.072h6.68c0.702,0,1.026-0.018,1.53-0.072
		c-0.036,0.522-0.054,0.774-0.054,1.387v0.973c0,0.792,0,1.008,0.054,1.404c-0.522-0.055-0.882-0.072-1.657-0.072h-6.644
		c-0.684,0-1.044,0.018-1.62,0.072c0.036-0.379,0.054-0.702,0.054-1.404V21.955z M62.676,23.36h7.616v-1.765h-7.616V23.36z
		 M70.022,29.932c0,0.648,0.018,0.919,0.054,1.278c-0.468-0.036-1.026-0.054-1.656-0.054h-4.25c-0.378,0-1.26,0.036-1.458,0.072
		c0.036-0.522,0.054-0.828,0.054-1.459v-0.918c0-0.612-0.018-0.937-0.054-1.314c0.414,0.036,0.792,0.054,1.458,0.054h4.321
		c0.685,0,1.117-0.018,1.584-0.054c-0.036,0.36-0.054,0.63-0.054,1.225V29.932z M63.828,30.256h5.149v-1.765h-5.149V30.256z"/>
	<path fill="#6D5D4B" d="M90.489,18.498c0.756,0,1.224-0.035,1.782-0.107v1.188c-0.576-0.072-1.062-0.09-1.782-0.09H78.371
		c-0.702,0-1.225,0.018-1.783,0.09v-1.188c0.522,0.072,1.044,0.107,1.819,0.107h5.401c-0.234-0.323-0.378-0.504-0.828-1.044
		l1.008-0.576c0.414,0.522,0.432,0.522,1.152,1.62H90.489z M77.183,27.015c0-0.63-0.018-1.08-0.072-1.62
		c0.522,0.054,1.026,0.072,1.783,0.072h11.164c0.882,0,1.278-0.019,1.746-0.072c-0.054,0.559-0.072,0.954-0.072,1.585v4.771
		c0,0.612-0.108,0.919-0.414,1.135c-0.288,0.198-0.576,0.234-1.548,0.234c-0.432,0-0.667,0-1.675-0.055
		c-0.036-0.485-0.09-0.702-0.234-1.116c0.72,0.108,1.386,0.162,2.053,0.162c0.648,0,0.72-0.036,0.72-0.414v-5.275H78.299v5.186
		c0,0.792,0.018,1.225,0.108,1.837h-1.333c0.072-0.486,0.108-1.117,0.108-1.819V27.015z M79.577,21.955
		c0-0.576-0.018-0.99-0.054-1.368c0.468,0.055,0.936,0.072,1.71,0.072h6.68c0.702,0,1.026-0.018,1.53-0.072
		c-0.036,0.522-0.054,0.774-0.054,1.387v0.973c0,0.792,0,1.008,0.054,1.404c-0.522-0.055-0.882-0.072-1.657-0.072h-6.644
		c-0.684,0-1.044,0.018-1.62,0.072c0.036-0.379,0.054-0.702,0.054-1.404V21.955z M80.676,23.36h7.616v-1.765h-7.616V23.36z
		 M88.022,29.932c0,0.648,0.018,0.919,0.054,1.278c-0.468-0.036-1.026-0.054-1.656-0.054h-4.25c-0.378,0-1.26,0.036-1.458,0.072
		c0.036-0.522,0.054-0.828,0.054-1.459v-0.918c0-0.612-0.018-0.937-0.054-1.314c0.414,0.036,0.792,0.054,1.458,0.054h4.321
		c0.685,0,1.117-0.018,1.584-0.054c-0.036,0.36-0.054,0.63-0.054,1.225V29.932z M81.828,30.256h5.149v-1.765h-5.149V30.256z"/>
</g>
<g enable-background="new    ">
	<path fill="#6D5D4B" d="M100.189,27.501c-0.09,0.145-0.108,0.162-0.216,0.378c-1.206,2.251-2.791,3.943-4.951,5.312
		c-0.324-0.485-0.594-0.756-0.99-1.008c1.602-0.847,3.169-2.269,4.105-3.728c0.378-0.594,0.684-1.188,0.774-1.512L100.189,27.501z
		 M94.14,24.872c0.648,0.072,1.26,0.108,2.143,0.108h11.613c0.882,0,1.477-0.036,2.107-0.108v1.387
		c-0.144-0.018-0.252-0.036-0.324-0.036c-0.468-0.054-0.468-0.054-1.801-0.072H96.264c-0.937,0-1.513,0.036-2.125,0.108V24.872z
		 M96.21,18.013c1.081,1.71,1.71,3.043,2.503,5.131l-1.17,0.576c-0.774-2.143-1.386-3.438-2.449-5.149L96.21,18.013z
		 M101.072,17.112c0.882,1.765,1.494,3.295,1.999,5.077l-1.207,0.468c-0.504-1.944-1.044-3.33-1.962-5.095L101.072,17.112z
		 M105.087,26.799c1.782,1.891,2.827,3.115,4.645,5.438l-1.008,0.954c-1.405-2.052-2.737-3.727-4.592-5.762L105.087,26.799z
		 M104.438,23.612c1.566-2.251,2.233-3.529,3.259-6.248l1.314,0.576c-1.603,3.349-2.089,4.195-3.475,6.158L104.438,23.612z"/>
</g>
<g enable-background="new    ">
	<path fill="#6D5D4B" d="M28.548,55.688c-0.09,0.145-0.108,0.162-0.216,0.378c-1.206,2.251-2.791,3.943-4.951,5.312
		c-0.324-0.485-0.594-0.756-0.99-1.008c1.602-0.847,3.169-2.269,4.105-3.728c0.378-0.594,0.684-1.188,0.774-1.512L28.548,55.688z
		 M22.499,53.06c0.648,0.072,1.26,0.108,2.143,0.108h11.613c0.882,0,1.477-0.036,2.107-0.108v1.387
		c-0.144-0.018-0.252-0.036-0.324-0.036c-0.468-0.054-0.468-0.054-1.801-0.072H24.623c-0.937,0-1.513,0.036-2.125,0.108V53.06z
		 M24.569,46.2c1.081,1.71,1.71,3.043,2.503,5.131l-1.17,0.576c-0.774-2.143-1.386-3.438-2.449-5.149L24.569,46.2z M29.431,45.3
		c0.882,1.765,1.494,3.295,1.999,5.077l-1.207,0.468c-0.504-1.944-1.044-3.33-1.962-5.095L29.431,45.3z M33.446,54.986
		c1.782,1.891,2.827,3.115,4.645,5.438l-1.008,0.954c-1.405-2.052-2.737-3.727-4.592-5.762L33.446,54.986z M32.797,51.8
		c1.566-2.251,2.233-3.529,3.259-6.248l1.314,0.576c-1.603,3.349-2.089,4.195-3.475,6.158L32.797,51.8z"/>
	<path fill="#6D5D4B" d="M45.27,48.019c0.9-0.019,1.422-0.036,1.584-0.055C46.818,48.433,46.8,48.9,46.8,49.549v9.165
		c0,0.81,0.036,1.422,0.09,1.854h-1.188v-1.152h-3.511V61h-1.207c0.072-0.468,0.09-1.134,0.09-2.196v-9.129
		c0-0.846-0.018-1.261-0.072-1.711c0.378,0.036,0.702,0.055,1.603,0.055h0.36c0.36-0.883,0.63-1.783,0.774-2.719l1.278,0.252
		c-0.324,0.973-0.648,1.872-0.918,2.467H45.27z M42.191,53.023h3.511v-4.015h-3.511V53.023z M42.191,58.407h3.511v-4.393h-3.511
		V58.407z M54.633,48c0.72,0,1.224-0.018,1.584-0.071c-0.054,0.324-0.054,0.468-0.072,1.134c-0.162,7.13-0.396,9.543-1.044,10.983
		c-0.36,0.828-0.936,1.152-2.017,1.152c-0.648,0-1.17-0.036-2.287-0.126c-0.036-0.522-0.108-0.828-0.306-1.278
		C51.59,60.01,52.4,60.1,53.048,60.1c0.666,0,0.9-0.162,1.134-0.738c0.306-0.828,0.54-2.557,0.666-4.969
		c0.09-1.44,0.108-2.683,0.126-5.33h-5.186c-0.612,1.242-1.134,2.071-2.07,3.277c-0.234-0.307-0.559-0.612-0.864-0.811
		c1.098-1.17,1.98-2.7,2.646-4.537c0.252-0.685,0.432-1.351,0.468-1.747l1.242,0.234c-0.054,0.108-0.144,0.36-0.252,0.685
		c-0.216,0.63-0.396,1.116-0.684,1.836H54.633z M51.77,56.48c-1.008-2.16-1.692-3.295-2.736-4.555l0.918-0.559
		c1.134,1.368,1.891,2.557,2.845,4.483L51.77,56.48z"/>
	<path fill="#6D5D4B" d="M61.109,53.492h-1.207c-0.612,0-0.9,0.018-1.333,0.09v-1.17c0.396,0.071,0.702,0.09,1.404,0.09h0.955
		c0.576,0,0.9-0.019,1.35-0.09c-0.072,0.54-0.09,1.008-0.09,1.818v3.727c0.126,0.108,0.216,0.198,0.396,0.414
		c0.63,0.738,1.099,1.062,1.837,1.297c0.612,0.18,2.088,0.288,4.375,0.288c2.593,0,4.682-0.108,6.212-0.324
		c-0.288,0.648-0.324,0.738-0.432,1.314c-1.765,0.09-3.727,0.126-6.284,0.126c-1.062,0-2.611-0.09-3.349-0.18
		c-0.774-0.091-1.386-0.324-2.035-0.757c-0.324-0.216-0.324-0.216-0.99-0.99c-0.126-0.162-0.342-0.27-0.486-0.27
		c-0.468,0-1.548,0.972-2.502,2.269l-0.828-0.9c0.846-0.864,1.566-1.513,1.999-1.818c0.486-0.343,0.792-0.522,1.008-0.595V53.492z
		 M59.903,45.714c1.314,1.242,1.783,1.765,2.881,3.187l-0.918,0.828c-1.062-1.53-1.476-2.017-2.809-3.276L59.903,45.714z
		 M72.453,48.288c0.72,0,1.296-0.035,1.674-0.126v1.314c-0.414-0.071-1.008-0.107-1.674-0.107h-1.044v7.544
		c0,0.648-0.108,1.044-0.342,1.278c-0.234,0.216-0.756,0.342-1.531,0.342c-0.36,0-1.08-0.036-1.638-0.09
		c-0.054-0.558-0.09-0.685-0.288-1.261c0.774,0.162,1.44,0.234,1.926,0.234c0.486,0,0.702-0.216,0.702-0.684v-7.364h-5.221
		c-0.667,0-1.279,0.036-1.675,0.107v-1.314c0.378,0.091,0.954,0.126,1.675,0.126h5.221v-0.864c0-1.098-0.018-1.512-0.09-2.07h1.333
		c-0.054,0.666-0.072,1.116-0.072,2.07v0.864H72.453z M67.357,55.221c-0.666-1.351-1.333-2.287-2.646-3.709l0.972-0.595
		c1.512,1.729,1.999,2.395,2.646,3.583L67.357,55.221z"/>
	<path fill="#6D5D4B" d="M78.605,47.946c0-0.72-0.018-1.242-0.09-1.765c0.576,0.072,1.098,0.09,1.926,0.09h8.103
		c0.828,0,1.333-0.018,1.854-0.09c-0.072,0.522-0.09,0.973-0.09,1.656V59.38c0,0.864,0.036,1.368,0.108,1.927h-1.314v-1.171h-9.291
		v1.171h-1.314c0.072-0.54,0.108-1.099,0.108-1.909V47.946z M79.812,52.412h9.291V47.37h-9.291V52.412z M79.812,59.038h9.291V53.51
		h-9.291V59.038z"/>
	<path fill="#6D5D4B" d="M108.291,52.52c1.026,0,1.566-0.036,2.179-0.107v1.332c-0.648-0.072-1.207-0.108-2.179-0.108h-5.06v6.014
		c0,1.207-0.432,1.513-2.088,1.513c-0.594,0-1.099-0.018-2.269-0.126c-0.072-0.558-0.126-0.792-0.306-1.26
		c1.135,0.161,1.819,0.233,2.593,0.233c0.703,0,0.864-0.09,0.864-0.522v-5.852h-5.365c-0.9,0-1.531,0.036-2.215,0.108v-1.332
		c0.666,0.071,1.242,0.107,2.251,0.107h5.329v-1.188c0-0.468-0.018-0.81-0.054-1.188h0.828c1.675-0.899,2.647-1.62,4.105-2.952
		h-8.715c-0.72,0-1.351,0.036-1.818,0.107v-1.296c0.54,0.072,1.08,0.107,1.836,0.107h8.535c0.738,0,1.08-0.018,1.404-0.071
		l0.738,0.828c-0.432,0.378-0.45,0.396-0.648,0.576c-2.052,1.854-2.683,2.305-5.005,3.619v1.458H108.291z"/>
</g>
<g enable-background="new    ">
	<path fill="#6D5D4B" d="M117.757,58.678c0,1.494-1.207,2.7-2.701,2.7s-2.701-1.206-2.701-2.7c0-1.495,1.207-2.701,2.701-2.701
		S117.757,57.183,117.757,58.678z M113.382,58.678c0,0.918,0.756,1.675,1.674,1.675s1.674-0.757,1.674-1.675
		c0-0.919-0.756-1.675-1.674-1.675S113.382,57.759,113.382,58.678z"/>
</g>
</svg>
