<?xml version="1.0" encoding="utf-8"?>
<!-- Generator: Adobe Illustrator 16.0.0, SVG Export Plug-In . SVG Version: 6.00 Build 0)  -->
<!DOCTYPE svg PUBLIC "-//W3C//DTD SVG 1.1//EN" "http://www.w3.org/Graphics/SVG/1.1/DTD/svg11.dtd">
<svg version="1.1" id="Layer_1" xmlns="http://www.w3.org/2000/svg" xmlns:xlink="http://www.w3.org/1999/xlink" x="0px" y="0px"
	 width="220.875px" height="138.951px" viewBox="0 0 220.875 138.951" enable-background="new 0 0 220.875 138.951"
	 xml:space="preserve">
<g>
	<g>
		<defs>
			<rect id="SVGID_1_" x="0.013" width="164.66" height="69.546"/>
		</defs>
		<clipPath id="SVGID_2_">
			<use xlink:href="#SVGID_1_"  overflow="visible"/>
		</clipPath>
		<path clip-path="url(#SVGID_2_)" fill="#FFEA99" d="M16.513,0.214L141.205,0v0.135c0.662-0.08,1.334-0.135,2.02-0.135
			c9.113,0,16.501,7.343,16.501,16.4l0.258,18.285c0,9.059-7.388,16.401-16.5,16.401c-0.687,0-1.356-0.056-2.021-0.135v0.135
			L16.771,51.301c-9.113,0-16.5-7.343-16.5-16.401L0.013,16.613C0.013,7.557,7.401,0.214,16.513,0.214"/>
	</g>
	<g>
		<defs>
			<rect id="SVGID_3_" x="0.013" width="164.66" height="69.546"/>
		</defs>
		<clipPath id="SVGID_4_">
			<use xlink:href="#SVGID_3_"  overflow="visible"/>
		</clipPath>
		<path clip-path="url(#SVGID_4_)" fill="#FFEA99" d="M104.592,45.956c0-9.99,6.188-18.524,14.92-21.964
			c-2.656-1.045-5.546-1.626-8.571-1.626c-12.974,0-23.49,10.561-23.49,23.59c0,13.028,10.517,23.59,23.49,23.59
			c3.025,0,5.915-0.581,8.571-1.627C110.779,64.479,104.592,55.946,104.592,45.956"/>
	</g>
</g>
<g enable-background="new    ">
	<path fill="#6D5D4B" d="M23.953,20.101c0.594,0,0.846-0.019,1.207-0.091v1.188c-0.414-0.054-0.684-0.072-1.207-0.072h-0.648v3.529
		c0.09-0.036,0.09-0.036,0.234-0.09c0.36-0.145,0.738-0.306,1.747-0.811v1.099c-0.666,0.342-0.666,0.342-1.98,0.918v5.563
		c0,1.026-0.396,1.261-2.197,1.261c-0.18,0-0.396,0-0.9-0.018c-0.018-0.45-0.072-0.685-0.234-1.135
		c0.594,0.072,1.08,0.108,1.44,0.108c0.648,0,0.756-0.072,0.756-0.486V26.24c-0.144,0.054-0.811,0.306-1.008,0.378
		c-0.198,0.072-0.468,0.18-0.846,0.324c-0.072,0.018-0.144,0.054-0.27,0.107l-0.36-1.206c0.756-0.126,0.918-0.162,2.485-0.756
		v-3.962h-1.062c-0.414,0-0.882,0.036-1.35,0.091v-1.225c0.468,0.072,0.846,0.108,1.368,0.108h1.044V18.39
		c0-0.774-0.036-1.225-0.126-1.818h1.386c-0.09,0.576-0.126,1.044-0.126,1.801v1.729H23.953z M25.861,19.164
		c0-0.919,0-1.116-0.054-1.639c0.522,0.054,0.918,0.072,1.674,0.072h6.176c0.756,0,1.224-0.019,1.674-0.072
		c-0.072,0.504-0.09,0.918-0.09,1.62v4.304c0,0.666,0.036,1.188,0.09,1.692c-0.504-0.054-0.9-0.072-1.674-0.072h-6.68v5.348
		c0,0.486,0.108,0.648,0.541,0.757c0.396,0.107,1.314,0.144,3.151,0.144c2.376,0,3.241-0.126,3.601-0.522
		c0.288-0.323,0.45-1.242,0.522-3.061c0.45,0.252,0.666,0.342,1.188,0.468c-0.216,2.377-0.432,3.151-0.972,3.583
		c-0.558,0.45-1.783,0.612-4.465,0.612c-2.215,0-3.205-0.071-3.763-0.252c-0.684-0.234-0.918-0.594-0.918-1.404V19.164z
		 M29.984,18.624h-3.007v5.419h3.007V18.624z M34.126,24.043v-5.419h-3.043v5.419H34.126z"/>
	<path fill="#6D5D4B" d="M52.144,26.528c0.954,0,1.476-0.036,1.854-0.108v1.135c-0.45-0.072-0.972-0.091-1.854-0.091H52.09v1.171
		c0,0.882,0.036,1.368,0.108,1.801h-1.17v-0.738h-4.825v1.494c0,1.242-0.342,1.494-2.125,1.494c-0.396,0-0.829-0.018-1.693-0.071
		c-0.036-0.45-0.108-0.685-0.306-1.135c0.918,0.126,1.548,0.18,2.214,0.18c0.684,0,0.828-0.09,0.828-0.485v-1.477h-4.339
		c-0.828,0-1.206,0.018-1.764,0.09v-1.116c0.504,0.072,0.864,0.09,1.729,0.09h4.375v-1.297H39.72c-0.99,0-1.477,0.019-1.962,0.091
		V26.42c0.432,0.072,0.936,0.108,1.962,0.108h5.401v-1.242h-4.231c-0.738,0-1.17,0.018-1.692,0.09V24.26
		c0.45,0.071,0.882,0.09,1.729,0.09h4.195v-1.171h-3.763c-0.594,0-1.08,0.019-1.476,0.072c0.054-0.414,0.072-0.738,0.072-1.206
		v-0.792c0-0.486-0.018-0.774-0.072-1.225c0.468,0.054,0.864,0.072,1.494,0.072h3.745v-1.188H39.9c-0.829,0-1.477,0.036-2.017,0.107
		v-1.188c0.486,0.072,1.008,0.108,2.052,0.108h5.186c0-0.828-0.018-1.152-0.108-1.62h1.314c-0.108,0.45-0.126,0.773-0.126,1.62h5.51
		c1.044,0,1.584-0.036,2.07-0.108v1.188c-0.594-0.071-1.188-0.107-2.035-0.107h-5.545v1.188h4.141c0.63,0,1.026-0.019,1.477-0.072
		c-0.054,0.45-0.072,0.72-0.072,1.225v0.792c0,0.504,0.018,0.756,0.072,1.206c-0.396-0.054-0.882-0.072-1.458-0.072h-4.159v1.171
		h3.925c1.044,0,1.53-0.019,2.017-0.072c-0.036,0.378-0.054,0.72-0.054,1.494v0.757H52.144z M45.122,20.982h-4.087v1.332h4.087
		V20.982z M50.667,22.314v-1.332h-4.465v1.332H50.667z M51.027,26.528v-1.242h-4.825v1.242H51.027z M46.202,28.761h4.825v-1.297
		h-4.825V28.761z"/>
	<path fill="#6D5D4B" d="M55.452,24.691c0.54-1.692,0.648-2.322,0.756-4.771l0.991,0.271c-0.126,2.305-0.252,3.114-0.774,4.951
		L55.452,24.691z M57.792,32.83c0.09-0.576,0.126-1.333,0.126-2.071V18.281c0-0.684-0.036-1.206-0.126-1.818h1.387
		c-0.09,0.576-0.126,1.116-0.126,1.818v12.496c0,0.774,0.036,1.44,0.126,2.053H57.792z M60.133,22.062
		c-0.216-0.99-0.432-1.603-0.828-2.448l0.81-0.343c0.342,0.738,0.576,1.369,0.9,2.377L60.133,22.062z M65.336,17.867
		c0-0.594-0.018-0.937-0.108-1.404h1.278c-0.09,0.45-0.108,0.828-0.108,1.404h3.331c0.9,0,1.279-0.018,1.765-0.107v1.116
		c-0.486-0.072-0.936-0.09-1.747-0.09h-3.349v1.224h2.809c0.774,0,1.188-0.018,1.657-0.09v1.062c-0.486-0.072-0.937-0.09-1.675-0.09
		h-2.791v1.332h3.637c0.811,0,1.333-0.036,1.783-0.108v1.152c-0.576-0.071-1.134-0.107-1.783-0.107h-7.652
		c-0.847,0-1.369,0.036-1.837,0.107v-1.152c0.45,0.072,0.955,0.108,1.837,0.108h2.953v-1.332h-2.161c-0.72,0-1.116,0.018-1.639,0.09
		V19.92c0.468,0.072,0.9,0.09,1.657,0.09h2.143v-1.224h-2.701c-0.811,0-1.225,0.018-1.692,0.09V17.76
		c0.468,0.09,0.864,0.107,1.71,0.107H65.336z M62.762,29.733v1.116c0,0.936,0.036,1.494,0.108,1.944h-1.296
		c0.072-0.468,0.09-0.973,0.09-1.944v-5.078c0-0.828,0-1.08-0.054-1.566c0.45,0.055,0.99,0.072,1.674,0.072h5.528
		c0.846,0,1.296-0.018,1.656-0.09c-0.054,0.432-0.072,0.99-0.072,1.927v5.113c0,1.134-0.342,1.404-1.747,1.404
		c-0.468,0-0.99-0.036-1.783-0.09c-0.054-0.469-0.126-0.738-0.288-1.135c0.846,0.145,1.495,0.217,2.017,0.217
		c0.594,0,0.703-0.072,0.703-0.486v-1.404H62.762z M69.298,25.195h-6.536v1.369h6.536V25.195z M69.298,27.464h-6.536v1.351h6.536
		V27.464z"/>
	<path fill="#6D5D4B" d="M75.288,25.34c0-0.973,0.018-1.765,0.054-2.647c-0.45,0.991-0.774,1.549-1.458,2.503
		c-0.162-0.306-0.486-0.738-0.774-1.008c1.17-1.404,2.179-3.313,2.989-5.618c0.306-0.828,0.486-1.548,0.576-2.143l1.207,0.343
		c-0.072,0.161-0.108,0.252-0.216,0.594c-0.504,1.566-0.774,2.287-1.278,3.403v9.723c0,1.044,0.018,1.603,0.072,2.232H75.18
		c0.072-0.63,0.108-1.225,0.108-2.215V25.34z M80.005,21.072h-1.17c-0.504,0-0.954,0.019-1.548,0.072v-1.152
		c0.45,0.054,0.918,0.09,1.548,0.09h1.17v-1.765c0-0.684-0.036-1.242-0.108-1.692h1.278c-0.072,0.45-0.108,0.973-0.108,1.656v1.801
		h1.026c0.666,0,1.134-0.018,1.62-0.09v1.152c-0.54-0.054-1.026-0.072-1.638-0.072h-1.008v3.151h0.846
		c0.594,0,0.828-0.019,1.188-0.072c-0.054,0.414-0.072,0.9-0.072,1.603v2.917c0,0.828,0,1.225,0.036,1.53
		c-0.378-0.036-0.63-0.036-1.278-0.036h-2.647v1.566h-1.17c0.072-0.63,0.108-1.225,0.108-1.836v-4.231
		c0-0.612-0.018-0.973-0.054-1.513c0.342,0.054,0.63,0.072,1.207,0.072h0.774V21.072z M79.141,29.175h2.863v-3.979h-2.863V29.175z
		 M88.846,20.838c-0.144,1.819-0.162,2.035-0.378,3.043c-0.288,1.44-0.666,2.575-1.35,3.979c0.792,1.44,1.729,2.521,3.295,3.799
		c-0.342,0.252-0.576,0.522-0.864,0.973c-1.458-1.44-2.25-2.413-3.007-3.728c-0.829,1.351-1.801,2.449-3.367,3.781
		c-0.306-0.468-0.432-0.594-0.81-0.882c1.692-1.297,2.665-2.377,3.601-3.961c-0.63-1.278-1.117-2.989-1.351-4.808
		c-0.252,0.594-0.378,0.828-0.756,1.458c-0.288-0.359-0.486-0.521-0.846-0.738c0.829-1.26,1.387-2.538,1.819-4.213
		c0.27-1.044,0.468-2.215,0.468-2.845c0-0.019,0-0.054,0-0.108l1.207,0.234c-0.072,0.234-0.09,0.306-0.162,0.666
		c-0.162,0.828-0.378,1.765-0.558,2.341h2.773c0.72,0,1.152-0.036,1.548-0.108v1.207c-0.36-0.055-0.774-0.091-1.188-0.091H88.846z
		 M85.479,20.838c-0.072,0.234-0.072,0.234-0.162,0.469c0.18,2.286,0.522,3.727,1.225,5.401c0.792-1.818,1.152-3.493,1.296-5.87
		H85.479z"/>
	<path fill="#6D5D4B" d="M99.482,25.826c0.738,0,1.188-0.019,1.621-0.091v1.188c-0.468-0.071-0.918-0.09-1.584-0.09h-2.233v3.062
		c1.692-0.36,2.557-0.559,4.033-0.973v1.062c-2.755,0.702-4.393,1.08-6.752,1.53c-1.548,0.288-1.548,0.288-2.431,0.504l-0.27-1.296
		c0.648,0,1.134-0.055,2.575-0.307c0.342-0.054,0.72-0.126,1.08-0.18c0.342-0.055,0.45-0.072,0.685-0.126v-3.277h-1.963
		c-0.612,0-1.17,0.036-1.656,0.108v-1.225c0.468,0.072,0.99,0.108,1.656,0.108h1.963v-0.721c0-0.63-0.036-1.044-0.108-1.458h1.278
		c-0.072,0.414-0.09,0.828-0.09,1.477v0.702H99.482z M92.406,22.387c0.432-0.036,0.558-0.09,0.774-0.378
		c0.756-0.937,1.44-2.035,2.196-3.493h-1.53c-0.738,0-1.278,0.036-1.765,0.108v-1.243c0.486,0.072,1.008,0.108,1.801,0.108h5.654
		c0.846,0,1.386-0.036,1.89-0.108v1.243c-0.522-0.072-0.99-0.108-1.764-0.108h-3.097c-0.108,0.198-0.108,0.198-0.306,0.559
		c-0.594,1.098-1.422,2.376-2.106,3.24c2.503-0.18,4.375-0.359,5.257-0.521c-0.468-0.667-0.846-1.135-1.566-1.909l0.937-0.504
		c1.296,1.494,1.818,2.196,2.845,3.907l-0.918,0.666c-0.396-0.738-0.54-0.99-0.72-1.261c-0.954,0.145-1.152,0.181-2.449,0.307
		c-0.504,0.054-1.17,0.108-1.944,0.198c-0.9,0.09-1.603,0.162-2.017,0.198c-0.63,0.054-0.756,0.071-1.026,0.107L92.406,22.387z
		 M103.659,17.831c-0.072,0.45-0.09,0.955-0.09,1.963v7.094c0,1.207,0,1.531,0.072,2.017h-1.26c0.072-0.504,0.09-0.882,0.09-2.017
		v-7.094c0-1.08-0.018-1.513-0.09-1.963H103.659z M107.458,16.805c-0.072,0.486-0.108,1.171-0.108,2.179v11.902
		c0,1.314-0.378,1.62-2.035,1.62c-0.666,0-1.26-0.036-1.908-0.108c-0.072-0.468-0.144-0.756-0.342-1.188
		c0.918,0.181,1.512,0.253,2.323,0.253c0.702,0,0.828-0.072,0.828-0.541V18.93c0-0.973-0.036-1.584-0.126-2.125H107.458z"/>
</g>
<g enable-background="new    ">
	<path fill="#6D5D4B" d="M111.271,24.907c0-0.792,0.018-1.404,0.072-2.232c-0.612,1.08-1.027,1.675-1.837,2.629
		c-0.126-0.307-0.432-0.738-0.72-1.044c1.458-1.549,2.647-3.422,3.458-5.528c0.324-0.846,0.594-1.818,0.684-2.448l1.279,0.414
		c-0.127,0.324-0.162,0.396-0.361,0.954c-0.468,1.297-0.791,2.089-1.439,3.403v9.578c0,0.829,0.035,1.44,0.125,2.107h-1.386
		c0.09-0.631,0.126-1.171,0.126-2.161V24.907z M119.734,30.741c1.098-2.593,2.25-6.644,2.467-8.66l1.367,0.414
		c-0.18,0.558-0.18,0.558-0.629,2.16c-0.559,2.089-1.152,3.835-2.035,6.086h2.809c0.883,0,1.441-0.036,1.945-0.108v1.297
		c-0.559-0.09-1.189-0.126-1.945-0.126h-8.174c-0.811,0-1.404,0.036-1.98,0.126v-1.297c0.504,0.072,1.044,0.108,1.943,0.108H119.734
		z M119.482,20.01c-0.775-1.638-0.865-1.8-1.657-2.826l0.937-0.559c0.576,0.738,1.17,1.711,1.765,2.881l-0.792,0.504h3.492
		c0.828,0,1.369-0.036,1.873-0.107v1.242c-0.54-0.054-1.116-0.09-1.873-0.09h-7.291c-0.938,0-1.495,0.036-1.909,0.09v-1.242
		c0.485,0.071,1.009,0.107,1.909,0.107H119.482z M116.978,29.715c-0.521-2.953-1.025-4.789-1.926-7.04l1.135-0.396
		c0.9,2.413,1.35,4.052,1.98,7.076L116.978,29.715z"/>
	<path fill="#6D5D4B" d="M133.125,29.949c0,1.494-1.207,2.7-2.701,2.7s-2.701-1.206-2.701-2.7c0-1.495,1.207-2.701,2.701-2.701
		S133.125,28.454,133.125,29.949z M128.75,29.949c0,0.918,0.756,1.675,1.674,1.675s1.674-0.757,1.674-1.675
		c0-0.919-0.756-1.675-1.674-1.675S128.75,29.03,128.75,29.949z"/>
</g>
</svg>
