<?xml version="1.0" encoding="utf-8"?>
<!-- Generator: Adobe Illustrator 16.0.0, SVG Export Plug-In . SVG Version: 6.00 Build 0)  -->
<!DOCTYPE svg PUBLIC "-//W3C//DTD SVG 1.1//EN" "http://www.w3.org/Graphics/SVG/1.1/DTD/svg11.dtd">
<svg version="1.1" id="Layer_1" xmlns="http://www.w3.org/2000/svg" xmlns:xlink="http://www.w3.org/1999/xlink" x="0px" y="0px"
	 width="220.875px" height="138.951px" viewBox="0 0 220.875 138.951" enable-background="new 0 0 220.875 138.951"
	 xml:space="preserve">
<g>
	<g>
		<defs>
			<rect id="SVGID_1_" x="0.5" width="126.074" height="100.306"/>
		</defs>
		<clipPath id="SVGID_2_">
			<use xlink:href="#SVGID_1_"  overflow="visible"/>
		</clipPath>
		<path clip-path="url(#SVGID_2_)" fill="#BCD9D8" d="M15.828,0.198L109.37,0v0.125C109.985,0.05,110.609,0,111.246,0
			c8.465,0,15.328,6.821,15.328,15.235v52.686c0,8.415-6.863,15.236-15.328,15.236c-0.637,0-1.261-0.051-1.875-0.125v0.125
			l-93.542,0.199c-8.465,0-15.327-6.822-15.327-15.236V15.434C0.501,7.019,7.363,0.198,15.828,0.198"/>
	</g>
	<g>
		<defs>
			<rect id="SVGID_3_" x="0.5" width="126.074" height="100.306"/>
		</defs>
		<clipPath id="SVGID_4_">
			<use xlink:href="#SVGID_3_"  overflow="visible"/>
		</clipPath>
		<path clip-path="url(#SVGID_4_)" fill="#BCD9D8" d="M65.532,78.392c0-9.281,5.748-17.208,13.86-20.404
			c-2.467-0.972-5.15-1.512-7.962-1.512c-12.053,0-21.822,9.812-21.822,21.916c0,12.103,9.77,21.914,21.822,21.914
			c2.812,0,5.495-0.539,7.962-1.512C71.28,95.599,65.532,87.671,65.532,78.392"/>
	</g>
</g>
<g enable-background="new    ">
	<path fill="#6D5D4B" d="M21.996,32.562c0.427-0.387,0.813-0.753,1.16-1.101c0.346-0.347,0.64-0.687,0.88-1.02
		c0.187,0.413,0.433,0.733,0.74,0.96l-2.24,2.1c-0.2,0.188-0.367,0.344-0.5,0.471c-0.133,0.126-0.253,0.246-0.36,0.359
		c-0.107,0.113-0.207,0.224-0.3,0.33s-0.193,0.227-0.3,0.36c-0.16-0.188-0.307-0.34-0.44-0.46c-0.134-0.12-0.327-0.273-0.58-0.46
		c0.267-0.294,0.457-0.57,0.57-0.83s0.17-0.59,0.17-0.99v-7.5c-0.387,0-0.707,0.004-0.96,0.01c-0.253,0.007-0.477,0.023-0.67,0.05
		c-0.193,0.027-0.374,0.063-0.54,0.11s-0.35,0.104-0.55,0.17v-1.439c0.267,0.026,0.56,0.05,0.88,0.069
		c0.32,0.021,0.713,0.03,1.18,0.03c0.466,0,0.883-0.01,1.25-0.03c0.366-0.02,0.683-0.043,0.95-0.069
		c-0.107,0.227-0.19,0.563-0.25,1.01s-0.09,0.896-0.09,1.35V32.562z M21.835,22.102c-0.387-0.561-0.803-1.104-1.25-1.63
		c-0.447-0.527-0.983-1.051-1.61-1.57l0.9-0.84c0.64,0.573,1.193,1.113,1.66,1.62c0.466,0.507,0.927,1.04,1.38,1.6L21.835,22.102z
		 M27.855,21.581c-0.413,0-0.8,0.004-1.16,0.01c-0.36,0.007-0.713,0.018-1.06,0.03c-0.347,0.014-0.693,0.03-1.04,0.05
		c-0.347,0.021-0.713,0.051-1.1,0.091v-1.32c0.533,0.04,0.99,0.073,1.37,0.1c0.38,0.027,0.783,0.044,1.21,0.05
		c0.426,0.007,0.92,0.014,1.48,0.021s1.287,0.01,2.18,0.01c0.8,0,1.477-0.003,2.03-0.01s1.05-0.014,1.49-0.021
		c0.44-0.006,0.866-0.022,1.28-0.05c0.413-0.026,0.88-0.06,1.4-0.1v1.32c-0.6-0.04-1.13-0.073-1.59-0.101
		c-0.46-0.026-0.947-0.043-1.46-0.05c-0.514-0.007-1.107-0.014-1.78-0.021c-0.673-0.006-1.523-0.01-2.55-0.01
		c0.133,0.094,0.26,0.17,0.38,0.23c0.12,0.06,0.24,0.123,0.36,0.189c0.16,0.067,0.223,0.144,0.19,0.23
		c-0.034,0.087-0.15,0.144-0.35,0.17c-0.08,0.014-0.18,0.077-0.3,0.189c-0.12,0.114-0.233,0.237-0.34,0.37
		c-0.187,0.24-0.354,0.46-0.5,0.66c-0.147,0.2-0.3,0.403-0.46,0.61s-0.337,0.439-0.53,0.7c-0.194,0.26-0.43,0.569-0.71,0.93
		l4.28-0.16c0.333-0.439,0.62-0.877,0.86-1.31c0.24-0.434,0.48-0.91,0.72-1.431c0.253,0.188,0.46,0.324,0.62,0.41
		c0.16,0.087,0.347,0.177,0.56,0.271c0.16,0.066,0.23,0.144,0.21,0.229c-0.02,0.087-0.117,0.164-0.29,0.23
		c-0.08,0.013-0.204,0.116-0.37,0.31c-0.167,0.193-0.364,0.457-0.59,0.79c-0.413,0.613-0.843,1.184-1.29,1.71
		c-0.447,0.527-0.927,1.037-1.44,1.53s-1.073,0.977-1.68,1.45c-0.607,0.473-1.284,0.956-2.03,1.449
		c-0.187-0.239-0.357-0.423-0.51-0.55c-0.153-0.126-0.37-0.243-0.65-0.35c0.92-0.427,1.787-0.937,2.6-1.53
		c0.813-0.593,1.633-1.343,2.46-2.25l-3.48,0.26c-0.28,0.027-0.55,0.07-0.81,0.13c-0.26,0.061-0.483,0.124-0.67,0.19
		c-0.027-0.32-0.07-0.563-0.13-0.729c-0.06-0.167-0.164-0.344-0.31-0.53c0.2-0.054,0.44-0.193,0.72-0.42
		c0.28-0.227,0.58-0.53,0.9-0.91s0.643-0.83,0.97-1.351C27.272,22.781,27.576,22.208,27.855,21.581z M31.196,31.521
		c-0.374,0.387-0.76,0.74-1.16,1.06c-0.4,0.32-0.84,0.637-1.32,0.95s-1.02,0.64-1.62,0.98c-0.6,0.34-1.287,0.71-2.06,1.109
		c-0.133-0.267-0.273-0.474-0.42-0.62c-0.147-0.146-0.367-0.3-0.66-0.46c0.56-0.16,1.12-0.356,1.68-0.59s1.12-0.52,1.68-0.86
		c0.56-0.34,1.13-0.743,1.71-1.21c0.58-0.466,1.177-1.006,1.79-1.619c0.147-0.147,0.34-0.36,0.58-0.641
		c0.24-0.28,0.493-0.6,0.76-0.96c0.267-0.36,0.533-0.746,0.8-1.16c0.267-0.413,0.507-0.826,0.72-1.239
		c0.227,0.187,0.43,0.336,0.61,0.449s0.363,0.224,0.55,0.33c0.16,0.067,0.233,0.144,0.22,0.23c-0.014,0.087-0.113,0.149-0.3,0.189
		c-0.08,0-0.197,0.074-0.35,0.221c-0.154,0.146-0.364,0.393-0.63,0.739c-0.347,0.467-0.673,0.891-0.98,1.271s-0.606,0.729-0.9,1.05
		c0.68,0.467,1.356,0.98,2.03,1.54c0.673,0.56,1.336,1.167,1.99,1.82l-1.18,0.899c-0.16-0.239-0.377-0.51-0.65-0.81
		s-0.57-0.61-0.89-0.93c-0.32-0.32-0.654-0.634-1-0.94C31.849,32.015,31.516,31.748,31.196,31.521z M29.815,20.441
		c-0.146-0.227-0.287-0.43-0.42-0.61c-0.133-0.18-0.287-0.356-0.46-0.53c-0.173-0.173-0.367-0.353-0.58-0.539
		c-0.213-0.188-0.473-0.4-0.78-0.641l0.94-0.82c0.453,0.428,0.85,0.811,1.19,1.15s0.71,0.737,1.11,1.19L29.815,20.441z"/>
</g>
<g enable-background="new    ">
	<path fill="#6D5D4B" d="M53.079,30.183c0,3.4,0.04,3.961,0.04,4.061c0,0.14-0.02,0.16-0.16,0.16h-0.92
		c-0.14,0-0.16-0.021-0.16-0.16v-0.8h-8.542v0.86c0,0.14-0.02,0.159-0.16,0.159h-0.92c-0.12,0-0.14-0.02-0.14-0.159
		c0-0.101,0.04-0.761,0.04-4.142v-4.32c-1.061,0.3-2.201,0.56-3.461,0.82c-0.38,0.06-0.38,0.06-0.54-0.32
		c-0.14-0.3-0.32-0.5-0.5-0.681c5.021-0.7,8.882-2.2,11.802-4.301c0.4-0.3,0.74-0.62,0.94-0.92c0.38,0.24,0.68,0.54,0.88,0.72
		c0.14,0.12,0.18,0.2,0.18,0.28c0,0.101-0.12,0.18-0.26,0.24c-0.3,0.1-0.54,0.26-1,0.56c-1.5,1.061-3.121,1.921-5.061,2.641h5.041
		c1.84,0,2.681-0.04,2.781-0.04c0.14,0,0.16,0.021,0.16,0.16c0,0.12-0.04,0.7-0.04,2.961V30.183z M43.477,18.58
		c-0.12,0.08-0.32,0.38-0.42,0.52c-0.9,1.28-1.98,2.461-3.521,3.501c-0.14,0.101-0.24,0.16-0.3,0.16c-0.08,0-0.16-0.08-0.3-0.24
		c-0.18-0.22-0.42-0.399-0.66-0.54c1.6-0.98,2.761-2.08,3.421-3c0.4-0.581,0.64-1.001,0.74-1.381c0.42,0.16,0.82,0.34,1.081,0.48
		c0.12,0.06,0.18,0.14,0.18,0.22C43.696,18.42,43.597,18.5,43.477,18.58z M51.878,25.901h-8.542v1.521h8.542V25.901z M51.878,28.322
		h-8.542v1.54h8.542V28.322z M51.878,30.763h-8.542v1.68h8.542V30.763z M46.317,18.22c0-0.68-0.02-1.26-0.12-1.761
		c0.48,0.021,0.9,0.061,1.26,0.101c0.16,0.02,0.26,0.1,0.26,0.16c0,0.16-0.06,0.24-0.12,0.38c-0.06,0.16-0.08,0.44-0.08,0.98v1.08
		c0,0.479,0.04,1.101,0.04,1.58c0,0.641-0.16,1-0.54,1.28c-0.44,0.32-1,0.42-2.601,0.38c-0.38,0-0.38,0.021-0.48-0.38
		c-0.1-0.3-0.22-0.62-0.36-0.84c0.66,0.08,1.18,0.12,1.68,0.12c0.88,0,1.06-0.28,1.06-0.9V18.22z M50.978,17.7
		c0.2-0.12,0.26-0.12,0.34-0.021c1.18,1.521,2.62,2.841,4.461,3.821c-0.24,0.18-0.42,0.359-0.62,0.64c-0.14,0.2-0.2,0.28-0.28,0.28
		c-0.06,0-0.14-0.04-0.28-0.141c-1.68-1.14-3.061-2.44-4.221-4c-0.1-0.141-0.08-0.2,0.14-0.32L50.978,17.7z"/>
	<path fill="#6D5D4B" d="M60.976,28.902c-0.1,0.1-0.2,0.38-0.28,0.58c-0.36,1.021-0.82,2.021-1.5,3.021
		c-0.12,0.18-0.18,0.26-0.26,0.26c-0.06,0-0.14-0.04-0.26-0.12c-0.26-0.18-0.48-0.279-0.72-0.34c0.88-1.14,1.3-2,1.681-3.141
		c0.1-0.3,0.18-0.72,0.2-1.04c0.44,0.1,0.8,0.2,1.081,0.3c0.14,0.04,0.22,0.101,0.22,0.22
		C61.136,28.722,61.056,28.822,60.976,28.902z M67.497,20.28c0,0.12-0.02,0.14-0.16,0.14c-0.12,0-0.72-0.04-2.541-0.04h-3.961
		c-1.82,0-2.42,0.04-2.541,0.04s-0.14-0.02-0.14-0.14v-0.84c0-0.141,0.02-0.16,0.14-0.16s0.72,0.04,2.541,0.04h1.44V18.6
		c0-1-0.02-1.54-0.14-2.021c0.48,0.021,0.88,0.061,1.28,0.101c0.14,0.02,0.24,0.1,0.24,0.18c0,0.141-0.06,0.22-0.12,0.36
		c-0.08,0.2-0.1,0.54-0.1,1.38v0.721h1.36c1.82,0,2.42-0.04,2.541-0.04c0.14,0,0.16,0.02,0.16,0.16V20.28z M66.277,25.142
		c0,1.06,0.04,1.4,0.04,1.5c0,0.14-0.02,0.16-0.16,0.16c-0.1,0-0.601-0.04-2.081-0.04h-0.62v3.001c0,1.14,0.04,2.04,0.04,2.78
		s-0.12,1.141-0.54,1.44c-0.36,0.26-0.8,0.32-1.98,0.32c-0.4,0-0.4,0-0.48-0.421c-0.06-0.3-0.18-0.58-0.34-0.819
		c0.52,0.06,0.9,0.079,1.22,0.079c0.78,0,0.94-0.159,0.94-0.76v-5.621h-0.68c-1.5,0-1.98,0.04-2.101,0.04
		c-0.14,0-0.16-0.021-0.16-0.16c0-0.1,0.04-0.44,0.04-1.5v-1.461c0-1.06-0.04-1.38-0.04-1.5c0-0.14,0.02-0.16,0.16-0.16
		c0.12,0,0.6,0.04,2.101,0.04h2.44c1.48,0,1.98-0.04,2.081-0.04c0.14,0,0.16,0.021,0.16,0.16c0,0.12-0.04,0.44-0.04,1.5V25.142z
		 M65.177,23.041h-4.661v2.761h4.661V23.041z M65.157,28.082c0.18-0.08,0.22-0.08,0.32,0.06c0.56,0.82,0.9,1.48,1.2,2.201
		c0.06,0.14,0.06,0.199-0.14,0.3l-0.46,0.22c-0.24,0.12-0.3,0.12-0.36-0.04c-0.32-0.82-0.62-1.48-1.12-2.24
		c-0.08-0.12-0.08-0.18,0.16-0.3L65.157,28.082z M75.759,22.841c0,0.14-0.02,0.16-0.16,0.16c-0.1,0-0.66-0.04-2.38-0.04h-2.081
		c-0.18,1.9-0.48,3.721-0.92,5.181c-0.76,2.461-2.041,4.441-4.121,6.021c-0.14,0.12-0.22,0.181-0.3,0.181s-0.14-0.08-0.28-0.221
		c-0.2-0.24-0.44-0.439-0.7-0.58c2.22-1.46,3.601-3.32,4.421-6.062c0.38-1.2,0.62-2.78,0.76-4.521h-0.2c-1.74,0-2.281,0.04-2.4,0.04
		c-0.14,0-0.16-0.021-0.16-0.16v-0.82c0-0.14,0.02-0.16,0.16-0.16c0.12,0,0.66,0.04,2.4,0.04h0.28c0.06-0.9,0.08-1.84,0.08-2.801
		c0-1.2-0.04-1.7-0.14-2.36c0.46,0.021,0.9,0.061,1.28,0.12c0.18,0.021,0.26,0.12,0.26,0.22c0,0.141-0.06,0.28-0.12,0.421
		c-0.08,0.2-0.12,0.6-0.12,1.52c0,0.94-0.04,1.921-0.1,2.881h2c1.72,0,2.28-0.04,2.38-0.04c0.14,0,0.16,0.021,0.16,0.16V22.841z
		 M72.438,32.003c0,0.58,0.08,0.78,0.24,0.9c0.2,0.14,0.5,0.18,0.92,0.18c0.66,0,0.96-0.12,1.22-0.42c0.22-0.3,0.3-0.78,0.4-2.141
		c0.24,0.18,0.48,0.3,0.68,0.38c0.32,0.141,0.36,0.16,0.32,0.521c-0.1,1.24-0.32,1.8-0.68,2.181c-0.42,0.399-1.1,0.6-1.96,0.6
		c-0.72,0-1.3-0.08-1.581-0.24c-0.46-0.239-0.66-0.62-0.66-1.58v-5.321c0-1.12-0.06-1.94-0.12-2.36c0.38,0.021,0.8,0.06,1.18,0.12
		c0.14,0.02,0.24,0.1,0.24,0.18c0,0.12-0.04,0.2-0.1,0.32c-0.08,0.18-0.1,0.42-0.1,1.74V32.003z M73.139,17.66
		c0.16-0.101,0.2-0.101,0.3,0c0.64,0.6,1.24,1.359,1.721,2.22c0.08,0.16,0.06,0.181-0.18,0.36l-0.48,0.34
		c-0.18,0.12-0.24,0.12-0.3,0c-0.4-0.96-1.06-1.76-1.6-2.32c-0.1-0.12-0.08-0.14,0.12-0.3L73.139,17.66z"/>
	<path fill="#6D5D4B" d="M93.079,30.183c0,3.4,0.04,3.961,0.04,4.061c0,0.14-0.02,0.16-0.16,0.16h-0.92
		c-0.14,0-0.16-0.021-0.16-0.16v-0.8h-8.542v0.86c0,0.14-0.02,0.159-0.16,0.159h-0.92c-0.12,0-0.14-0.02-0.14-0.159
		c0-0.101,0.04-0.761,0.04-4.142v-4.32c-1.061,0.3-2.201,0.56-3.461,0.82c-0.38,0.06-0.38,0.06-0.54-0.32
		c-0.14-0.3-0.32-0.5-0.5-0.681c5.021-0.7,8.882-2.2,11.802-4.301c0.4-0.3,0.74-0.62,0.94-0.92c0.38,0.24,0.68,0.54,0.88,0.72
		c0.14,0.12,0.18,0.2,0.18,0.28c0,0.101-0.12,0.18-0.26,0.24c-0.3,0.1-0.54,0.26-1,0.56c-1.5,1.061-3.121,1.921-5.061,2.641h5.041
		c1.84,0,2.681-0.04,2.781-0.04c0.14,0,0.16,0.021,0.16,0.16c0,0.12-0.04,0.7-0.04,2.961V30.183z M83.477,18.58
		c-0.12,0.08-0.32,0.38-0.42,0.52c-0.9,1.28-1.98,2.461-3.521,3.501c-0.14,0.101-0.24,0.16-0.3,0.16c-0.08,0-0.16-0.08-0.3-0.24
		c-0.18-0.22-0.42-0.399-0.66-0.54c1.6-0.98,2.761-2.08,3.421-3c0.4-0.581,0.64-1.001,0.74-1.381c0.42,0.16,0.82,0.34,1.081,0.48
		c0.12,0.06,0.18,0.14,0.18,0.22C83.696,18.42,83.597,18.5,83.477,18.58z M91.878,25.901h-8.542v1.521h8.542V25.901z M91.878,28.322
		h-8.542v1.54h8.542V28.322z M91.878,30.763h-8.542v1.68h8.542V30.763z M86.317,18.22c0-0.68-0.02-1.26-0.12-1.761
		c0.48,0.021,0.9,0.061,1.26,0.101c0.16,0.02,0.26,0.1,0.26,0.16c0,0.16-0.06,0.24-0.12,0.38c-0.06,0.16-0.08,0.44-0.08,0.98v1.08
		c0,0.479,0.04,1.101,0.04,1.58c0,0.641-0.16,1-0.54,1.28c-0.44,0.32-1,0.42-2.601,0.38c-0.38,0-0.38,0.021-0.48-0.38
		c-0.1-0.3-0.22-0.62-0.36-0.84c0.66,0.08,1.18,0.12,1.68,0.12c0.88,0,1.06-0.28,1.06-0.9V18.22z M90.978,17.7
		c0.2-0.12,0.26-0.12,0.34-0.021c1.18,1.521,2.62,2.841,4.461,3.821c-0.24,0.18-0.42,0.359-0.62,0.64c-0.14,0.2-0.2,0.28-0.28,0.28
		c-0.06,0-0.14-0.04-0.28-0.141c-1.68-1.14-3.061-2.44-4.221-4c-0.1-0.141-0.08-0.2,0.14-0.32L90.978,17.7z"/>
</g>
<g enable-background="new    ">
	<path fill="#6D5D4B" d="M97.796,34.983c-0.02-0.04-0.04-0.08-0.04-0.12s0.06-0.08,0.14-0.12c0.88-0.54,1.3-1.24,1.3-1.72
		c0-0.341-0.14-0.561-0.44-0.561c-0.58,0-1.141-0.48-1.141-1.181c0-0.76,0.581-1.26,1.28-1.26c0.9,0,1.541,0.74,1.541,1.86
		c0,1.58-0.7,2.601-2.081,3.44c-0.06,0.04-0.1,0.061-0.14,0.061c-0.04,0-0.08-0.021-0.12-0.08L97.796,34.983z"/>
</g>
<g enable-background="new    ">
	<path fill="#6D5D4B" d="M20.996,62.562c0.427-0.387,0.813-0.753,1.16-1.101c0.346-0.347,0.64-0.687,0.88-1.02
		c0.187,0.413,0.433,0.733,0.74,0.96l-2.24,2.1c-0.2,0.188-0.367,0.344-0.5,0.471c-0.133,0.126-0.253,0.246-0.36,0.359
		c-0.107,0.113-0.207,0.224-0.3,0.33s-0.193,0.227-0.3,0.36c-0.16-0.188-0.307-0.34-0.44-0.46c-0.134-0.12-0.327-0.273-0.58-0.46
		c0.267-0.294,0.457-0.57,0.57-0.83s0.17-0.59,0.17-0.99v-7.5c-0.387,0-0.707,0.004-0.96,0.01c-0.253,0.007-0.477,0.023-0.67,0.05
		c-0.193,0.027-0.374,0.063-0.54,0.11s-0.35,0.104-0.55,0.17v-1.439c0.267,0.026,0.56,0.05,0.88,0.069
		c0.32,0.021,0.713,0.03,1.18,0.03c0.466,0,0.883-0.01,1.25-0.03c0.366-0.02,0.683-0.043,0.95-0.069
		c-0.107,0.227-0.19,0.563-0.25,1.01s-0.09,0.896-0.09,1.35V62.562z M20.835,52.102c-0.387-0.561-0.803-1.104-1.25-1.63
		c-0.447-0.527-0.983-1.051-1.61-1.57l0.9-0.84c0.64,0.573,1.193,1.113,1.66,1.62c0.466,0.507,0.927,1.04,1.38,1.6L20.835,52.102z
		 M26.855,51.581c-0.413,0-0.8,0.004-1.16,0.01c-0.36,0.007-0.713,0.018-1.06,0.03c-0.347,0.014-0.693,0.03-1.04,0.05
		c-0.347,0.021-0.713,0.051-1.1,0.091v-1.32c0.533,0.04,0.99,0.073,1.37,0.1c0.38,0.027,0.783,0.044,1.21,0.05
		c0.426,0.007,0.92,0.014,1.48,0.021s1.287,0.01,2.18,0.01c0.8,0,1.477-0.003,2.03-0.01s1.05-0.014,1.49-0.021
		c0.44-0.006,0.866-0.022,1.28-0.05c0.413-0.026,0.88-0.06,1.4-0.1v1.32c-0.6-0.04-1.13-0.073-1.59-0.101
		c-0.46-0.026-0.947-0.043-1.46-0.05c-0.514-0.007-1.107-0.014-1.78-0.021c-0.673-0.006-1.523-0.01-2.55-0.01
		c0.133,0.094,0.26,0.17,0.38,0.23c0.12,0.06,0.24,0.123,0.36,0.189c0.16,0.067,0.223,0.144,0.19,0.23
		c-0.034,0.087-0.15,0.144-0.35,0.17c-0.08,0.014-0.18,0.077-0.3,0.189c-0.12,0.114-0.233,0.237-0.34,0.37
		c-0.187,0.24-0.354,0.46-0.5,0.66c-0.147,0.2-0.3,0.403-0.46,0.61s-0.337,0.439-0.53,0.7c-0.194,0.26-0.43,0.569-0.71,0.93
		l4.28-0.16c0.333-0.439,0.62-0.877,0.86-1.31c0.24-0.434,0.48-0.91,0.72-1.431c0.253,0.188,0.46,0.324,0.62,0.41
		c0.16,0.087,0.347,0.177,0.56,0.271c0.16,0.066,0.23,0.144,0.21,0.229c-0.02,0.087-0.117,0.164-0.29,0.23
		c-0.08,0.013-0.204,0.116-0.37,0.31c-0.167,0.193-0.364,0.457-0.59,0.79c-0.413,0.613-0.843,1.184-1.29,1.71
		c-0.447,0.527-0.927,1.037-1.44,1.53s-1.073,0.977-1.68,1.45c-0.607,0.473-1.284,0.956-2.03,1.449
		c-0.187-0.239-0.357-0.423-0.51-0.55c-0.153-0.126-0.37-0.243-0.65-0.35c0.92-0.427,1.787-0.937,2.6-1.53
		c0.813-0.593,1.633-1.343,2.46-2.25l-3.48,0.26c-0.28,0.027-0.55,0.07-0.81,0.13c-0.26,0.061-0.483,0.124-0.67,0.19
		c-0.027-0.32-0.07-0.563-0.13-0.729c-0.06-0.167-0.164-0.344-0.31-0.53c0.2-0.054,0.44-0.193,0.72-0.42
		c0.28-0.227,0.58-0.53,0.9-0.91s0.643-0.83,0.97-1.351C26.272,52.781,26.576,52.208,26.855,51.581z M30.196,61.521
		c-0.374,0.387-0.76,0.74-1.16,1.06c-0.4,0.32-0.84,0.637-1.32,0.95s-1.02,0.64-1.62,0.98c-0.6,0.34-1.287,0.71-2.06,1.109
		c-0.133-0.267-0.273-0.474-0.42-0.62c-0.147-0.146-0.367-0.3-0.66-0.46c0.56-0.16,1.12-0.356,1.68-0.59s1.12-0.52,1.68-0.86
		c0.56-0.34,1.13-0.743,1.71-1.21c0.58-0.466,1.177-1.006,1.79-1.619c0.147-0.147,0.34-0.36,0.58-0.641
		c0.24-0.28,0.493-0.6,0.76-0.96c0.267-0.36,0.533-0.746,0.8-1.16c0.267-0.413,0.507-0.826,0.72-1.239
		c0.227,0.187,0.43,0.336,0.61,0.449s0.363,0.224,0.55,0.33c0.16,0.067,0.233,0.144,0.22,0.23c-0.014,0.087-0.113,0.149-0.3,0.189
		c-0.08,0-0.197,0.074-0.35,0.221c-0.154,0.146-0.364,0.393-0.63,0.739c-0.347,0.467-0.673,0.891-0.98,1.271s-0.606,0.729-0.9,1.05
		c0.68,0.467,1.356,0.98,2.03,1.54c0.673,0.56,1.336,1.167,1.99,1.82l-1.18,0.899c-0.16-0.239-0.377-0.51-0.65-0.81
		s-0.57-0.61-0.89-0.93c-0.32-0.32-0.654-0.634-1-0.94C30.849,62.015,30.516,61.748,30.196,61.521z M28.815,50.441
		c-0.146-0.227-0.287-0.43-0.42-0.61c-0.133-0.18-0.287-0.356-0.46-0.53c-0.173-0.173-0.367-0.353-0.58-0.539
		c-0.213-0.188-0.473-0.4-0.78-0.641l0.94-0.82c0.453,0.428,0.85,0.811,1.19,1.15s0.71,0.737,1.11,1.19L28.815,50.441z"/>
</g>
<g enable-background="new    ">
	<path fill="#6D5D4B" d="M41.076,58.942c0-0.82,0-1.681,0.02-2.521c-0.76,0.899-1.68,1.72-2.881,2.62
		c-0.14,0.101-0.22,0.16-0.28,0.16c-0.08,0-0.14-0.08-0.24-0.22c-0.18-0.301-0.38-0.521-0.58-0.66
		c2.181-1.36,3.981-3.401,5.021-5.302c0.16-0.3,0.3-0.64,0.38-0.96c0.44,0.16,0.76,0.3,1.06,0.46c0.14,0.08,0.22,0.12,0.22,0.24
		c0,0.1-0.06,0.16-0.18,0.24s-0.28,0.26-0.46,0.56c-0.28,0.461-0.58,0.94-0.86,1.36v6.702c0,1.68,0.04,2.38,0.04,2.48
		c0,0.14-0.02,0.16-0.18,0.16h-0.96c-0.14,0-0.16-0.021-0.16-0.16c0-0.101,0.04-0.801,0.04-2.48V58.942z M54.639,49.82
		c0,0.16-0.02,0.18-0.16,0.18c-0.1,0-0.72-0.04-2.601-0.04h-2.9c0,0.98,0.04,1.4,0.04,1.501c0,0.14-0.02,0.159-0.16,0.159h-0.9
		c-0.14,0-0.16-0.02-0.16-0.159c0-0.101,0.04-0.521,0.04-1.501h-4.181c0,0.98,0.04,1.4,0.04,1.48c0,0.16-0.02,0.18-0.16,0.18h-0.92
		c-0.12,0-0.14-0.02-0.14-0.18c0-0.08,0.04-0.5,0.04-1.48h-2.521c-1.86,0-2.5,0.04-2.601,0.04c-0.14,0-0.16-0.02-0.16-0.18v-0.84
		c0-0.141,0.02-0.16,0.16-0.16c0.1,0,0.74,0.04,2.601,0.04h2.521V48.7c0-0.86-0.02-1.621-0.14-2.161c0.5,0.021,0.92,0.061,1.26,0.12
		c0.14,0.021,0.22,0.08,0.22,0.181c0,0.08-0.02,0.16-0.08,0.26c-0.08,0.16-0.12,0.66-0.12,1.561v0.2h4.181V48.68
		c0-0.86,0-1.62-0.12-2.16c0.5,0.02,0.9,0.06,1.24,0.12c0.14,0.02,0.24,0.08,0.24,0.18c0,0.101-0.04,0.16-0.1,0.28
		c-0.08,0.14-0.12,0.64-0.12,1.521v0.24h2.9c1.88,0,2.5-0.04,2.601-0.04c0.14,0,0.16,0.02,0.16,0.16V49.82z M47.377,61.723
		c0,0.7,0.16,0.9,0.6,1c0.46,0.101,1.3,0.12,2.061,0.12c1.22,0,2.141-0.1,2.561-0.34c0.54-0.34,0.68-1.181,0.74-2.461
		c0.24,0.2,0.52,0.36,0.82,0.48c0.32,0.12,0.34,0.16,0.32,0.5c-0.16,1.28-0.42,1.98-1.04,2.381c-0.6,0.42-1.661,0.58-3.421,0.58
		c-1.16,0-2.161-0.04-2.781-0.221c-0.7-0.199-1.06-0.5-1.06-1.78v-7.821c0-0.92-0.02-1.521-0.12-2.021c0.5,0.021,0.88,0.06,1.3,0.12
		c0.18,0.02,0.26,0.1,0.26,0.18c0,0.141-0.06,0.221-0.12,0.36c-0.08,0.18-0.12,0.36-0.12,1.42v3.141
		c1.561-0.819,2.98-1.76,3.881-2.58c0.44-0.4,0.68-0.7,0.84-0.96c0.44,0.28,0.72,0.479,0.98,0.72c0.1,0.101,0.14,0.141,0.16,0.22
		c0,0.12-0.06,0.2-0.22,0.28c-0.22,0.101-0.4,0.2-0.96,0.66c-1.2,0.98-2.881,2.021-4.681,2.901V61.723z"/>
	<path fill="#6D5D4B" d="M59.976,58.902c-0.1,0.1-0.2,0.38-0.28,0.58c-0.36,1.021-0.82,2.021-1.5,3.021
		c-0.12,0.18-0.18,0.26-0.26,0.26c-0.06,0-0.14-0.04-0.26-0.12c-0.26-0.18-0.48-0.279-0.72-0.34c0.88-1.14,1.3-2,1.681-3.141
		c0.1-0.3,0.18-0.72,0.2-1.04c0.44,0.1,0.8,0.2,1.081,0.3c0.14,0.04,0.22,0.101,0.22,0.22
		C60.136,58.722,60.056,58.822,59.976,58.902z M66.497,50.28c0,0.12-0.02,0.14-0.16,0.14c-0.12,0-0.72-0.04-2.541-0.04h-3.961
		c-1.82,0-2.42,0.04-2.541,0.04s-0.14-0.02-0.14-0.14v-0.84c0-0.141,0.02-0.16,0.14-0.16s0.72,0.04,2.541,0.04h1.44V48.6
		c0-1-0.02-1.54-0.14-2.021c0.48,0.021,0.88,0.061,1.28,0.101c0.14,0.02,0.24,0.1,0.24,0.18c0,0.141-0.06,0.22-0.12,0.36
		c-0.08,0.2-0.1,0.54-0.1,1.38v0.721h1.36c1.82,0,2.42-0.04,2.541-0.04c0.14,0,0.16,0.02,0.16,0.16V50.28z M65.277,55.142
		c0,1.06,0.04,1.4,0.04,1.5c0,0.14-0.02,0.16-0.16,0.16c-0.1,0-0.601-0.04-2.081-0.04h-0.62v3.001c0,1.14,0.04,2.04,0.04,2.78
		s-0.12,1.141-0.54,1.44c-0.36,0.26-0.8,0.32-1.98,0.32c-0.4,0-0.4,0-0.48-0.421c-0.06-0.3-0.18-0.58-0.34-0.819
		c0.52,0.06,0.9,0.079,1.22,0.079c0.78,0,0.94-0.159,0.94-0.76v-5.621h-0.68c-1.5,0-1.98,0.04-2.101,0.04
		c-0.14,0-0.16-0.021-0.16-0.16c0-0.1,0.04-0.44,0.04-1.5v-1.461c0-1.06-0.04-1.38-0.04-1.5c0-0.14,0.02-0.16,0.16-0.16
		c0.12,0,0.6,0.04,2.101,0.04h2.44c1.48,0,1.98-0.04,2.081-0.04c0.14,0,0.16,0.021,0.16,0.16c0,0.12-0.04,0.44-0.04,1.5V55.142z
		 M64.177,53.041h-4.661v2.761h4.661V53.041z M64.157,58.082c0.18-0.08,0.22-0.08,0.32,0.06c0.56,0.82,0.9,1.48,1.2,2.201
		c0.06,0.14,0.06,0.199-0.14,0.3l-0.46,0.22c-0.24,0.12-0.3,0.12-0.36-0.04c-0.32-0.82-0.62-1.48-1.12-2.24
		c-0.08-0.12-0.08-0.18,0.16-0.3L64.157,58.082z M74.759,52.841c0,0.14-0.02,0.16-0.16,0.16c-0.1,0-0.66-0.04-2.38-0.04h-2.081
		c-0.18,1.9-0.48,3.721-0.92,5.181c-0.76,2.461-2.041,4.441-4.121,6.021c-0.14,0.12-0.22,0.181-0.3,0.181s-0.14-0.08-0.28-0.221
		c-0.2-0.24-0.44-0.439-0.7-0.58c2.22-1.46,3.601-3.32,4.421-6.062c0.38-1.2,0.62-2.78,0.76-4.521h-0.2c-1.74,0-2.281,0.04-2.4,0.04
		c-0.14,0-0.16-0.021-0.16-0.16v-0.82c0-0.14,0.02-0.16,0.16-0.16c0.12,0,0.66,0.04,2.4,0.04h0.28c0.06-0.9,0.08-1.84,0.08-2.801
		c0-1.2-0.04-1.7-0.14-2.36c0.46,0.021,0.9,0.061,1.28,0.12c0.18,0.021,0.26,0.12,0.26,0.22c0,0.141-0.06,0.28-0.12,0.421
		c-0.08,0.2-0.12,0.6-0.12,1.52c0,0.94-0.04,1.921-0.1,2.881h2c1.72,0,2.28-0.04,2.38-0.04c0.14,0,0.16,0.021,0.16,0.16V52.841z
		 M71.438,62.003c0,0.58,0.08,0.78,0.24,0.9c0.2,0.14,0.5,0.18,0.92,0.18c0.66,0,0.96-0.12,1.22-0.42c0.22-0.3,0.3-0.78,0.4-2.141
		c0.24,0.18,0.48,0.3,0.68,0.38c0.32,0.141,0.36,0.16,0.32,0.521c-0.1,1.24-0.32,1.8-0.68,2.181c-0.42,0.399-1.1,0.6-1.96,0.6
		c-0.72,0-1.3-0.08-1.581-0.24c-0.46-0.239-0.66-0.62-0.66-1.58v-5.321c0-1.12-0.06-1.94-0.12-2.36c0.38,0.021,0.8,0.06,1.18,0.12
		c0.14,0.02,0.24,0.1,0.24,0.18c0,0.12-0.04,0.2-0.1,0.32c-0.08,0.18-0.1,0.42-0.1,1.74V62.003z M72.139,47.66
		c0.16-0.101,0.2-0.101,0.3,0c0.64,0.6,1.24,1.359,1.721,2.22c0.08,0.16,0.06,0.181-0.18,0.36l-0.48,0.34
		c-0.18,0.12-0.24,0.12-0.3,0c-0.4-0.96-1.06-1.76-1.6-2.32c-0.1-0.12-0.08-0.14,0.12-0.3L72.139,47.66z"/>
</g>
<g enable-background="new    ">
	<path fill="#6D5D4B" d="M80.877,58.942c0-0.82,0-1.681,0.02-2.521c-0.76,0.899-1.68,1.72-2.881,2.62
		c-0.14,0.101-0.22,0.16-0.28,0.16c-0.08,0-0.14-0.08-0.24-0.22c-0.18-0.301-0.38-0.521-0.58-0.66
		c2.181-1.36,3.981-3.401,5.021-5.302c0.16-0.3,0.3-0.64,0.38-0.96c0.44,0.16,0.76,0.3,1.06,0.46c0.14,0.08,0.22,0.12,0.22,0.24
		c0,0.1-0.06,0.16-0.18,0.24s-0.28,0.26-0.46,0.56c-0.28,0.461-0.58,0.94-0.86,1.36v6.702c0,1.68,0.04,2.38,0.04,2.48
		c0,0.14-0.02,0.16-0.18,0.16h-0.96c-0.14,0-0.16-0.021-0.16-0.16c0-0.101,0.04-0.801,0.04-2.48V58.942z M94.44,49.82
		c0,0.16-0.02,0.18-0.16,0.18c-0.1,0-0.72-0.04-2.601-0.04h-2.9c0,0.98,0.04,1.4,0.04,1.501c0,0.14-0.02,0.159-0.16,0.159h-0.9
		c-0.14,0-0.16-0.02-0.16-0.159c0-0.101,0.04-0.521,0.04-1.501h-4.181c0,0.98,0.04,1.4,0.04,1.48c0,0.16-0.02,0.18-0.16,0.18h-0.92
		c-0.12,0-0.14-0.02-0.14-0.18c0-0.08,0.04-0.5,0.04-1.48h-2.521c-1.86,0-2.5,0.04-2.601,0.04c-0.14,0-0.16-0.02-0.16-0.18v-0.84
		c0-0.141,0.02-0.16,0.16-0.16c0.1,0,0.74,0.04,2.601,0.04h2.521V48.7c0-0.86-0.02-1.621-0.14-2.161c0.5,0.021,0.92,0.061,1.26,0.12
		c0.14,0.021,0.22,0.08,0.22,0.181c0,0.08-0.02,0.16-0.08,0.26c-0.08,0.16-0.12,0.66-0.12,1.561v0.2h4.181V48.68
		c0-0.86,0-1.62-0.12-2.16c0.5,0.02,0.9,0.06,1.24,0.12c0.14,0.02,0.24,0.08,0.24,0.18c0,0.101-0.04,0.16-0.1,0.28
		c-0.08,0.14-0.12,0.64-0.12,1.521v0.24h2.9c1.88,0,2.5-0.04,2.601-0.04c0.14,0,0.16,0.02,0.16,0.16V49.82z M87.178,61.723
		c0,0.7,0.16,0.9,0.6,1c0.46,0.101,1.3,0.12,2.061,0.12c1.22,0,2.141-0.1,2.561-0.34c0.54-0.34,0.68-1.181,0.74-2.461
		c0.24,0.2,0.52,0.36,0.82,0.48c0.32,0.12,0.34,0.16,0.32,0.5c-0.16,1.28-0.42,1.98-1.04,2.381c-0.6,0.42-1.661,0.58-3.421,0.58
		c-1.16,0-2.161-0.04-2.781-0.221c-0.7-0.199-1.06-0.5-1.06-1.78v-7.821c0-0.92-0.02-1.521-0.12-2.021c0.5,0.021,0.88,0.06,1.3,0.12
		c0.18,0.02,0.26,0.1,0.26,0.18c0,0.141-0.06,0.221-0.12,0.36c-0.08,0.18-0.12,0.36-0.12,1.42v3.141
		c1.561-0.819,2.98-1.76,3.881-2.58c0.44-0.4,0.68-0.7,0.84-0.96c0.44,0.28,0.72,0.479,0.98,0.72c0.1,0.101,0.14,0.141,0.16,0.22
		c0,0.12-0.06,0.2-0.22,0.28c-0.22,0.101-0.4,0.2-0.96,0.66c-1.2,0.98-2.881,2.021-4.681,2.901V61.723z"/>
</g>
<g enable-background="new    ">
	<path fill="#6D5D4B" d="M102.468,61.793c0,1.494-1.206,2.7-2.701,2.7s-2.701-1.206-2.701-2.7c0-1.495,1.206-2.701,2.701-2.701
		S102.468,60.298,102.468,61.793z M98.093,61.793c0,0.918,0.756,1.675,1.674,1.675s1.674-0.757,1.674-1.675
		c0-0.919-0.756-1.675-1.674-1.675S98.093,60.874,98.093,61.793z"/>
</g>
</svg>
