<?xml version="1.0" encoding="utf-8"?>
<!-- Generator: Adobe Illustrator 16.0.0, SVG Export Plug-In . SVG Version: 6.00 Build 0)  -->
<!DOCTYPE svg PUBLIC "-//W3C//DTD SVG 1.1//EN" "http://www.w3.org/Graphics/SVG/1.1/DTD/svg11.dtd">
<svg version="1.1" id="Layer_1" xmlns="http://www.w3.org/2000/svg" xmlns:xlink="http://www.w3.org/1999/xlink" x="0px" y="0px"
	 width="220.875px" height="138.951px" viewBox="0 0 220.875 138.951" enable-background="new 0 0 220.875 138.951"
	 xml:space="preserve">
<g>
	<g>
		<defs>
			<rect id="SVGID_1_" x="60.082" y="-0.314" width="164.666" height="101.031"/>
		</defs>
		<clipPath id="SVGID_2_">
			<use xlink:href="#SVGID_1_"  overflow="visible"/>
		</clipPath>
		<path clip-path="url(#SVGID_2_)" fill="#BCD9D8" d="M203.435-0.1L78.62-0.313v0.134c-0.664-0.08-1.336-0.134-2.021-0.134
			c-9.121,0-16.517,7.323-16.517,16.357v49.902c0,9.036,7.396,16.358,16.517,16.358c0.686,0,1.357-0.055,2.021-0.135v0.135
			l124.814,0.215c9.121,0,16.517-7.324,16.517-16.359V16.257C219.951,7.223,212.556-0.1,203.435-0.1"/>
	</g>
	<g>
		<defs>
			<rect id="SVGID_3_" x="60.082" y="-0.314" width="164.666" height="101.031"/>
		</defs>
		<clipPath id="SVGID_4_">
			<use xlink:href="#SVGID_3_"  overflow="visible"/>
		</clipPath>
		<path clip-path="url(#SVGID_4_)" fill="#BCD9D8" d="M96.616,77.188c0-9.965-6.193-18.478-14.936-21.907
			c2.659-1.043,5.551-1.623,8.58-1.623c12.986,0,23.514,10.534,23.514,23.53c0,12.994-10.527,23.527-23.514,23.527
			c-3.029,0-5.921-0.578-8.58-1.621C90.423,95.664,96.616,87.151,96.616,77.188"/>
	</g>
</g>
<g enable-background="new    ">
	<path fill="#6D5D4B" d="M82.02,22.106h1.243v5.762h7.346v-5.762h1.242v12.658h-1.242v-5.779h-7.346v5.779H82.02V22.106z"/>
</g>
<g enable-background="new    ">
	<path fill="#6D5D4B" d="M99.877,29.165h0.504v-0.234c0-1.746-0.954-2.341-2.251-2.341c-1.494,0-2.557,0.864-2.557,0.864
		l-0.576-0.936c0,0,1.188-1.026,3.223-1.026c2.179,0,3.385,1.206,3.385,3.475v5.798h-1.17v-0.99c0-0.45,0.036-0.756,0.036-0.756
		h-0.036c0,0-0.756,1.962-3.024,1.962c-1.513,0-3.079-0.882-3.079-2.683C94.332,29.237,98.311,29.165,99.877,29.165z M97.609,33.937
		c1.729,0,2.773-1.801,2.773-3.367v-0.396h-0.522c-1.422,0-4.267,0.055-4.267,2.053C95.592,33.072,96.259,33.937,97.609,33.937z"/>
</g>
<g enable-background="new    ">
	<path fill="#6D5D4B" d="M104.358,22.106h1.224v7.059h1.44l2.719-3.457h1.477l-3.151,3.943v0.036l3.458,5.077h-1.459l-3.025-4.537
		h-1.458v4.537h-1.224V22.106z"/>
</g>
<g enable-background="new    ">
	<path fill="#6D5D4B" d="M113.125,25.708h1.224v5.438c0,1.423,0.216,2.683,1.962,2.683c2.071,0,3.35-1.818,3.35-3.781v-4.339h1.225
		v9.057h-1.188v-1.351c0-0.396,0.036-0.72,0.036-0.72h-0.036c-0.36,0.882-1.548,2.286-3.547,2.286c-2.125,0-3.024-1.152-3.024-3.511
		V25.708z"/>
</g>
<g enable-background="new    ">
	<path fill="#6D5D4B" d="M123.744,25.708h1.205v1.351c0,0.396-0.035,0.72-0.035,0.72h0.035c0.324-0.828,1.477-2.286,3.619-2.286
		c2.233,0,3.025,1.278,3.025,3.511v5.762h-1.225v-5.438c0-1.423-0.216-2.683-1.963-2.683c-1.548,0-2.881,1.062-3.295,2.557
		c-0.107,0.378-0.144,0.792-0.144,1.225v4.339h-1.224V25.708z"/>
	<path fill="#6D5D4B" d="M139.224,29.165h0.504v-0.234c0-1.746-0.953-2.341-2.25-2.341c-1.494,0-2.557,0.864-2.557,0.864
		l-0.576-0.936c0,0,1.188-1.026,3.223-1.026c2.179,0,3.385,1.206,3.385,3.475v5.798h-1.17v-0.99c0-0.45,0.035-0.756,0.035-0.756
		h-0.035c0,0-0.756,1.962-3.025,1.962c-1.512,0-3.078-0.882-3.078-2.683C133.679,29.237,137.658,29.165,139.224,29.165z
		 M136.956,33.937c1.729,0,2.772-1.801,2.772-3.367v-0.396h-0.521c-1.423,0-4.268,0.055-4.268,2.053
		C134.939,33.072,135.605,33.937,136.956,33.937z"/>
</g>
<g enable-background="new    ">
	<path fill="#6D5D4B" d="M149.359,22.106h1.296l3.313,7.437c0.287,0.648,0.611,1.549,0.611,1.549h0.036c0,0,0.343-0.9,0.63-1.549
		l3.313-7.437h1.278l1.008,12.658h-1.242l-0.701-8.858c-0.055-0.685-0.037-1.765-0.037-1.765h-0.035c0,0-0.379,1.116-0.666,1.765
		l-2.972,6.5h-1.17l-2.972-6.5c-0.287-0.631-0.684-1.801-0.684-1.801h-0.036c0,0,0.019,1.116-0.036,1.801l-0.702,8.858h-1.242
		L149.359,22.106z"/>
</g>
<g enable-background="new    ">
	<path fill="#6D5D4B" d="M168.492,29.165h0.504v-0.234c0-1.746-0.954-2.341-2.251-2.341c-1.494,0-2.557,0.864-2.557,0.864
		l-0.576-0.936c0,0,1.188-1.026,3.224-1.026c2.178,0,3.385,1.206,3.385,3.475v5.798h-1.171v-0.99c0-0.45,0.036-0.756,0.036-0.756
		h-0.036c0,0-0.756,1.962-3.024,1.962c-1.513,0-3.079-0.882-3.079-2.683C162.946,29.237,166.925,29.165,168.492,29.165z
		 M166.222,33.937c1.729,0,2.773-1.801,2.773-3.367v-0.396h-0.522c-1.423,0-4.267,0.055-4.267,2.053
		C164.207,33.072,164.873,33.937,166.222,33.937z"/>
</g>
<g enable-background="new    ">
	<path fill="#6D5D4B" d="M173.261,26.843h-1.188v-1.026h1.206v-2.611h1.207v2.611h2.268v1.026h-2.268v4.501
		c0,2.124,1.35,2.395,2.034,2.395c0.252,0,0.414-0.036,0.414-0.036v1.099c0,0-0.198,0.036-0.522,0.036
		c-1.044,0-3.15-0.343-3.15-3.367V26.843z"/>
</g>
<g enable-background="new    ">
	<path fill="#6D5D4B" d="M183.684,29.165h0.505v-0.234c0-1.746-0.955-2.341-2.252-2.341c-1.494,0-2.557,0.864-2.557,0.864
		l-0.576-0.936c0,0,1.189-1.026,3.224-1.026c2.179,0,3.385,1.206,3.385,3.475v5.798h-1.171v-0.99c0-0.45,0.037-0.756,0.037-0.756
		h-0.037c0,0-0.756,1.962-3.023,1.962c-1.514,0-3.08-0.882-3.08-2.683C178.138,29.237,182.118,29.165,183.684,29.165z
		 M181.416,33.937c1.729,0,2.773-1.801,2.773-3.367v-0.396h-0.523c-1.422,0-4.267,0.055-4.267,2.053
		C179.399,33.072,180.066,33.937,181.416,33.937z"/>
</g>
<g enable-background="new    ">
	<path fill="#6D5D4B" d="M188.453,26.843h-1.188v-1.026h1.206v-2.611h1.207v2.611h2.268v1.026h-2.268v4.501
		c0,2.124,1.35,2.395,2.034,2.395c0.252,0,0.414-0.036,0.414-0.036v1.099c0,0-0.198,0.036-0.522,0.036
		c-1.044,0-3.15-0.343-3.15-3.367V26.843z"/>
	<path fill="#6D5D4B" d="M198.947,29.165h0.505v-0.234c0-1.746-0.954-2.341-2.251-2.341c-1.494,0-2.557,0.864-2.557,0.864
		l-0.576-0.936c0,0,1.188-1.026,3.223-1.026c2.18,0,3.385,1.206,3.385,3.475v5.798h-1.17v-0.99c0-0.45,0.036-0.756,0.036-0.756
		h-0.036c0,0-0.756,1.962-3.025,1.962c-1.512,0-3.078-0.882-3.078-2.683C193.402,29.237,197.38,29.165,198.947,29.165z
		 M196.679,33.937c1.729,0,2.772-1.801,2.772-3.367v-0.396h-0.522c-1.422,0-4.268,0.055-4.268,2.053
		C194.662,33.072,195.328,33.937,196.679,33.937z"/>
</g>
<g enable-background="new    ">
	<path fill="#6D5D4B" d="M203.392,33.324h1.422v1.44h-1.422V33.324z"/>
</g>
<g enable-background="new    ">
	<path fill="#6D5D4B" d="M82.02,46.1h4.087c3.799,0,6.356,2.323,6.356,6.32c0,4.033-2.557,6.338-6.356,6.338H82.02V46.1z
		 M85.981,57.642c3.115,0,5.186-1.837,5.186-5.222c0-3.367-2.089-5.203-5.186-5.203h-2.719v10.425H85.981z"/>
</g>
<g enable-background="new    ">
	<path fill="#6D5D4B" d="M99.031,49.485c2.647,0,4.79,2.017,4.79,4.699c0,2.736-2.143,4.789-4.79,4.789
		c-2.646,0-4.79-2.053-4.79-4.789C94.242,51.502,96.385,49.485,99.031,49.485z M99.031,57.876c1.945,0,3.529-1.585,3.529-3.691
		c0-2.053-1.584-3.583-3.529-3.583c-1.944,0-3.529,1.53-3.529,3.583C95.502,56.291,97.087,57.876,99.031,57.876z"/>
</g>
<g enable-background="new    ">
	<path fill="#6D5D4B" d="M106.014,49.701h1.206v1.351c0,0.396-0.036,0.72-0.036,0.72h0.036c0.324-0.828,1.477-2.286,3.619-2.286
		c2.232,0,3.025,1.278,3.025,3.511v5.762h-1.225V53.32c0-1.423-0.217-2.683-1.963-2.683c-1.548,0-2.881,1.062-3.295,2.557
		c-0.108,0.378-0.144,0.792-0.144,1.225v4.339h-1.224V49.701z"/>
	<path fill="#6D5D4B" d="M116.94,45.92h1.296l-1.008,3.097h-0.99L116.94,45.92z"/>
	<path fill="#6D5D4B" d="M120.792,50.836h-1.188V49.81h1.207v-2.611h1.206v2.611h2.269v1.026h-2.269v4.501
		c0,2.124,1.351,2.395,2.034,2.395c0.252,0,0.414-0.036,0.414-0.036v1.099c0,0-0.197,0.036-0.521,0.036
		c-1.045,0-3.151-0.343-3.151-3.367V50.836z"/>
</g>
<g enable-background="new    ">
	<path fill="#6D5D4B" d="M129.845,49.701h1.296l2.196,6.752c0.145,0.432,0.271,0.973,0.271,0.973h0.036c0,0,0.126-0.541,0.27-0.973
		l2.232-6.716h1.207l2.232,6.716c0.145,0.432,0.27,0.973,0.27,0.973h0.037c0,0,0.125-0.522,0.27-0.973l2.197-6.752h1.296
		l-3.062,9.057h-1.332l-2.215-6.446c-0.162-0.45-0.287-0.972-0.287-0.972h-0.037c0,0-0.125,0.521-0.27,0.972l-2.215,6.446h-1.332
		L129.845,49.701z"/>
</g>
<g enable-background="new    ">
	<path fill="#6D5D4B" d="M149.484,49.485c2.647,0,4.79,2.017,4.79,4.699c0,2.736-2.143,4.789-4.79,4.789
		c-2.646,0-4.789-2.053-4.789-4.789C144.695,51.502,146.837,49.485,149.484,49.485z M149.484,57.876
		c1.945,0,3.529-1.585,3.529-3.691c0-2.053-1.584-3.583-3.529-3.583c-1.943,0-3.528,1.53-3.528,3.583
		C145.956,56.291,147.541,57.876,149.484,57.876z"/>
</g>
<g enable-background="new    ">
	<path fill="#6D5D4B" d="M156.468,49.701h1.206v1.603c0,0.396-0.036,0.72-0.036,0.72h0.036c0.433-1.368,1.44-2.412,2.863-2.412
		c0.252,0,0.485,0.054,0.485,0.054v1.206c0,0-0.215-0.035-0.449-0.035c-1.279,0-2.232,1.008-2.629,2.34
		c-0.18,0.576-0.252,1.188-0.252,1.765v3.817h-1.225V49.701z"/>
	<path fill="#6D5D4B" d="M162.876,49.701h1.205v1.603c0,0.396-0.035,0.72-0.035,0.72h0.035c0.433-1.368,1.441-2.412,2.863-2.412
		c0.252,0,0.486,0.054,0.486,0.054v1.206c0,0-0.216-0.035-0.45-0.035c-1.278,0-2.232,1.008-2.629,2.34
		c-0.18,0.576-0.252,1.188-0.252,1.765v3.817h-1.224V49.701z"/>
</g>
<g enable-background="new    ">
	<path fill="#6D5D4B" d="M168.257,61.026c0,0,0.504,0.414,1.08,0.414c0.792,0,1.35-0.648,1.71-1.477l0.559-1.278l-3.781-8.984h1.351
		l2.664,6.607c0.181,0.45,0.324,0.955,0.324,0.955h0.036c0,0,0.126-0.505,0.306-0.955l2.611-6.607h1.332l-4.465,10.947
		c-0.469,1.152-1.404,1.891-2.611,1.891c-0.936,0-1.584-0.54-1.584-0.54L168.257,61.026z"/>
</g>
<g enable-background="new    ">
	<path fill="#6D5D4B" d="M178.642,57.371h1.387v1.387h-1.387V57.371z M178.678,46.1h1.261l-0.055,9.346h-1.152L178.678,46.1z"/>
</g>
</svg>
