<?xml version="1.0" encoding="utf-8"?>
<!-- Generator: Adobe Illustrator 16.0.0, SVG Export Plug-In . SVG Version: 6.00 Build 0)  -->
<!DOCTYPE svg PUBLIC "-//W3C//DTD SVG 1.1//EN" "http://www.w3.org/Graphics/SVG/1.1/DTD/svg11.dtd">
<svg version="1.1" id="Layer_1" xmlns="http://www.w3.org/2000/svg" xmlns:xlink="http://www.w3.org/1999/xlink" x="0px" y="0px"
	 width="220.875px" height="138.951px" viewBox="0 0 220.875 138.951" enable-background="new 0 0 220.875 138.951"
	 xml:space="preserve">
<g>
	<g>
		<defs>
			<rect id="SVGID_1_" x="59.031" width="166.767" height="101.031"/>
		</defs>
		<clipPath id="SVGID_2_">
			<use xlink:href="#SVGID_1_"  overflow="visible"/>
		</clipPath>
		<path clip-path="url(#SVGID_2_)" fill="#FFE88D" d="M202.384,0.214L77.568,0.001v0.134c-0.664-0.08-1.335-0.134-2.021-0.134
			c-9.121,0-16.516,7.323-16.516,16.357V66.26c0,9.035,7.395,16.358,16.516,16.358c0.687,0,1.357-0.055,2.021-0.135v0.135
			l124.814,0.214c9.121,0,16.517-7.324,16.517-16.359V16.571C218.899,7.537,211.503,0.214,202.384,0.214"/>
	</g>
	<g>
		<defs>
			<rect id="SVGID_3_" x="59.031" width="166.767" height="101.031"/>
		</defs>
		<clipPath id="SVGID_4_">
			<use xlink:href="#SVGID_3_"  overflow="visible"/>
		</clipPath>
		<path clip-path="url(#SVGID_4_)" fill="#FFE88D" d="M95.564,77.502c0-9.965-6.193-18.477-14.936-21.907
			c2.66-1.043,5.552-1.623,8.58-1.623c12.986,0,23.515,10.534,23.515,23.53c0,12.995-10.528,23.528-23.515,23.528
			c-3.028,0-5.92-0.578-8.58-1.621C89.371,95.978,95.564,87.466,95.564,77.502"/>
	</g>
</g>
<g enable-background="new    ">
	<path fill="#6D5D4B" d="M93.432,25.275c0,0-0.198,1.08-0.414,1.89l-2.413,8.913h-1.495L85.834,23.42h1.296l2.449,9.831
		c0.162,0.648,0.288,1.351,0.288,1.351h0.036c0.018,0,0.108-0.702,0.288-1.351l2.665-9.831h1.188l2.665,9.831
		c0.18,0.648,0.27,1.351,0.288,1.351h0.036c0,0,0.126-0.702,0.288-1.351l2.539-9.831h1.296L97.79,36.078h-1.495l-2.413-8.913
		c-0.216-0.81-0.414-1.89-0.414-1.89H93.432z"/>
	<path fill="#6D5D4B" d="M103.294,23.42h1.224v4.897c0,0.415-0.036,0.738-0.036,0.738h0.036c0.342-0.864,1.548-2.25,3.601-2.25
		c2.233,0,3.025,1.278,3.025,3.511v5.762h-1.224v-5.438c0-1.423-0.216-2.683-1.963-2.683c-1.548,0-2.881,1.062-3.295,2.574
		c-0.108,0.36-0.144,0.774-0.144,1.207v4.339h-1.224V23.42z"/>
</g>
<g enable-background="new    ">
	<path fill="#6D5D4B" d="M118.631,30.479h0.505v-0.234c0-1.746-0.955-2.341-2.252-2.341c-1.494,0-2.557,0.864-2.557,0.864
		l-0.576-0.936c0,0,1.189-1.026,3.224-1.026c2.179,0,3.385,1.206,3.385,3.475v5.798h-1.171v-0.99c0-0.45,0.037-0.756,0.037-0.756
		h-0.037c0,0-0.756,1.962-3.023,1.962c-1.514,0-3.08-0.882-3.08-2.683C113.085,30.551,117.065,30.479,118.631,30.479z
		 M116.363,35.25c1.729,0,2.773-1.801,2.773-3.367v-0.396h-0.523c-1.422,0-4.267,0.055-4.267,2.053
		C114.346,34.386,115.013,35.25,116.363,35.25z"/>
</g>
<g enable-background="new    ">
	<path fill="#6D5D4B" d="M123.4,28.156h-1.188V27.13h1.206v-2.611h1.207v2.611h2.268v1.026h-2.268v4.501
		c0,2.124,1.35,2.395,2.034,2.395c0.252,0,0.414-0.036,0.414-0.036v1.099c0,0-0.198,0.036-0.522,0.036
		c-1.044,0-3.15-0.343-3.15-3.367V28.156z"/>
	<path fill="#6D5D4B" d="M138.736,30.479h0.505v-0.234c0-1.746-0.954-2.341-2.251-2.341c-1.494,0-2.557,0.864-2.557,0.864
		l-0.576-0.936c0,0,1.188-1.026,3.223-1.026c2.18,0,3.385,1.206,3.385,3.475v5.798h-1.17v-0.99c0-0.45,0.036-0.756,0.036-0.756
		h-0.036c0,0-0.756,1.962-3.025,1.962c-1.512,0-3.078-0.882-3.078-2.683C133.191,30.551,137.169,30.479,138.736,30.479z
		 M136.468,35.25c1.729,0,2.772-1.801,2.772-3.367v-0.396h-0.522c-1.422,0-4.268,0.055-4.268,2.053
		C134.451,34.386,135.117,35.25,136.468,35.25z"/>
</g>
<g enable-background="new    ">
	<path fill="#6D5D4B" d="M150.958,38.761c1.764,0,3.168-0.828,3.168-2.845v-0.828c0-0.342,0.037-0.648,0.037-0.648h-0.037
		c-0.539,1.009-1.458,1.585-2.862,1.585c-2.431,0-4.033-1.927-4.033-4.646s1.495-4.573,3.925-4.573c2.395,0,2.989,1.512,2.989,1.512
		h0.036c0,0-0.018-0.107-0.018-0.306v-0.99h1.188v8.841c0,2.881-2.125,3.997-4.339,3.997c-1.044,0-2.089-0.271-2.972-0.721
		l0.469-1.008C148.509,38.131,149.625,38.761,150.958,38.761z M154.145,31.379c0-2.646-1.261-3.457-2.862-3.457
		c-1.766,0-2.791,1.278-2.791,3.438c0,2.161,1.17,3.565,2.971,3.565C152.884,34.926,154.145,34.044,154.145,31.379z"/>
</g>
<g enable-background="new    ">
	<path fill="#6D5D4B" d="M162.353,26.806c2.646,0,4.789,2.017,4.789,4.699c0,2.736-2.143,4.789-4.789,4.789s-4.79-2.053-4.79-4.789
		C157.563,28.822,159.707,26.806,162.353,26.806z M162.353,35.196c1.944,0,3.529-1.585,3.529-3.691c0-2.053-1.585-3.583-3.529-3.583
		c-1.945,0-3.529,1.53-3.529,3.583C158.824,33.611,160.408,35.196,162.353,35.196z"/>
	<path fill="#6D5D4B" d="M173.548,26.806c2.646,0,4.789,2.017,4.789,4.699c0,2.736-2.143,4.789-4.789,4.789
		s-4.789-2.053-4.789-4.789C168.759,28.822,170.902,26.806,173.548,26.806z M173.548,35.196c1.945,0,3.529-1.585,3.529-3.691
		c0-2.053-1.584-3.583-3.529-3.583c-1.944,0-3.529,1.53-3.529,3.583C170.019,33.611,171.604,35.196,173.548,35.196z"/>
</g>
<g enable-background="new    ">
	<path fill="#6D5D4B" d="M183.917,26.806c2.196,0,2.952,1.71,2.952,1.71h0.037c0,0-0.037-0.306-0.037-0.684V23.42h1.225v12.658
		h-1.188v-0.954c0-0.396,0.035-0.648,0.035-0.648h-0.035c0,0-0.738,1.818-3.115,1.818c-2.432,0-3.943-1.944-3.943-4.753
		C179.847,28.678,181.54,26.806,183.917,26.806z M183.97,35.196c1.513,0,2.936-1.081,2.936-3.655c0-1.837-0.938-3.638-2.881-3.638
		c-1.604,0-2.918,1.351-2.918,3.638C181.107,33.773,182.278,35.196,183.97,35.196z"/>
</g>
<g enable-background="new    ">
	<path fill="#6D5D4B" d="M86.518,47.414h1.225v10.245c0,1.188,0.54,1.369,1.008,1.369c0.162,0,0.306-0.019,0.306-0.019v1.099
		c0,0-0.216,0.036-0.45,0.036c-0.756,0-2.089-0.234-2.089-2.215V47.414z"/>
	<path fill="#6D5D4B" d="M91.018,47.414h1.278v1.531h-1.278V47.414z M91.054,51.016h1.224v9.057h-1.224V51.016z"/>
</g>
<g enable-background="new    ">
	<path fill="#6D5D4B" d="M95.464,52.15H94.33v-1.026h1.134v-0.433c0-2.989,2.106-3.367,3.133-3.367c0.342,0,0.558,0.036,0.558,0.036
		v1.099c0,0-0.18-0.036-0.432-0.036c-0.702,0-2.035,0.252-2.035,2.269v0.433h2.323v1.026h-2.323v7.922h-1.224V52.15z"/>
</g>
<g enable-background="new    ">
	<path fill="#6D5D4B" d="M104.502,50.8c2.503,0,3.781,1.927,3.781,4.177c0,0.216-0.036,0.631-0.036,0.631h-6.95
		c0.054,2.322,1.639,3.583,3.511,3.583c1.657,0,2.755-1.099,2.755-1.099l0.558,0.937c0,0-1.314,1.26-3.349,1.26
		c-2.701,0-4.735-1.944-4.735-4.735C100.037,52.582,102.054,50.8,104.502,50.8z M107.042,54.599
		c-0.072-1.891-1.225-2.772-2.575-2.772c-1.512,0-2.827,0.954-3.115,2.772H107.042z"/>
</g>
<g enable-background="new    ">
	<path fill="#6D5D4B" d="M114.417,62.341c0,0,0.504,0.414,1.08,0.414c0.792,0,1.35-0.648,1.71-1.477L117.766,60l-3.781-8.984h1.351
		L118,57.623c0.181,0.45,0.324,0.955,0.324,0.955h0.036c0,0,0.126-0.505,0.306-0.955l2.611-6.607h1.332l-4.465,10.947
		c-0.469,1.152-1.404,1.891-2.611,1.891c-0.936,0-1.584-0.54-1.584-0.54L114.417,62.341z"/>
</g>
<g enable-background="new    ">
	<path fill="#6D5D4B" d="M128.333,50.8c2.646,0,4.789,2.017,4.789,4.699c0,2.736-2.143,4.789-4.789,4.789s-4.789-2.053-4.789-4.789
		C123.544,52.816,125.687,50.8,128.333,50.8z M128.333,59.19c1.945,0,3.529-1.585,3.529-3.691c0-2.053-1.584-3.583-3.529-3.583
		c-1.944,0-3.529,1.53-3.529,3.583C124.804,57.605,126.389,59.19,128.333,59.19z"/>
	<path fill="#6D5D4B" d="M135.281,51.016h1.224v5.438c0,1.423,0.216,2.683,1.963,2.683c2.07,0,3.349-1.818,3.349-3.781v-4.339h1.225
		v9.057h-1.188v-1.351c0-0.396,0.036-0.72,0.036-0.72h-0.036c-0.36,0.882-1.548,2.286-3.547,2.286c-2.125,0-3.024-1.152-3.024-3.511
		V51.016z"/>
</g>
<g enable-background="new    ">
	<path fill="#6D5D4B" d="M150.652,47.414h1.224v4.897c0,0.415-0.036,0.738-0.036,0.738h0.036c0.343-0.864,1.548-2.25,3.601-2.25
		c2.233,0,3.025,1.278,3.025,3.511v5.762h-1.225v-5.438c0-1.423-0.216-2.683-1.963-2.683c-1.548,0-2.881,1.062-3.295,2.574
		c-0.107,0.36-0.144,0.774-0.144,1.207v4.339h-1.224V47.414z"/>
</g>
<g enable-background="new    ">
	<path fill="#6D5D4B" d="M165.988,54.473h0.505v-0.234c0-1.746-0.954-2.341-2.251-2.341c-1.494,0-2.557,0.864-2.557,0.864
		l-0.576-0.936c0,0,1.188-1.026,3.223-1.026c2.18,0,3.385,1.206,3.385,3.475v5.798h-1.17v-0.99c0-0.45,0.036-0.756,0.036-0.756
		h-0.036c0,0-0.756,1.962-3.024,1.962c-1.513,0-3.079-0.882-3.079-2.683C160.443,54.545,164.421,54.473,165.988,54.473z
		 M163.72,59.244c1.729,0,2.772-1.801,2.772-3.367V55.48h-0.522c-1.422,0-4.268,0.055-4.268,2.053
		C161.703,58.38,162.37,59.244,163.72,59.244z"/>
</g>
<g enable-background="new    ">
	<path fill="#6D5D4B" d="M169.173,51.016h1.296l2.521,6.644c0.162,0.45,0.307,1.081,0.307,1.081h0.036c0,0,0.144-0.612,0.323-1.081
		l2.504-6.644h1.277l-3.457,9.057h-1.332L169.173,51.016z"/>
	<path fill="#6D5D4B" d="M182.98,50.8c2.503,0,3.781,1.927,3.781,4.177c0,0.216-0.036,0.631-0.036,0.631h-6.95
		c0.055,2.322,1.639,3.583,3.512,3.583c1.656,0,2.754-1.099,2.754-1.099l0.559,0.937c0,0-1.314,1.26-3.35,1.26
		c-2.7,0-4.734-1.944-4.734-4.735C178.515,52.582,180.531,50.8,182.98,50.8z M185.519,54.599c-0.072-1.891-1.225-2.772-2.575-2.772
		c-1.513,0-2.827,0.954-3.114,2.772H185.519z"/>
</g>
<g enable-background="new    ">
	<path fill="#6D5D4B" d="M189.568,58.686h1.387v1.387h-1.387V58.686z M189.603,47.414h1.261l-0.054,9.346h-1.152L189.603,47.414z"/>
</g>
</svg>
