<?xml version="1.0" encoding="utf-8"?>
<!-- Generator: Adobe Illustrator 16.0.0, SVG Export Plug-In . SVG Version: 6.00 Build 0)  -->
<!DOCTYPE svg PUBLIC "-//W3C//DTD SVG 1.1//EN" "http://www.w3.org/Graphics/SVG/1.1/DTD/svg11.dtd">
<svg version="1.1" id="Layer_1" xmlns="http://www.w3.org/2000/svg" xmlns:xlink="http://www.w3.org/1999/xlink" x="0px" y="0px"
	 width="220.875px" height="138.951px" viewBox="0 0 220.875 138.951" enable-background="new 0 0 220.875 138.951"
	 xml:space="preserve">
<g>
	<g>
		<g>
			<defs>
				<rect id="SVGID_1_" x="87.31" y="0.132" width="144.604" height="92.758"/>
			</defs>
			<clipPath id="SVGID_2_">
				<use xlink:href="#SVGID_1_"  overflow="visible"/>
			</clipPath>
			<path clip-path="url(#SVGID_2_)" fill="#FFEA99" d="M102.114,0.315l100.88-0.185v0.116c0.596-0.069,1.197-0.116,1.812-0.116
				c8.178,0,14.807,6.309,14.807,14.09v48.721c0,7.781-6.629,14.09-14.807,14.09c-0.613,0-1.217-0.048-1.812-0.116v0.116
				l-100.88,0.183c-8.176,0-14.806-6.308-14.806-14.089V14.404C87.309,6.623,93.938,0.315,102.114,0.315"/>
		</g>
	</g>
	<g>
		<g>
			<defs>
				<rect id="SVGID_3_" x="87.31" y="0.132" width="144.604" height="92.758"/>
			</defs>
			<clipPath id="SVGID_4_">
				<use xlink:href="#SVGID_3_"  overflow="visible"/>
			</clipPath>
			<path clip-path="url(#SVGID_4_)" fill="#FFEA99" d="M135.266,72.623c0-8.582-5.552-15.913-13.388-18.868
				c2.384-0.898,4.976-1.397,7.688-1.397c11.642,0,21.076,9.073,21.076,20.266c0,11.193-9.436,20.266-21.076,20.266
				c-2.715,0-5.307-0.498-7.688-1.396C129.714,88.536,135.266,81.205,135.266,72.623"/>
		</g>
	</g>
</g>
<g enable-background="new    ">
	<path fill="#6D5D4B" d="M108.722,47.646h1.296l2.196,6.752c0.145,0.432,0.271,0.973,0.271,0.973h0.036c0,0,0.126-0.541,0.27-0.973
		l2.232-6.716h1.207l2.232,6.716c0.145,0.432,0.27,0.973,0.27,0.973h0.037c0,0,0.125-0.522,0.27-0.973l2.197-6.752h1.296
		l-3.062,9.057h-1.332l-2.215-6.446c-0.162-0.45-0.287-0.972-0.287-0.972H115.6c0,0-0.125,0.521-0.27,0.972l-2.215,6.446h-1.332
		L108.722,47.646z"/>
</g>
<g enable-background="new    ">
	<path fill="#6D5D4B" d="M128.287,47.43c2.646,0,4.789,2.017,4.789,4.699c0,2.736-2.143,4.789-4.789,4.789s-4.79-2.053-4.79-4.789
		C123.497,49.446,125.641,47.43,128.287,47.43z M128.287,55.82c1.944,0,3.529-1.585,3.529-3.691c0-2.053-1.585-3.583-3.529-3.583
		c-1.945,0-3.529,1.53-3.529,3.583C124.758,54.235,126.342,55.82,128.287,55.82z"/>
</g>
<g enable-background="new    ">
	<path fill="#6D5D4B" d="M135.27,47.646h1.205v1.603c0,0.396-0.035,0.72-0.035,0.72h0.035c0.433-1.368,1.441-2.412,2.863-2.412
		c0.252,0,0.486,0.054,0.486,0.054v1.206c0,0-0.216-0.035-0.45-0.035c-1.278,0-2.232,1.008-2.628,2.34
		c-0.181,0.576-0.253,1.188-0.253,1.765v3.817h-1.224V47.646z"/>
</g>
<g enable-background="new    ">
	<path fill="#6D5D4B" d="M141.605,44.044h1.224v7.059h1.44l2.719-3.457h1.477l-3.15,3.943v0.036l3.457,5.077h-1.459l-3.025-4.537
		h-1.458v4.537h-1.224V44.044z"/>
</g>
<g enable-background="new    ">
	<path fill="#6D5D4B" d="M155.305,44.044h1.224v4.897c0,0.415-0.036,0.738-0.036,0.738h0.036c0.343-0.864,1.548-2.25,3.601-2.25
		c2.233,0,3.025,1.278,3.025,3.511v5.762h-1.225v-5.438c0-1.423-0.216-2.683-1.963-2.683c-1.548,0-2.881,1.062-3.295,2.574
		c-0.107,0.36-0.144,0.774-0.144,1.207v4.339h-1.224V44.044z"/>
	<path fill="#6D5D4B" d="M170.785,51.103h0.504v-0.234c0-1.746-0.953-2.341-2.25-2.341c-1.494,0-2.557,0.864-2.557,0.864
		l-0.576-0.936c0,0,1.188-1.026,3.223-1.026c2.179,0,3.385,1.206,3.385,3.475v5.798h-1.17v-0.99c0-0.45,0.035-0.756,0.035-0.756
		h-0.035c0,0-0.756,1.962-3.025,1.962c-1.512,0-3.078-0.882-3.078-2.683C165.24,51.175,169.219,51.103,170.785,51.103z
		 M168.517,55.874c1.729,0,2.772-1.801,2.772-3.367V52.11h-0.521c-1.423,0-4.268,0.055-4.268,2.053
		C166.5,55.01,167.166,55.874,168.517,55.874z"/>
</g>
<g enable-background="new    ">
	<path fill="#6D5D4B" d="M175.193,47.646h1.205v1.603c0,0.396-0.035,0.72-0.035,0.72h0.035c0.433-1.368,1.441-2.412,2.863-2.412
		c0.252,0,0.486,0.054,0.486,0.054v1.206c0,0-0.216-0.035-0.45-0.035c-1.278,0-2.232,1.008-2.628,2.34
		c-0.181,0.576-0.253,1.188-0.253,1.765v3.817h-1.224V47.646z"/>
</g>
<g enable-background="new    ">
	<path fill="#6D5D4B" d="M184.932,47.43c2.196,0,2.953,1.71,2.953,1.71h0.035c0,0-0.035-0.306-0.035-0.684v-4.412h1.225v12.658
		h-1.189v-0.954c0-0.396,0.037-0.648,0.037-0.648h-0.037c0,0-0.738,1.818-3.115,1.818c-2.43,0-3.942-1.944-3.942-4.753
		C180.862,49.302,182.555,47.43,184.932,47.43z M184.985,55.82c1.513,0,2.935-1.081,2.935-3.655c0-1.837-0.936-3.638-2.881-3.638
		c-1.602,0-2.916,1.351-2.916,3.638C182.123,54.397,183.293,55.82,184.985,55.82z"/>
</g>
<g enable-background="new    ">
	<path fill="#6D5D4B" d="M192.023,55.262h1.423v1.44h-1.423V55.262z"/>
</g>
<g enable-background="new    ">
	<path fill="#6D5D4B" d="M110.252,20.05h4.375c2.269,0,3.907,1.477,3.907,3.817c0,2.358-1.639,3.871-3.907,3.871h-3.133v4.97h-1.243
		V20.05z M114.466,26.622c1.692,0,2.791-1.026,2.791-2.755c0-1.71-1.099-2.7-2.772-2.7h-2.989v5.455H114.466z"/>
</g>
<g enable-background="new    ">
	<path fill="#6D5D4B" d="M120.331,20.05h1.225v10.245c0,1.188,0.54,1.369,1.009,1.369c0.162,0,0.306-0.019,0.306-0.019v1.099
		c0,0-0.216,0.036-0.45,0.036c-0.756,0-2.089-0.234-2.089-2.215V20.05z"/>
</g>
<g enable-background="new    ">
	<path fill="#6D5D4B" d="M129.586,27.108h0.504v-0.234c0-1.746-0.953-2.341-2.25-2.341c-1.494,0-2.557,0.864-2.557,0.864
		l-0.576-0.936c0,0,1.188-1.026,3.223-1.026c2.179,0,3.385,1.206,3.385,3.475v5.798h-1.17v-0.99c0-0.45,0.035-0.756,0.035-0.756
		h-0.035c0,0-0.756,1.962-3.025,1.962c-1.512,0-3.078-0.882-3.078-2.683C124.041,27.181,128.02,27.108,129.586,27.108z
		 M127.317,31.88c1.729,0,2.772-1.801,2.772-3.367v-0.396h-0.521c-1.423,0-4.268,0.055-4.268,2.053
		C125.301,31.016,125.967,31.88,127.317,31.88z"/>
</g>
<g enable-background="new    ">
	<path fill="#6D5D4B" d="M133.184,34.977c0,0,0.504,0.414,1.08,0.414c0.793,0,1.351-0.648,1.711-1.477l0.559-1.278l-3.781-8.984
		h1.35l2.665,6.607c0.181,0.45,0.324,0.955,0.324,0.955h0.036c0,0,0.126-0.505,0.306-0.955l2.61-6.607h1.333l-4.466,10.947
		c-0.468,1.152-1.404,1.891-2.61,1.891c-0.937,0-1.585-0.54-1.585-0.54L133.184,34.977z"/>
</g>
<g enable-background="new    ">
	<path fill="#6D5D4B" d="M147.709,20.05h1.225v4.897c0,0.415-0.035,0.738-0.035,0.738h0.035c0.342-0.864,1.549-2.25,3.602-2.25
		c2.232,0,3.024,1.278,3.024,3.511v5.762h-1.224v-5.438c0-1.423-0.217-2.683-1.963-2.683c-1.549,0-2.881,1.062-3.295,2.574
		c-0.108,0.36-0.145,0.774-0.145,1.207v4.339h-1.225V20.05z"/>
	<path fill="#6D5D4B" d="M163.19,27.108h0.505v-0.234c0-1.746-0.955-2.341-2.252-2.341c-1.494,0-2.557,0.864-2.557,0.864
		l-0.576-0.936c0,0,1.189-1.026,3.224-1.026c2.179,0,3.385,1.206,3.385,3.475v5.798h-1.171v-0.99c0-0.45,0.037-0.756,0.037-0.756
		h-0.037c0,0-0.756,1.962-3.023,1.962c-1.514,0-3.08-0.882-3.08-2.683C157.645,27.181,161.624,27.108,163.19,27.108z M160.922,31.88
		c1.729,0,2.773-1.801,2.773-3.367v-0.396h-0.523c-1.422,0-4.267,0.055-4.267,2.053C158.905,31.016,159.572,31.88,160.922,31.88z"/>
</g>
<g enable-background="new    ">
	<path fill="#6D5D4B" d="M167.6,23.651h1.205v1.603c0,0.396-0.035,0.72-0.035,0.72h0.035c0.433-1.368,1.441-2.412,2.863-2.412
		c0.252,0,0.486,0.054,0.486,0.054v1.206c0,0-0.216-0.035-0.45-0.035c-1.278,0-2.232,1.008-2.628,2.34
		c-0.181,0.576-0.253,1.188-0.253,1.765v3.817H167.6V23.651z"/>
</g>
<g enable-background="new    ">
	<path fill="#6D5D4B" d="M177.339,23.436c2.196,0,2.952,1.71,2.952,1.71h0.037c0,0-0.037-0.306-0.037-0.684V20.05h1.225v12.658
		h-1.188v-0.954c0-0.396,0.035-0.648,0.035-0.648h-0.035c0,0-0.738,1.818-3.115,1.818c-2.432,0-3.943-1.944-3.943-4.753
		C173.27,25.308,174.962,23.436,177.339,23.436z M177.393,31.826c1.513,0,2.936-1.081,2.936-3.655c0-1.837-0.938-3.638-2.881-3.638
		c-1.604,0-2.918,1.351-2.918,3.638C174.529,30.403,175.7,31.826,177.393,31.826z"/>
</g>
<g enable-background="new    ">
	<path fill="#6D5D4B" d="M184.59,31.231h1.351l-1.333,3.223h-1.043L184.59,31.231z"/>
</g>
</svg>
