<?xml version="1.0" encoding="utf-8"?>
<!-- Generator: Adobe Illustrator 16.0.0, SVG Export Plug-In . SVG Version: 6.00 Build 0)  -->
<!DOCTYPE svg PUBLIC "-//W3C//DTD SVG 1.1//EN" "http://www.w3.org/Graphics/SVG/1.1/DTD/svg11.dtd">
<svg version="1.1" id="Layer_1" xmlns="http://www.w3.org/2000/svg" xmlns:xlink="http://www.w3.org/1999/xlink" x="0px" y="0px"
	 width="800px" height="600.395px" viewBox="0 0 800 600.395" enable-background="new 0 0 800 600.395" xml:space="preserve">
<g>
	<defs>
		<rect id="SVGID_5_" x="4" y="3.197" width="790.5" height="592"/>
	</defs>
	<clipPath id="SVGID_2_">
		<use xlink:href="#SVGID_5_"  overflow="visible"/>
	</clipPath>
	<use xlink:href="#SVGID_5_"  overflow="visible" fill="none" stroke="#CAC9C8" stroke-width="0.5"/>
</g>
<g>
	<path fill="#231F20" d="M80.093,72.895h1.896v13.033h7.513v1.704h-9.409V72.895z"/>
	<path fill="#231F20" d="M96.677,87.848c-2.928,0-4.896-2.279-4.896-5.545c0-3.264,1.968-5.544,4.896-5.544
		c2.904,0,4.896,2.28,4.896,5.544C101.574,85.568,99.582,87.848,96.677,87.848z M96.677,78.344c-1.92,0-3.072,1.631-3.072,3.959
		s1.152,3.961,3.072,3.961c1.92,0,3.072-1.633,3.072-3.961S98.598,78.344,96.677,78.344z"/>
	<path fill="#231F20" d="M111.773,86.119c-0.528,0.744-1.656,1.441-2.976,1.441c-3.121,0-4.777-2.593-4.777-5.401
		c0-2.832,1.656-5.4,4.777-5.4c1.32,0,2.448,0.673,2.976,1.416v-1.2h1.824v9.817c0,3.504-2.016,5.16-4.752,5.16
		c-2.592,0-4.225-1.345-4.561-3.528h1.776c0.312,1.344,1.32,1.992,2.784,1.992c1.92,0,2.928-1.2,2.928-3.504V86.119z
		 M111.773,80.023c-0.552-1.008-1.56-1.656-2.712-1.656c-2.016,0-3.192,1.584-3.192,3.792c0,2.185,1.176,3.769,3.192,3.769
		c1.152,0,2.16-0.648,2.712-1.656V80.023z"/>
	<path fill="#231F20" d="M121.661,87.848c-2.928,0-4.896-2.279-4.896-5.545c0-3.264,1.968-5.544,4.896-5.544
		c2.904,0,4.896,2.28,4.896,5.544C126.557,85.568,124.565,87.848,121.661,87.848z M121.661,78.344c-1.92,0-3.072,1.631-3.072,3.959
		s1.152,3.961,3.072,3.961c1.92,0,3.072-1.633,3.072-3.961S123.581,78.344,121.661,78.344z"/>
</g>
<rect x="78.341" y="127.817" fill="#FAFAFC" width="87.409" height="91.403"/>
<rect x="85.286" y="141.781" fill="#EEEDF6" width="74.056" height="77.439"/>
<rect x="92.262" y="156.371" fill="#D3D3EA" width="60.103" height="62.85"/>
<rect x="98.758" y="169.956" fill="#AFB0D8" width="47.112" height="49.265"/>
<rect x="105.425" y="183.899" fill="#7D80BD" width="33.778" height="35.321"/>
<rect x="111.491" y="196.603" fill="#384DA0" width="21.11" height="22.619"/>
<rect x="111.49" y="196.599" fill="#224099" width="21.11" height="3.468"/>
<rect x="120.388" y="200.066" fill="#224099" width="3.314" height="19.154"/>
<rect x="184.121" y="127.817" fill="#224099" width="87.409" height="91.403"/>
<rect x="191.066" y="141.781" fill="#384DA0" width="74.056" height="77.439"/>
<rect x="198.042" y="156.371" fill="#7D80BD" width="60.103" height="62.85"/>
<rect x="204.538" y="169.956" fill="#AFB0D8" width="47.112" height="49.265"/>
<rect x="211.205" y="183.899" fill="#D3D3EA" width="33.778" height="35.321"/>
<rect x="217.271" y="196.603" fill="#EEEDF6" width="21.11" height="22.619"/>
<rect x="217.27" y="196.599" fill="#FAFAFC" width="21.11" height="3.468"/>
<rect x="226.169" y="200.066" fill="#FAFAFC" width="3.314" height="19.154"/>
<g>
	<defs>
		<rect id="SVGID_7_" x="69.341" y="59.437" width="841.47" height="479.521"/>
	</defs>
	<clipPath id="SVGID_4_">
		<use xlink:href="#SVGID_7_"  overflow="visible"/>
	</clipPath>
	<path clip-path="url(#SVGID_4_)" fill="#224099" d="M267.843,229.865h0.757v-3.129l1.37,2.053h0.025l1.383-2.064v3.141h0.77v-4.38
		h-0.82l-1.333,2.071l-1.333-2.071h-0.819V229.865z M264.588,229.935c1.146,0,1.884-0.657,1.884-1.965v-2.484h-0.77v2.522
		c0,0.807-0.419,1.22-1.101,1.22c-0.688,0-1.108-0.438-1.108-1.252v-2.49h-0.769v2.522
		C262.724,229.277,263.45,229.935,264.588,229.935 M258.287,229.865h3.279v-0.688h-2.51v-1.176h2.197v-0.689h-2.197v-1.139h2.479
		v-0.688h-3.248V229.865z M255.502,229.929c0.92,0,1.564-0.488,1.564-1.309v-0.012c0-0.726-0.482-1.058-1.408-1.283
		c-0.838-0.201-1.039-0.351-1.039-0.688v-0.013c0-0.287,0.263-0.52,0.714-0.52c0.4,0,0.795,0.157,1.189,0.451l0.413-0.582
		c-0.444-0.357-0.951-0.551-1.59-0.551c-0.869,0-1.495,0.52-1.495,1.271v0.012c0,0.808,0.525,1.083,1.458,1.309
		c0.813,0.188,0.989,0.356,0.989,0.67v0.012c0,0.332-0.301,0.551-0.776,0.551c-0.545,0-0.964-0.207-1.383-0.569l-0.463,0.551
		C254.2,229.696,254.832,229.929,255.502,229.929 M250.715,229.935c1.145,0,1.883-0.657,1.883-1.965v-2.484h-0.77v2.522
		c0,0.807-0.419,1.22-1.101,1.22c-0.688,0-1.108-0.438-1.108-1.252v-2.49h-0.769v2.522
		C248.85,229.277,249.576,229.935,250.715,229.935 M243.174,229.865h0.757v-3.129l1.37,2.053h0.025l1.383-2.064v3.141h0.77v-4.38
		h-0.82l-1.333,2.071l-1.333-2.071h-0.819V229.865z M236.797,229.865h3.073v-0.7h-2.303v-3.68h-0.77V229.865z M232.61,229.865h3.073
		v-0.7h-2.303v-3.68h-0.77V229.865z M228.105,229.865h3.279v-0.688h-2.51v-1.176h2.197v-0.689h-2.197v-1.139h2.479v-0.688h-3.248
		V229.865z M224.037,227.656v-1.47h1.12c0.57,0,0.908,0.256,0.908,0.726v0.013c0,0.443-0.351,0.731-0.902,0.731H224.037z
		 M223.267,229.865h0.77v-1.526h0.951h0.013l1.076,1.526h0.908l-1.183-1.657c0.613-0.176,1.045-0.607,1.045-1.327v-0.013
		c0-0.382-0.132-0.707-0.363-0.944c-0.282-0.275-0.714-0.438-1.264-0.438h-1.953V229.865z M219.2,227.656v-1.47h1.12
		c0.569,0,0.907,0.256,0.907,0.726v0.013c0,0.443-0.35,0.731-0.901,0.731H219.2z M218.43,229.865h0.77v-1.526h0.951h0.012
		l1.077,1.526h0.907l-1.183-1.657c0.614-0.176,1.045-0.607,1.045-1.327v-0.013c0-0.382-0.131-0.707-0.362-0.944
		c-0.282-0.275-0.714-0.438-1.265-0.438h-1.952V229.865z M215.176,229.935c1.145,0,1.883-0.657,1.883-1.965v-2.484h-0.769v2.522
		c0,0.807-0.42,1.22-1.102,1.22c-0.688,0-1.107-0.438-1.107-1.252v-2.49h-0.77v2.522
		C213.311,229.277,214.037,229.935,215.176,229.935 M210.088,229.865h0.776v-3.667h1.389v-0.713h-3.554v0.713h1.389V229.865z
		 M204.037,229.929c0.92,0,1.564-0.488,1.564-1.309v-0.012c0-0.726-0.482-1.058-1.408-1.283c-0.838-0.201-1.039-0.351-1.039-0.688
		v-0.013c0-0.287,0.263-0.52,0.714-0.52c0.4,0,0.794,0.157,1.189,0.451l0.413-0.582c-0.445-0.357-0.951-0.551-1.59-0.551
		c-0.87,0-1.495,0.52-1.495,1.271v0.012c0,0.808,0.525,1.083,1.458,1.309c0.813,0.188,0.988,0.356,0.988,0.67v0.012
		c0,0.332-0.3,0.551-0.776,0.551c-0.544,0-0.963-0.207-1.383-0.569l-0.463,0.551C202.735,229.696,203.367,229.929,204.037,229.929
		 M197.998,229.865h3.279v-0.688h-2.51v-1.176h2.197v-0.689h-2.197v-1.139h2.479v-0.688h-3.248V229.865z M192.253,229.865h0.757
		v-3.129l1.371,2.053h0.025l1.383-2.064v3.141h0.769v-4.38h-0.819l-1.333,2.071l-1.333-2.071h-0.82V229.865z M188.141,228.127
		l0.751-1.754l0.758,1.754H188.141z M186.621,229.865h0.788l0.451-1.057h2.071l0.445,1.057h0.813l-1.927-4.411h-0.714
		L186.621,229.865z M184.311,229.929c0.438,0,0.807-0.131,1.064-0.389c0.256-0.257,0.407-0.645,0.407-1.163v-2.892h-0.789v2.872
		c0,0.582-0.281,0.858-0.695,0.858c-0.369,0-0.625-0.188-0.882-0.515l-0.507,0.521C183.197,229.615,183.635,229.929,184.311,229.929
		"/>
	<path clip-path="url(#SVGID_4_)" fill="#224099" d="M161.487,229.865h0.757v-3.129l1.37,2.053h0.025l1.383-2.064v3.141h0.77v-4.38
		h-0.82l-1.333,2.071l-1.333-2.071h-0.819V229.865z M158.231,229.935c1.146,0,1.884-0.657,1.884-1.965v-2.484h-0.77v2.522
		c0,0.807-0.419,1.22-1.101,1.22c-0.688,0-1.108-0.438-1.108-1.252v-2.49h-0.769v2.522
		C156.368,229.277,157.094,229.935,158.231,229.935 M151.931,229.865h3.279v-0.688h-2.51v-1.176h2.197v-0.689H152.7v-1.139h2.479
		v-0.688h-3.248V229.865z M149.146,229.929c0.92,0,1.564-0.488,1.564-1.309v-0.012c0-0.726-0.481-1.058-1.408-1.283
		c-0.838-0.201-1.038-0.351-1.038-0.688v-0.013c0-0.287,0.262-0.52,0.713-0.52c0.4,0,0.795,0.157,1.189,0.451l0.413-0.582
		c-0.444-0.357-0.951-0.551-1.59-0.551c-0.869,0-1.495,0.52-1.495,1.271v0.012c0,0.808,0.525,1.083,1.458,1.309
		c0.813,0.188,0.989,0.356,0.989,0.67v0.012c0,0.332-0.301,0.551-0.776,0.551c-0.545,0-0.964-0.207-1.383-0.569l-0.463,0.551
		C147.844,229.696,148.476,229.929,149.146,229.929 M144.358,229.935c1.145,0,1.883-0.657,1.883-1.965v-2.484h-0.769v2.522
		c0,0.807-0.42,1.22-1.102,1.22c-0.688,0-1.108-0.438-1.108-1.252v-2.49h-0.769v2.522
		C142.494,229.277,143.22,229.935,144.358,229.935 M136.817,229.865h0.757v-3.129l1.37,2.053h0.025l1.383-2.064v3.141h0.77v-4.38
		h-0.82l-1.333,2.071l-1.332-2.071h-0.82V229.865z M130.44,229.865h3.073v-0.7h-2.303v-3.68h-0.77V229.865z M126.253,229.865h3.073
		v-0.7h-2.303v-3.68h-0.77V229.865z M121.749,229.865h3.279v-0.688h-2.51v-1.176h2.197v-0.689h-2.197v-1.139h2.479v-0.688h-3.248
		V229.865z M117.681,227.656v-1.47h1.12c0.57,0,0.908,0.256,0.908,0.726v0.013c0,0.443-0.351,0.731-0.902,0.731H117.681z
		 M116.911,229.865h0.77v-1.526h0.951h0.013l1.076,1.526h0.908l-1.183-1.657c0.613-0.176,1.045-0.607,1.045-1.327v-0.013
		c0-0.382-0.132-0.707-0.363-0.944c-0.282-0.275-0.713-0.438-1.264-0.438h-1.953V229.865z M112.844,227.656v-1.47h1.12
		c0.569,0,0.907,0.256,0.907,0.726v0.013c0,0.443-0.35,0.731-0.901,0.731H112.844z M112.074,229.865h0.77v-1.526h0.951h0.012
		l1.077,1.526h0.907l-1.183-1.657c0.614-0.176,1.045-0.607,1.045-1.327v-0.013c0-0.382-0.131-0.707-0.362-0.944
		c-0.282-0.275-0.714-0.438-1.265-0.438h-1.952V229.865z M108.82,229.935c1.145,0,1.883-0.657,1.883-1.965v-2.484h-0.769v2.522
		c0,0.807-0.42,1.22-1.102,1.22c-0.688,0-1.107-0.438-1.107-1.252v-2.49h-0.77v2.522
		C106.955,229.277,107.681,229.935,108.82,229.935 M103.731,229.865h0.776v-3.667h1.389v-0.713h-3.554v0.713h1.389V229.865z
		 M97.681,229.929c0.92,0,1.564-0.488,1.564-1.309v-0.012c0-0.726-0.482-1.058-1.408-1.283c-0.838-0.201-1.039-0.351-1.039-0.688
		v-0.013c0-0.287,0.263-0.52,0.714-0.52c0.4,0,0.795,0.157,1.189,0.451l0.413-0.582c-0.445-0.357-0.951-0.551-1.59-0.551
		c-0.87,0-1.495,0.52-1.495,1.271v0.012c0,0.808,0.525,1.083,1.458,1.309c0.813,0.188,0.988,0.356,0.988,0.67v0.012
		c0,0.332-0.3,0.551-0.776,0.551c-0.544,0-0.963-0.207-1.383-0.569l-0.463,0.551C96.378,229.696,97.011,229.929,97.681,229.929
		 M91.642,229.865h3.279v-0.688h-2.51v-1.176h2.197v-0.689h-2.197v-1.139h2.479v-0.688h-3.248V229.865z M85.896,229.865h0.757
		v-3.129l1.371,2.053h0.025l1.383-2.064v3.141h0.769v-4.38h-0.819l-1.333,2.071l-1.333-2.071h-0.82V229.865z M81.785,228.127
		l0.751-1.754l0.758,1.754H81.785z M80.265,229.865h0.788l0.451-1.057h2.071l0.445,1.057h0.813l-1.927-4.411h-0.714L80.265,229.865z
		 M77.955,229.929c0.438,0,0.807-0.131,1.064-0.389c0.256-0.257,0.407-0.645,0.407-1.163v-2.892h-0.789v2.872
		c0,0.582-0.281,0.858-0.695,0.858c-0.369,0-0.625-0.188-0.882-0.515l-0.507,0.521C76.841,229.615,77.279,229.929,77.955,229.929"/>
</g>
<g>
	<path fill="#231F20" d="M88.1,349.784l-4.656-11.233v11.233h-1.8v-14.737h2.136l4.993,12.097l4.968-12.097h2.064v14.737h-1.8
		v-11.233l-4.608,11.233H88.1z"/>
	<path fill="#231F20" d="M105.86,349.784v-0.792c-0.408,0.432-1.536,0.984-2.809,0.984c-2.16,0-3.96-1.297-3.96-3.408
		c0-1.992,1.8-3.337,4.081-3.337c1.104,0,2.232,0.456,2.688,0.864v-1.344c0-1.32-0.816-2.28-2.353-2.28
		c-1.128,0-1.848,0.479-2.184,1.464h-1.776c0.36-1.8,1.944-3.024,3.984-3.024c2.544,0,4.057,1.44,4.057,3.769v7.104H105.86z
		 M105.86,346.04c-0.312-0.792-1.393-1.32-2.497-1.32c-1.296,0-2.544,0.576-2.544,1.849c0,1.296,1.248,1.896,2.544,1.896
		c1.104,0,2.185-0.528,2.497-1.32V346.04z"/>
	<path fill="#231F20" d="M112.267,337.063c-0.624,0-1.152-0.528-1.152-1.152c0-0.648,0.528-1.152,1.152-1.152
		c0.648,0,1.176,0.504,1.176,1.152C113.443,336.535,112.915,337.063,112.267,337.063z M113.179,349.784h-1.8v-10.657h1.8V349.784z"
		/>
	<path fill="#231F20" d="M117.091,339.127h1.8v1.345c0.624-0.841,1.776-1.561,3.145-1.561c2.424,0,3.744,1.561,3.744,3.889v6.984
		h-1.824v-6.696c0-1.488-0.744-2.521-2.352-2.521c-1.248,0-2.328,0.84-2.712,1.992v7.225h-1.8V339.127z"/>
	<path fill="#231F20" d="M137.611,343.88v5.904h-1.896v-14.737h5.521c2.977,0,4.849,1.512,4.849,4.416
		c0,2.881-1.872,4.417-4.849,4.417H137.611z M141.188,336.703h-3.576v5.496h3.576c1.992,0,3.024-1.08,3.024-2.736
		C144.212,337.783,143.18,336.703,141.188,336.703z"/>
	<path fill="#231F20" d="M154.867,349.784v-0.792c-0.408,0.432-1.536,0.984-2.809,0.984c-2.16,0-3.96-1.297-3.96-3.408
		c0-1.992,1.8-3.337,4.081-3.337c1.104,0,2.232,0.456,2.688,0.864v-1.344c0-1.32-0.816-2.28-2.353-2.28
		c-1.128,0-1.848,0.479-2.184,1.464h-1.776c0.36-1.8,1.944-3.024,3.984-3.024c2.544,0,4.057,1.44,4.057,3.769v7.104H154.867z
		 M154.867,346.04c-0.312-0.792-1.393-1.32-2.497-1.32c-1.296,0-2.544,0.576-2.544,1.849c0,1.296,1.248,1.896,2.544,1.896
		c1.104,0,2.184-0.528,2.497-1.32V346.04z"/>
	<path fill="#231F20" d="M162.187,349.784h-1.8v-15.602h1.8V349.784z"/>
	<path fill="#231F20" d="M174.547,346.592c-0.384,2.017-1.896,3.408-4.296,3.408c-2.904,0-4.896-2.232-4.896-5.521
		c0-3.192,1.944-5.568,4.849-5.568c2.928,0,4.488,2.137,4.488,5.232v0.648h-7.537c0.024,2.28,1.296,3.672,3.096,3.672
		c1.32,0,2.304-0.672,2.592-1.872H174.547z M167.202,343.424h5.665c-0.024-1.584-0.864-2.977-2.64-2.977
		C168.619,340.447,167.466,341.552,167.202,343.424z"/>
	<path fill="#231F20" d="M178.314,340.663h-1.729v-1.536h1.729v-2.808h1.8v2.808h2.568v1.536h-2.568v6.241
		c0,1.031,0.504,1.487,1.417,1.487c0.504,0,1.032-0.191,1.392-0.432v1.681c-0.408,0.216-1.032,0.359-1.68,0.359
		c-1.728,0-2.928-0.936-2.928-2.904V340.663z"/>
	<path fill="#231F20" d="M186.642,340.663h-1.728v-1.536h1.728v-2.808h1.8v2.808h2.568v1.536h-2.568v6.241
		c0,1.031,0.504,1.487,1.417,1.487c0.504,0,1.032-0.191,1.392-0.432v1.681c-0.408,0.216-1.032,0.359-1.68,0.359
		c-1.728,0-2.928-0.936-2.928-2.904V340.663z"/>
	<path fill="#231F20" d="M202.77,346.592c-0.384,2.017-1.896,3.408-4.296,3.408c-2.904,0-4.896-2.232-4.896-5.521
		c0-3.192,1.944-5.568,4.849-5.568c2.928,0,4.488,2.137,4.488,5.232v0.648h-7.537c0.024,2.28,1.296,3.672,3.096,3.672
		c1.32,0,2.304-0.672,2.592-1.872H202.77z M195.426,343.424h5.664c-0.024-1.584-0.864-2.977-2.64-2.977
		C196.842,340.447,195.689,341.552,195.426,343.424z"/>
</g>
<rect x="79.891" y="389.517" fill="#EE4D7A" width="41.21" height="41.21"/>
<rect x="79.891" y="486.762" fill="#142D88" width="41.21" height="41.21"/>
<rect x="79.892" y="437.919" fill="#FDCA87" width="41.21" height="41.21"/>
<rect x="334.407" y="437.919" fill="#F05F7D" width="41.353" height="41.21"/>
<rect x="127.643" y="389.517" fill="#D8497C" width="41.353" height="41.21"/>
<rect x="293.054" y="437.919" fill="#F27D81" width="41.353" height="41.21"/>
<rect x="127.643" y="486.762" fill="#6D6497" width="41.353" height="41.21"/>
<rect x="168.996" y="389.517" fill="#C44880" width="41.353" height="41.21"/>
<rect x="251.701" y="437.919" fill="#F27D81" width="41.353" height="41.21"/>
<rect x="168.996" y="486.762" fill="#817196" width="41.353" height="41.21"/>
<rect x="210.348" y="389.517" fill="#B04683" width="41.353" height="41.21"/>
<rect x="210.348" y="437.919" fill="#F48982" width="41.353" height="41.21"/>
<rect x="210.348" y="486.762" fill="#998095" width="41.353" height="41.21"/>
<rect x="251.701" y="389.517" fill="#9C4686" width="41.353" height="41.21"/>
<rect x="168.995" y="437.919" fill="#F48982" width="41.353" height="41.21"/>
<rect x="251.701" y="486.762" fill="#C8A191" width="41.353" height="41.21"/>
<rect x="293.054" y="389.517" fill="#73438E" width="41.353" height="41.21"/>
<rect x="127.643" y="437.919" fill="#F7A284" width="41.353" height="41.21"/>
<rect x="293.054" y="486.762" fill="#E0B48D" width="41.353" height="41.21"/>
<rect x="334.407" y="389.517" fill="#434195" width="41.353" height="41.21"/>
<rect x="334.407" y="486.762" fill="#FDCA87" width="41.353" height="41.21"/>
<g>
	<path fill="#231F20" d="M449.273,68.299h12.168v1.681h-5.137v13.058h-1.896V69.979h-5.136V68.299z"/>
	<path fill="#231F20" d="M464.369,87.117l1.607-4.009l-4.152-10.729h1.944l3.145,8.4l3.097-8.4h1.872l-5.737,14.737H464.369z"/>
	<path fill="#231F20" d="M476.44,87.117h-1.8V72.38h1.8v1.248c0.552-0.769,1.681-1.464,3-1.464c3.145,0,4.801,2.592,4.801,5.544
		s-1.656,5.544-4.801,5.544c-1.319,0-2.448-0.695-3-1.463V87.117z M476.44,79.868c0.552,1.104,1.608,1.753,2.736,1.753
		c2.04,0,3.24-1.656,3.24-3.913c0-2.256-1.2-3.912-3.24-3.912c-1.128,0-2.185,0.647-2.736,1.752V79.868z"/>
	<path fill="#231F20" d="M491.584,83.252c-2.928,0-4.896-2.279-4.896-5.544s1.969-5.544,4.896-5.544
		c2.904,0,4.896,2.279,4.896,5.544S494.488,83.252,491.584,83.252z M491.584,73.748c-1.92,0-3.072,1.632-3.072,3.96
		s1.152,3.96,3.072,3.96s3.072-1.632,3.072-3.96S493.504,73.748,491.584,73.748z"/>
	<path fill="#231F20" d="M506.657,81.524c-0.528,0.744-1.656,1.44-2.977,1.44c-3.12,0-4.776-2.592-4.776-5.4
		c0-2.832,1.656-5.4,4.776-5.4c1.32,0,2.448,0.672,2.977,1.416v-1.2h1.824v9.817c0,3.504-2.017,5.16-4.753,5.16
		c-2.592,0-4.224-1.345-4.56-3.529h1.775c0.312,1.345,1.32,1.992,2.784,1.992c1.921,0,2.929-1.199,2.929-3.504V81.524z
		 M506.657,75.428c-0.552-1.008-1.561-1.656-2.712-1.656c-2.017,0-3.192,1.584-3.192,3.793c0,2.184,1.176,3.768,3.192,3.768
		c1.151,0,2.16-0.647,2.712-1.656V75.428z"/>
	<path fill="#231F20" d="M517.889,74.18c-0.288-0.191-0.744-0.288-1.2-0.288c-1.129,0-2.112,0.744-2.473,1.992v7.153h-1.8V72.38h1.8
		v1.392c0.456-0.912,1.464-1.607,2.641-1.607c0.456,0,0.84,0.072,1.032,0.168V74.18z"/>
	<path fill="#231F20" d="M526.552,83.037v-0.793c-0.408,0.433-1.536,0.984-2.808,0.984c-2.16,0-3.961-1.296-3.961-3.408
		c0-1.992,1.801-3.336,4.081-3.336c1.104,0,2.231,0.455,2.688,0.863v-1.344c0-1.32-0.815-2.28-2.352-2.28
		c-1.129,0-1.849,0.48-2.185,1.464h-1.776c0.36-1.8,1.944-3.023,3.984-3.023c2.544,0,4.057,1.439,4.057,3.768v7.105H526.552z
		 M526.552,79.293c-0.312-0.793-1.392-1.32-2.496-1.32c-1.296,0-2.544,0.576-2.544,1.848c0,1.296,1.248,1.896,2.544,1.896
		c1.104,0,2.185-0.528,2.496-1.32V79.293z"/>
	<path fill="#231F20" d="M533.872,87.117h-1.8V72.38h1.8v1.248c0.552-0.769,1.681-1.464,3-1.464c3.145,0,4.801,2.592,4.801,5.544
		s-1.656,5.544-4.801,5.544c-1.319,0-2.448-0.695-3-1.463V87.117z M533.872,79.868c0.552,1.104,1.608,1.753,2.736,1.753
		c2.04,0,3.24-1.656,3.24-3.913c0-2.256-1.2-3.912-3.24-3.912c-1.128,0-2.185,0.647-2.736,1.752V79.868z"/>
	<path fill="#231F20" d="M544.84,67.436h1.8v6.288c0.624-0.84,1.776-1.56,3.145-1.56c2.424,0,3.744,1.56,3.744,3.889v6.984h-1.824
		V76.34c0-1.488-0.744-2.52-2.353-2.52c-1.248,0-2.328,0.84-2.712,1.992v7.225h-1.8V67.436z"/>
	<path fill="#231F20" d="M558.521,87.117l1.607-4.009l-4.152-10.729h1.944l3.145,8.4l3.097-8.4h1.872l-5.737,14.737H558.521z"/>
</g>
<g>
	<path fill="#231F20" d="M458.489,161.17h1.985l8.557,18.911h-2.28l-2.199-4.963h-10.221l-2.227,4.963h-2.173L458.489,161.17z
		 M463.72,173.214l-4.265-9.576l-4.293,9.576H463.72z"/>
	<path fill="#231F20" d="M471.334,176.058v-0.054c0-2.978,2.414-4.533,5.929-4.533c1.771,0,3.004,0.241,4.238,0.59v-0.43
		c0-2.468-1.503-3.755-4.104-3.755c-1.637,0-2.924,0.402-4.212,0.992l-0.616-1.689c1.528-0.698,3.004-1.181,5.043-1.181
		c1.958,0,3.487,0.536,4.479,1.529c0.966,0.966,1.448,2.307,1.448,4.077v8.477h-2.038v-2.065c-0.966,1.233-2.549,2.36-4.99,2.36
		C473.909,180.376,471.334,178.9,471.334,176.058z M481.527,174.984v-1.288c-1.02-0.295-2.36-0.59-4.051-0.59
		c-2.575,0-4.05,1.127-4.05,2.79v0.054c0,1.743,1.609,2.763,3.487,2.763C479.462,178.713,481.527,177.184,481.527,174.984z"/>
	<path fill="#231F20" d="M488.257,161.304h7.994c2.146,0,3.836,0.617,4.909,1.663c0.777,0.805,1.207,1.797,1.207,3.004v0.054
		c0,2.441-1.502,3.702-2.978,4.346c2.227,0.671,4.023,1.959,4.023,4.534v0.053c0,3.22-2.709,5.124-6.813,5.124h-8.343V161.304z
		 M495.902,169.673c2.549,0,4.318-1.153,4.318-3.353v-0.054c0-1.852-1.475-3.059-4.157-3.059h-5.714v6.465H495.902z
		 M496.653,178.177c2.844,0,4.614-1.261,4.614-3.354v-0.054c0-2.038-1.717-3.219-4.989-3.219h-5.929v6.626H496.653z"/>
	<path fill="#231F20" d="M509.338,177.426v2.655h-2.065v-19.582h2.065v8.503c1.127-1.663,2.764-3.085,5.312-3.085
		c3.326,0,6.626,2.629,6.626,7.189v0.054c0,4.533-3.272,7.216-6.626,7.216C512.074,180.376,510.411,178.981,509.338,177.426z
		 M519.156,173.188v-0.054c0-3.273-2.253-5.365-4.882-5.365c-2.575,0-5.017,2.173-5.017,5.338v0.054
		c0,3.219,2.441,5.365,5.017,5.365C516.957,178.525,519.156,176.54,519.156,173.188z"/>
	<path fill="#231F20" d="M524.598,170.746v-0.054c0-5.312,3.97-9.711,9.496-9.711c3.406,0,5.445,1.207,7.323,2.978l-1.449,1.556
		c-1.582-1.502-3.353-2.575-5.901-2.575c-4.157,0-7.27,3.381-7.27,7.699v0.054c0,4.346,3.139,7.752,7.27,7.752
		c2.575,0,4.266-0.992,6.062-2.709l1.396,1.368c-1.959,1.985-4.104,3.3-7.512,3.3C528.595,180.403,524.598,176.138,524.598,170.746z
		"/>
	<path fill="#231F20" d="M543.747,173.214v-0.054c0-3.916,3.059-7.243,7.109-7.243c2.628,0,4.265,1.101,5.553,2.469l-1.368,1.448
		c-1.101-1.153-2.334-2.093-4.212-2.093c-2.816,0-4.963,2.388-4.963,5.365v0.054c0,3.005,2.2,5.392,5.097,5.392
		c1.771,0,3.139-0.885,4.238-2.065l1.314,1.234c-1.395,1.556-3.058,2.683-5.659,2.683
		C546.806,180.403,543.747,177.104,543.747,173.214z"/>
	<path fill="#231F20" d="M560.268,161.304h6.519c5.901,0,9.979,4.051,9.979,9.335v0.054c0,5.284-4.078,9.389-9.979,9.389h-6.519
		V161.304z M566.786,178.123c4.748,0,7.779-3.219,7.779-7.377v-0.054c0-4.158-3.031-7.431-7.779-7.431h-4.399v14.861H566.786z"/>
	<path fill="#231F20" d="M580.088,173.188v-0.054c0-4.534,3.3-7.217,6.626-7.217c2.575,0,4.238,1.396,5.312,2.951v-8.369h2.065
		v19.582h-2.065v-2.79c-1.127,1.663-2.763,3.085-5.312,3.085C583.388,180.376,580.088,177.747,580.088,173.188z M592.105,173.16
		v-0.054c0-3.192-2.44-5.338-5.016-5.338c-2.683,0-4.883,1.985-4.883,5.338v0.054c0,3.272,2.254,5.365,4.883,5.365
		C589.665,178.525,592.105,176.353,592.105,173.16z"/>
	<path fill="#231F20" d="M599.049,161.304h13.574v1.932h-11.455v6.411h10.247v1.931h-10.247v6.572h11.589v1.932h-13.708V161.304z"/>
	<path fill="#231F20" d="M622.545,178.605c1.904,0,3.246-0.777,4.373-1.958l1.287,1.153c-1.395,1.556-3.085,2.603-5.714,2.603
		c-3.809,0-6.921-2.924-6.921-7.243c0-4.023,2.817-7.243,6.653-7.243c4.104,0,6.465,3.273,6.465,7.351c0,0.188,0,0.402-0.027,0.725
		h-10.998C617.958,176.916,620.104,178.605,622.545,178.605z M626.596,172.329c-0.241-2.522-1.69-4.668-4.426-4.668
		c-2.388,0-4.212,1.985-4.507,4.668H626.596z"/>
	<path fill="#231F20" d="M632.654,161.304h13.493v1.958h-11.374v6.706h10.167v1.932h-10.167v8.182h-2.119V161.304z"/>
	<path fill="#231F20" d="M650.678,168.037h-1.904v-1.798h1.904v-1.207c0-1.583,0.429-2.79,1.207-3.567
		c0.697-0.698,1.717-1.073,2.978-1.073c0.966,0,1.609,0.107,2.28,0.349v1.797c-0.751-0.214-1.314-0.349-2.012-0.349
		c-1.609,0-2.414,0.966-2.414,2.951v1.127h4.398v1.771h-4.372v12.044h-2.065V168.037z"/>
	<path fill="#231F20" d="M659.26,170.746v-0.054c0-5.15,3.782-9.711,9.415-9.711c3.166,0,5.124,0.912,7.002,2.495l-1.368,1.609
		c-1.448-1.261-3.059-2.146-5.714-2.146c-4.158,0-7.136,3.515-7.136,7.699v0.054c0,4.479,2.87,7.806,7.431,7.806
		c2.146,0,4.131-0.831,5.419-1.877v-4.668h-5.714v-1.904h7.752v7.483c-1.743,1.557-4.372,2.871-7.537,2.871
		C662.908,180.403,659.26,176.111,659.26,170.746z"/>
	<path fill="#231F20" d="M680.608,182.495l0.938-1.609c1.583,1.153,3.353,1.771,5.338,1.771c3.059,0,5.043-1.69,5.043-4.936v-1.637
		c-1.207,1.609-2.896,2.924-5.445,2.924c-3.326,0-6.519-2.494-6.519-6.491v-0.054c0-4.051,3.219-6.546,6.519-6.546
		c2.603,0,4.292,1.288,5.419,2.79v-2.494h2.065v11.454c0,2.146-0.644,3.782-1.771,4.909c-1.234,1.233-3.085,1.851-5.284,1.851
		C684.604,184.427,682.459,183.783,680.608,182.495z M691.981,172.489v-0.054c0-2.843-2.468-4.694-5.097-4.694
		s-4.802,1.824-4.802,4.668v0.054c0,2.79,2.227,4.721,4.802,4.721C689.514,177.184,691.981,175.279,691.981,172.489z"/>
	<path fill="#231F20" d="M698.926,161.304h2.119v8.343h10.838v-8.343h2.119v18.777h-2.119v-8.45h-10.838v8.45h-2.119V161.304z"/>
	<path fill="#231F20" d="M718.96,160.499h2.065v8.128c0.912-1.502,2.361-2.71,4.748-2.71c3.354,0,5.312,2.254,5.312,5.554v8.61
		h-2.065v-8.102c0-2.575-1.395-4.185-3.836-4.185c-2.388,0-4.158,1.744-4.158,4.346v7.94h-2.065V160.499z"/>
</g>
<g>
	<path fill="#231F20" d="M453.688,195.553l-3.541,1.1l-0.51-1.717l4.588-1.582h1.555v18.911h-2.092V195.553z"/>
	<path fill="#231F20" d="M459.774,210.628l6.813-6.009c2.87-2.575,3.917-4.023,3.917-5.901c0-2.199-1.744-3.595-3.782-3.595
		c-2.146,0-3.541,1.127-5.043,3.22l-1.557-1.127c1.689-2.521,3.461-3.997,6.76-3.997c3.38,0,5.821,2.254,5.821,5.312v0.054
		c0,2.736-1.448,4.426-4.748,7.296l-5.017,4.453h9.952v1.932h-13.117V210.628z"/>
	<path fill="#231F20" d="M475.893,209.233l1.529-1.368c1.448,1.771,3.192,2.79,5.499,2.79c2.28,0,4.104-1.448,4.104-3.648v-0.054
		c0-2.334-2.173-3.621-5.258-3.621h-1.207l-0.429-1.261l5.928-6.68h-9.174v-1.904h11.99v1.556l-5.901,6.545
		c3.272,0.269,6.196,1.852,6.196,5.285v0.054c0,3.353-2.789,5.66-6.276,5.66C479.756,212.587,477.422,211.219,475.893,209.233z"/>
	<path fill="#231F20" d="M502.581,207.812h-9.898l-0.537-1.529l10.623-12.929h1.851v12.688h2.924v1.771h-2.924v4.453h-2.038V207.812
		z M502.581,206.041v-9.684l-7.887,9.684H502.581z"/>
	<path fill="#231F20" d="M510.41,209.609l1.395-1.529c1.637,1.583,3.434,2.575,5.339,2.575c2.682,0,4.533-1.771,4.533-4.158v-0.054
		c0-2.333-1.932-3.943-4.668-3.943c-1.582,0-2.844,0.483-3.943,1.073l-1.422-0.938l0.537-9.147h10.811v1.958h-8.96l-0.402,6.009
		c1.1-0.482,2.146-0.831,3.702-0.831c3.648,0,6.491,2.173,6.491,5.74v0.054c0,3.675-2.79,6.17-6.706,6.17
		C514.434,212.587,512.1,211.299,510.41,209.609z"/>
	<path fill="#231F20" d="M529.399,210.682c-1.502-1.502-2.36-3.434-2.36-7.27v-0.054c0-5.713,2.896-10.193,7.806-10.193
		c2.253,0,3.916,0.805,5.553,2.146l-1.234,1.636c-1.395-1.18-2.709-1.851-4.426-1.851c-3.406,0-5.525,3.434-5.499,8.289
		c1.02-1.502,2.603-2.87,5.338-2.87c3.487,0,6.492,2.253,6.492,5.767v0.054c0,3.622-2.924,6.251-6.733,6.251
		C532.27,212.587,530.579,211.862,529.399,210.682z M538.896,206.417v-0.054c0-2.307-1.878-4.023-4.587-4.023
		c-2.817,0-4.694,2.012-4.694,4.104v0.054c0,2.388,1.984,4.212,4.748,4.212C537.125,210.709,538.896,208.805,538.896,206.417z"/>
	<path fill="#231F20" d="M554.343,195.419h-10.327v-1.932h12.742v1.583l-8.531,17.194h-2.36L554.343,195.419z"/>
	<path fill="#231F20" d="M559.329,207.222v-0.054c0-2.227,1.609-3.81,3.863-4.614c-1.744-0.805-3.219-2.146-3.219-4.318v-0.054
		c0-2.897,2.978-4.963,6.411-4.963s6.411,2.065,6.411,4.963v0.054c0,2.173-1.476,3.514-3.22,4.318
		c2.227,0.832,3.863,2.361,3.863,4.587v0.054c0,3.192-3.058,5.339-7.055,5.339S559.329,210.36,559.329,207.222z M571.293,207.168
		v-0.054c0-2.093-2.173-3.567-4.908-3.567c-2.736,0-4.909,1.475-4.909,3.567v0.054c0,1.904,1.824,3.514,4.909,3.514
		S571.293,209.072,571.293,207.168z M570.677,198.369v-0.054c0-1.851-1.852-3.245-4.292-3.245c-2.441,0-4.292,1.367-4.292,3.245
		v0.054c0,2.039,1.904,3.434,4.292,3.434C568.771,201.803,570.677,200.408,570.677,198.369z"/>
	<path fill="#231F20" d="M576.843,210.279l1.234-1.636c1.528,1.341,2.95,2.012,4.613,2.012c3.38,0,5.66-3.434,5.58-8.235
		c-1.02,1.637-2.71,3.004-5.312,3.004c-3.863,0-6.545-2.44-6.545-5.82v-0.054c0-3.568,2.763-6.385,6.76-6.385
		c2.146,0,3.729,0.725,4.936,1.932c1.422,1.422,2.334,3.514,2.334,7.27v0.054c0,5.955-3.166,10.167-7.807,10.167
		C580.196,212.587,578.426,211.594,576.843,210.279z M587.868,199.362v-0.054c0-2.388-1.959-4.266-4.775-4.266
		s-4.506,2.065-4.506,4.399v0.054c0,2.388,1.877,4.104,4.613,4.104C586.07,203.601,587.868,201.508,587.868,199.362z"/>
	<path fill="#231F20" d="M593.739,202.93v-0.054c0-5.258,3.139-9.711,7.967-9.711c4.829,0,7.887,4.399,7.887,9.657v0.054
		c0,5.258-3.111,9.711-7.94,9.711C596.798,212.587,593.739,208.188,593.739,202.93z M607.394,202.93v-0.054
		c0-4.104-2.254-7.779-5.741-7.779c-3.514,0-5.714,3.595-5.714,7.726v0.054c0,4.104,2.254,7.779,5.768,7.779
		C605.221,210.655,607.394,207.034,607.394,202.93z"/>
	<path fill="#231F20" d="M620.532,214.599c1.341-0.483,1.904-1.181,1.797-2.334h-0.966v-2.816h2.468v2.414
		c0,2.173-0.938,3.219-2.978,3.675L620.532,214.599z"/>
	<path fill="#231F20" d="M627.934,209.448h2.468v2.816h-2.468V209.448z"/>
	<path fill="#231F20" d="M637.938,202.607l0.134-0.134c3.487-0.08,5.339-1.529,5.339-3.782v-0.054c0-1.932-1.503-3.487-3.917-3.487
		c-1.984,0-3.514,0.938-4.882,2.521l-1.368-1.314c1.529-1.851,3.434-3.111,6.304-3.111c3.621,0,6.009,2.253,6.009,5.311v0.054
		c0,3.354-2.521,5.017-5.579,5.446l-0.269,2.896h-1.368L637.938,202.607z M637.777,209.448h2.468v2.816h-2.468V209.448z"/>
	<path fill="#231F20" d="M649.255,209.448h2.468v2.816h-2.468V209.448z M649.282,195.017v-1.529h2.414v1.529l-0.644,11.937h-1.154
		L649.282,195.017z"/>
</g>
<g>
	<path fill="#231F20" d="M458.918,257.722h0.51l9.04,18.911h-0.644L465.142,271h-11.964l-2.683,5.633h-0.616L458.918,257.722z
		 M464.873,270.463l-5.713-11.964l-5.715,11.964H464.873z"/>
	<path fill="#231F20" d="M470.825,272.931v-0.054c0-2.816,2.629-4.265,5.981-4.265c1.878,0,3.702,0.349,5.044,0.831v-1.126
		c0-3.246-1.932-4.775-5.07-4.775c-1.663,0-3.058,0.456-4.453,1.127l-0.215-0.482c1.476-0.725,2.951-1.181,4.694-1.181
		c1.852,0,3.3,0.482,4.292,1.476c0.832,0.831,1.314,2.146,1.314,3.809v8.343h-0.562v-3.165c-0.563,1.556-2.575,3.487-6.009,3.487
		C473.213,276.955,470.825,275.587,470.825,272.931z M481.851,271.724v-1.717c-1.422-0.536-2.978-0.858-5.017-0.858
		c-3.031,0-5.419,1.234-5.419,3.702v0.054c0,2.36,2.093,3.514,4.453,3.514C479.463,276.418,481.851,274.111,481.851,271.724z"/>
	<path fill="#231F20" d="M487.427,257.855h7.698c2.173,0,3.89,0.563,4.937,1.609c0.777,0.778,1.207,1.824,1.207,3.111v0.054
		c0,2.308-1.476,3.943-3.622,4.427c2.575,0.375,4.614,2.146,4.614,4.667v0.054c0,3.085-2.468,4.855-6.706,4.855h-8.128V257.855z
		 M495.555,266.868c2.79,0,5.123-1.341,5.123-4.211v-0.054c0-2.549-2.065-4.212-5.579-4.212h-7.082v8.477H495.555z M495.555,276.097
		c3.862,0,6.116-1.583,6.116-4.292v-0.054c0-2.844-2.575-4.346-5.66-4.346h-7.994v8.691H495.555z"/>
	<path fill="#231F20" d="M507.139,272.475v4.158h-0.562v-19.582h0.562v10.327c0.778-2.548,3.085-4.479,6.197-4.479
		c3.89,0,6.706,3.111,6.706,7.001v0.054c0,3.89-2.816,7.002-6.706,7.002C510.224,276.955,507.917,275.023,507.139,272.475z
		 M519.452,269.98v-0.054c0-3.568-2.469-6.492-6.144-6.492c-3.647,0-6.196,2.978-6.196,6.465v0.054c0,3.461,2.575,6.465,6.196,6.465
		C516.983,276.418,519.452,273.575,519.452,269.98z"/>
	<path fill="#231F20" d="M523.605,267.298v-0.054c0-5.284,3.863-9.711,9.228-9.711c3.541,0,5.393,1.314,7.136,2.978l-0.402,0.402
		c-1.502-1.448-3.406-2.843-6.76-2.843c-4.989,0-8.61,4.238-8.61,9.146v0.054c0,4.963,3.675,9.147,8.61,9.147
		c3.058,0,5.338-1.448,6.841-3.058l0.429,0.402c-1.637,1.717-3.997,3.192-7.296,3.192
		C527.495,276.955,523.605,272.609,523.605,267.298z"/>
	<path fill="#231F20" d="M542.434,269.953v-0.054c0-3.809,2.978-7.001,6.867-7.001c2.468,0,4.024,1.073,5.365,2.495l-0.402,0.375
		c-1.207-1.287-2.736-2.334-4.989-2.334c-3.568,0-6.25,2.951-6.25,6.438v0.054c0,3.487,2.763,6.491,6.276,6.491
		c2.308,0,3.863-1.153,5.043-2.494l0.402,0.375c-1.261,1.476-2.95,2.656-5.472,2.656
		C545.438,276.955,542.434,273.763,542.434,269.953z"/>
	<path fill="#231F20" d="M558.714,257.855h6.035c5.901,0,9.979,4.077,9.979,9.361v0.054c0,5.285-4.078,9.362-9.979,9.362h-6.035
		V257.855z M564.776,276.097c5.525,0,9.361-3.89,9.361-8.799v-0.054c0-4.936-3.862-8.853-9.415-8.853h-5.419v17.705H564.776z"/>
	<path fill="#231F20" d="M578.291,269.953v-0.054c0-3.89,2.816-7.001,6.706-7.001c3.112,0,5.419,1.932,6.197,4.479v-10.327h0.562
		v19.582h-0.562v-4.158c-0.778,2.549-3.085,4.48-6.197,4.48C581.107,276.955,578.291,273.843,578.291,269.953z M591.221,269.953
		v-0.054c0-3.46-2.575-6.465-6.196-6.465c-3.675,0-6.144,2.844-6.144,6.438v0.054c0,3.567,2.469,6.491,6.144,6.491
		C588.673,276.418,591.221,273.44,591.221,269.953z"/>
	<path fill="#231F20" d="M597.039,257.855h13.117v0.536h-12.527v8.53h11.374v0.537h-11.374v8.638h12.661v0.536h-13.251V257.855z"/>
	<path fill="#231F20" d="M613.265,269.927v-0.054c0-3.97,2.71-6.975,6.438-6.975c4.238,0,6.169,3.729,6.169,7.082
		c0,0.054,0,0.08,0,0.107h-11.99c0.107,3.862,2.816,6.33,6.116,6.33c2.065,0,3.89-1.207,4.963-2.709l0.456,0.322
		c-1.154,1.663-3.085,2.924-5.446,2.924C616.296,276.955,613.265,274.245,613.265,269.927z M625.256,269.578
		c-0.107-3.059-2.039-6.144-5.58-6.144c-3.326,0-5.66,2.629-5.794,6.144H625.256z"/>
	<path fill="#231F20" d="M630.135,257.855h12.983v0.536h-12.394v8.719h11.239v0.536h-11.239v8.986h-0.59V257.855z"/>
	<path fill="#231F20" d="M647.406,263.73h-2.119v-0.51h2.119v-1.932c0-1.529,0.402-2.683,1.1-3.38
		c0.617-0.617,1.476-0.939,2.549-0.939c0.805,0,1.341,0.135,1.878,0.376v0.563c-0.51-0.241-1.181-0.376-1.878-0.376
		c-1.905,0-3.085,1.207-3.085,3.863v1.824h4.909v0.51h-4.909v12.902h-0.563V263.73z"/>
	<path fill="#231F20" d="M654.647,267.298v-0.054c0-5.017,3.568-9.711,9.281-9.711c2.871,0,4.641,0.858,6.519,2.414l-0.375,0.456
		c-1.744-1.421-3.487-2.333-6.17-2.333c-5.284,0-8.664,4.506-8.664,9.146v0.054c0,4.883,3.219,9.147,8.69,9.147
		c2.79,0,5.097-1.233,6.68-2.575v-6.035h-6.921v-0.591h7.511v6.841c-1.77,1.609-4.265,2.897-7.296,2.897
		C658.027,276.955,654.647,272.528,654.647,267.298z"/>
	<path fill="#231F20" d="M675.809,278.939l0.349-0.456c1.717,1.314,3.595,1.985,5.74,1.985c3.568,0,5.955-2.039,5.955-5.981v-2.736
		c-0.992,2.28-3.299,3.89-6.035,3.89c-3.648,0-6.626-2.844-6.626-6.331v-0.054c0-3.487,2.978-6.357,6.626-6.357
		c2.736,0,5.043,1.609,6.035,3.89v-3.567h0.563v11.373c0,2.013-0.617,3.595-1.717,4.694c-1.126,1.127-2.816,1.717-4.802,1.717
		C679.645,281.005,677.659,280.308,675.809,278.939z M687.906,269.337v-0.054c0-3.139-2.709-5.849-6.062-5.849
		c-3.353,0-6.035,2.603-6.035,5.795v0.054c0,3.191,2.683,5.82,6.035,5.82C685.197,275.104,687.906,272.475,687.906,269.337z"/>
	<path fill="#231F20" d="M693.697,257.855h0.59v9.04h13.412v-9.04h0.591v18.777h-0.591v-9.201h-13.412v9.201h-0.59V257.855z"/>
	<path fill="#231F20" d="M713.571,257.051h0.562v9.845c0.43-1.637,2.2-3.997,5.393-3.997c3.621,0,5.633,2.441,5.633,6.143v7.592
		h-0.563v-7.538c0-3.353-1.743-5.66-5.123-5.66c-2.978,0-5.339,2.549-5.339,5.768v7.431h-0.562V257.051z"/>
</g>
<g>
	<path fill="#231F20" d="M453.526,290.575l-3.515,1.583l-0.24-0.51l3.836-1.743h0.482v18.911h-0.563V290.575z"/>
	<path fill="#231F20" d="M458.406,308.468l8.504-8.235c2.896-2.79,3.353-4.318,3.353-5.687c0-2.28-2.038-4.238-4.962-4.238
		c-2.736,0-4.668,1.609-5.848,3.782l-0.51-0.296c1.26-2.333,3.353-4.023,6.384-4.023c3.3,0,5.526,2.146,5.526,4.722v0.054
		c0,1.609-0.483,3.111-3.595,6.115l-7.887,7.619h11.749v0.536h-12.715V308.468z"/>
	<path fill="#231F20" d="M472.809,305.785l0.482-0.376c1.368,1.852,3.567,3.192,6.277,3.192c2.978,0,5.472-1.931,5.472-4.613v-0.054
		c0-3.326-2.843-4.668-6.974-4.668h-0.645l-0.188-0.375l7.297-8.316h-10.704v-0.536h11.481v0.429l-7.242,8.263
		c4.641,0.026,7.564,1.636,7.564,5.177v0.054c0,3.031-2.79,5.178-6.09,5.178C476.617,309.139,474.283,307.743,472.809,305.785z"/>
	<path fill="#231F20" d="M499.094,303.907h-11.052l-0.161-0.349l11.294-13.653h0.482v13.466h3.085v0.536h-3.085v4.909h-0.563
		V303.907z M499.094,303.371v-12.555l-10.381,12.555H499.094z"/>
	<path fill="#231F20" d="M505.046,306.134l0.456-0.402c1.314,1.556,3.514,2.87,5.981,2.87c3.434,0,5.848-2.199,5.848-5.312v-0.053
		c0-3.005-2.521-5.017-5.74-5.017c-1.502,0-3.192,0.295-4.989,1.261l-0.349-0.188l0.563-9.255h10.006v0.536h-9.47l-0.482,8.155
		c1.502-0.725,3.085-1.047,4.774-1.047c3.567,0,6.277,2.227,6.277,5.526v0.054c0,3.434-2.656,5.875-6.465,5.875
		C508.908,309.139,506.387,307.771,505.046,306.134z"/>
	<path fill="#231F20" d="M523.525,307.233c-1.449-1.448-2.227-3.755-2.227-7.216v-0.054c0-5.874,2.709-10.247,7.377-10.247
		c1.984,0,3.755,0.778,5.258,2.173l-0.376,0.43c-1.395-1.288-3.085-2.065-4.909-2.065c-4.318,0-6.76,4.265-6.76,9.71v0.054
		c0,0.697,0.027,1.556,0.054,2.36c0.269-2.735,2.978-5.069,6.17-5.069c3.729,0,6.545,2.441,6.545,5.768v0.054
		c0,3.219-2.789,6.009-6.438,6.009C526.181,309.139,524.625,308.334,523.525,307.233z M534.067,303.156v-0.054
		c0-3.031-2.575-5.258-5.982-5.258c-3.111,0-5.74,2.414-5.74,5.204v0.054c0,2.951,2.629,5.499,5.901,5.499
		S534.067,306,534.067,303.156z"/>
	<path fill="#231F20" d="M548.361,290.575h-11.535v-0.536h12.206v0.349l-9.255,18.429h-0.644L548.361,290.575z"/>
	<path fill="#231F20" d="M551.015,304.042v-0.054c0-2.441,2.146-4.319,4.908-4.855c-2.494-0.644-4.157-2.227-4.157-4.507v-0.054
		c0-2.709,2.655-4.802,6.116-4.802c3.46,0,6.116,2.093,6.116,4.802v0.054c0,2.28-1.663,3.863-4.158,4.507
		c2.763,0.59,4.909,2.468,4.909,4.855v0.054c0,2.709-2.549,5.043-6.867,5.043C553.562,309.085,551.015,306.751,551.015,304.042z
		 M564.158,304.068v-0.054c0-2.683-2.843-4.614-6.304-4.614c-3.46,0-6.25,1.878-6.25,4.561v0.054c0,2.441,2.414,4.533,6.304,4.533
		S564.158,306.51,564.158,304.068z M563.407,294.653V294.6c0-2.441-2.468-4.292-5.553-4.292s-5.499,1.797-5.499,4.238v0.054
		c0,2.575,2.521,4.265,5.553,4.265S563.407,297.228,563.407,294.653z"/>
	<path fill="#231F20" d="M568.286,306.805l0.402-0.43c1.395,1.368,3.219,2.227,5.043,2.227c4.319,0,6.76-4.265,6.76-9.71v-0.054
		c0-0.617-0.026-1.637-0.054-2.28c-0.268,2.87-2.978,5.15-6.169,5.15c-3.729,0-6.546-2.36-6.546-5.848v-0.054
		c0-3.38,2.844-6.09,6.438-6.09c2.038,0,3.594,0.805,4.694,1.905c1.448,1.448,2.227,3.755,2.227,7.216v0.054
		c0,5.874-2.71,10.247-7.377,10.247C571.72,309.139,569.708,308.227,568.286,306.805z M580.035,295.887v-0.054
		c0-3.111-2.629-5.579-5.901-5.579c-3.219,0-5.82,2.548-5.82,5.525v0.054c0,3.192,2.574,5.338,5.981,5.338
		C577.406,301.171,580.035,298.811,580.035,295.887z"/>
	<path fill="#231F20" d="M584.807,299.454V299.4c0-5.123,2.79-9.684,7.672-9.684c4.883,0,7.672,4.533,7.672,9.684v0.054
		c0,5.124-2.789,9.685-7.672,9.685C587.597,309.139,584.807,304.604,584.807,299.454z M599.561,299.481v-0.054
		c0-4.774-2.575-9.174-7.108-9.174s-7.055,4.318-7.055,9.12v0.054c0,4.774,2.575,9.174,7.108,9.174S599.561,304.283,599.561,299.481
		z"/>
	<path fill="#231F20" d="M611.01,310.641c0.591-0.269,0.725-0.858,0.697-1.824h-0.482v-1.395h0.966v1.233
		c0,1.529-0.295,2.039-0.992,2.334L611.01,310.641z"/>
	<path fill="#231F20" d="M615.623,307.422h0.966v1.395h-0.966V307.422z"/>
	<path fill="#231F20" d="M623.803,299.696l0.081-0.081c3.326-0.241,5.82-1.904,5.82-4.721v-0.054c0-2.521-2.065-4.507-5.069-4.507
		c-2.2,0-4.104,1.288-5.204,3.139l-0.483-0.322c1.234-1.984,3.166-3.353,5.714-3.353c3.38,0,5.634,2.227,5.634,5.016v0.054
		c0,3.246-2.871,4.937-5.821,5.231l-0.188,3.809h-0.269L623.803,299.696z M623.669,307.422h0.966v1.395h-0.966V307.422z"/>
	<path fill="#231F20" d="M633.807,307.422h0.966v1.395h-0.966V307.422z M633.994,292.937v-2.897h0.591v2.897l-0.161,10.971h-0.269
		L633.994,292.937z"/>
</g>
<g>
	<path fill="#231F20" d="M449.291,137.076h1.602v6.269h3.578v1.414h-5.18V137.076z"/>
	<path fill="#231F20" d="M458.939,144.884c-2.14,0-3.629-1.677-3.629-3.966c0-2.303,1.489-3.967,3.629-3.967
		s3.641,1.664,3.641,3.967C462.58,143.207,461.079,144.884,458.939,144.884z M458.939,138.377c-1.213,0-2.002,1.039-2.002,2.541
		c0,1.501,0.789,2.54,2.002,2.54c1.227,0,2.027-1.039,2.027-2.54C460.967,139.416,460.166,138.377,458.939,138.377z"/>
	<path fill="#231F20" d="M467.764,142.006v-1.276h3.027v0.676c0,2.127-1.401,3.479-3.341,3.479c-2.14,0-3.704-1.614-3.704-3.966
		c0-2.353,1.577-3.967,3.666-3.967c1.853,0,2.966,1.063,3.254,2.603h-1.614c-0.275-0.726-0.751-1.177-1.64-1.177
		c-1.264,0-2.039,1.064-2.039,2.541c0,1.488,0.789,2.552,2.077,2.552c0.988,0,1.602-0.588,1.776-1.464H467.764z"/>
	<path fill="#231F20" d="M475.548,144.884c-2.14,0-3.628-1.677-3.628-3.966c0-2.303,1.488-3.967,3.628-3.967
		s3.642,1.664,3.642,3.967C479.189,143.207,477.688,144.884,475.548,144.884z M475.548,138.377c-1.214,0-2.002,1.039-2.002,2.541
		c0,1.501,0.788,2.54,2.002,2.54c1.227,0,2.027-1.039,2.027-2.54C477.575,139.416,476.774,138.377,475.548,138.377z"/>
	<path fill="#231F20" d="M479.88,137.076h6.557v1.401h-2.478v6.281h-1.614v-6.281h-2.465V137.076z"/>
	<path fill="#231F20" d="M492.744,137.076h1.689l-2.79,4.768v2.915h-1.59v-2.915l-2.765-4.768h1.739l1.864,3.253L492.744,137.076z"
		/>
	<path fill="#231F20" d="M497.276,142.094v2.665h-1.589v-7.683h3.128c1.627,0,2.703,0.876,2.703,2.515
		c0,1.627-1.076,2.503-2.703,2.503H497.276z M498.716,138.439h-1.439v2.29h1.439c0.825,0,1.226-0.475,1.226-1.139
		C499.941,138.903,499.541,138.439,498.716,138.439z"/>
	<path fill="#231F20" d="M508.189,137.076v1.401h-3.642v1.677h3.304v1.364h-3.304v1.826h3.642v1.414h-5.218v-7.683H508.189z"/>
	<path fill="#231F20" d="M512.571,140.918h4.942v1.126h-4.942V140.918z"/>
	<path fill="#231F20" d="M525.761,142.006v-1.276h3.028v0.676c0,2.127-1.401,3.479-3.341,3.479c-2.14,0-3.703-1.614-3.703-3.966
		c0-2.353,1.576-3.967,3.666-3.967c1.852,0,2.965,1.063,3.253,2.603h-1.614c-0.275-0.726-0.751-1.177-1.639-1.177
		c-1.264,0-2.04,1.064-2.04,2.541c0,1.488,0.788,2.552,2.077,2.552c0.988,0,1.602-0.588,1.776-1.464H525.761z"/>
	<path fill="#231F20" d="M533.546,144.884c-2.14,0-3.628-1.677-3.628-3.966c0-2.303,1.488-3.967,3.628-3.967
		s3.642,1.664,3.642,3.967C537.188,143.207,535.686,144.884,533.546,144.884z M533.546,138.377c-1.214,0-2.002,1.039-2.002,2.541
		c0,1.501,0.788,2.54,2.002,2.54c1.227,0,2.027-1.039,2.027-2.54C535.573,139.416,534.772,138.377,533.546,138.377z"/>
	<path fill="#231F20" d="M537.878,137.076h6.557v1.401h-2.478v6.281h-1.614v-6.281h-2.465V137.076z"/>
	<path fill="#231F20" d="M552.545,137.076v7.683h-1.602v-3.229h-3.479v3.229h-1.602v-7.683h1.602v3.053h3.479v-3.053H552.545z"/>
	<path fill="#231F20" d="M558.365,137.076l2.94,7.683h-1.626l-0.688-1.852h-2.878l-0.676,1.852h-1.602l2.94-7.683H558.365z
		 M556.614,141.556h1.876l-0.938-2.553L556.614,141.556z"/>
	<path fill="#231F20" d="M566.013,144.759l-1.902-5.018v5.018h-1.501v-7.683h1.901l2.053,5.418l2.039-5.418h1.877v7.683h-1.514
		v-5.018l-1.864,5.018H566.013z"/>
</g>
<g>
	<path fill="#231F20" d="M456.724,366.531c0,1.413-0.976,2.177-2.577,2.177h-3.191v-7.683h2.941c1.602,0,2.59,0.713,2.59,2.09
		c0,0.825-0.451,1.426-1.014,1.626C456.198,364.979,456.724,365.692,456.724,366.531z M453.796,364.179
		c0.763,0,1.163-0.301,1.163-0.913c0-0.613-0.4-0.889-1.163-0.889h-1.302v1.802H453.796z M452.494,367.356h1.514
		c0.752,0,1.152-0.375,1.152-0.963c0-0.601-0.4-0.964-1.152-0.964h-1.514V367.356z"/>
	<path fill="#231F20" d="M461.506,368.833c-2.14,0-3.629-1.677-3.629-3.966c0-2.303,1.489-3.967,3.629-3.967
		c2.139,0,3.641,1.664,3.641,3.967C465.146,367.156,463.645,368.833,461.506,368.833z M461.506,362.327
		c-1.214,0-2.002,1.038-2.002,2.54c0,1.501,0.788,2.54,2.002,2.54c1.227,0,2.027-1.039,2.027-2.54
		C463.533,363.365,462.732,362.327,461.506,362.327z"/>
	<path fill="#231F20" d="M466.639,361.025h2.715c2.327,0,3.791,1.502,3.791,3.842c0,2.339-1.464,3.841-3.791,3.841h-2.715V361.025z
		 M469.291,367.294c1.464,0,2.265-0.938,2.265-2.427c0-1.502-0.801-2.44-2.265-2.44h-1.064v4.867H469.291z"/>
	<path fill="#231F20" d="M478.939,361.025h1.689l-2.79,4.768v2.915h-1.59v-2.915l-2.765-4.768h1.739l1.864,3.253L478.939,361.025z"
		/>
	<path fill="#231F20" d="M484.648,364.867h4.942v1.126h-4.942V364.867z"/>
	<path fill="#231F20" d="M497.4,360.9c1.814,0,2.928,1.063,3.216,2.603h-1.589c-0.263-0.701-0.738-1.176-1.627-1.176
		c-1.227,0-1.952,1.076-1.952,2.54c0,1.451,0.726,2.54,1.952,2.54c0.889,0,1.364-0.476,1.627-1.189h1.589
		c-0.288,1.552-1.401,2.615-3.216,2.615c-2.052,0-3.578-1.614-3.578-3.966C493.822,362.515,495.349,360.9,497.4,360.9z"/>
	<path fill="#231F20" d="M505.799,361.025l2.94,7.683h-1.626l-0.688-1.852h-2.878l-0.676,1.852h-1.602l2.94-7.683H505.799z
		 M504.048,365.505h1.876l-0.938-2.553L504.048,365.505z"/>
	<path fill="#231F20" d="M510.03,361.025h1.602v6.269h3.578v1.414h-5.18V361.025z"/>
	<path fill="#231F20" d="M518.353,368.708h-1.602v-7.683h1.602V368.708z"/>
	<path fill="#231F20" d="M525.948,366.531c0,1.413-0.976,2.177-2.577,2.177h-3.19v-7.683h2.94c1.602,0,2.59,0.713,2.59,2.09
		c0,0.825-0.45,1.426-1.014,1.626C525.423,364.979,525.948,365.692,525.948,366.531z M523.021,364.179
		c0.764,0,1.164-0.301,1.164-0.913c0-0.613-0.4-0.889-1.164-0.889h-1.301v1.802H523.021z M521.72,367.356h1.514
		c0.751,0,1.151-0.375,1.151-0.963c0-0.601-0.4-0.964-1.151-0.964h-1.514V367.356z"/>
	<path fill="#231F20" d="M529.066,365.843v2.865h-1.589v-7.683h3.166c1.613,0,2.689,0.863,2.689,2.44
		c0,1.226-0.676,2.002-1.752,2.265l2.027,2.978h-1.802l-1.901-2.865H529.066z M529.066,364.529h1.477
		c0.801,0,1.214-0.426,1.214-1.063c0-0.651-0.413-1.076-1.214-1.076h-1.477V364.529z"/>
	<path fill="#231F20" d="M540.117,361.025v1.401h-3.642v1.677h3.304v1.364h-3.304v1.826h3.642v1.414h-5.218v-7.683H540.117z"/>
</g>
<g>
	<path fill="#231F20" d="M460.333,387.36l6.304,16.471h-3.486l-1.477-3.97h-6.169l-1.448,3.97h-3.434l6.303-16.471H460.333z
		 M456.578,396.964h4.023l-2.012-5.473L456.578,396.964z"/>
	<path fill="#231F20" d="M475.861,403.831v-0.644c-0.402,0.402-1.609,0.858-2.924,0.858c-2.414,0-4.453-1.396-4.453-3.89
		c0-2.28,2.039-3.836,4.641-3.836c1.047,0,2.254,0.349,2.736,0.697v-0.886c0-1.019-0.617-1.851-1.958-1.851
		c-0.939,0-1.502,0.43-1.771,1.127h-3.166c0.35-2.173,2.308-3.836,5.044-3.836c3.191,0,5.043,1.743,5.043,4.613v7.646H475.861z
		 M475.861,399.7c-0.295-0.644-1.207-1.046-2.173-1.046c-1.046,0-2.119,0.456-2.119,1.475c0,1.047,1.073,1.476,2.119,1.476
		c0.966,0,1.878-0.402,2.173-1.046V399.7z"/>
	<path fill="#231F20" d="M495.065,399.163c0,3.031-2.093,4.668-5.526,4.668h-6.84V387.36h6.304c3.434,0,5.553,1.529,5.553,4.479
		c0,1.771-0.966,3.059-2.173,3.487C493.938,395.837,495.065,397.366,495.065,399.163z M488.788,394.12
		c1.637,0,2.495-0.644,2.495-1.958s-0.858-1.904-2.495-1.904h-2.79v3.862H488.788z M485.998,400.934h3.246
		c1.609,0,2.468-0.805,2.468-2.065c0-1.287-0.858-2.065-2.468-2.065h-3.246V400.934z"/>
	<path fill="#231F20" d="M501.5,403.831h-3.353v-17.437h3.353v6.438c0.537-0.644,1.717-1.261,3.005-1.261
		c3.487,0,5.445,2.843,5.445,6.276s-1.958,6.251-5.445,6.251c-1.288,0-2.468-0.617-3.005-1.261V403.831z M501.5,399.808
		c0.376,0.831,1.261,1.395,2.254,1.395c1.797,0,2.87-1.448,2.87-3.354c0-1.931-1.073-3.38-2.87-3.38
		c-0.966,0-1.878,0.591-2.254,1.396V399.808z"/>
	<path fill="#231F20" d="M519.873,387.093c3.89,0,6.276,2.279,6.894,5.579h-3.406c-0.563-1.502-1.583-2.521-3.487-2.521
		c-2.629,0-4.185,2.307-4.185,5.445c0,3.111,1.556,5.445,4.185,5.445c1.904,0,2.924-1.02,3.487-2.548h3.406
		c-0.617,3.326-3.004,5.606-6.894,5.606c-4.399,0-7.672-3.461-7.672-8.504S515.474,387.093,519.873,387.093z"/>
	<path fill="#231F20" d="M534.838,391.572c3.004,0,4.909,1.771,5.258,4.318h-3.272c-0.188-0.912-0.912-1.476-1.985-1.476
		c-1.529,0-2.468,1.396-2.468,3.434c0,2.013,0.938,3.407,2.468,3.407c1.073,0,1.797-0.563,1.985-1.476h3.272
		c-0.349,2.575-2.254,4.319-5.258,4.319c-3.407,0-5.768-2.549-5.768-6.251C529.07,394.12,531.431,391.572,534.838,391.572z"/>
	<path fill="#231F20" d="M543.044,387.36h5.82c4.99,0,8.128,3.219,8.128,8.235s-3.138,8.235-8.128,8.235h-5.82V387.36z
		 M548.73,400.8c3.139,0,4.855-2.012,4.855-5.204c0-3.219-1.717-5.23-4.855-5.23h-2.28V400.8H548.73z"/>
	<path fill="#231F20" d="M567.827,402.839c-0.537,0.644-1.717,1.261-3.005,1.261c-3.487,0-5.445-2.817-5.445-6.251
		s1.958-6.276,5.445-6.276c1.288,0,2.468,0.617,3.005,1.261v-6.438h3.353v17.437h-3.353V402.839z M567.827,395.864
		c-0.376-0.805-1.288-1.396-2.254-1.396c-1.797,0-2.87,1.449-2.87,3.38c0,1.905,1.073,3.354,2.87,3.354
		c0.993,0,1.878-0.563,2.254-1.395V395.864z"/>
	<path fill="#231F20" d="M586.172,387.36v3.005h-7.806v3.595h7.081v2.924h-7.081v3.916h7.806v3.031h-11.186V387.36H586.172z"/>
	<path fill="#231F20" d="M599.77,399.915c-0.43,2.548-2.308,4.185-5.312,4.185c-3.487,0-5.821-2.549-5.821-6.251
		c0-3.621,2.414-6.276,5.768-6.276c3.514,0,5.445,2.44,5.445,5.955v1.02h-7.994c0.107,1.797,1.127,2.87,2.603,2.87
		c1.127,0,1.958-0.483,2.227-1.502H599.77z M591.937,396.534h4.641c-0.027-1.261-0.778-2.253-2.146-2.253
		C593.144,394.281,592.231,395.06,591.937,396.534z"/>
	<path fill="#231F20" d="M602.905,403.831V387.36h10.971v3.005h-7.564v4.185h7.002v2.978h-7.002v6.304H602.905z"/>
	<path fill="#231F20" d="M624.04,389.292c-0.349-0.241-0.777-0.322-1.18-0.322c-1.02,0-1.637,0.563-1.637,1.663v1.207h2.494v2.683
		h-2.494v9.309h-3.272v-9.309h-1.958v-2.683h1.958v-1.421c0-2.71,1.689-4.266,4.238-4.266c0.777,0,1.368,0.107,1.851,0.322V389.292z
		"/>
	<path fill="#231F20" d="M634.5,397.93v-2.736h6.491v1.448c0,4.561-3.004,7.458-7.162,7.458c-4.587,0-7.939-3.461-7.939-8.504
		s3.38-8.503,7.859-8.503c3.97,0,6.357,2.279,6.975,5.579h-3.461c-0.59-1.556-1.609-2.521-3.514-2.521
		c-2.709,0-4.372,2.28-4.372,5.445c0,3.192,1.689,5.473,4.452,5.473c2.119,0,3.434-1.261,3.81-3.139H634.5z"/>
	<path fill="#231F20" d="M651.799,402.329c-0.536,0.644-1.637,1.233-2.951,1.233c-3.46,0-5.445-2.789-5.445-6.009
		c0-3.191,1.985-5.981,5.445-5.981c1.314,0,2.415,0.59,2.951,1.207v-0.939h3.3v10.677c0,4.104-2.495,6.009-5.875,6.009
		c-3.111,0-5.23-1.583-5.58-4.265h3.22c0.268,1.126,1.072,1.689,2.36,1.689c1.689,0,2.575-0.992,2.575-2.924V402.329z
		 M651.799,395.596c-0.402-0.671-1.261-1.233-2.253-1.233c-1.771,0-2.817,1.341-2.817,3.191c0,1.878,1.047,3.22,2.817,3.22
		c0.992,0,1.851-0.563,2.253-1.261V395.596z"/>
	<path fill="#231F20" d="M673.256,387.36v16.471h-3.434v-6.921h-7.457v6.921h-3.434V387.36h3.434v6.546h7.457v-6.546H673.256z"/>
	<path fill="#231F20" d="M677.088,386.395h3.326v6.546c0.645-0.751,1.824-1.368,3.22-1.368c2.709,0,4.238,1.771,4.238,4.426v7.833
		h-3.326v-7.136c0-1.261-0.645-2.119-1.959-2.119c-1.019,0-1.904,0.617-2.173,1.663v7.592h-3.326V386.395z"/>
</g>
<g>
	<path fill="#231F20" d="M457.865,436.015h-3.354v-12.554l-3.836,1.904v-3.354l5.017-2.468h2.173V436.015z"/>
	<path fill="#231F20" d="M466.77,422.334c-1.396,0-2.119,0.992-2.2,2.28h-3.541c0.322-3.059,2.468-5.338,5.714-5.338
		c3.461,0,5.526,1.931,5.526,4.908c0,2.065-1.583,3.676-3.272,5.445l-3.166,3.407h6.626v2.978h-11.401v-2.227l5.231-5.499
		c1.448-1.583,2.575-2.736,2.575-3.97C468.861,423.165,468.057,422.334,466.77,422.334z"/>
	<path fill="#231F20" d="M479.294,426.304h0.938c1.395,0,2.468-0.697,2.468-2.065c0-1.153-0.805-2.038-2.146-2.038
		c-1.503,0-2.308,0.992-2.415,2.253h-3.326c0.322-2.924,2.468-5.177,5.768-5.177c3.354,0,5.365,1.984,5.365,4.801
		c0,1.583-0.832,3.005-2.012,3.568c1.528,0.67,2.28,2.092,2.28,3.595c0,2.87-2.12,5.043-5.634,5.043
		c-3.541,0-5.901-2.173-6.089-5.365h3.38c0.161,1.448,1.046,2.441,2.683,2.441c1.395,0,2.387-0.858,2.387-2.173
		c0-1.396-1.072-2.227-2.602-2.227h-1.046V426.304z"/>
	<path fill="#231F20" d="M491.979,429.926h3.648v-3.407h3.058v3.407h2.495v2.816h-2.495v3.272h-3.058v-3.272h-7.323v-2.468
		l5.687-10.73h3.354L491.979,429.926z"/>
	<path fill="#231F20" d="M506.918,429.067h-2.683v-9.523h9.656v2.978h-6.867v3.354c0.51-0.349,1.503-0.751,2.656-0.751
		c3.192,0,5.312,2.253,5.312,5.525c0,3.354-2.308,5.634-5.66,5.634c-3.461,0-5.741-2.119-5.982-5.365h3.326
		c0.188,1.448,1.073,2.441,2.656,2.441c1.502,0,2.44-1.127,2.44-2.71c0-1.556-0.938-2.683-2.494-2.683
		C508.231,427.967,507.454,428.45,506.918,429.067z"/>
	<path fill="#231F20" d="M525.854,423.702c-0.322-0.992-1.02-1.609-2.173-1.609c-1.958,0-3.192,2.307-3.192,4.613v0.242
		c0.537-1.02,1.852-1.744,3.461-1.744c3.326,0,5.365,2.468,5.365,5.419c0,3.111-2.146,5.66-5.821,5.66
		c-2.065,0-3.89-0.966-4.989-2.978c-0.832-1.449-1.154-3.059-1.154-5.178c0-5.123,2.361-8.852,6.305-8.852
		c3.111,0,4.936,1.663,5.525,4.426H525.854z M523.52,433.466c1.583,0,2.71-1.126,2.71-2.763c0-1.717-1.127-2.843-2.71-2.843
		c-1.636,0-2.736,1.126-2.736,2.843C520.783,432.34,521.884,433.466,523.52,433.466z"/>
	<path fill="#231F20" d="M537.01,436.015h-3.461l5.285-13.466h-7.565v-3.005h11.133v2.441L537.01,436.015z"/>
	<path fill="#231F20" d="M544.438,431.508c0-2.092,1.314-3.514,2.87-3.943c-1.368-0.59-2.361-1.904-2.361-3.647
		c0-3.005,2.522-4.641,5.419-4.641c2.87,0,5.392,1.636,5.392,4.641c0,1.743-0.992,3.058-2.36,3.647
		c1.556,0.43,2.87,1.852,2.87,3.943c0,3.005-2.629,4.775-5.901,4.775C547.066,436.283,544.438,434.513,544.438,431.508z
		 M552.968,431.24c0-1.476-1.127-2.334-2.603-2.334c-1.502,0-2.629,0.858-2.629,2.334c0,1.448,1.127,2.333,2.629,2.333
		C551.841,433.573,552.968,432.688,552.968,431.24z M552.592,424.051c0-1.341-1.02-2.119-2.227-2.119
		c-1.233,0-2.253,0.778-2.253,2.119c0,1.287,1.02,2.065,2.253,2.065C551.572,426.116,552.592,425.338,552.592,424.051z"/>
	<path fill="#231F20" d="M562.005,431.856c0.322,0.993,1.02,1.609,2.173,1.609c1.958,0,3.192-2.307,3.192-4.613v-0.241
		c-0.537,1.019-1.852,1.743-3.461,1.743c-3.326,0-5.364-2.468-5.364-5.419c0-3.111,2.146-5.659,5.82-5.659
		c2.065,0,3.89,0.965,4.989,2.978c0.832,1.448,1.154,3.058,1.154,5.177c0,5.124-2.361,8.853-6.305,8.853
		c-3.111,0-4.936-1.663-5.525-4.427H562.005z M564.339,422.093c-1.583,0-2.71,1.126-2.71,2.763c0,1.717,1.127,2.844,2.71,2.844
		c1.636,0,2.736-1.127,2.736-2.844C567.075,423.219,565.975,422.093,564.339,422.093z"/>
	<path fill="#231F20" d="M573.054,427.779c0-5.017,2.629-8.503,6.491-8.503c3.863,0,6.492,3.486,6.492,8.503
		s-2.629,8.504-6.492,8.504C575.683,436.283,573.054,432.796,573.054,427.779z M576.407,427.779c0,3.059,0.912,5.445,3.138,5.445
		c2.2,0,3.139-2.387,3.139-5.445c0-3.058-0.938-5.445-3.139-5.445C577.319,422.334,576.407,424.722,576.407,427.779z"/>
	<path fill="#231F20" d="M596.521,435.935c-0.886-0.161-1.609-0.832-1.609-1.932c0-1.181,0.912-2.039,2.092-2.039
		c1.153,0,2.093,0.805,2.093,2.28c0,0.805-0.376,1.69-0.858,2.414l-1.529,2.28h-2.146L596.521,435.935z"/>
	<path fill="#231F20" d="M603.44,431.938c1.181,0,2.093,0.912,2.093,2.119s-0.912,2.146-2.093,2.146
		c-1.18,0-2.092-0.938-2.092-2.146S602.261,431.938,603.44,431.938z"/>
	<path fill="#231F20" d="M616.047,428.799c-0.805,0.858-0.966,1.395-0.966,1.904h-3.299c0.08-1.287,0.402-1.932,1.502-3.219
		c0.938-1.073,2.012-1.904,2.012-3.165c0-1.181-0.778-1.985-2.065-1.985c-1.368,0-2.093,1.02-2.173,2.28h-3.541
		c0.322-3.059,2.468-5.338,5.794-5.338c3.354,0,5.445,1.877,5.445,4.854C618.756,426.144,617.254,427.484,616.047,428.799z
		 M613.338,432.045c1.18,0,2.119,0.885,2.119,2.092c0,1.153-0.939,2.065-2.119,2.065c-1.181,0-2.119-0.912-2.119-2.065
		C611.219,432.93,612.157,432.045,613.338,432.045z"/>
	<path fill="#231F20" d="M622.966,432.045c1.18,0,2.119,0.912,2.119,2.092c0,1.153-0.939,2.065-2.119,2.065
		c-1.181,0-2.093-0.912-2.093-2.065C620.873,432.957,621.785,432.045,622.966,432.045z M620.953,419.544h4.051l-0.805,11.159h-2.44
		L620.953,419.544z"/>
</g>
<g>
	<path fill="#231F20" d="M459.207,483.912l6.438,16.471h-2.146l-1.904-4.963h-6.787l-1.877,4.963h-2.146l6.438-16.471H459.207z
		 M455.505,493.569h5.364l-2.682-7.028L455.505,493.569z"/>
	<path fill="#231F20" d="M475.566,500.383v-0.885c-0.456,0.482-1.717,1.1-3.139,1.1c-2.414,0-4.426-1.449-4.426-3.81
		c0-2.227,2.012-3.729,4.561-3.729c1.233,0,2.494,0.51,3.004,0.966v-1.502c0-1.476-0.912-2.549-2.629-2.549
		c-1.261,0-2.065,0.536-2.44,1.637h-1.985c0.402-2.012,2.173-3.38,4.453-3.38c2.843,0,4.533,1.609,4.533,4.211v7.94H475.566z
		 M475.566,496.198c-0.349-0.886-1.556-1.476-2.79-1.476c-1.448,0-2.843,0.644-2.843,2.065c0,1.449,1.395,2.119,2.843,2.119
		c1.234,0,2.441-0.59,2.79-1.476V496.198z"/>
	<path fill="#231F20" d="M493.296,495.742c0,3.004-2.093,4.641-5.473,4.641h-5.955v-16.471h5.419c3.406,0,5.445,1.529,5.445,4.373
		c0,1.958-1.127,3.165-2.414,3.567C492.089,492.309,493.296,493.892,493.296,495.742z M487.287,491.074
		c2.199,0,3.406-0.885,3.406-2.683c0-1.797-1.207-2.628-3.406-2.628h-3.354v5.311H487.287z M483.934,498.532h3.89
		c2.227,0,3.407-1.127,3.407-2.844c0-1.744-1.181-2.844-3.407-2.844h-3.89V498.532z"/>
	<path fill="#231F20" d="M498.926,500.383h-2.039v-17.437h2.039v6.921c0.59-0.858,1.877-1.636,3.353-1.636
		c3.487,0,5.365,2.843,5.365,6.196c0,3.38-1.878,6.196-5.365,6.196c-1.476,0-2.763-0.777-3.353-1.636V500.383z M498.926,496.842
		c0.616,1.234,1.797,1.958,3.058,1.958c2.28,0,3.621-1.851,3.621-4.372s-1.341-4.372-3.621-4.372c-1.261,0-2.441,0.724-3.058,1.958
		V496.842z"/>
	<path fill="#231F20" d="M517.727,483.671c3.461,0,5.741,2.012,6.411,5.07h-2.092c-0.671-1.905-2.039-3.166-4.319-3.166
		c-3.139,0-5.258,2.656-5.258,6.572c0,3.89,2.093,6.572,5.258,6.572c2.28,0,3.648-1.261,4.319-3.192h2.092
		c-0.67,3.085-2.978,5.097-6.411,5.097c-4.157,0-7.377-3.353-7.377-8.477C510.35,487.024,513.569,483.671,517.727,483.671z"/>
	<path fill="#231F20" d="M532.29,488.231c2.683,0,4.373,1.556,4.775,3.836h-2.066c-0.268-1.288-1.287-2.065-2.709-2.065
		c-2.039,0-3.38,1.823-3.38,4.426c0,2.602,1.341,4.426,3.38,4.426c1.422,0,2.441-0.777,2.709-2.065h2.066
		c-0.402,2.28-2.093,3.836-4.775,3.836c-3.192,0-5.419-2.494-5.419-6.196S529.098,488.231,532.29,488.231z"/>
	<path fill="#231F20" d="M540.657,483.912h5.285c4.828,0,7.993,3.219,7.993,8.235s-3.165,8.235-7.993,8.235h-5.285V483.912z
		 M545.915,498.479c3.729,0,5.929-2.468,5.929-6.331c0-3.862-2.2-6.357-5.929-6.357h-3.139v12.688H545.915z"/>
	<path fill="#231F20" d="M565.494,498.988c-0.591,0.858-1.878,1.636-3.354,1.636c-3.487,0-5.365-2.816-5.365-6.196
		c0-3.354,1.878-6.196,5.365-6.196c1.476,0,2.763,0.777,3.354,1.636v-6.921h2.038v17.437h-2.038V498.988z M565.494,492.014
		c-0.617-1.234-1.798-1.958-3.059-1.958c-2.28,0-3.621,1.851-3.621,4.372s1.341,4.372,3.621,4.372c1.261,0,2.441-0.724,3.059-1.958
		V492.014z"/>
	<path fill="#231F20" d="M582.524,483.912v1.878h-8.396v5.204h7.618v1.878h-7.618v5.606h8.396v1.904h-10.488v-16.471H582.524z"/>
	<path fill="#231F20" d="M595.693,496.815c-0.43,2.253-2.119,3.809-4.802,3.809c-3.246,0-5.473-2.494-5.473-6.17
		c0-3.567,2.173-6.223,5.419-6.223c3.272,0,5.017,2.387,5.017,5.848v0.725h-8.423c0.026,2.548,1.448,4.104,3.46,4.104
		c1.476,0,2.575-0.751,2.897-2.092H595.693z M587.485,493.274h6.33c-0.026-1.771-0.966-3.326-2.95-3.326
		C589.067,489.948,587.78,491.182,587.485,493.274z"/>
	<path fill="#231F20" d="M599.499,500.383v-16.471h10.06v1.878h-7.94v5.553h7.458v1.878h-7.458v7.162H599.499z"/>
	<path fill="#231F20" d="M619.105,484.798c-0.375-0.242-0.831-0.322-1.261-0.322c-1.18,0-1.958,0.751-1.958,2.173v1.824h2.683v1.717
		h-2.683v10.193h-1.984v-10.193h-2.013v-1.717h2.013v-1.985c0-2.388,1.556-3.782,3.647-3.782c0.645,0,1.1,0.081,1.556,0.269V484.798
		z"/>
	<path fill="#231F20" d="M629.324,494.079v-1.824h5.955v1.127c0,4.399-2.79,7.242-6.813,7.242c-4.292,0-7.565-3.326-7.565-8.477
		s3.3-8.477,7.512-8.477c3.514,0,5.82,2.012,6.491,5.07h-2.119c-0.697-1.932-2.039-3.166-4.372-3.166
		c-3.192,0-5.393,2.629-5.393,6.572s2.173,6.599,5.446,6.599c2.87,0,4.56-1.797,4.801-4.667H629.324z"/>
	<path fill="#231F20" d="M646.864,498.692c-0.59,0.832-1.852,1.61-3.326,1.61c-3.487,0-5.339-2.897-5.339-6.036
		c0-3.165,1.852-6.035,5.339-6.035c1.475,0,2.736,0.751,3.326,1.582v-1.341h2.038v10.972c0,3.916-2.253,5.767-5.311,5.767
		c-2.897,0-4.722-1.502-5.097-3.943h1.984c0.349,1.503,1.476,2.227,3.112,2.227c2.146,0,3.272-1.341,3.272-3.916V498.692z
		 M646.864,491.879c-0.617-1.126-1.744-1.851-3.031-1.851c-2.254,0-3.568,1.771-3.568,4.238c0,2.441,1.314,4.212,3.568,4.212
		c1.287,0,2.414-0.725,3.031-1.852V491.879z"/>
	<path fill="#231F20" d="M667.007,483.912v16.471h-2.119v-7.511h-9.309v7.511h-2.119v-16.471h2.119v7.055h9.309v-7.055H667.007z"/>
	<path fill="#231F20" d="M671.562,482.946h2.013v7.028c0.697-0.938,1.984-1.743,3.514-1.743c2.709,0,4.185,1.743,4.185,4.346v7.806
		h-2.039v-7.484c0-1.663-0.831-2.816-2.628-2.816c-1.396,0-2.603,0.938-3.031,2.227v8.074h-2.013V482.946z"/>
</g>
<g>
	<path fill="#231F20" d="M457.033,532.567h-2.064v-13.949l-4.078,2.093v-2.146l4.883-2.494h1.26V532.567z"/>
	<path fill="#231F20" d="M466.099,517.733c-1.985,0-3.058,1.395-3.22,3.299h-2.172c0.321-3.058,2.36-5.177,5.392-5.177
		c3.138,0,5.016,1.824,5.016,4.641c0,2.093-1.663,3.729-3.325,5.606l-4.186,4.587h7.86v1.878h-10.757v-1.395l5.311-5.849
		c1.717-1.877,3.059-3.245,3.059-4.801C469.076,518.833,467.922,517.733,466.099,517.733z"/>
	<path fill="#231F20" d="M478.14,523.232h1.1c1.744,0,3.085-0.992,3.085-2.763c0-1.583-1.153-2.79-3.004-2.79
		s-3.031,1.207-3.272,2.924h-2.065c0.402-2.79,2.414-4.748,5.338-4.748c3.139,0,5.017,1.878,5.017,4.507
		c0,1.824-1.073,3.299-2.575,3.755c1.77,0.51,2.896,1.985,2.896,3.836c0,2.71-1.985,4.855-5.284,4.855
		c-3.219,0-5.445-1.958-5.714-4.936h2.065c0.295,1.904,1.556,3.111,3.621,3.111c1.959,0,3.3-1.18,3.3-3.004
		c0-1.851-1.476-2.951-3.354-2.951h-1.153V523.232z"/>
	<path fill="#231F20" d="M489.351,527.068h5.258v-3.97h1.958v3.97h2.897v1.771h-2.897v3.729h-1.958v-3.729h-7.592v-1.502
		l6.331-11.24h2.146L489.351,527.068z"/>
	<path fill="#231F20" d="M504.477,525.137h-1.663v-9.04h9.013v1.878h-7.242v4.963c0.563-0.51,1.663-1.047,3.004-1.047
		c3.031,0,5.178,2.308,5.178,5.473c0,3.111-2.227,5.445-5.338,5.445c-3.139,0-5.285-1.878-5.66-4.936h2.065
		c0.349,1.932,1.528,3.111,3.595,3.111c1.984,0,3.353-1.556,3.353-3.621s-1.368-3.648-3.38-3.648
		C506.086,523.715,505.094,524.386,504.477,525.137z"/>
	<path fill="#231F20" d="M524.539,519.933c-0.456-1.395-1.368-2.334-3.031-2.334c-2.414,0-4.157,2.764-4.157,6.305
		c0,0.16,0.026,0.562,0.026,0.724c0.536-1.663,2.227-2.816,4.158-2.816c3.191,0,5.338,2.495,5.338,5.473
		c0,3.031-2.146,5.525-5.526,5.525c-2.146,0-3.89-1.073-4.908-3.139c-0.698-1.475-0.966-3.111-0.966-5.043
		c0-5.338,2.468-8.771,6.035-8.771c2.897,0,4.479,1.556,5.124,4.077H524.539z M521.374,531.012c2.065,0,3.541-1.529,3.541-3.702
		c0-2.199-1.476-3.756-3.541-3.756c-2.093,0-3.567,1.529-3.567,3.756C517.807,529.456,519.255,531.012,521.374,531.012z"/>
	<path fill="#231F20" d="M533.791,532.567h-2.119l5.821-14.593h-8.478v-1.878h10.65v1.637L533.791,532.567z"/>
	<path fill="#231F20" d="M541.862,528.088c0-2.146,1.395-3.702,3.219-4.185c-1.529-0.537-2.629-1.905-2.629-3.702
		c0-2.655,2.227-4.346,5.017-4.346c2.816,0,5.043,1.69,5.043,4.346c0,1.797-1.127,3.165-2.629,3.702
		c1.798,0.482,3.219,2.038,3.219,4.185c0,2.843-2.44,4.721-5.633,4.721C544.304,532.809,541.862,530.931,541.862,528.088z
		 M551.063,527.927c0-1.851-1.503-3.139-3.595-3.139c-2.065,0-3.567,1.288-3.567,3.139c0,1.878,1.502,3.165,3.567,3.165
		C549.561,531.092,551.063,529.805,551.063,527.927z M550.5,520.309c0-1.637-1.314-2.736-3.031-2.736c-1.69,0-3.005,1.1-3.005,2.736
		c0,1.609,1.314,2.709,3.005,2.709C549.186,523.018,550.5,521.918,550.5,520.309z"/>
	<path fill="#231F20" d="M557.981,528.731c0.456,1.395,1.368,2.334,3.031,2.334c2.414,0,4.158-2.764,4.158-6.304
		c0-0.161-0.027-0.563-0.027-0.725c-0.536,1.663-2.227,2.816-4.157,2.816c-3.192,0-5.339-2.494-5.339-5.472
		c0-3.031,2.146-5.526,5.526-5.526c2.146,0,3.89,1.073,4.909,3.139c0.697,1.476,0.966,3.111,0.966,5.043
		c0,5.338-2.468,8.771-6.036,8.771c-2.896,0-4.479-1.556-5.123-4.077H557.981z M561.147,517.652c-2.066,0-3.541,1.529-3.541,3.702
		c0,2.199,1.475,3.756,3.541,3.756c2.092,0,3.567-1.529,3.567-3.756C564.715,519.209,563.267,517.652,561.147,517.652z"/>
	<path fill="#231F20" d="M569.971,524.332c0-5.017,2.468-8.477,6.143-8.477s6.143,3.46,6.143,8.477s-2.468,8.477-6.143,8.477
		S569.971,529.349,569.971,524.332z M572.036,524.332c0,3.836,1.395,6.572,4.077,6.572c2.655,0,4.077-2.736,4.077-6.572
		s-1.422-6.572-4.077-6.572C573.431,517.76,572.036,520.496,572.036,524.332z"/>
	<path fill="#231F20" d="M592.875,532.594c-0.671-0.106-1.181-0.562-1.181-1.341c0-0.832,0.644-1.422,1.448-1.422
		s1.422,0.563,1.422,1.556c0,0.563-0.269,1.181-0.59,1.69l-1.422,2.36h-1.368L592.875,532.594z"/>
	<path fill="#231F20" d="M598.532,529.777c0.778,0,1.422,0.644,1.422,1.476s-0.644,1.448-1.422,1.448
		c-0.805,0-1.448-0.616-1.448-1.448S597.728,529.777,598.532,529.777z"/>
	<path fill="#231F20" d="M609.824,525.19c-0.911,0.966-1.126,1.556-1.153,2.2h-1.984c0.08-1.342,0.482-2.039,1.556-3.22
		c0.938-1.072,2.28-2.092,2.28-3.675c0-1.689-1.154-2.763-2.978-2.763c-1.959,0-3.059,1.368-3.22,3.299h-2.173
		c0.322-3.058,2.388-5.177,5.393-5.177c3.138,0,5.016,1.797,5.016,4.614C612.561,522.454,611.085,523.85,609.824,525.19z
		 M607.599,529.777c0.805,0,1.448,0.644,1.448,1.476s-0.644,1.448-1.448,1.448c-0.778,0-1.422-0.616-1.422-1.448
		S606.82,529.777,607.599,529.777z"/>
	<path fill="#231F20" d="M616.716,529.777c0.805,0,1.449,0.644,1.449,1.476s-0.645,1.448-1.449,1.448
		c-0.777,0-1.422-0.616-1.422-1.448S615.938,529.777,616.716,529.777z M615.536,516.097h2.387l-0.482,11.294h-1.448L615.536,516.097
		z"/>
</g>
</svg>
