<?xml version="1.0" encoding="utf-8"?>
<!-- Generator: Adobe Illustrator 16.0.0, SVG Export Plug-In . SVG Version: 6.00 Build 0)  -->
<!DOCTYPE svg PUBLIC "-//W3C//DTD SVG 1.1//EN" "http://www.w3.org/Graphics/SVG/1.1/DTD/svg11.dtd">
<svg version="1.1" id="Layer_1" xmlns="http://www.w3.org/2000/svg" xmlns:xlink="http://www.w3.org/1999/xlink" x="0px" y="0px"
	 width="220.875px" height="138.951px" viewBox="0 0 220.875 138.951" enable-background="new 0 0 220.875 138.951"
	 xml:space="preserve">
<g>
	<g>
		<defs>
			<rect id="SVGID_1_" x="45.874" y="0.001" width="177" height="109.854"/>
		</defs>
		<clipPath id="SVGID_2_">
			<use xlink:href="#SVGID_1_"  overflow="visible"/>
		</clipPath>
		<path clip-path="url(#SVGID_2_)" fill="#BCD9D8" d="M201.746,0.231L66.03,0v0.146C65.309,0.06,64.578,0,63.833,0
			c-9.919,0-17.959,7.964-17.959,17.787v54.259c0,9.824,8.04,17.788,17.959,17.788c0.745,0,1.476-0.06,2.197-0.146v0.146
			l135.716,0.231c9.918,0,17.959-7.965,17.959-17.789V18.019C219.705,8.195,211.664,0.231,201.746,0.231"/>
	</g>
	<g>
		<defs>
			<rect id="SVGID_3_" x="45.874" y="0.001" width="177" height="109.854"/>
		</defs>
		<clipPath id="SVGID_4_">
			<use xlink:href="#SVGID_3_"  overflow="visible"/>
		</clipPath>
		<path clip-path="url(#SVGID_4_)" fill="#BCD9D8" d="M85.598,84.271c0-10.836-6.734-20.09-16.239-23.82
			c2.891-1.135,6.035-1.765,9.329-1.765c14.121,0,25.567,11.455,25.567,25.585c0,14.129-11.446,25.584-25.567,25.584
			c-3.294,0-6.438-0.631-9.329-1.766C78.864,104.358,85.598,95.104,85.598,84.271"/>
	</g>
</g>
<g enable-background="new    ">
	<path fill="#6D5D4B" d="M75.247,32.351L70.98,25.13h1.422l2.683,4.592c0.378,0.648,0.774,1.513,0.774,1.513h0.036
		c0,0,0.378-0.847,0.774-1.513l2.683-4.592h1.404l-4.249,7.221v5.438h-1.261V32.351z"/>
</g>
<g enable-background="new    ">
	<path fill="#6D5D4B" d="M85.508,28.516c2.647,0,4.79,2.017,4.79,4.699c0,2.736-2.143,4.789-4.79,4.789
		c-2.646,0-4.79-2.053-4.79-4.789C80.718,30.532,82.861,28.516,85.508,28.516z M85.508,36.906c1.945,0,3.529-1.585,3.529-3.691
		c0-2.053-1.584-3.583-3.529-3.583c-1.944,0-3.529,1.53-3.529,3.583C81.979,35.321,83.563,36.906,85.508,36.906z"/>
</g>
<g enable-background="new    ">
	<path fill="#6D5D4B" d="M92.383,28.731h1.224v5.438c0,1.423,0.216,2.683,1.962,2.683c2.071,0,3.349-1.818,3.349-3.781v-4.339h1.225
		v9.057h-1.188v-1.351c0-0.396,0.036-0.72,0.036-0.72h-0.036c-0.36,0.882-1.548,2.286-3.547,2.286c-2.125,0-3.025-1.152-3.025-3.511
		V28.731z"/>
</g>
<g enable-background="new    ">
	<path fill="#6D5D4B" d="M111.894,28.516c2.215,0,3.313,1.296,3.313,1.296l-0.63,0.918c0,0-1.008-1.098-2.646-1.098
		c-1.981,0-3.53,1.477-3.53,3.637c0,2.125,1.566,3.638,3.565,3.638c1.837,0,2.898-1.278,2.898-1.278l0.559,0.954
		c0,0-1.225,1.422-3.529,1.422c-2.682,0-4.753-1.927-4.753-4.735C107.141,30.478,109.23,28.516,111.894,28.516z"/>
</g>
<g enable-background="new    ">
	<path fill="#6D5D4B" d="M122.371,32.188h0.504v-0.234c0-1.746-0.953-2.341-2.25-2.341c-1.494,0-2.557,0.864-2.557,0.864
		l-0.576-0.936c0,0,1.188-1.026,3.223-1.026c2.179,0,3.385,1.206,3.385,3.475v5.798h-1.17v-0.99c0-0.45,0.035-0.756,0.035-0.756
		h-0.035c0,0-0.756,1.962-3.025,1.962c-1.512,0-3.078-0.882-3.078-2.683C116.826,32.261,120.804,32.188,122.371,32.188z
		 M120.102,36.96c1.729,0,2.772-1.801,2.772-3.367v-0.396h-0.521c-1.423,0-4.268,0.055-4.268,2.053
		C118.085,36.096,118.751,36.96,120.102,36.96z"/>
	<path fill="#6D5D4B" d="M126.923,28.731h1.206v1.351c0,0.396-0.036,0.72-0.036,0.72h0.036c0.324-0.828,1.477-2.286,3.619-2.286
		c2.233,0,3.024,1.278,3.024,3.511v5.762h-1.224v-5.438c0-1.423-0.216-2.683-1.963-2.683c-1.548,0-2.881,1.062-3.295,2.557
		c-0.108,0.378-0.144,0.792-0.144,1.225v4.339h-1.225V28.731z"/>
	<path fill="#6D5D4B" d="M137.597,28.731h1.206v1.351c0,0.396-0.036,0.72-0.036,0.72h0.036c0.324-0.828,1.477-2.286,3.619-2.286
		c2.233,0,3.024,1.278,3.024,3.511v5.762h-1.224v-5.438c0-1.423-0.216-2.683-1.963-2.683c-1.548,0-2.881,1.062-3.295,2.557
		c-0.108,0.378-0.144,0.792-0.144,1.225v4.339h-1.225V28.731z"/>
</g>
<g enable-background="new    ">
	<path fill="#6D5D4B" d="M152.179,28.516c2.646,0,4.789,2.017,4.789,4.699c0,2.736-2.143,4.789-4.789,4.789s-4.79-2.053-4.79-4.789
		C147.389,30.532,149.533,28.516,152.179,28.516z M152.179,36.906c1.944,0,3.529-1.585,3.529-3.691c0-2.053-1.585-3.583-3.529-3.583
		c-1.945,0-3.529,1.53-3.529,3.583C148.65,35.321,150.234,36.906,152.179,36.906z"/>
</g>
<g enable-background="new    ">
	<path fill="#6D5D4B" d="M159.503,29.866h-1.188V28.84h1.205v-2.611h1.207v2.611h2.269v1.026h-2.269v4.501
		c0,2.124,1.351,2.395,2.035,2.395c0.252,0,0.414-0.036,0.414-0.036v1.099c0,0-0.199,0.036-0.522,0.036
		c-1.044,0-3.151-0.343-3.151-3.367V29.866z"/>
</g>
<g enable-background="new    ">
	<path fill="#6D5D4B" d="M169.872,25.13h1.224v4.394c0,0.414-0.035,0.738-0.035,0.738h0.035c0,0,0.757-1.746,3.08-1.746
		c2.43,0,3.942,1.944,3.942,4.753c0,2.863-1.71,4.735-4.087,4.735c-2.16,0-2.971-1.765-2.971-1.765h-0.036
		c0,0,0.036,0.307,0.036,0.738v0.811h-1.188V25.13z M173.941,36.924c1.602,0,2.916-1.351,2.916-3.655
		c0-2.215-1.17-3.637-2.862-3.637c-1.513,0-2.935,1.08-2.935,3.655C171.06,35.105,171.996,36.924,173.941,36.924z"/>
</g>
<g enable-background="new    ">
	<path fill="#6D5D4B" d="M180.275,28.731h1.224v5.438c0,1.423,0.216,2.683,1.962,2.683c2.071,0,3.35-1.818,3.35-3.781v-4.339h1.225
		v9.057h-1.188v-1.351c0-0.396,0.036-0.72,0.036-0.72h-0.036c-0.36,0.882-1.548,2.286-3.547,2.286c-2.125,0-3.024-1.152-3.024-3.511
		V28.731z"/>
</g>
<g enable-background="new    ">
	<path fill="#6D5D4B" d="M190.012,40.057c0,0,0.504,0.414,1.08,0.414c0.792,0,1.351-0.648,1.71-1.477l0.559-1.278l-3.781-8.984
		h1.352l2.664,6.607c0.18,0.45,0.324,0.955,0.324,0.955h0.035c0,0,0.127-0.505,0.307-0.955l2.611-6.607h1.332l-4.465,10.947
		c-0.469,1.152-1.404,1.891-2.611,1.891c-0.936,0-1.584-0.54-1.584-0.54L190.012,40.057z"/>
</g>
<g enable-background="new    ">
	<path fill="#6D5D4B" d="M72.528,54.868H71.34v-1.026h1.206V51.23h1.207v2.611h2.269v1.026h-2.269v4.501
		c0,2.124,1.351,2.395,2.035,2.395c0.252,0,0.414-0.036,0.414-0.036v1.099c0,0-0.198,0.036-0.522,0.036
		c-1.044,0-3.151-0.343-3.151-3.367V54.868z"/>
	<path fill="#6D5D4B" d="M78.216,50.132h1.224v4.897c0,0.415-0.036,0.738-0.036,0.738h0.036c0.342-0.864,1.549-2.25,3.601-2.25
		c2.233,0,3.025,1.278,3.025,3.511v5.762h-1.224v-5.438c0-1.423-0.216-2.683-1.963-2.683c-1.548,0-2.881,1.062-3.295,2.574
		c-0.108,0.36-0.144,0.774-0.144,1.207v4.339h-1.224V50.132z"/>
	<path fill="#6D5D4B" d="M92.725,53.518c2.503,0,3.781,1.927,3.781,4.177c0,0.216-0.036,0.631-0.036,0.631h-6.95
		c0.054,2.322,1.639,3.583,3.511,3.583c1.656,0,2.755-1.099,2.755-1.099l0.558,0.937c0,0-1.314,1.26-3.349,1.26
		c-2.701,0-4.735-1.944-4.735-4.735C88.26,55.3,90.276,53.518,92.725,53.518z M95.264,57.316c-0.072-1.891-1.224-2.772-2.575-2.772
		c-1.512,0-2.827,0.954-3.115,2.772H95.264z"/>
</g>
<g enable-background="new    ">
	<path fill="#6D5D4B" d="M103.379,50.132h1.224v4.897c0,0.415-0.036,0.738-0.036,0.738h0.036c0.342-0.864,1.548-2.25,3.601-2.25
		c2.233,0,3.025,1.278,3.025,3.511v5.762h-1.225v-5.438c0-1.423-0.216-2.683-1.963-2.683c-1.548,0-2.881,1.062-3.295,2.574
		c-0.108,0.36-0.144,0.774-0.144,1.207v4.339h-1.224V50.132z"/>
</g>
<g enable-background="new    ">
	<path fill="#6D5D4B" d="M117.816,53.518c2.504,0,3.781,1.927,3.781,4.177c0,0.216-0.035,0.631-0.035,0.631h-6.951
		c0.055,2.322,1.639,3.583,3.512,3.583c1.656,0,2.755-1.099,2.755-1.099l0.558,0.937c0,0-1.314,1.26-3.349,1.26
		c-2.7,0-4.735-1.944-4.735-4.735C113.351,55.3,115.368,53.518,117.816,53.518z M120.355,57.316
		c-0.072-1.891-1.225-2.772-2.574-2.772c-1.513,0-2.827,0.954-3.115,2.772H120.355z"/>
</g>
<g enable-background="new    ">
	<path fill="#6D5D4B" d="M128.653,57.19h0.505v-0.234c0-1.746-0.955-2.341-2.252-2.341c-1.494,0-2.557,0.864-2.557,0.864
		l-0.576-0.936c0,0,1.189-1.026,3.224-1.026c2.179,0,3.385,1.206,3.385,3.475v5.798h-1.171V61.8c0-0.45,0.037-0.756,0.037-0.756
		h-0.037c0,0-0.756,1.962-3.023,1.962c-1.514,0-3.08-0.882-3.08-2.683C123.107,57.263,127.086,57.19,128.653,57.19z M126.384,61.962
		c1.729,0,2.773-1.801,2.773-3.367v-0.396h-0.523c-1.422,0-4.267,0.055-4.267,2.053C124.368,61.098,125.035,61.962,126.384,61.962z"
		/>
</g>
<g enable-background="new    ">
	<path fill="#6D5D4B" d="M133.043,50.132h1.225v10.245c0,1.188,0.54,1.369,1.009,1.369c0.162,0,0.306-0.019,0.306-0.019v1.099
		c0,0-0.216,0.036-0.45,0.036c-0.756,0-2.089-0.234-2.089-2.215V50.132z"/>
</g>
<g enable-background="new    ">
	<path fill="#6D5D4B" d="M137.832,54.868h-1.188v-1.026h1.205V51.23h1.207v2.611h2.269v1.026h-2.269v4.501
		c0,2.124,1.351,2.395,2.035,2.395c0.252,0,0.414-0.036,0.414-0.036v1.099c0,0-0.199,0.036-0.522,0.036
		c-1.044,0-3.151-0.343-3.151-3.367V54.868z"/>
	<path fill="#6D5D4B" d="M143.519,50.132h1.225v4.897c0,0.415-0.036,0.738-0.036,0.738h0.036c0.342-0.864,1.549-2.25,3.602-2.25
		c2.232,0,3.024,1.278,3.024,3.511v5.762h-1.224v-5.438c0-1.423-0.217-2.683-1.963-2.683c-1.549,0-2.881,1.062-3.295,2.574
		c-0.108,0.36-0.145,0.774-0.145,1.207v4.339h-1.225V50.132z"/>
</g>
<g enable-background="new    ">
	<path fill="#6D5D4B" d="M154.084,61.35h1.423v1.44h-1.423V61.35z"/>
</g>
</svg>
