<?xml version="1.0" encoding="utf-8"?>
<!-- Generator: Adobe Illustrator 16.0.0, SVG Export Plug-In . SVG Version: 6.00 Build 0)  -->
<!DOCTYPE svg PUBLIC "-//W3C//DTD SVG 1.1//EN" "http://www.w3.org/Graphics/SVG/1.1/DTD/svg11.dtd">
<svg version="1.1" id="Layer_1" xmlns="http://www.w3.org/2000/svg" xmlns:xlink="http://www.w3.org/1999/xlink" x="0px" y="0px"
	 width="220.875px" height="138.951px" viewBox="0 0 220.875 138.951" enable-background="new 0 0 220.875 138.951"
	 xml:space="preserve">
<g>
	<g>
		<defs>
			<rect id="SVGID_1_" x="0.126" y="-0.902" width="191.219" height="110.287"/>
		</defs>
		<clipPath id="SVGID_2_">
			<use xlink:href="#SVGID_1_"  overflow="visible"/>
		</clipPath>
		<path clip-path="url(#SVGID_2_)" fill="#F9B495" d="M18.568-0.675l132.559-0.228v0.144c0.742-0.085,1.492-0.144,2.256-0.144
			c10.187,0,18.443,7.826,18.443,17.48v56.08c0,9.654-8.257,17.48-18.443,17.48c-0.764,0-1.514-0.059-2.256-0.144v0.144
			L18.568,90.367c-10.185,0-18.442-7.826-18.442-17.481V16.805C0.125,7.151,8.383-0.675,18.568-0.675"/>
	</g>
	<g>
		<defs>
			<rect id="SVGID_3_" x="0.126" y="-0.902" width="191.219" height="110.287"/>
		</defs>
		<clipPath id="SVGID_4_">
			<use xlink:href="#SVGID_3_"  overflow="visible"/>
		</clipPath>
		<path clip-path="url(#SVGID_4_)" fill="#F9B495" d="M78.368,84.241c0-10.647,6.915-19.744,16.676-23.41
			c-2.969-1.114-6.198-1.733-9.58-1.733c-14.5,0-26.255,11.256-26.255,25.144c0,13.886,11.755,25.144,26.255,25.144
			c3.382,0,6.611-0.619,9.58-1.734C85.283,103.983,78.368,94.89,78.368,84.241"/>
	</g>
</g>
<g enable-background="new    ">
	<path fill="#6D5D4B" d="M25.505,21.24c0.774,0,1.135-0.018,1.621-0.071c-0.054,0.414-0.072,0.936-0.072,1.692v8.246
		c0,0.918,0.018,1.351,0.054,1.854h-1.134V31.81h-2.575v2.143h-1.207c0.072-0.576,0.108-1.134,0.108-1.944v-9.093
		c0-0.738-0.036-1.332-0.072-1.746c0.432,0.054,0.828,0.071,1.639,0.071H25.505z M23.399,30.783h2.575v-8.517h-2.575V30.783z
		 M36.183,22.356c0.864,0,1.369-0.035,1.873-0.107v1.26c-0.522-0.071-1.026-0.107-1.854-0.107h-5.762
		c-0.648,1.152-1.26,1.963-2.341,3.097c-0.234-0.27-0.504-0.468-0.882-0.702c1.404-1.332,2.196-2.503,2.898-4.268
		c0.288-0.684,0.504-1.44,0.576-1.908l1.207,0.306c-0.108,0.288-0.144,0.379-0.342,0.937c-0.216,0.612-0.36,0.99-0.594,1.494H36.183
		z M36.633,26.552c-0.612,0.36-1.584,1.152-3.259,2.611c-2.773,2.431-3.637,3.457-3.637,4.285c0,0.721,0.738,0.937,3.097,0.937
		c2.197,0,3.151-0.145,3.511-0.54c0.306-0.343,0.432-0.99,0.504-2.503c0.468,0.216,0.72,0.306,1.17,0.396
		c-0.126,1.477-0.36,2.359-0.756,2.846c-0.522,0.666-1.566,0.864-4.43,0.864c-2.034,0-3.042-0.145-3.619-0.522
		c-0.486-0.307-0.703-0.738-0.703-1.332c0-1.135,0.685-2.179,2.629-3.943c0.702-0.648,0.828-0.757,1.729-1.495
		c0.522-0.432,0.955-0.792,1.296-1.08c0.18-0.144,0.18-0.144,0.432-0.342h-3.781c-0.738,0-1.188,0.018-1.674,0.09v-1.17
		c0.504,0.071,0.9,0.09,1.692,0.09h3.763c0.738,0,1.099-0.019,1.458-0.072L36.633,26.552z"/>
	<path fill="#6D5D4B" d="M51.896,28.425c-1.296-1.513-2.25-2.413-4.195-3.961c-0.288,0.521-0.792,1.188-1.296,1.71
		c-0.81,0.828-1.638,1.387-3.331,2.251c-0.234-0.378-0.414-0.594-0.774-0.883c1.729-0.773,2.521-1.278,3.367-2.106
		c0.667-0.666,1.099-1.314,1.351-2.106h-5.167v10.587c0,1.116,0.018,1.513,0.09,1.999h-1.386c0.09-0.594,0.126-1.17,0.126-1.963
		V23.815c0-0.685-0.018-1.08-0.072-1.585c0.522,0.055,0.954,0.072,1.729,0.072h4.933c0.144-0.882,0.198-1.53,0.198-2.143
		c0-0.144,0-0.27-0.018-0.522l1.314,0.108c-0.09,0.342-0.09,0.396-0.288,1.873c-0.018,0.161-0.072,0.468-0.108,0.684h4.969
		c0.792,0,1.225-0.018,1.657-0.072c-0.054,0.469-0.072,0.919-0.072,1.639v10.443c0,1.116-0.324,1.332-2.035,1.332
		c-0.504,0-1.224-0.036-1.836-0.107c-0.018-0.45-0.072-0.702-0.234-1.152c0.954,0.162,1.603,0.216,2.376,0.216
		c0.468,0,0.558-0.072,0.558-0.486V23.329h-5.618c-0.018,0.054-0.018,0.054-0.036,0.108c0,0.036,0,0.054-0.018,0.09
		c2.196,1.603,3.115,2.395,4.645,4.033L51.896,28.425z M48.439,29.307c2.467,1.639,3.025,2.053,4.231,3.188l-0.846,0.864
		c-1.369-1.351-2.305-2.106-4.448-3.583c-0.864,1.477-2.125,2.574-4.195,3.601c-0.252-0.396-0.45-0.612-0.829-0.918
		c2.143-0.9,3.439-1.98,4.268-3.511c0.45-0.847,0.702-1.675,0.756-2.467l1.188,0.233c-0.468,1.513-0.576,1.801-0.738,2.179
		L48.439,29.307z"/>
	<path fill="#6D5D4B" d="M58.084,32.35c0.072-0.594,0.108-1.062,0.108-2.106v-7.328c0-0.882-0.018-1.458-0.072-2.017
		c0.342,0.036,0.63,0.054,1.422,0.054h1.026c0.738,0,0.972-0.018,1.368-0.054c-0.054,0.54-0.054,0.828-0.054,1.98v7.095
		c0,1.062,0,1.314,0.054,1.908h-1.062v-1.08h-1.675v1.548H58.084z M59.201,29.793h1.675v-7.851h-1.675V29.793z M67.231,20.646
		c-0.072,0.216-0.108,0.324-0.198,0.63c-0.486,1.765-0.864,2.863-1.495,4.376c0.504,0.828,0.702,1.26,0.937,1.998
		c0.234,0.792,0.36,1.656,0.36,2.485c0,1.512-0.414,1.998-1.692,1.998c-0.162,0-0.27,0-0.504-0.018
		c-0.036-0.469-0.108-0.757-0.27-1.135c0.324,0.054,0.522,0.072,0.738,0.072c0.541,0,0.703-0.234,0.703-1.062
		c0-1.549-0.396-2.791-1.333-4.231c0.792-1.908,1.134-2.935,1.566-4.735h-2.035V33.88c0,0.955,0.018,1.423,0.072,1.837h-1.188
		c0.054-0.432,0.09-1.044,0.09-1.854V21.601c0-0.54-0.036-1.278-0.054-1.639c0.36,0.036,0.576,0.055,1.278,0.055h1.314
		c0.63,0,0.828-0.019,1.026-0.055L67.231,20.646z M73.137,34.061c0,1.062-0.414,1.351-1.945,1.351c-0.36,0-0.702-0.019-1.278-0.055
		c-0.036-0.485-0.09-0.72-0.252-1.206c0.648,0.145,1.116,0.198,1.621,0.198c0.63,0,0.81-0.108,0.81-0.504V21.276h-3.025
		c-0.684,0-1.225,0.019-1.621,0.072V20.16c0.342,0.054,0.828,0.09,1.621,0.09h3.277c0.774,0,1.225-0.018,1.621-0.09v1.188
		c-0.306-0.036-0.486-0.054-0.828-0.072V34.061z M69.716,23.491c0.811,0,0.991,0,1.351-0.054c-0.054,0.414-0.054,0.792-0.054,1.44
		v4.735c0,0.558,0,0.918,0.054,1.296c-0.324-0.036-0.612-0.054-1.278-0.054h-1.26v1.53h-1.044c0.054-0.342,0.072-0.756,0.072-1.296
		v-6.212c0-0.631-0.018-0.973-0.054-1.44c0.324,0.054,0.558,0.054,1.35,0.054H69.716z M68.528,29.883h1.512v-5.438h-1.512V29.883z"
		/>
	<path fill="#6D5D4B" d="M78.659,34.438c0,1.332-0.234,1.782-1.134,2.305l-0.486-0.594c0.721-0.324,0.882-0.631,0.864-1.711h-1.044
		v-1.782h1.8V34.438z"/>
	<path fill="#6D5D4B" d="M101.611,24.229h5.527c0.829,0,1.207-0.018,1.603-0.09v1.134c-0.468-0.09-0.828-0.107-1.603-0.107h-5.527
		v1.603h5.474c0.918,0,1.206-0.019,1.729-0.108v1.171c-0.504-0.091-0.882-0.108-1.729-0.108h-5.474v0.216
		c0.018,0.685,0.036,0.918,0.09,1.332h-1.332c0.072-0.54,0.09-0.936,0.09-1.71v-4.861h-1.98c-1.062,1.134-1.981,1.872-3.817,3.024
		c-0.234-0.359-0.522-0.72-0.81-0.954c1.909-0.937,3.493-2.251,4.645-3.817c0.415-0.558,0.703-1.062,0.847-1.477l1.224,0.469
		c-0.198,0.216-0.252,0.306-0.432,0.576c-0.306,0.468-0.558,0.828-0.846,1.188h8.336c0.846,0,1.278-0.019,1.836-0.108v1.188
		c-0.576-0.072-1.026-0.09-1.818-0.09h-6.032V24.229z M93.94,34.223c1.134-1.459,1.584-2.358,2.143-4.231l0.99,0.468
		c-0.648,2.053-1.098,2.972-2.178,4.466L93.94,34.223z M99.54,33.646c0,0.738,0.144,0.774,2.791,0.774
		c1.873,0,2.485-0.108,2.683-0.505c0.162-0.306,0.252-1.008,0.27-1.891c0.396,0.234,0.667,0.343,1.135,0.433
		c-0.162,1.656-0.378,2.305-0.811,2.574c-0.45,0.289-1.692,0.415-3.979,0.415c-2.737,0-3.223-0.234-3.223-1.585V31.54
		c0-0.685-0.018-1.045-0.108-1.657h1.35c-0.09,0.469-0.108,0.829-0.108,1.657V33.646z M103.015,32.746
		c-0.594-1.116-1.116-1.782-2.106-2.683l0.846-0.559c1.026,0.937,1.495,1.477,2.214,2.611L103.015,32.746z M108.921,34.727
		c-0.954-1.927-1.495-2.736-2.863-4.304l0.882-0.54c1.35,1.531,1.944,2.359,2.989,4.159L108.921,34.727z"/>
	<path fill="#6D5D4B" d="M120.583,20.25c-0.181,0.271-0.252,0.378-0.541,0.883c-1.115,1.891-2.268,3.295-3.853,4.681
		c-1.243,1.099-1.747,1.459-3.835,2.81c-0.252-0.469-0.433-0.685-0.828-1.045c3.043-1.71,5.167-3.547,6.644-5.689
		c0.612-0.864,0.954-1.53,1.116-2.16L120.583,20.25z M122.131,25.454c-0.306,0.378-0.306,0.378-1.242,1.818
		c-0.648,1.008-1.98,2.755-3.097,4.033c-1.207,1.387-1.801,2.017-2.503,2.646c3.89-0.18,7.616-0.521,9.776-0.918
		c-1.584-2.467-2.143-3.241-2.988-4.249l0.973-0.576c0.521,0.594,1.998,2.646,2.646,3.655c0.702,1.098,1.225,1.944,1.944,3.276
		l-1.099,0.702c-0.504-1.098-0.611-1.314-0.882-1.818c-0.757,0.145-0.972,0.162-1.854,0.271c-3.277,0.396-4.988,0.558-7.184,0.702
		c-2.053,0.126-2.72,0.197-3.439,0.324l-0.324-1.351c0.559,0,0.811-0.055,1.08-0.217c1.44-1.313,2.936-2.988,4.447-5.023
		c1.207-1.638,1.854-2.683,2.413-3.907L122.131,25.454z"/>
</g>
<g enable-background="new    ">
	<path fill="#6D5D4B" d="M128.824,27.759c0.559-1.513,0.793-2.755,0.865-4.664l0.972,0.253c-0.162,2.232-0.378,3.366-0.918,4.861
		L128.824,27.759z M131.273,36.023c0.09-0.595,0.126-1.297,0.126-2.053V21.438c0-0.684-0.036-1.206-0.126-1.818h1.387
		c-0.09,0.612-0.127,1.116-0.127,1.818v12.604c0,0.757,0.037,1.369,0.127,1.981H131.273z M133.938,26.3
		c-0.253-1.188-0.522-1.944-1.044-3.043l0.81-0.396c0.54,1.116,0.847,1.944,1.134,2.988L133.938,26.3z M136.566,23.581
		c-0.791,0-1.277,0.019-1.764,0.09v-1.242c0.486,0.072,1.008,0.09,1.782,0.09h1.62v-1.134c0-0.702-0.035-1.206-0.125-1.729h1.367
		c-0.09,0.558-0.125,0.99-0.125,1.729v1.134h2.791c0.756,0,1.206-0.018,1.566-0.071c-0.055,0.378-0.072,0.864-0.072,1.566v3.583
		h0.342c0.576,0,1.062-0.036,1.53-0.108v1.261c-0.504-0.072-1.116-0.108-1.818-0.108h-4.052c1.117,2.755,3.134,4.825,5.853,6.05
		c-0.324,0.378-0.522,0.702-0.738,1.171c-2.772-1.477-4.915-3.871-5.888-6.572c-0.738,2.971-2.305,5.041-4.988,6.626
		c-0.233-0.433-0.414-0.648-0.81-0.99c1.242-0.685,2.053-1.314,2.899-2.269c0.936-1.081,1.512-2.287,1.908-4.016h-2.197
		c-0.738,0-1.404,0.036-1.908,0.108v-1.261c0.45,0.072,1.098,0.108,1.891,0.108h2.395c0.126-1.009,0.18-2.232,0.18-3.619v-0.396
		H136.566z M139.322,23.869c0,1.314-0.072,2.665-0.181,3.728h3.349v-4.016h-3.168V23.869z"/>
</g>
<g enable-background="new    ">
	<path fill="#6D5D4B" d="M35.354,60.131c-0.198,0.162-0.198,0.162-0.648,0.63c-1.351,1.477-1.981,2.017-3.673,3.062
		c2.593,1.17,3.889,1.53,6.842,1.908c-0.216,0.216-0.468,0.648-0.721,1.242c-3.205-0.63-4.735-1.152-7.184-2.539
		c-2.358,1.279-4.249,1.927-7.4,2.539c-0.216-0.486-0.306-0.612-0.685-1.044c2.809-0.414,4.448-0.919,6.86-2.089
		c-0.9-0.63-1.314-0.973-1.765-1.44c-0.558-0.594-0.99-1.17-1.404-1.891h-0.811c-0.648,0-1.242,0.019-1.692,0.072v-1.152
		c0.522,0.072,0.918,0.09,1.854,0.09h8.661c0.576,0,0.648,0,1.008-0.072L35.354,60.131z M26.19,54.783
		c-0.937,1.729-1.603,2.467-3.313,3.763c-0.288-0.342-0.468-0.485-0.918-0.773c1.729-1.135,2.431-1.873,3.223-3.457L26.19,54.783z
		 M35.553,52.532c0.9,0,1.422-0.036,2.017-0.107v1.188c-0.648-0.055-1.296-0.091-1.999-0.091h-3.529v3.476
		c0,0.738,0.036,1.206,0.108,1.729h-1.35c0.072-0.576,0.108-1.009,0.108-1.729v-3.476h-2.269v3.493c0,0.666,0.036,1.135,0.126,1.729
		h-1.351c0.072-0.558,0.108-0.99,0.108-1.692v-3.529h-3.547c-1.008,0-1.422,0.019-1.944,0.091v-1.188
		c0.558,0.071,1.08,0.107,1.98,0.107h5.293c-0.45-0.792-0.576-0.99-1.008-1.566l0.99-0.521c0.324,0.432,0.414,0.576,0.756,1.17
		c0.018,0.036,0.198,0.342,0.558,0.918H35.553z M26.928,60.509c0.756,1.188,1.35,1.747,3.007,2.772
		c1.746-1.062,2.484-1.638,3.529-2.772H26.928z M36.471,58.492c-1.26-1.692-1.782-2.251-3.205-3.493l0.846-0.63
		c1.494,1.296,2.125,1.944,3.349,3.367L36.471,58.492z"/>
</g>
<g enable-background="new    ">
	<path fill="#6D5D4B" d="M49.808,54.235c0.036,0.864,0.162,2.143,0.324,3.187c0.216,1.297,0.432,2.161,0.864,3.295
		c1.026-1.44,2.017-3.637,2.214-4.951l1.225,0.486c-0.036,0.072-0.27,0.612-0.702,1.584c-0.846,1.999-1.243,2.701-2.233,4.016
		c0.522,1.044,0.918,1.584,1.548,2.16c0.486,0.433,0.829,0.648,1.044,0.648c0.288,0,0.594-0.918,0.811-2.593
		c0.378,0.378,0.648,0.595,0.972,0.792c-0.234,1.188-0.378,1.675-0.648,2.197c-0.288,0.576-0.648,0.864-1.116,0.864
		s-1.188-0.414-1.891-1.116c-0.54-0.522-1.008-1.171-1.494-2.017c-1.549,1.62-2.917,2.61-4.988,3.583
		c-0.288-0.433-0.468-0.612-0.882-0.919c2.251-0.9,3.871-2.017,5.348-3.727c-0.828-1.927-1.35-4.394-1.53-7.49h-6.338
		c0,1.422,0,1.566-0.036,2.935h3.439c0.648,0,0.955-0.018,1.351-0.072c-0.054,0.379-0.054,0.379-0.126,2.017
		c-0.108,2.035-0.288,3.35-0.541,3.871c-0.27,0.559-0.666,0.721-1.692,0.721c-0.594,0-1.098-0.036-1.873-0.162
		c-0.036-0.468-0.072-0.738-0.216-1.17c0.99,0.216,1.494,0.288,2.07,0.288c0.63,0,0.774-0.126,0.9-0.811
		c0.144-0.721,0.234-2.143,0.252-3.673h-3.601c-0.144,2.736-0.234,3.564-0.576,4.969c-0.306,1.278-0.63,2.053-1.368,3.151
		c-0.324-0.378-0.576-0.595-0.954-0.811c0.666-0.937,1.008-1.692,1.26-2.7c0.396-1.657,0.594-4.069,0.594-7.707
		c0-0.99-0.018-1.386-0.108-1.962c0.63,0.071,1.278,0.09,2.197,0.09h5.312c0-0.162-0.018-0.433-0.036-0.774
		c-0.054-1.53-0.072-1.765-0.145-2.143h1.387c-0.072,0.36-0.09,0.774-0.09,1.44c0,0.271,0.018,1.099,0.036,1.477h3.925
		c1.008,0,1.477-0.019,1.927-0.108v1.225c-0.559-0.072-1.062-0.09-2.017-0.09H49.808z M53.445,52.921
		c-1.008-0.937-1.387-1.206-2.593-1.908l0.774-0.631c1.188,0.685,1.405,0.828,2.575,1.783L53.445,52.921z"/>
	<path fill="#6D5D4B" d="M61.038,52.723c-0.972,0.234-1.404,0.324-2.701,0.576c-0.072-0.36-0.216-0.648-0.504-1.026
		c2.161-0.288,3.907-0.72,5.492-1.351c0.486-0.18,0.828-0.359,1.081-0.54l0.774,0.954c-0.126,0.036-0.162,0.055-0.414,0.162
		c-0.918,0.36-1.818,0.685-2.629,0.919v2.755h1.369c0.756,0,1.152-0.019,1.566-0.091v1.188c-0.45-0.071-0.864-0.09-1.566-0.09
		h-1.369v0.576c1.675,1.639,2.089,2.106,2.971,3.349l-0.9,0.811c-0.648-1.17-1.333-2.16-2.071-3.061v6.5
		c0,1.098,0.018,1.674,0.108,2.196h-1.333c0.072-0.54,0.108-1.08,0.108-2.196v-3.745c0-0.667,0.036-2.017,0.09-2.972
		c-0.396,1.314-0.774,2.197-1.44,3.331c-0.486,0.829-0.882,1.369-1.639,2.215c-0.252-0.414-0.468-0.684-0.756-0.972
		c1.639-1.621,2.791-3.583,3.547-6.032h-1.333c-0.702,0-1.17,0.036-1.71,0.108v-1.225c0.504,0.072,0.954,0.108,1.71,0.108h1.548
		V52.723z M66.998,65.975h-1.225c0.054-0.522,0.09-1.116,0.09-2.089V53.875c0-0.828-0.036-1.368-0.09-1.908
		c0.54,0.071,0.918,0.09,1.692,0.09h3.889c0.774,0,1.225-0.019,1.71-0.09c-0.072,0.504-0.09,1.044-0.09,1.908v9.885
		c0,0.937,0.036,1.692,0.108,2.215h-1.26v-1.278h-4.825V65.975z M66.998,63.634h4.825V53.137h-4.825V63.634z"/>
	<path fill="#6D5D4B" d="M89.031,55.604c0.72,0,1.17-0.018,1.71-0.072c-0.054,0.469-0.072,0.828-0.072,1.459v7.977
		c0,0.594-0.216,1.008-0.666,1.206c-0.306,0.144-0.612,0.198-1.333,0.198c-0.54,0-1.17-0.019-1.944-0.072
		c-0.072-0.468-0.144-0.738-0.342-1.152c0.882,0.126,1.548,0.18,2.305,0.18c0.684,0,0.846-0.09,0.846-0.504v-8.175H77.885v7.923
		c0,0.882,0.018,1.423,0.09,1.98h-1.332c0.072-0.576,0.108-1.152,0.108-1.98v-7.454c0-0.631-0.018-1.099-0.072-1.585
		c0.522,0.055,0.973,0.072,1.71,0.072h4.592v-3.781c0-0.648-0.036-1.152-0.108-1.639h1.351c-0.072,0.45-0.108,0.937-0.108,1.639
		v3.781H89.031z M78.083,50.814c1.17,1.332,1.71,2.034,2.593,3.493l-0.973,0.647c-0.864-1.566-1.368-2.269-2.557-3.583
		L78.083,50.814z M87.05,62.067c0,0.648,0.018,0.973,0.072,1.585c-0.486-0.055-0.99-0.072-1.639-0.072H81.63
		c-0.378,0-1.26,0.036-1.458,0.072c0.036-0.522,0.054-0.793,0.054-1.423v-2.196c0-0.757-0.018-1.225-0.072-1.603
		c0.522,0.054,0.937,0.072,1.692,0.072h3.619c0.756,0,1.152-0.019,1.657-0.072c-0.054,0.504-0.072,0.918-0.072,1.53V62.067z
		 M81.306,62.59h4.664v-3.115h-4.664V62.59z M89.985,51.336c-1.152,1.945-1.692,2.665-2.791,3.8l-0.936-0.631
		c1.188-1.098,1.854-2.034,2.665-3.745L89.985,51.336z"/>
	<path fill="#6D5D4B" d="M96.983,52.381c-0.828,0-1.458,0.036-2.196,0.126v-1.333c0.684,0.091,1.332,0.126,2.196,0.126h9.399
		c0.9,0,1.387-0.018,1.729-0.071l0.702,0.828c-0.684,0.702-1.026,1.044-1.477,1.44c-1.494,1.332-2.772,2.196-4.843,3.277v8.138
		c0,0.612-0.18,1.009-0.558,1.207c-0.252,0.126-0.72,0.18-1.639,0.18c-0.648,0-1.224-0.036-2.431-0.162
		c-0.036-0.504-0.108-0.756-0.252-1.261c1.116,0.198,1.962,0.288,2.881,0.288c0.576,0,0.738-0.09,0.738-0.396v-7.311
		c0-0.756-0.018-1.242-0.09-1.782h1.062c1.747-0.9,3.025-1.801,4.609-3.295H96.983z"/>
</g>
<g enable-background="new    ">
	<path fill="#6D5D4B" d="M114.48,61.905c0.035-0.414,0.054-0.792,0.054-1.062c0-0.054-0.019-0.378-0.019-0.864l-0.162-6.409
		c-0.018-0.757-0.035-1.297-0.107-1.98h1.783c-0.055,0.684-0.091,1.224-0.109,1.98l-0.144,6.409l-0.019,0.829
		c0,0.323,0.019,0.666,0.055,1.098H114.48z M114.282,65.272V63.58h1.747v1.692H114.282z"/>
</g>
</svg>
