<?xml version="1.0" encoding="utf-8"?>
<!-- Generator: Adobe Illustrator 16.0.0, SVG Export Plug-In . SVG Version: 6.00 Build 0)  -->
<!DOCTYPE svg PUBLIC "-//W3C//DTD SVG 1.1//EN" "http://www.w3.org/Graphics/SVG/1.1/DTD/svg11.dtd">
<svg version="1.1" id="Layer_1" xmlns="http://www.w3.org/2000/svg" xmlns:xlink="http://www.w3.org/1999/xlink" x="0px" y="0px"
	 width="220.875px" height="138.951px" viewBox="0 0 220.875 138.951" enable-background="new 0 0 220.875 138.951"
	 xml:space="preserve">
<g>
	<g>
		<defs>
			<rect id="SVGID_1_" x="0.982" y="-0.951" width="151.15" height="74.783"/>
		</defs>
		<clipPath id="SVGID_2_">
			<use xlink:href="#SVGID_1_"  overflow="visible"/>
		</clipPath>
		<path clip-path="url(#SVGID_2_)" fill="#BCD9D8" d="M18.419-0.951l113.87,0.771v0.145c0.7-0.086,1.41-0.145,2.133-0.145
			c9.631,0,17.438,7.92,17.438,17.688l0.273,18.725c0,9.77-7.807,17.689-17.438,17.689c-0.724,0-1.433-0.059-2.133-0.145v0.145
			l-113.87,0.23c-9.63,0-17.437-7.92-17.437-17.689L0.982,16.74C0.982,6.969,8.789-0.951,18.419-0.951"/>
	</g>
	<g>
		<defs>
			<rect id="SVGID_3_" x="0.982" y="-0.951" width="151.15" height="74.783"/>
		</defs>
		<clipPath id="SVGID_4_">
			<use xlink:href="#SVGID_3_"  overflow="visible"/>
		</clipPath>
		<path clip-path="url(#SVGID_4_)" fill="#BCD9D8" d="M111.5,48.389c0-10.777,6.539-19.98,15.768-23.691
			c-2.807-1.127-5.859-1.754-9.057-1.754c-13.711,0-24.826,11.391-24.826,25.445c0,14.051,11.114,25.443,24.826,25.443
			c3.197,0,6.25-0.627,9.057-1.754C118.039,68.367,111.5,59.162,111.5,48.389"/>
	</g>
</g>
<g enable-background="new    ">
	<path fill="#6D5D4B" d="M37.928,26.537c1.26-1.152,1.999-1.98,2.395-2.664l0.972,0.899c-0.216,0.181-0.342,0.307-0.792,0.793
		c-0.756,0.828-1.836,1.836-2.575,2.412v4.609c0,0.595-0.162,0.919-0.558,1.117c-0.306,0.144-0.612,0.18-1.477,0.18
		c-0.594,0-1.26-0.019-2.305-0.072c-0.036-0.432-0.09-0.72-0.288-1.188c1.134,0.145,1.783,0.181,2.701,0.181
		c0.648,0,0.828-0.072,0.828-0.396v-3.565c-2.953,2.143-7.022,4.142-10.587,5.186c-0.18-0.414-0.432-0.756-0.738-1.044
		c1.927-0.504,3.835-1.206,5.798-2.125c1.512-0.702,2.701-1.386,4.141-2.358h-8.048c-0.846,0-1.296,0.019-1.854,0.09v-1.206
		c0.558,0.072,1.098,0.108,1.854,0.108h0.81v-6.338c0-0.612-0.018-1.045-0.054-1.585c0.414,0.054,0.792,0.072,1.512,0.072h1.71
		c0.342-0.469,0.684-1.152,0.937-1.873l1.242,0.252c-0.432,0.774-0.684,1.171-0.99,1.621h3.871c0.756,0,1.116-0.019,1.566-0.072
		c-0.054,0.486-0.072,0.937-0.072,1.639V26.537z M36.829,22.324v-1.729h-7.508v1.729H36.829z M29.321,23.242v1.621h7.508v-1.621
		H29.321z M36.829,25.781h-7.508v1.711h7.49l0.018-0.019V25.781z"/>
	<path fill="#6D5D4B" d="M45.052,26.394c0-0.811,0-1.314,0.054-2.197c-0.594,1.062-1.008,1.657-1.854,2.629
		c-0.27-0.485-0.324-0.576-0.72-1.026c1.603-1.746,2.701-3.475,3.493-5.491c0.378-0.973,0.541-1.53,0.685-2.358l1.26,0.378
		c-0.162,0.378-0.252,0.594-0.486,1.242c-0.486,1.332-0.702,1.837-1.296,3.025v9.614c0,0.883,0.018,1.495,0.09,2.106h-1.333
		c0.072-0.647,0.108-1.224,0.108-2.16V26.394z M52.471,25.907c0-0.828,0-1.44,0.036-2.215c-0.756,1.765-1.279,2.719-2.161,3.89
		c-0.918,1.26-1.764,2.16-3.042,3.223c-0.252-0.414-0.378-0.54-0.864-0.954c1.548-1.116,2.484-2.089,3.745-3.817
		c0.882-1.225,1.152-1.692,1.818-3.15h-2.827c-0.667,0-1.225,0.035-1.783,0.107v-1.26c0.468,0.071,1.062,0.107,1.8,0.107h3.277
		v-1.98c0-0.54-0.054-1.242-0.126-1.765h1.35c-0.09,0.414-0.144,1.099-0.144,1.765v1.98h3.835c0.774,0,1.332-0.036,1.854-0.107v1.26
		c-0.522-0.072-1.134-0.107-1.836-0.107h-3.403c1.062,1.98,1.53,2.736,2.539,3.961c0.99,1.225,1.89,2.053,3.259,3.024
		c-0.342,0.271-0.576,0.559-0.882,1.009c-0.954-0.757-1.71-1.53-2.557-2.539c-1.243-1.477-1.963-2.629-2.863-4.682
		c0.036,0.937,0.054,1.531,0.054,2.251v3.781h1.639c0.648,0,1.044-0.018,1.458-0.09v1.188c-0.432-0.072-0.811-0.091-1.458-0.091
		h-1.639v1.765c0,0.685,0.036,1.207,0.108,1.854h-1.314c0.072-0.611,0.126-1.206,0.126-1.854v-1.765h-1.513
		c-0.648,0-1.044,0.019-1.458,0.091v-1.188c0.396,0.072,0.811,0.09,1.477,0.09h1.495V25.907z"/>
	<path fill="#6D5D4B" d="M69.822,32.569c0.99,0.162,1.945,0.216,3.295,0.216c1.17,0,2.089-0.036,3.979-0.18
		c-0.216,0.468-0.306,0.72-0.396,1.242c-1.386,0.072-2.034,0.09-2.953,0.09c-2.917,0-4.934-0.288-6.266-0.9
		c-0.954-0.432-1.854-1.152-2.719-2.16c-0.72,1.386-1.494,2.341-2.827,3.421c-0.288-0.342-0.594-0.612-0.954-0.828
		c2.035-1.387,3.313-3.403,3.691-5.798l1.26,0.306c-0.432,1.297-0.486,1.423-0.684,1.891c0.972,1.314,2.089,2.125,3.421,2.467V26.88
		h-5.671c-0.63,0-1.207,0.036-1.837,0.107v-1.224c0.504,0.071,1.044,0.107,1.837,0.107h12.153c0.792,0,1.333-0.036,1.836-0.107
		v1.224c-0.648-0.071-1.188-0.107-1.836-0.107h-5.33v2.053h3.871c0.937,0,1.261-0.019,1.693-0.091v1.152
		c-0.468-0.071-0.955-0.09-1.693-0.09h-3.871V32.569z M65.411,24.611c-0.811,0-1.387,0.018-1.98,0.071
		c0.054-0.468,0.072-0.864,0.072-1.494v-2.989c0-0.647-0.018-1.044-0.072-1.494c0.612,0.054,1.17,0.072,2.034,0.072h7.292
		c0.846,0,1.404-0.019,2.017-0.072c-0.054,0.468-0.072,0.847-0.072,1.494v2.989c0,0.63,0.018,1.008,0.072,1.494
		c-0.576-0.054-1.152-0.071-1.962-0.071H65.411z M64.601,21.208h9.003v-1.459h-9.003V21.208z M64.601,23.656h9.003v-1.512h-9.003
		V23.656z"/>
	<path fill="#6D5D4B" d="M81.754,20.397c-0.594,0.847-1.098,1.423-2.052,2.269c-0.252-0.342-0.504-0.594-0.792-0.792
		c1.422-1.08,2.359-2.341,3.007-4.016l1.152,0.36c-0.252,0.45-0.252,0.45-0.702,1.207h2.773c0.846,0,1.351-0.036,1.782-0.108v1.152
		c-0.45-0.054-0.954-0.072-1.638-0.072h-1.225c0.415,0.595,0.648,0.99,0.955,1.603l-0.99,0.396c-0.36-0.847-0.648-1.423-1.026-1.999
		H81.754z M86.544,29.706c-0.684,0.774-1.782,1.693-2.737,2.305c-1.404,0.9-2.214,1.278-4.195,1.999
		c-0.216-0.433-0.378-0.648-0.702-1.026c1.927-0.54,2.935-0.973,4.285-1.801c1.026-0.63,1.909-1.314,2.485-1.962h-4.123
		c-0.738,0-0.738,0-1.566,0.071c0.252-0.486,0.27-0.558,0.63-1.765c0.162-0.558,0.18-0.684,0.432-2.143
		c0.45,0.072,0.667,0.091,1.675,0.091h3.799v-1.837h-4.375c-0.685,0-1.207,0.018-1.747,0.09v-1.134
		c0.396,0.071,0.864,0.09,1.747,0.09h9.597c0.846,0,1.224-0.019,1.674-0.072c-0.054,0.324-0.072,0.612-0.072,1.135v1.476
		c0,0.559,0.018,0.883,0.072,1.243c-0.468-0.036-0.936-0.055-1.674-0.055h-4.123v1.854H92.9c0.702,0,1.098-0.018,1.477-0.071
		c-0.054,0.252-0.054,0.342-0.09,0.72c-0.36,3.943-0.486,4.178-2.305,4.178c-0.684,0-1.206-0.019-1.999-0.091
		c-0.09-0.485-0.144-0.738-0.288-1.134c0.792,0.144,1.584,0.216,2.197,0.216c0.594,0,0.792-0.09,0.918-0.414
		c0.144-0.36,0.252-1.116,0.342-2.448h-5.527v3.187c0,0.811,0.054,1.44,0.144,1.98h-1.333c0.072-0.45,0.108-0.811,0.108-1.152
		v-0.828V29.706z M86.526,26.411h-4.465c-0.234,0.864-0.306,1.116-0.54,1.873h5.005V26.411z M93.206,19.426
		c0.846,0,1.351-0.036,1.909-0.108v1.17c-0.576-0.071-1.117-0.09-1.891-0.09h-1.981c0.288,0.396,0.703,1.009,1.009,1.566
		l-1.009,0.414c-0.396-0.846-0.594-1.17-1.134-1.98h-1.566c-0.558,0.847-0.9,1.278-1.584,1.98c-0.288-0.306-0.468-0.45-0.846-0.666
		c1.296-1.188,1.945-2.196,2.485-3.854l1.098,0.324c-0.216,0.486-0.288,0.631-0.612,1.243H93.206z M87.606,25.476h4.646v-1.837
		h-4.646V25.476z"/>
	<path fill="#6D5D4B" d="M112.988,26.682c-0.647-0.09-1.26-0.126-2.376-0.126H99.521c-0.99,0-1.818,0.036-2.395,0.126v-1.494
		c0.576,0.09,1.35,0.126,2.395,0.126h11.091c1.062,0,1.837-0.036,2.376-0.126V26.682z"/>
</g>
<g enable-background="new    ">
	<path fill="#6D5D4B" d="M115.576,29.948c0.037-0.558,0.037-0.666,0.037-1.278v-0.648l-0.162-6.392
		c-0.019-0.756-0.037-1.296-0.108-1.98h1.782c-0.054,0.685-0.09,1.225-0.107,1.98l-0.145,6.392
		c-0.018,0.757-0.018,0.757-0.018,0.828c0,0.324,0.018,0.648,0.054,1.099H115.576z M115.378,33.333v-1.692h1.746v1.692H115.378z"/>
</g>
</svg>
