<?xml version="1.0" encoding="utf-8"?>
<!-- Generator: Adobe Illustrator 16.0.0, SVG Export Plug-In . SVG Version: 6.00 Build 0)  -->
<!DOCTYPE svg PUBLIC "-//W3C//DTD SVG 1.1//EN" "http://www.w3.org/Graphics/SVG/1.1/DTD/svg11.dtd">
<svg version="1.1" id="Layer_1" xmlns="http://www.w3.org/2000/svg" xmlns:xlink="http://www.w3.org/1999/xlink" x="0px" y="0px"
	 width="220.875px" height="138.951px" viewBox="0 0 220.875 138.951" enable-background="new 0 0 220.875 138.951"
	 xml:space="preserve">
<g>
	<g>
		<defs>
			<rect id="SVGID_1_" x="0.126" y="-1.119" width="190.395" height="121.199"/>
		</defs>
		<clipPath id="SVGID_2_">
			<use xlink:href="#SVGID_1_"  overflow="visible"/>
		</clipPath>
		<path clip-path="url(#SVGID_2_)" fill="#FFEA99" d="M19.378-0.87l149.536-0.249v0.157c0.773-0.094,1.557-0.157,2.355-0.157
			c10.633,0,19.253,8.567,19.253,19.135v61.391c0,10.568-8.62,19.136-19.253,19.136c-0.799,0-1.582-0.063-2.355-0.157v0.157
			l-149.536,0.25c-10.632,0-19.252-8.567-19.252-19.136V18.265C0.126,7.697,8.746-0.87,19.378-0.87"/>
	</g>
	<g>
		<defs>
			<rect id="SVGID_3_" x="0.126" y="-1.119" width="190.395" height="121.199"/>
		</defs>
		<clipPath id="SVGID_4_">
			<use xlink:href="#SVGID_3_"  overflow="visible"/>
		</clipPath>
		<path clip-path="url(#SVGID_4_)" fill="#FFEA99" d="M88.294,92.556c0-11.654,7.219-21.611,17.408-25.625
			c-3.099-1.221-6.47-1.897-10-1.897c-15.138,0-27.408,12.321-27.408,27.522s12.27,27.524,27.408,27.524
			c3.53,0,6.901-0.679,10-1.897C95.514,114.168,88.294,104.212,88.294,92.556"/>
	</g>
</g>
<g enable-background="new    ">
	<path fill="#6D5D4B" d="M26.067,26.282c-0.684,0-1.386,0.036-1.962,0.108v-1.314c0.558,0.071,1.152,0.107,1.944,0.107h11.974
		c0.864,0,1.44-0.036,1.963-0.107v1.314c-0.559-0.072-1.207-0.108-1.945-0.108h-4.519c-0.433,0.882-0.648,1.278-1.152,2.017v9.975
		c0,0.738,0.036,1.333,0.126,1.945h-1.477c0.072-0.595,0.126-1.279,0.126-1.945v-6.428c0-0.72,0.018-1.332,0.036-2.053
		c-0.667,0.918-1.603,1.909-2.755,2.917c-1.099,0.99-2.215,1.801-3.889,2.827c-0.216-0.396-0.396-0.631-0.828-1.062
		c2.323-1.261,3.925-2.484,5.582-4.178c1.26-1.332,2.161-2.593,2.845-4.015H26.067z M33.882,29.325
		c1.783,1.206,4.538,3.385,6.5,5.149l-0.828,1.008c-0.973-0.972-1.387-1.332-3.169-2.79c-1.225-1.026-1.909-1.566-3.223-2.575
		L33.882,29.325z"/>
	<path fill="#6D5D4B" d="M45.778,25.562c0.774,0,1.135-0.018,1.621-0.071c-0.054,0.414-0.072,0.936-0.072,1.692v8.246
		c0,0.918,0.018,1.351,0.054,1.854h-1.134v-1.152h-2.575v2.143h-1.207c0.072-0.576,0.108-1.134,0.108-1.944v-9.093
		c0-0.738-0.036-1.332-0.072-1.746c0.432,0.054,0.828,0.071,1.639,0.071H45.778z M43.671,35.104h2.575v-8.517h-2.575V35.104z
		 M56.455,26.678c0.864,0,1.369-0.035,1.873-0.107v1.26c-0.522-0.071-1.026-0.107-1.854-0.107h-5.762
		c-0.648,1.152-1.26,1.963-2.341,3.097c-0.234-0.27-0.504-0.468-0.882-0.702c1.404-1.332,2.196-2.503,2.898-4.268
		c0.288-0.684,0.504-1.44,0.576-1.908l1.207,0.306c-0.108,0.288-0.144,0.379-0.342,0.937c-0.216,0.612-0.36,0.99-0.594,1.494H56.455
		z M56.905,30.873c-0.612,0.36-1.584,1.152-3.259,2.611c-2.773,2.431-3.637,3.457-3.637,4.285c0,0.721,0.738,0.937,3.097,0.937
		c2.197,0,3.151-0.145,3.511-0.54c0.306-0.343,0.432-0.99,0.504-2.503c0.468,0.216,0.72,0.306,1.17,0.396
		c-0.126,1.477-0.36,2.359-0.756,2.846c-0.522,0.666-1.566,0.864-4.43,0.864c-2.034,0-3.042-0.145-3.619-0.522
		c-0.486-0.307-0.703-0.738-0.703-1.332c0-1.135,0.685-2.179,2.629-3.943c0.702-0.648,0.828-0.757,1.729-1.495
		c0.522-0.432,0.955-0.792,1.296-1.08c0.18-0.144,0.18-0.144,0.432-0.342h-3.781c-0.738,0-1.188,0.018-1.674,0.09v-1.17
		c0.504,0.071,0.9,0.09,1.692,0.09h3.763c0.738,0,1.099-0.019,1.458-0.072L56.905,30.873z"/>
</g>
<g enable-background="new    ">
	<path fill="#6D5D4B" d="M68.333,34.385h5.51c0.846,0,1.387-0.036,1.891-0.108v1.278c-0.54-0.072-1.08-0.107-1.891-0.107h-5.51
		v2.826c0,1.009,0.036,1.621,0.126,2.089h-1.387c0.072-0.414,0.108-1.026,0.108-2.089v-2.826h-5.167c-0.792,0-1.35,0.035-1.89,0.107
		v-1.278c0.504,0.072,1.044,0.108,1.89,0.108h5.167v-2.251H64.03c-0.882,0-1.368,0.019-2.035,0.09c0.09-0.594,0.108-1.044,0.108-1.8
		v-3.998c0-0.773-0.018-1.206-0.108-1.782c0.667,0.072,1.117,0.09,2.017,0.09h7.725c0.954,0,1.458-0.018,2.125-0.09
		c-0.09,0.559-0.108,0.99-0.108,1.729v4.159c0,0.738,0.018,1.135,0.108,1.692c-0.666-0.071-1.152-0.09-2.035-0.09h-3.493V34.385z
		 M63.22,27.902h9.417v-2.124H63.22V27.902z M63.22,31.126h9.417v-2.215H63.22V31.126z"/>
</g>
<g enable-background="new    ">
	<path fill="#6D5D4B" d="M79.959,28.433c-0.666,1.801-0.882,2.251-1.8,3.691c-0.342-0.414-0.594-0.631-0.9-0.793
		c1.026-1.368,1.603-2.719,2.125-4.879c0.216-0.937,0.306-1.513,0.306-2.017l1.314,0.18c-0.09,0.271-0.09,0.271-0.252,1.045
		c-0.108,0.485-0.198,0.756-0.486,1.782h1.747c0.846,0,1.314-0.018,1.656-0.09l0.667,0.684c-0.108,0.198-0.108,0.198-0.558,1.566
		c-0.198,0.559-0.415,1.045-0.864,1.891c-0.306-0.216-0.576-0.342-1.026-0.504c0.54-0.811,0.738-1.26,1.116-2.557H79.959z
		 M80.085,32.574c0-0.955-0.018-1.423-0.108-1.909h1.351c-0.072,0.433-0.108,0.954-0.108,1.909v5.509
		c0.829-0.414,1.603-0.863,2.413-1.368l0.09,1.171c-0.954,0.612-1.566,0.954-2.593,1.458c-0.612,0.307-0.81,0.414-1.08,0.595
		l-0.468-1.117c0.36-0.162,0.432-0.252,0.504-0.63V32.574z M90.943,29.423c0.828,0,1.278-0.018,1.603-0.09l0.612,0.612
		c-0.072,0.288-0.072,0.288-0.306,1.242c-0.504,2.215-1.188,3.889-2.161,5.348c0.99,1.206,1.98,1.98,3.781,2.935
		c-0.342,0.396-0.468,0.576-0.684,1.116c-1.495-0.864-2.683-1.854-3.763-3.133c-1.134,1.387-2.035,2.143-3.601,3.043
		c-0.27-0.522-0.36-0.63-0.756-1.026c1.458-0.738,2.485-1.603,3.602-3.007c-1.207-1.818-1.819-3.457-2.305-6.05h-0.756v0.99
		c0,2.287-0.252,4.34-0.702,5.906c-0.378,1.35-0.882,2.376-1.657,3.457c-0.396-0.379-0.594-0.522-1.026-0.774
		c0.811-0.99,1.404-2.161,1.729-3.403c0.45-1.782,0.576-3.601,0.576-8.354c0-1.404-0.036-2.179-0.108-2.665c0.198,0,0.288,0,0.432,0
		c1.44,0,3.385-0.18,4.573-0.414c1.134-0.233,1.873-0.485,2.449-0.846l0.918,1.008c-0.108,0.055-0.108,0.055-0.324,0.126
		c-0.72,0.288-1.386,0.469-2.179,0.631c-1.242,0.252-3.061,0.45-4.681,0.521l0.018,1.945v0.882H90.943z M88.026,30.413
		c0.378,2.017,0.972,3.619,1.927,5.096c0.468-0.738,0.846-1.494,1.206-2.431c0.288-0.757,0.45-1.351,0.72-2.665H88.026z"/>
</g>
<g enable-background="new    ">
	<path fill="#6D5D4B" d="M98.572,38.76c0,1.332-0.234,1.782-1.134,2.305l-0.486-0.594c0.721-0.324,0.882-0.631,0.864-1.711h-1.044
		v-1.782h1.8V38.76z"/>
	<path fill="#6D5D4B" d="M115.708,26.282c-0.685,0-1.386,0.036-1.962,0.108v-1.314c0.558,0.071,1.152,0.107,1.943,0.107h11.975
		c0.863,0,1.439-0.036,1.963-0.107v1.314c-0.559-0.072-1.207-0.108-1.945-0.108h-4.52c-0.432,0.882-0.648,1.278-1.152,2.017v9.975
		c0,0.738,0.036,1.333,0.127,1.945h-1.477c0.071-0.595,0.125-1.279,0.125-1.945v-6.428c0-0.72,0.019-1.332,0.037-2.053
		c-0.667,0.918-1.604,1.909-2.756,2.917c-1.098,0.99-2.215,1.801-3.889,2.827c-0.217-0.396-0.396-0.631-0.828-1.062
		c2.322-1.261,3.925-2.484,5.582-4.178c1.26-1.332,2.16-2.593,2.844-4.015H115.708z M123.522,29.325
		c1.782,1.206,4.538,3.385,6.5,5.149l-0.828,1.008c-0.973-0.972-1.387-1.332-3.169-2.79c-1.225-1.026-1.908-1.566-3.223-2.575
		L123.522,29.325z"/>
	<path fill="#6D5D4B" d="M135.417,25.562c0.775,0,1.135-0.018,1.621-0.071c-0.055,0.414-0.072,0.936-0.072,1.692v8.246
		c0,0.918,0.018,1.351,0.055,1.854h-1.135v-1.152h-2.574v2.143h-1.207c0.072-0.576,0.108-1.134,0.108-1.944v-9.093
		c0-0.738-0.036-1.332-0.072-1.746c0.433,0.054,0.828,0.071,1.639,0.071H135.417z M133.312,35.104h2.574v-8.517h-2.574V35.104z
		 M146.095,26.678c0.864,0,1.369-0.035,1.873-0.107v1.26c-0.522-0.071-1.027-0.107-1.855-0.107h-5.762
		c-0.647,1.152-1.26,1.963-2.34,3.097c-0.234-0.27-0.504-0.468-0.883-0.702c1.404-1.332,2.197-2.503,2.898-4.268
		c0.289-0.684,0.505-1.44,0.576-1.908l1.207,0.306c-0.107,0.288-0.145,0.379-0.342,0.937c-0.217,0.612-0.36,0.99-0.594,1.494
		H146.095z M146.545,30.873c-0.612,0.36-1.585,1.152-3.259,2.611c-2.773,2.431-3.637,3.457-3.637,4.285
		c0,0.721,0.738,0.937,3.096,0.937c2.197,0,3.152-0.145,3.512-0.54c0.307-0.343,0.432-0.99,0.504-2.503
		c0.469,0.216,0.721,0.306,1.17,0.396c-0.125,1.477-0.359,2.359-0.756,2.846c-0.521,0.666-1.566,0.864-4.43,0.864
		c-2.033,0-3.042-0.145-3.618-0.522c-0.486-0.307-0.702-0.738-0.702-1.332c0-1.135,0.684-2.179,2.629-3.943
		c0.701-0.648,0.828-0.757,1.729-1.495c0.521-0.432,0.954-0.792,1.296-1.08c0.181-0.144,0.181-0.144,0.433-0.342h-3.781
		c-0.738,0-1.188,0.018-1.675,0.09v-1.17c0.505,0.071,0.9,0.09,1.692,0.09h3.764c0.738,0,1.098-0.019,1.458-0.072L146.545,30.873z"
		/>
</g>
<g enable-background="new    ">
	<path fill="#6D5D4B" d="M155.957,29.091c-0.144,0.36-0.162,0.433-0.378,1.116c-0.972,3.259-2.809,5.979-5.365,7.94
		c-0.343-0.414-0.54-0.576-1.009-0.9c1.171-0.774,2.053-1.603,2.989-2.809c1.152-1.513,1.837-2.881,2.377-4.825h-2.972
		c-0.756,0-1.277,0.036-1.71,0.107v-1.314c0.45,0.072,0.9,0.091,1.747,0.091h1.926c0.955,0,1.369-0.019,1.711-0.072L155.957,29.091z
		 M158.045,27.183c0.198,1.098,0.433,1.746,1.062,3.024c0.162,0.307,0.288,0.576,0.45,0.828c2.053-1.729,3.223-3.007,3.799-4.141
		l1.117,0.882c-0.234,0.234-0.234,0.234-0.505,0.559c-0.433,0.504-1.675,1.765-2.323,2.358c-0.432,0.378-0.432,0.378-1.529,1.261
		c0.611,0.9,1.368,1.836,2.124,2.574c1.081,1.062,2.034,1.765,3.511,2.521c-0.449,0.396-0.648,0.631-0.954,1.135
		c-1.476-0.882-2.736-1.963-3.871-3.295c-0.792-0.918-1.44-1.873-2.034-2.989c-0.433-0.81-0.612-1.242-0.955-2.286
		c0.108,1.566,0.145,2.557,0.145,3.511v5.33c0,1.134-0.359,1.44-1.674,1.44c-0.648,0-1.387-0.036-2.252-0.126
		c-0.035-0.522-0.107-0.774-0.287-1.243c1.008,0.181,1.71,0.252,2.412,0.252c0.504,0,0.612-0.09,0.612-0.521V25.958
		c0-0.648-0.036-1.225-0.126-1.818h1.422c-0.107,0.576-0.144,1.152-0.144,1.801V27.183z"/>
</g>
<g enable-background="new    ">
	<path fill="#6D5D4B" d="M32.478,63.904h5.744c0.81,0,1.278-0.036,1.854-0.126v1.26c-0.594-0.071-1.098-0.107-1.854-0.107H33.18
		c1.765,1.998,4.249,3.475,7.13,4.249c-0.324,0.432-0.468,0.702-0.648,1.135c-1.747-0.631-3.223-1.369-4.483-2.27
		c-1.08-0.773-1.692-1.35-2.755-2.593c0.036,0.955,0.054,1.081,0.054,1.423v2.106c0,0.973,0.018,1.404,0.126,1.963h-1.351
		c0.09-0.576,0.126-1.026,0.126-1.963v-2.089c0-0.359,0.018-0.846,0.036-1.386c-1.765,2.179-3.925,3.745-6.752,4.915
		c-0.234-0.45-0.432-0.738-0.738-1.062c1.278-0.414,2.611-1.08,3.745-1.818c1.278-0.846,2.089-1.566,2.917-2.61h-4.682
		c-0.738,0-1.242,0.036-1.782,0.107v-1.26c0.504,0.09,0.972,0.126,1.782,0.126h5.474v-1.639h-3.205
		c-1.099,0-1.639,0.018-2.143,0.108c0.072-0.559,0.09-0.919,0.09-1.981v-3.114c0-1.062-0.018-1.351-0.09-1.963
		c0.45,0.09,0.99,0.108,2.052,0.108h7.995c1.134,0,1.603-0.019,2.106-0.108c-0.072,0.559-0.072,0.847-0.072,1.98v3.097
		c0,1.135,0,1.423,0.072,1.981c-0.504-0.091-1.026-0.108-2.125-0.108h-3.583V63.904z M31.379,56.414h-4.141v1.944h4.141V56.414z
		 M31.379,59.312h-4.141v1.98h4.141V59.312z M36.979,58.358v-1.944h-4.501v1.944H36.979z M36.979,61.293v-1.98h-4.501v1.98H36.979z"
		/>
	<path fill="#6D5D4B" d="M49.883,59.223h5.527c0.829,0,1.207-0.018,1.603-0.09v1.134c-0.468-0.09-0.828-0.107-1.603-0.107h-5.527
		v1.603h5.474c0.918,0,1.206-0.019,1.729-0.108v1.171c-0.504-0.091-0.882-0.108-1.729-0.108h-5.474v0.216
		c0.018,0.685,0.036,0.918,0.09,1.332h-1.332c0.072-0.54,0.09-0.936,0.09-1.71v-4.861h-1.98c-1.062,1.134-1.981,1.872-3.817,3.024
		c-0.234-0.359-0.522-0.72-0.81-0.954c1.909-0.937,3.493-2.251,4.645-3.817c0.415-0.558,0.703-1.062,0.847-1.477l1.224,0.469
		c-0.198,0.216-0.252,0.306-0.432,0.576c-0.306,0.468-0.558,0.828-0.846,1.188h8.336c0.846,0,1.278-0.019,1.836-0.108v1.188
		c-0.576-0.072-1.026-0.09-1.818-0.09h-6.032V59.223z M42.213,69.216c1.134-1.459,1.584-2.358,2.143-4.231l0.99,0.468
		c-0.648,2.053-1.098,2.972-2.178,4.466L42.213,69.216z M47.812,68.64c0,0.738,0.144,0.774,2.791,0.774
		c1.873,0,2.485-0.108,2.683-0.505c0.162-0.306,0.252-1.008,0.27-1.891c0.396,0.234,0.667,0.343,1.135,0.433
		c-0.162,1.656-0.378,2.305-0.811,2.574c-0.45,0.289-1.692,0.415-3.979,0.415c-2.737,0-3.223-0.234-3.223-1.585v-2.322
		c0-0.685-0.018-1.045-0.108-1.657h1.35c-0.09,0.469-0.108,0.829-0.108,1.657V68.64z M51.288,67.739
		c-0.594-1.116-1.116-1.782-2.106-2.683l0.846-0.559c1.026,0.937,1.495,1.477,2.214,2.611L51.288,67.739z M57.193,69.72
		c-0.954-1.927-1.495-2.736-2.863-4.304l0.882-0.54c1.35,1.531,1.944,2.359,2.989,4.159L57.193,69.72z"/>
	<path fill="#6D5D4B" d="M68.855,55.243c-0.18,0.271-0.252,0.378-0.54,0.883c-1.116,1.891-2.269,3.295-3.853,4.681
		c-1.243,1.099-1.747,1.459-3.835,2.81c-0.252-0.469-0.432-0.685-0.828-1.045c3.043-1.71,5.167-3.547,6.644-5.689
		c0.612-0.864,0.954-1.53,1.116-2.16L68.855,55.243z M70.404,60.447c-0.306,0.378-0.306,0.378-1.242,1.818
		c-0.648,1.008-1.98,2.755-3.097,4.033c-1.207,1.387-1.801,2.017-2.503,2.646c3.889-0.18,7.616-0.521,9.777-0.918
		c-1.584-2.467-2.143-3.241-2.989-4.249l0.972-0.576c0.522,0.594,1.999,2.646,2.647,3.655c0.702,1.098,1.224,1.944,1.944,3.276
		l-1.098,0.702c-0.504-1.098-0.612-1.314-0.882-1.818c-0.756,0.145-0.972,0.162-1.854,0.271c-3.277,0.396-4.988,0.558-7.184,0.702
		c-2.053,0.126-2.719,0.197-3.439,0.324l-0.324-1.351c0.558,0,0.81-0.055,1.08-0.217c1.44-1.313,2.935-2.988,4.447-5.023
		c1.207-1.638,1.854-2.683,2.413-3.907L70.404,60.447z"/>
	<path fill="#6D5D4B" d="M85.451,59.907c-0.234-0.486-0.288-0.576-0.486-0.955c-1.08,0.145-1.206,0.145-2.197,0.253
		c-0.774,0.071-1.332,0.144-1.584,0.162c-1.495,0.18-2.251,0.252-2.305,0.27l-0.271-0.973c0.541-0.18,0.756-0.359,1.207-1.062
		c0.504-0.774,1.008-1.909,1.386-3.098l1.243,0.36c-0.216,0.433-0.216,0.433-0.774,1.566c-0.198,0.433-0.828,1.494-1.224,2.106
		c1.152-0.144,1.692-0.216,2.125-0.27c1.242-0.145,1.242-0.145,1.891-0.234c-0.396-0.685-0.738-1.206-1.207-1.872l0.846-0.433
		c0.541,0.685,0.667,0.847,1.225,1.765c0.702,1.152,0.702,1.152,1.098,1.854L85.451,59.907z M79.203,62.05
		c0-0.667-0.018-1.171-0.072-1.657c0.45,0.055,0.792,0.072,1.458,0.072h3.151c0.774,0,1.188-0.018,1.674-0.072
		c-0.018,0.271-0.054,0.793-0.054,0.99v7.869c0,1.17-0.27,1.332-2.269,1.332c-0.108,0-0.306,0-0.522-0.018
		c-0.036-0.324-0.144-0.793-0.27-1.117c0.414,0.055,0.846,0.091,1.296,0.091c0.594,0,0.684-0.055,0.684-0.396v-2.322h-3.979v2.25
		c0,0.864,0.018,1.351,0.09,1.837h-1.278c0.072-0.486,0.09-0.973,0.09-1.801V62.05z M80.302,63.147h3.979v-1.692h-3.979V63.147z
		 M80.302,65.866h3.979v-1.764h-3.979V65.866z M88.134,57.584c1.819-0.504,3.709-1.422,4.771-2.286l0.792,0.954
		c-0.288,0.144-0.288,0.144-1.008,0.54c-1.314,0.738-2.809,1.332-4.556,1.854v1.62c0,0.505,0.18,0.559,1.945,0.559
		c1.656,0,2.143-0.036,2.395-0.198c0.288-0.18,0.378-0.648,0.45-2.251c0.36,0.217,0.666,0.343,1.062,0.45
		c-0.126,1.513-0.288,2.197-0.594,2.557c-0.306,0.379-0.99,0.469-3.331,0.469c-2.593,0-3.025-0.18-3.025-1.225v-4.249
		c0-0.648-0.036-1.099-0.108-1.566h1.314c-0.09,0.414-0.108,0.81-0.108,1.566V57.584z M88.152,65.488
		c1.818-0.45,3.601-1.278,4.844-2.25l0.846,0.936c-0.829,0.469-2.269,1.207-2.917,1.459c-1.044,0.432-1.422,0.558-2.773,0.936v2.144
		c0,0.359,0.126,0.485,0.576,0.558c0.396,0.072,0.792,0.09,1.71,0.09c1.458,0,2.017-0.09,2.251-0.396
		c0.198-0.252,0.324-1.026,0.378-2.323c0.306,0.181,0.702,0.36,1.081,0.469c-0.145,1.71-0.342,2.412-0.774,2.826
		c-0.396,0.379-0.99,0.469-3.007,0.469c-1.71,0-2.251-0.055-2.737-0.271c-0.432-0.18-0.576-0.45-0.576-1.044v-4.502
		c0-0.9-0.018-1.242-0.09-1.62h1.278c-0.072,0.378-0.09,0.685-0.09,1.566V65.488z"/>
	<path fill="#6D5D4B" d="M98.751,64.679c0-0.774,0.018-1.297,0.054-2.161c-0.648,0.828-1.17,1.332-2.053,2.017
		c-0.216-0.45-0.414-0.738-0.702-1.026c1.405-0.954,2.557-2.089,3.637-3.547c0.414-0.559,0.684-1.062,0.864-1.549l1.116,0.631
		c-0.216,0.27-0.27,0.359-0.54,0.773c-0.378,0.612-0.702,1.026-1.207,1.621v7.274c0,0.972,0.036,1.692,0.126,2.196h-1.423
		c0.09-0.504,0.126-1.242,0.126-2.196V64.679z M101.236,55.298c-0.126,0.126-0.162,0.18-0.324,0.396
		c-1.081,1.477-2.377,2.737-3.998,3.907c-0.27-0.396-0.468-0.612-0.81-0.882c1.008-0.648,1.656-1.171,2.376-1.909
		c0.9-0.899,1.351-1.53,1.639-2.196L101.236,55.298z M109.159,69.162c0,1.152-0.414,1.458-2.035,1.458
		c-0.648,0-1.35-0.019-2.178-0.09c-0.054-0.505-0.126-0.828-0.288-1.242c1.044,0.144,1.782,0.216,2.539,0.216
		c0.612,0,0.756-0.072,0.756-0.433v-7.796h-4.105c-0.846,0-1.566,0.036-1.999,0.107v-1.26c0.432,0.072,1.134,0.107,1.999,0.107h6.32
		c0.918,0,1.567-0.035,1.981-0.107v1.26c-0.469-0.071-1.135-0.107-1.963-0.107h-1.026V69.162z M102.587,55.604
		c0.486,0.072,1.062,0.108,1.873,0.108h5.042c0.81,0,1.35-0.036,1.854-0.108v1.261c-0.54-0.072-1.134-0.108-1.854-0.108h-5.042
		c-0.72,0-1.333,0.036-1.873,0.108V55.604z"/>
	<path fill="#6D5D4B" d="M115.654,67.883h-1.207c0.072-0.594,0.108-1.098,0.108-2.088v-7.869c0-0.882-0.019-1.386-0.072-1.98
		C114.879,56,115.095,56,116.013,56h1.549c0.828,0,1.062,0,1.53-0.055c-0.054,0.576-0.054,0.793-0.054,1.963v7.364
		c0,1.044,0,1.332,0.054,1.908h-1.134v-1.26h-2.305V67.883z M115.654,64.948h2.305V56.99h-2.305V64.948z M121.703,59.907
		c-0.054,2.988-0.252,4.753-0.684,6.554c-0.378,1.549-0.9,2.809-1.692,4.087c-0.306-0.342-0.54-0.54-0.973-0.756
		c1.044-1.639,1.458-2.683,1.801-4.483c0.324-1.729,0.486-4.249,0.486-7.761c0-1.062-0.019-1.603-0.091-2.395
		c0.559,0.054,1.099,0.072,1.963,0.072h5.222c0.882,0,1.152-0.019,1.891-0.072c-0.036,0.468-0.054,0.792-0.054,1.387v2.017
		c0,0.216,0.018,0.702,0.054,1.422c-0.595-0.054-0.972-0.071-1.765-0.071H121.703z M121.74,57.35c0,0.631,0,1.152-0.019,1.531h6.733
		v-2.629h-6.715V57.35z M124.259,64.606c1.747-0.792,3.367-1.873,4.357-2.881l0.828,0.937c-0.125,0.09-0.125,0.09-0.377,0.27
		c-1.495,1.135-3.133,2.07-4.809,2.809v2.827c0,0.576,0.324,0.666,2.252,0.666c1.62,0,2.052-0.09,2.232-0.486
		c0.18-0.378,0.27-1.17,0.306-2.466c0.414,0.27,0.72,0.396,1.134,0.504c-0.162,1.729-0.252,2.215-0.504,2.683
		c-0.359,0.666-1.044,0.847-3.24,0.847c-2.809,0-3.295-0.217-3.295-1.423v-6.482c0-0.756-0.019-1.17-0.09-1.603h1.296
		c-0.072,0.396-0.091,0.829-0.091,1.549V64.606z"/>
</g>
<g enable-background="new    ">
	<path fill="#6D5D4B" d="M134.536,66.559c0.072-0.432,0.072-0.576,0.072-1.17c0-0.937,0.198-1.53,0.666-2.161
		c0.36-0.486,0.54-0.63,1.585-1.351c0.648-0.45,0.954-0.702,1.225-0.972c0.414-0.433,0.629-0.954,0.629-1.495
		c0-1.35-1.188-2.286-2.898-2.286c-1.17,0-2.088,0.396-2.683,1.134c-0.306,0.396-0.45,0.738-0.648,1.495l-1.513-0.234
		c0.379-1.314,0.738-1.927,1.477-2.539c0.828-0.702,1.999-1.062,3.422-1.062c2.484,0,4.303,1.404,4.303,3.331
		c0,0.684-0.145,1.242-0.432,1.746c-0.324,0.54-0.648,0.864-1.639,1.566c-1.062,0.738-1.369,0.99-1.621,1.351
		c-0.324,0.45-0.468,0.954-0.468,1.656c0,0.288,0.019,0.595,0.072,0.99H134.536z M136.193,68.251v1.692h-1.747v-1.692H136.193z"/>
</g>
</svg>
