<?xml version="1.0" encoding="utf-8"?>
<!-- Generator: Adobe Illustrator 16.0.0, SVG Export Plug-In . SVG Version: 6.00 Build 0)  -->
<!DOCTYPE svg PUBLIC "-//W3C//DTD SVG 1.1//EN" "http://www.w3.org/Graphics/SVG/1.1/DTD/svg11.dtd">
<svg version="1.1" id="Layer_1" xmlns="http://www.w3.org/2000/svg" xmlns:xlink="http://www.w3.org/1999/xlink" x="0px" y="0px"
	 width="220.875px" height="138.951px" viewBox="0 0 220.875 138.951" enable-background="new 0 0 220.875 138.951"
	 xml:space="preserve">
<g>
	<defs>
		<rect id="SVGID_1_" y="-0.772" width="232.559" height="121.107"/>
	</defs>
	<clipPath id="SVGID_2_">
		<use xlink:href="#SVGID_1_"  overflow="visible"/>
	</clipPath>
	<g clip-path="url(#SVGID_2_)">
		<defs>
			<rect id="SVGID_3_" y="-0.772" width="232.559" height="121.107"/>
		</defs>
		<clipPath id="SVGID_4_">
			<use xlink:href="#SVGID_3_"  overflow="visible"/>
		</clipPath>
		<g clip-path="url(#SVGID_4_)">
			<g opacity="0.9">
				<g>
					<defs>
						<rect id="SVGID_5_" x="-17" y="-15.772" width="253.395" height="137.107"/>
					</defs>
					<defs>
						<rect id="SVGID_6_" x="-17" y="-15.772" width="253.395" height="137.107"/>
					</defs>
					<clipPath id="SVGID_7_">
						<use xlink:href="#SVGID_5_"  overflow="visible"/>
					</clipPath>
					<clipPath id="SVGID_8_" clip-path="url(#SVGID_7_)">
						<use xlink:href="#SVGID_6_"  overflow="visible"/>
					</clipPath>
					<path clip-path="url(#SVGID_8_)" fill="#FFEA99" d="M19.251-0.522l178.536-0.249v0.156c0.773-0.094,1.557-0.156,2.355-0.156
						c10.633,0,19.253,8.566,19.253,19.135v61.39c0,10.569-8.62,19.136-19.253,19.136c-0.799,0-1.582-0.062-2.355-0.156v0.156
						L19.251,99.14C8.62,99.14,0,90.571,0,80.003V18.612C0,8.044,8.62-0.522,19.251-0.522"/>
					<path clip-path="url(#SVGID_8_)" fill="#FFEA99" d="M177.982,92.812c0-11.655,7.219-21.612,17.408-25.626
						c-3.1-1.221-6.471-1.897-10-1.897c-15.139,0-27.408,12.322-27.408,27.523s12.27,27.523,27.408,27.523
						c3.529,0,6.9-0.678,10-1.898C185.201,114.423,177.982,104.467,177.982,92.812"/>
				</g>
			</g>
		</g>
	</g>
	<g clip-path="url(#SVGID_2_)">
		<defs>
			<rect id="SVGID_9_" y="-0.772" width="232.559" height="121.107"/>
		</defs>
		<clipPath id="SVGID_10_">
			<use xlink:href="#SVGID_9_"  overflow="visible"/>
		</clipPath>
		<g clip-path="url(#SVGID_10_)">
			<g enable-background="new    ">
				<path fill="#6D5D4B" d="M24.005,39.141c0,0.883,0.036,1.603,0.09,2.179h-1.35c0.072-0.666,0.108-1.242,0.108-2.196v-5.689
					c0-0.721,0.018-1.225,0.072-2.161c-0.54,0.973-0.99,1.621-1.746,2.503c-0.324-0.576-0.45-0.72-0.792-1.008
					c1.386-1.278,2.719-3.457,3.547-5.798c0.342-0.973,0.45-1.387,0.558-2.035l1.26,0.324c-0.108,0.307-0.162,0.45-0.342,0.973
					c-0.468,1.386-0.702,1.927-1.404,3.475V39.141z M27.949,29.022c-0.612,1.17-1.152,1.926-2.071,2.952
					c-0.342-0.342-0.468-0.432-0.937-0.666c1.261-1.351,1.999-2.503,2.719-4.268c0.378-0.899,0.594-1.656,0.648-2.25l1.26,0.288
					c-0.09,0.233-0.09,0.233-0.306,0.882c-0.198,0.595-0.324,0.883-0.846,2.089h6.806c0.756,0,1.17-0.018,1.477-0.072l0.558,0.504
					c-0.09,0.127-0.09,0.127-0.378,0.811c-0.36,0.811-0.864,1.692-1.351,2.323c-0.36-0.271-0.486-0.36-0.936-0.522
					c0.612-0.756,0.918-1.261,1.26-2.07H31.82v10.659c0,1.08-0.432,1.404-1.836,1.404c-0.522,0-1.099-0.036-1.819-0.091
					c-0.018-0.504-0.072-0.737-0.216-1.206c0.81,0.145,1.44,0.216,2.035,0.216c0.612,0,0.72-0.071,0.72-0.504V29.022H27.949z
					 M29.029,31.795c-0.504,2.467-0.648,3.024-1.062,4.123c-0.433,1.152-0.9,2.07-1.513,2.989c-0.36-0.324-0.522-0.433-1.026-0.648
					c1.278-1.692,2.053-3.781,2.485-6.662L29.029,31.795z M36.177,38.943c-0.54-1.657-0.54-1.657-1.548-4.124
					c-0.648-1.584-0.756-1.8-1.386-2.935l0.954-0.468c1.116,2.053,2.251,4.646,3.043,7.004L36.177,38.943z"/>
				<path fill="#6D5D4B" d="M47.875,39.573c0.99,0.162,1.945,0.216,3.295,0.216c1.17,0,2.089-0.036,3.979-0.18
					c-0.216,0.468-0.306,0.72-0.396,1.242c-1.386,0.072-2.034,0.09-2.953,0.09c-2.917,0-4.934-0.288-6.266-0.9
					c-0.954-0.432-1.854-1.152-2.719-2.16c-0.72,1.386-1.494,2.341-2.827,3.421c-0.288-0.342-0.594-0.612-0.954-0.828
					c2.035-1.387,3.313-3.403,3.691-5.798l1.26,0.306c-0.432,1.297-0.486,1.423-0.684,1.891c0.972,1.314,2.089,2.125,3.421,2.467
					v-5.455h-5.671c-0.63,0-1.207,0.036-1.837,0.107v-1.224c0.504,0.071,1.044,0.107,1.837,0.107h12.153
					c0.792,0,1.333-0.036,1.836-0.107v1.224c-0.648-0.071-1.188-0.107-1.836-0.107h-5.33v2.053h3.871
					c0.937,0,1.261-0.019,1.693-0.091v1.152c-0.468-0.071-0.955-0.09-1.693-0.09h-3.871V39.573z M43.464,31.615
					c-0.811,0-1.387,0.018-1.98,0.071c0.054-0.468,0.072-0.864,0.072-1.494v-2.989c0-0.647-0.018-1.044-0.072-1.494
					c0.612,0.054,1.17,0.072,2.034,0.072h7.292c0.846,0,1.404-0.019,2.017-0.072c-0.054,0.468-0.072,0.847-0.072,1.494v2.989
					c0,0.63,0.018,1.008,0.072,1.494c-0.576-0.054-1.152-0.071-1.962-0.071H43.464z M42.653,28.212h9.003v-1.459h-9.003V28.212z
					 M42.653,30.66h9.003v-1.512h-9.003V30.66z"/>
				<path fill="#6D5D4B" d="M59.105,27.348c-0.684,0-1.386,0.036-1.962,0.108v-1.314c0.558,0.071,1.152,0.107,1.944,0.107h11.974
					c0.864,0,1.44-0.036,1.963-0.107v1.314c-0.559-0.072-1.207-0.108-1.945-0.108H66.56c-0.433,0.882-0.648,1.278-1.152,2.017v9.975
					c0,0.738,0.036,1.333,0.126,1.945h-1.477c0.072-0.595,0.126-1.279,0.126-1.945v-6.428c0-0.72,0.018-1.332,0.036-2.053
					c-0.667,0.918-1.603,1.909-2.755,2.917c-1.099,0.99-2.215,1.801-3.889,2.827c-0.216-0.396-0.396-0.631-0.828-1.062
					c2.323-1.261,3.925-2.484,5.582-4.178c1.26-1.332,2.161-2.593,2.845-4.015H59.105z M66.919,30.391
					c1.783,1.206,4.538,3.385,6.5,5.149l-0.828,1.008c-0.973-0.972-1.387-1.332-3.169-2.79c-1.225-1.026-1.909-1.566-3.223-2.575
					L66.919,30.391z"/>
				<path fill="#6D5D4B" d="M83.875,39.573c0.99,0.162,1.945,0.216,3.295,0.216c1.17,0,2.089-0.036,3.979-0.18
					c-0.216,0.468-0.306,0.72-0.396,1.242c-1.386,0.072-2.034,0.09-2.953,0.09c-2.917,0-4.934-0.288-6.266-0.9
					c-0.954-0.432-1.854-1.152-2.719-2.16c-0.72,1.386-1.494,2.341-2.827,3.421c-0.288-0.342-0.594-0.612-0.954-0.828
					c2.035-1.387,3.313-3.403,3.691-5.798l1.26,0.306c-0.432,1.297-0.486,1.423-0.684,1.891c0.972,1.314,2.089,2.125,3.421,2.467
					v-5.455h-5.671c-0.63,0-1.207,0.036-1.837,0.107v-1.224c0.504,0.071,1.044,0.107,1.837,0.107h12.153
					c0.792,0,1.333-0.036,1.836-0.107v1.224c-0.648-0.071-1.188-0.107-1.836-0.107h-5.33v2.053h3.871
					c0.937,0,1.261-0.019,1.693-0.091v1.152c-0.468-0.071-0.955-0.09-1.693-0.09h-3.871V39.573z M79.464,31.615
					c-0.811,0-1.387,0.018-1.98,0.071c0.054-0.468,0.072-0.864,0.072-1.494v-2.989c0-0.647-0.018-1.044-0.072-1.494
					c0.612,0.054,1.17,0.072,2.034,0.072h7.292c0.846,0,1.404-0.019,2.017-0.072c-0.054,0.468-0.072,0.847-0.072,1.494v2.989
					c0,0.63,0.018,1.008,0.072,1.494c-0.576-0.054-1.152-0.071-1.962-0.071H79.464z M78.653,28.212h9.003v-1.459h-9.003V28.212z
					 M78.653,30.66h9.003v-1.512h-9.003V30.66z"/>
			</g>
		</g>
	</g>
	<g clip-path="url(#SVGID_2_)">
		<defs>
			<rect id="SVGID_11_" y="-0.772" width="232.559" height="121.107"/>
		</defs>
		<clipPath id="SVGID_12_">
			<use xlink:href="#SVGID_11_"  overflow="visible"/>
		</clipPath>
		<g clip-path="url(#SVGID_12_)">
			<g enable-background="new    ">
				<path fill="#6D5D4B" d="M99.064,38.465c0,0,1.008,1.099,2.701,1.099c0.972,0,1.818-0.486,1.818-1.44
					c0-1.981-4.879-1.495-4.879-4.447c0-1.621,1.458-2.503,3.097-2.503c1.909,0,2.791,0.99,2.791,0.99l-0.558,0.937
					c0,0-0.774-0.829-2.269-0.829c-0.918,0-1.801,0.396-1.801,1.405c0,1.998,4.879,1.458,4.879,4.447
					c0,1.476-1.278,2.538-3.097,2.538c-2.197,0-3.349-1.314-3.349-1.314L99.064,38.465z"/>
			</g>
			<g enable-background="new    ">
				<path fill="#6D5D4B" d="M107.021,27.787h1.224v7.059h1.44l2.719-3.457h1.477l-3.151,3.943v0.036l3.458,5.077h-1.459
					l-3.025-4.537h-1.458v4.537h-1.224V27.787z"/>
				<path fill="#6D5D4B" d="M116.021,27.787h1.277v1.531h-1.277V27.787z M116.056,31.389h1.225v9.057h-1.225V31.389z"/>
				<path fill="#6D5D4B" d="M120.232,31.389h1.171v0.882c0,0.396-0.036,0.702-0.036,0.702h0.036c0,0,0.737-1.8,3.133-1.8
					c2.431,0,3.942,1.944,3.942,4.753c0,2.863-1.71,4.735-4.051,4.735c-2.178,0-2.971-1.729-2.971-1.729h-0.035
					c0,0,0.035,0.324,0.035,0.792v4.322h-1.225V31.389z M124.302,39.581c1.602,0,2.916-1.351,2.916-3.655
					c0-2.215-1.17-3.637-2.863-3.637c-1.512,0-2.934,1.08-2.934,3.655C121.421,37.763,122.429,39.581,124.302,39.581z"/>
			</g>
			<g enable-background="new    ">
				<path fill="#6D5D4B" d="M135.369,31.389h1.207v1.351c0,0.396-0.036,0.72-0.036,0.72h0.036c0.432-1.225,1.872-2.286,3.277-2.286
					c1.674,0,2.538,0.774,2.809,2.269h0.035c0.486-1.225,1.801-2.269,3.332-2.269c2.195,0,3.006,1.278,3.006,3.511v5.762h-1.225
					v-5.456c0-1.476-0.305-2.7-1.962-2.7c-1.386,0-2.521,1.225-2.862,2.557c-0.127,0.396-0.162,0.828-0.162,1.314v4.285h-1.225
					v-5.456c0-1.368-0.198-2.7-1.908-2.7c-1.477,0-2.594,1.278-2.972,2.665c-0.09,0.378-0.126,0.792-0.126,1.206v4.285h-1.225
					V31.389z"/>
			</g>
			<g enable-background="new    ">
				<path fill="#6D5D4B" d="M155.621,31.173c2.502,0,3.781,1.927,3.781,4.177c0,0.216-0.037,0.631-0.037,0.631h-6.949
					c0.054,2.322,1.639,3.583,3.511,3.583c1.657,0,2.755-1.099,2.755-1.099l0.559,0.937c0,0-1.314,1.26-3.35,1.26
					c-2.701,0-4.735-1.944-4.735-4.735C151.155,32.955,153.171,31.173,155.621,31.173z M158.16,34.972
					c-0.072-1.891-1.225-2.772-2.576-2.772c-1.512,0-2.826,0.954-3.114,2.772H158.16z"/>
			</g>
			<g enable-background="new    ">
				<path fill="#6D5D4B" d="M166.457,34.846h0.504v-0.234c0-1.746-0.953-2.341-2.25-2.341c-1.494,0-2.557,0.864-2.557,0.864
					l-0.576-0.936c0,0,1.188-1.026,3.223-1.026c2.179,0,3.385,1.206,3.385,3.475v5.798h-1.17v-0.99c0-0.45,0.035-0.756,0.035-0.756
					h-0.035c0,0-0.756,1.962-3.025,1.962c-1.512,0-3.078-0.882-3.078-2.683C160.912,34.918,164.89,34.846,166.457,34.846z
					 M164.188,39.617c1.729,0,2.772-1.801,2.772-3.367v-0.396h-0.521c-1.423,0-4.268,0.055-4.268,2.053
					C162.171,38.753,162.837,39.617,164.188,39.617z"/>
				<path fill="#6D5D4B" d="M170.919,27.787h1.225v10.245c0,1.188,0.539,1.369,1.008,1.369c0.162,0,0.307-0.019,0.307-0.019v1.099
					c0,0-0.217,0.036-0.451,0.036c-0.756,0-2.088-0.234-2.088-2.215V27.787z"/>
			</g>
		</g>
	</g>
	<g clip-path="url(#SVGID_2_)">
		<defs>
			<rect id="SVGID_13_" y="-0.772" width="232.559" height="121.107"/>
		</defs>
		<clipPath id="SVGID_14_">
			<use xlink:href="#SVGID_13_"  overflow="visible"/>
		</clipPath>
		<g clip-path="url(#SVGID_14_)">
			<g enable-background="new    ">
				<path fill="#6D5D4B" d="M182.747,27.096c-0.828,0-1.458,0.036-2.196,0.126v-1.333c0.684,0.091,1.332,0.126,2.196,0.126h9.399
					c0.9,0,1.387-0.018,1.729-0.071l0.701,0.828c-0.684,0.702-1.025,1.044-1.477,1.44c-1.494,1.332-2.771,2.196-4.843,3.277v8.138
					c0,0.612-0.181,1.009-0.558,1.207c-0.252,0.126-0.721,0.18-1.639,0.18c-0.648,0-1.225-0.036-2.432-0.162
					c-0.035-0.504-0.107-0.756-0.252-1.261c1.117,0.198,1.963,0.288,2.881,0.288c0.576,0,0.738-0.09,0.738-0.396v-7.311
					c0-0.756-0.018-1.242-0.09-1.782h1.062c1.746-0.9,3.025-1.801,4.609-3.295H182.747z"/>
			</g>
			<g enable-background="new    ">
				<path fill="#6D5D4B" d="M200.386,36.952c0.072-0.432,0.072-0.576,0.072-1.17c0-0.937,0.198-1.53,0.666-2.161
					c0.361-0.486,0.541-0.63,1.585-1.351c0.648-0.45,0.954-0.702,1.225-0.972c0.414-0.433,0.63-0.954,0.63-1.495
					c0-1.35-1.188-2.286-2.898-2.286c-1.17,0-2.089,0.396-2.684,1.134c-0.306,0.396-0.449,0.738-0.648,1.495l-1.512-0.234
					c0.378-1.314,0.738-1.927,1.477-2.539c0.828-0.702,1.998-1.062,3.421-1.062c2.485,0,4.304,1.404,4.304,3.331
					c0,0.684-0.145,1.242-0.433,1.746c-0.324,0.54-0.647,0.864-1.638,1.566c-1.062,0.738-1.369,0.99-1.621,1.351
					c-0.324,0.45-0.469,0.954-0.469,1.656c0,0.288,0.019,0.595,0.072,0.99H200.386z M202.043,38.645v1.692h-1.747v-1.692H202.043z"
					/>
			</g>
		</g>
	</g>
	<g clip-path="url(#SVGID_2_)">
		<defs>
			<rect id="SVGID_15_" y="-0.772" width="232.559" height="121.107"/>
		</defs>
		<clipPath id="SVGID_16_">
			<use xlink:href="#SVGID_15_"  overflow="visible"/>
		</clipPath>
		<g clip-path="url(#SVGID_16_)">
			<g enable-background="new    ">
				<path fill="#6D5D4B" d="M22.655,60.306c-0.576,0-1.026,0.036-1.476,0.108v-1.225c0.45,0.072,0.936,0.108,1.584,0.108h0.648
					c0.306-1.297,0.504-2.701,0.504-3.421c0-0.054,0-0.145-0.018-0.252l1.314,0.126c-0.072,0.288-0.108,0.468-0.252,1.386
					c-0.072,0.486-0.27,1.567-0.396,2.161h1.566c0.738,0,1.225-0.018,1.639-0.072c-0.036,0.252-0.036,0.252-0.09,0.811
					c-0.271,2.935-0.882,5.293-1.801,6.986c-0.054,0.09-0.054,0.09-0.09,0.144c0.648,0.576,1.008,0.937,1.999,2.053l-0.792,0.954
					c-0.774-0.972-1.044-1.26-1.782-2.017c-0.054,0.072-0.054,0.072-0.108,0.145c-0.882,1.386-1.782,2.25-3.439,3.421
					c-0.252-0.396-0.468-0.666-0.792-0.954c1.584-0.973,2.575-1.927,3.511-3.367c-1.242-1.045-1.584-1.278-2.881-2.071
					c0.703-1.584,1.225-3.133,1.693-5.023H22.655z M24.33,60.306c-0.522,1.945-0.829,2.936-1.477,4.609
					c0.972,0.667,1.278,0.883,2.088,1.513c0.847-1.639,1.297-3.421,1.585-6.122H24.33z M36.051,63.331
					c0.774,0,1.135-0.018,1.603-0.108v1.278c-0.486-0.09-0.864-0.107-1.603-0.107H33.08v5.888c0,1.206-0.324,1.458-1.783,1.458
					c-0.486,0-1.206-0.054-2.161-0.144c-0.036-0.522-0.09-0.738-0.252-1.225c1.044,0.162,1.818,0.252,2.341,0.252
					c0.576,0,0.702-0.054,0.702-0.378v-5.852h-2.431c-0.72,0-1.152,0.036-1.639,0.107v-1.278c0.432,0.091,0.792,0.108,1.621,0.108
					h2.449v-0.756c0-0.648-0.036-1.117-0.126-1.765h0.63c1.152-0.919,1.855-1.675,2.773-2.972h-5.078
					c-0.666,0-1.314,0.036-1.764,0.108v-1.278c0.468,0.072,1.062,0.108,1.818,0.108h4.627c0.738,0,1.098-0.019,1.386-0.091
					l0.667,0.829c-0.126,0.126-0.126,0.126-1.278,1.603c-0.576,0.72-1.369,1.512-2.503,2.467v1.746H36.051z"/>
				<path fill="#6D5D4B" d="M40.781,64.447c0-0.882,0.018-1.566,0.072-2.646c-0.486,0.954-0.918,1.62-1.603,2.484
					c-0.108-0.162-0.108-0.162-0.306-0.522c-0.126-0.216-0.18-0.306-0.396-0.485c1.296-1.459,2.359-3.26,3.133-5.33
					c0.378-1.026,0.576-1.729,0.648-2.341l1.26,0.324c-0.108,0.271-0.18,0.469-0.36,0.99c-0.378,1.116-0.864,2.287-1.35,3.277v9.561
					c0,1.062,0.018,1.656,0.072,2.232h-1.278c0.072-0.63,0.108-1.224,0.108-2.214V64.447z M48.757,63.133
					c-0.162,0.198-0.288,0.342-0.486,0.54c0.846,0.774,1.332,1.459,1.818,2.467c1.333-0.756,2.467-1.746,3.151-2.736l0.972,0.684
					c-0.72,0.721-1.224,1.171-2.106,1.873c0.612,1.08,0.846,1.422,1.333,1.998c0.684,0.811,1.296,1.333,2.287,1.963
					c-0.234,0.324-0.396,0.559-0.667,1.044c-1.134-0.882-1.71-1.44-2.484-2.431c-0.522-0.702-0.756-1.062-1.261-2.017
					c-0.288,0.181-0.54,0.324-0.882,0.505c0.018,0.071,0.018,0.071,0.036,0.144c0.234,0.721,0.36,1.549,0.36,2.287
					c0,0.972-0.198,1.638-0.594,1.98c-0.306,0.27-0.774,0.378-1.71,0.378c-0.468,0-0.738-0.018-1.333-0.072
					c-0.054-0.378-0.108-0.612-0.288-1.062c0.738,0.127,1.152,0.162,1.639,0.162c1.008,0,1.224-0.252,1.224-1.494
					c0-0.504-0.036-0.937-0.126-1.44c-1.783,1.513-3.619,2.503-6.482,3.565c-0.144-0.379-0.288-0.595-0.594-0.955
					c2.791-0.846,5.078-2.016,6.842-3.511c-0.144-0.468-0.27-0.72-0.504-1.116c-1.548,1.152-3.367,2.07-5.78,2.881
					c-0.198-0.396-0.306-0.559-0.576-0.9c1.71-0.468,2.845-0.918,4.268-1.692c0.684-0.378,0.972-0.558,1.584-1.026
					c-0.306-0.396-0.504-0.612-0.811-0.9c-1.314,0.919-2.287,1.333-4.429,1.927c-0.198-0.414-0.324-0.63-0.54-0.882
					c1.98-0.486,2.899-0.811,3.817-1.387c0.396-0.252,0.738-0.522,1.008-0.774h-1.944c-0.486,0-0.955,0.019-1.405,0.054
					c0.036-0.378,0.054-0.828,0.054-1.296v-1.44c-0.45,0.36-0.774,0.63-0.954,0.774c-0.198-0.307-0.378-0.505-0.702-0.757
					c1.386-0.918,2.143-1.62,3.097-2.772c0.667-0.811,0.972-1.314,1.278-2.106l1.243,0.27c-0.18,0.271-0.18,0.271-0.504,0.793
					c-0.036,0.071-0.09,0.162-0.18,0.288h2.593c0.612,0,1.081-0.019,1.405-0.055l0.63,0.54c-0.144,0.145-0.198,0.217-0.486,0.595
					c-0.36,0.468-0.973,1.152-1.278,1.422h2.863c0.684,0,1.026-0.018,1.404-0.054c-0.036,0.378-0.054,0.702-0.054,1.332v1.117
					c0,0.828,0,0.954,0.036,1.35c-0.378-0.035-0.756-0.054-1.386-0.054H48.757z M48.127,62.287c0.36-0.595,0.522-1.081,0.685-1.999
					h-3.637v1.999H48.127z M49.027,59.441c0.612-0.576,0.937-0.954,1.387-1.62h-3.637c-0.414,0.522-0.937,1.099-1.458,1.62H49.027z
					 M53.439,62.287v-1.999h-3.565c-0.27,1.116-0.396,1.53-0.612,1.999H53.439z"/>
				<path fill="#6D5D4B" d="M60.438,63.673c0.63-0.27,0.954-0.432,1.818-0.864l0.036,1.081c-0.882,0.449-1.224,0.611-1.854,0.882
					v5.708c0,0.972-0.432,1.278-1.818,1.278c-0.342,0-0.612-0.019-1.099-0.055c-0.018-0.378-0.09-0.684-0.27-1.134
					c0.576,0.072,1.008,0.107,1.369,0.107c0.594,0,0.702-0.09,0.702-0.521v-4.897c-0.09,0.036-0.144,0.071-0.27,0.126
					c-1.152,0.468-1.422,0.576-1.765,0.756l-0.378-1.17c0.63-0.126,0.955-0.234,2.413-0.828v-3.943h-0.828
					c-0.504,0-0.9,0.018-1.314,0.072v-1.207c0.414,0.072,0.774,0.09,1.314,0.09h0.828v-1.692c0-0.774-0.036-1.26-0.126-1.836h1.368
					c-0.09,0.54-0.126,1.062-0.126,1.8v1.729h0.576c0.468,0,0.792-0.018,1.152-0.09v1.207c-0.414-0.055-0.72-0.072-1.188-0.072
					h-0.54V63.673z M67.892,68.066h3.565c0.774,0,1.386-0.036,1.854-0.108v1.243c-0.468-0.072-1.17-0.108-1.891-0.108h-3.529v1.188
					c0,0.792,0.036,1.368,0.108,1.818h-1.279c0.072-0.468,0.108-1.044,0.108-1.837v-1.17h-3.439c-0.721,0-1.369,0.036-1.873,0.108
					v-1.243c0.45,0.072,1.062,0.108,1.855,0.108h3.457v-1.729h-2.233c-0.936,0-1.278,0.018-1.692,0.072
					c0.054-0.36,0.072-0.702,0.072-1.513v-3.529c0-0.81-0.018-1.134-0.072-1.494c0.432,0.054,1.008,0.09,1.692,0.09h2.053v-2.917
					c0-0.576-0.036-1.044-0.108-1.44h1.26c-0.054,0.396-0.09,0.811-0.09,1.387v0.342h3.223c0.738,0,1.242-0.036,1.747-0.107v1.188
					c-0.468-0.071-0.918-0.09-1.71-0.09h-3.259v1.639h2.845c0.702,0,1.278-0.036,1.674-0.09c-0.054,0.36-0.072,0.666-0.072,1.603
					v3.205c0,1.008,0.018,1.332,0.072,1.71c-0.414-0.036-0.738-0.054-1.692-0.054h-2.647V68.066z M64.039,62.629h7.058v-1.711
					h-7.058V62.629z M64.039,65.384h7.058v-1.818h-7.058V65.384z"/>
				<path fill="#6D5D4B" d="M77.105,64.069c0-0.811,0-1.314,0.054-2.197c-0.594,1.062-1.008,1.657-1.854,2.629
					c-0.27-0.485-0.324-0.576-0.72-1.026c1.603-1.746,2.701-3.475,3.493-5.491c0.378-0.973,0.541-1.53,0.685-2.358l1.26,0.378
					c-0.162,0.378-0.252,0.594-0.486,1.242c-0.486,1.332-0.702,1.837-1.296,3.025v9.614c0,0.883,0.018,1.495,0.09,2.106h-1.333
					c0.072-0.647,0.108-1.224,0.108-2.16V64.069z M84.523,63.583c0-0.828,0-1.44,0.036-2.215c-0.756,1.765-1.279,2.719-2.161,3.89
					c-0.918,1.26-1.764,2.16-3.042,3.223c-0.252-0.414-0.378-0.54-0.864-0.954c1.548-1.116,2.484-2.089,3.745-3.817
					c0.882-1.225,1.152-1.692,1.818-3.15h-2.827c-0.667,0-1.225,0.035-1.783,0.107v-1.26c0.468,0.071,1.062,0.107,1.8,0.107h3.277
					v-1.98c0-0.54-0.054-1.242-0.126-1.765h1.35c-0.09,0.414-0.144,1.099-0.144,1.765v1.98h3.835c0.774,0,1.332-0.036,1.854-0.107
					v1.26c-0.522-0.072-1.134-0.107-1.836-0.107h-3.403c1.062,1.98,1.53,2.736,2.539,3.961c0.99,1.225,1.89,2.053,3.259,3.024
					c-0.342,0.271-0.576,0.559-0.882,1.009c-0.954-0.757-1.71-1.53-2.557-2.539c-1.243-1.477-1.963-2.629-2.863-4.682
					c0.036,0.937,0.054,1.531,0.054,2.251v3.781h1.639c0.648,0,1.044-0.018,1.458-0.09v1.188c-0.432-0.072-0.811-0.091-1.458-0.091
					h-1.639v1.765c0,0.685,0.036,1.207,0.108,1.854h-1.314c0.072-0.611,0.126-1.206,0.126-1.854v-1.765h-1.513
					c-0.648,0-1.044,0.019-1.458,0.091v-1.188c0.396,0.072,0.811,0.09,1.477,0.09h1.495V63.583z"/>
				<path fill="#6D5D4B" d="M101.515,58.901h5.726c0.756,0,1.296-0.036,1.818-0.107v1.17c-0.486-0.072-1.044-0.107-1.818-0.107
					h-5.726v1.224h4.231c0.612,0,1.008-0.018,1.44-0.071c-0.054,0.485-0.072,0.756-0.072,1.242v3.223
					c0,0.504,0.018,0.774,0.072,1.225c-0.468-0.055-0.846-0.072-1.458-0.072h-4.213v1.368h4.537c0.774,0,1.314-0.036,1.819-0.107
					v1.206c-0.522-0.072-1.062-0.108-1.819-0.108h-4.537v1.513h5.797c0.774,0,1.297-0.036,1.837-0.108v1.225
					c-0.54-0.072-1.062-0.107-1.837-0.107H94.979c-0.774,0-1.296,0.035-1.818,0.107v-1.225c0.486,0.072,1.08,0.108,1.818,0.108
					h5.438v-1.513h-4.195c-0.756,0-1.297,0.036-1.801,0.108v-1.206c0.486,0.071,1.08,0.107,1.801,0.107h4.195v-1.368h-3.889
					c-0.612,0-0.972,0.018-1.44,0.072c0.054-0.504,0.072-0.721,0.072-1.225v-3.223c0-0.486-0.018-0.757-0.072-1.242
					c0.432,0.054,0.829,0.071,1.44,0.071h3.889v-1.224h-5.365c-0.792,0-1.279,0.035-1.819,0.107v-1.17
					c0.468,0.071,1.081,0.107,1.819,0.107h5.365v-1.386c-3.583,0.233-3.583,0.233-5.618,0.288c-0.126-0.45-0.198-0.631-0.45-1.009
					c0.415,0,0.721,0,0.955,0c2.791,0,6.356-0.288,8.895-0.702c1.152-0.198,1.621-0.324,2.287-0.576l0.792,1.026
					c-0.036,0.018-0.972,0.18-2.791,0.504c-0.378,0.072-1.836,0.252-2.971,0.36V58.901z M100.417,61.963h-4.141v1.44h4.141V61.963z
					 M100.417,64.285h-4.141v1.459h4.141V64.285z M105.999,63.403v-1.44h-4.483v1.44H105.999z M105.999,65.744v-1.459h-4.483v1.459
					H105.999z"/>
				<path fill="#6D5D4B" d="M114.383,57.768c-0.828,0-1.458,0.036-2.196,0.126v-1.333c0.684,0.091,1.332,0.126,2.196,0.126h9.399
					c0.9,0,1.387-0.018,1.729-0.071l0.701,0.828c-0.684,0.702-1.025,1.044-1.477,1.44c-1.494,1.332-2.771,2.196-4.843,3.277v8.138
					c0,0.612-0.181,1.009-0.558,1.207c-0.252,0.126-0.721,0.18-1.639,0.18c-0.648,0-1.225-0.036-2.432-0.162
					c-0.035-0.504-0.107-0.756-0.252-1.261c1.117,0.198,1.963,0.288,2.881,0.288c0.576,0,0.738-0.09,0.738-0.396v-7.311
					c0-0.756-0.018-1.242-0.09-1.782h1.062c1.746-0.9,3.025-1.801,4.609-3.295H114.383z"/>
			</g>
			<g enable-background="new    ">
				<path fill="#6D5D4B" d="M134.328,69.129c0,1.494-1.205,2.7-2.7,2.7s-2.7-1.206-2.7-2.7c0-1.495,1.205-2.701,2.7-2.701
					S134.328,67.634,134.328,69.129z M129.953,69.129c0,0.918,0.756,1.675,1.675,1.675s1.675-0.757,1.675-1.675
					c0-0.919-0.756-1.675-1.675-1.675S129.953,68.21,129.953,69.129z"/>
			</g>
		</g>
	</g>
</g>
</svg>
