<?xml version="1.0" encoding="utf-8"?>
<!-- Generator: Adobe Illustrator 16.0.0, SVG Export Plug-In . SVG Version: 6.00 Build 0)  -->
<!DOCTYPE svg PUBLIC "-//W3C//DTD SVG 1.1//EN" "http://www.w3.org/Graphics/SVG/1.1/DTD/svg11.dtd">
<svg version="1.1" id="Layer_1" xmlns="http://www.w3.org/2000/svg" xmlns:xlink="http://www.w3.org/1999/xlink" x="0px" y="0px"
	 width="220.875px" height="138.951px" viewBox="0 0 220.875 138.951" enable-background="new 0 0 220.875 138.951"
	 xml:space="preserve">
<g>
	<g>
		<defs>
			<rect id="SVGID_1_" x="74" y="-0.771" width="177" height="109.926"/>
		</defs>
		<clipPath id="SVGID_2_">
			<use xlink:href="#SVGID_1_"  overflow="visible"/>
		</clipPath>
		<path clip-path="url(#SVGID_2_)" fill="#BCD9D8" d="M201.068-0.771L94.157-0.698v0.146c-0.722-0.087-1.452-0.146-2.197-0.146
			C82.041-0.698,74,7.265,74,17.089v54.26c0,9.823,8.041,17.786,17.96,17.786c0.745,0,1.475-0.059,2.197-0.146v0.146l106.912-0.071
			c9.918,0,17.959-7.965,17.959-17.787v-54.26C219.028,7.193,210.987-0.771,201.068-0.771"/>
	</g>
	<g>
		<defs>
			<rect id="SVGID_3_" x="74" y="-0.771" width="177" height="109.926"/>
		</defs>
		<clipPath id="SVGID_4_">
			<use xlink:href="#SVGID_3_"  overflow="visible"/>
		</clipPath>
		<path clip-path="url(#SVGID_4_)" fill="#BCD9D8" d="M113.724,83.571c0-10.836-6.734-20.09-16.239-23.82
			c2.891-1.135,6.035-1.765,9.329-1.765c14.121,0,25.566,11.455,25.566,25.585c0,14.129-11.445,25.584-25.566,25.584
			c-3.294,0-6.438-0.631-9.329-1.766C106.99,103.66,113.724,94.405,113.724,83.571"/>
	</g>
</g>
<g enable-background="new    ">
	<path fill="#6D5D4B" d="M100.672,24.432h4.087c3.799,0,6.356,2.323,6.356,6.32c0,4.033-2.557,6.338-6.356,6.338h-4.087V24.432z
		 M104.634,35.974c3.115,0,5.186-1.837,5.186-5.222c0-3.367-2.089-5.203-5.186-5.203h-2.719v10.425H104.634z"/>
</g>
<g enable-background="new    ">
	<path fill="#6D5D4B" d="M117.683,27.817c2.647,0,4.79,2.017,4.79,4.699c0,2.736-2.143,4.789-4.79,4.789
		c-2.646,0-4.789-2.053-4.789-4.789C112.894,29.834,115.037,27.817,117.683,27.817z M117.683,36.208
		c1.945,0,3.529-1.585,3.529-3.691c0-2.053-1.584-3.583-3.529-3.583c-1.943,0-3.528,1.53-3.528,3.583
		C114.155,34.623,115.74,36.208,117.683,36.208z"/>
</g>
<g enable-background="new    ">
	<path fill="#6D5D4B" d="M124.667,28.033h1.206v1.351c0,0.396-0.035,0.72-0.035,0.72h0.035c0.324-0.828,1.477-2.286,3.619-2.286
		c2.232,0,3.025,1.278,3.025,3.511v5.762h-1.225v-5.438c0-1.423-0.217-2.683-1.963-2.683c-1.549,0-2.881,1.062-3.295,2.557
		c-0.107,0.378-0.145,0.792-0.145,1.225v4.339h-1.224V28.033z"/>
</g>
<g enable-background="new    ">
	<path fill="#6D5D4B" d="M135.521,24.252h1.296l-1.009,3.097h-0.99L135.521,24.252z"/>
</g>
<g enable-background="new    ">
	<path fill="#6D5D4B" d="M139.281,29.168h-1.188v-1.026h1.206V25.53h1.206v2.611h2.27v1.026h-2.27v4.501
		c0,2.124,1.352,2.395,2.035,2.395c0.252,0,0.414-0.036,0.414-0.036v1.099c0,0-0.198,0.036-0.521,0.036
		c-1.045,0-3.152-0.343-3.152-3.367V29.168z"/>
</g>
<g enable-background="new    ">
	<path fill="#6D5D4B" d="M148.569,28.033h1.296l2.197,6.752c0.145,0.432,0.27,0.973,0.27,0.973h0.037c0,0,0.125-0.541,0.27-0.973
		l2.232-6.716h1.207l2.232,6.716c0.144,0.432,0.27,0.973,0.27,0.973h0.036c0,0,0.126-0.522,0.271-0.973l2.196-6.752h1.296
		l-3.061,9.057h-1.332l-2.215-6.446c-0.162-0.45-0.288-0.972-0.288-0.972h-0.036c0,0-0.126,0.521-0.27,0.972l-2.215,6.446h-1.332
		L148.569,28.033z"/>
	<path fill="#6D5D4B" d="M168.281,27.817c2.646,0,4.789,2.017,4.789,4.699c0,2.736-2.143,4.789-4.789,4.789s-4.79-2.053-4.79-4.789
		C163.491,29.834,165.634,27.817,168.281,27.817z M168.281,36.208c1.944,0,3.529-1.585,3.529-3.691c0-2.053-1.585-3.583-3.529-3.583
		c-1.945,0-3.529,1.53-3.529,3.583C164.751,34.623,166.335,36.208,168.281,36.208z"/>
</g>
<g enable-background="new    ">
	<path fill="#6D5D4B" d="M175.083,28.033h1.206v1.603c0,0.396-0.036,0.72-0.036,0.72h0.036c0.433-1.368,1.44-2.412,2.863-2.412
		c0.252,0,0.485,0.054,0.485,0.054v1.206c0,0-0.215-0.035-0.449-0.035c-1.279,0-2.232,1.008-2.629,2.34
		c-0.18,0.576-0.252,1.188-0.252,1.765v3.817h-1.225V28.033z"/>
</g>
<g enable-background="new    ">
	<path fill="#6D5D4B" d="M181.419,24.432h1.225v7.059h1.439l2.719-3.457h1.477l-3.15,3.943v0.036l3.457,5.077h-1.459l-3.024-4.537
		h-1.458v4.537h-1.225V24.432z"/>
</g>
<g enable-background="new    ">
	<path fill="#6D5D4B" d="M100.654,54.17h-1.188v-1.026h1.206v-2.611h1.207v2.611h2.269v1.026h-2.269v4.501
		c0,2.124,1.351,2.395,2.035,2.395c0.252,0,0.414-0.036,0.414-0.036v1.099c0,0-0.198,0.036-0.522,0.036
		c-1.044,0-3.151-0.343-3.151-3.367V54.17z"/>
</g>
<g enable-background="new    ">
	<path fill="#6D5D4B" d="M110.394,52.819c2.647,0,4.79,2.017,4.79,4.699c0,2.736-2.143,4.789-4.79,4.789
		c-2.646,0-4.79-2.053-4.79-4.789C105.604,54.836,107.747,52.819,110.394,52.819z M110.394,61.21c1.945,0,3.53-1.585,3.53-3.691
		c0-2.053-1.585-3.583-3.53-3.583c-1.944,0-3.529,1.53-3.529,3.583C106.865,59.625,108.449,61.21,110.394,61.21z"/>
	<path fill="#6D5D4B" d="M121.589,52.819c2.646,0,4.789,2.017,4.789,4.699c0,2.736-2.143,4.789-4.789,4.789
		s-4.789-2.053-4.789-4.789C116.8,54.836,118.943,52.819,121.589,52.819z M121.589,61.21c1.945,0,3.529-1.585,3.529-3.691
		c0-2.053-1.584-3.583-3.529-3.583c-1.944,0-3.529,1.53-3.529,3.583C118.06,59.625,119.645,61.21,121.589,61.21z"/>
</g>
<g enable-background="new    ">
	<path fill="#6D5D4B" d="M133.234,49.434h1.224v4.897c0,0.415-0.036,0.738-0.036,0.738h0.036c0.343-0.864,1.548-2.25,3.601-2.25
		c2.233,0,3.025,1.278,3.025,3.511v5.762h-1.225v-5.438c0-1.423-0.216-2.683-1.963-2.683c-1.548,0-2.881,1.062-3.295,2.574
		c-0.107,0.36-0.144,0.774-0.144,1.207v4.339h-1.224V49.434z"/>
	<path fill="#6D5D4B" d="M148.714,56.492h0.504v-0.234c0-1.746-0.953-2.341-2.25-2.341c-1.494,0-2.557,0.864-2.557,0.864
		l-0.576-0.936c0,0,1.188-1.026,3.223-1.026c2.179,0,3.385,1.206,3.385,3.475v5.798h-1.17v-0.99c0-0.45,0.035-0.756,0.035-0.756
		h-0.035c0,0-0.756,1.962-3.025,1.962c-1.512,0-3.078-0.882-3.078-2.683C143.169,56.564,147.148,56.492,148.714,56.492z
		 M146.446,61.264c1.729,0,2.772-1.801,2.772-3.367V57.5h-0.521c-1.423,0-4.268,0.055-4.268,2.053
		C144.429,60.399,145.095,61.264,146.446,61.264z"/>
</g>
<g enable-background="new    ">
	<path fill="#6D5D4B" d="M153.124,53.035h1.206v1.603c0,0.396-0.035,0.72-0.035,0.72h0.035c0.432-1.368,1.44-2.412,2.863-2.412
		c0.252,0,0.486,0.054,0.486,0.054v1.206c0,0-0.217-0.035-0.451-0.035c-1.277,0-2.232,1.008-2.628,2.34
		c-0.181,0.576-0.253,1.188-0.253,1.765v3.817h-1.224V53.035z"/>
</g>
<g enable-background="new    ">
	<path fill="#6D5D4B" d="M162.863,52.819c2.196,0,2.953,1.71,2.953,1.71h0.035c0,0-0.035-0.306-0.035-0.684v-4.412h1.225v12.658
		h-1.189v-0.954c0-0.396,0.037-0.648,0.037-0.648h-0.037c0,0-0.738,1.818-3.115,1.818c-2.43,0-3.942-1.944-3.942-4.753
		C158.793,54.691,160.486,52.819,162.863,52.819z M162.917,61.21c1.513,0,2.935-1.081,2.935-3.655c0-1.837-0.936-3.638-2.881-3.638
		c-1.602,0-2.916,1.351-2.916,3.638C160.054,59.787,161.224,61.21,162.917,61.21z"/>
</g>
<g enable-background="new    ">
	<path fill="#6D5D4B" d="M169.953,60.651h1.422v1.44h-1.422V60.651z"/>
</g>
</svg>
