<?xml version="1.0" encoding="utf-8"?>
<!-- Generator: Adobe Illustrator 16.0.0, SVG Export Plug-In . SVG Version: 6.00 Build 0)  -->
<!DOCTYPE svg PUBLIC "-//W3C//DTD SVG 1.1//EN" "http://www.w3.org/Graphics/SVG/1.1/DTD/svg11.dtd">
<svg version="1.1" id="Layer_1" xmlns="http://www.w3.org/2000/svg" xmlns:xlink="http://www.w3.org/1999/xlink" x="0px" y="0px"
	 width="800px" height="600.394px" viewBox="0 0 800 600.394" enable-background="new 0 0 800 600.394" xml:space="preserve">
<g>
	<defs>
		<rect id="SVGID_1_" x="4" y="4" width="790.5" height="592"/>
	</defs>
	<clipPath id="SVGID_2_">
		<use xlink:href="#SVGID_1_"  overflow="visible"/>
	</clipPath>
	<rect x="4.25" y="4.25" clip-path="url(#SVGID_2_)" fill="none" stroke="#CAC9C8" stroke-width="0.5" width="790" height="591.5"/>
</g>
<rect x="315.729" y="199.935" fill="#FAFAFC" width="170.447" height="178.238"/>
<rect x="329.271" y="227.166" fill="#EEEDF6" width="144.408" height="151.008"/>
<rect x="342.875" y="255.617" fill="#D3D3EA" width="117.202" height="122.557"/>
<rect x="355.542" y="282.107" fill="#AFB0D8" width="91.869" height="96.066"/>
<rect x="368.541" y="309.294" fill="#7D80BD" width="65.868" height="68.879"/>
<rect x="380.37" y="334.068" fill="#384DA0" width="41.166" height="44.105"/>
<rect x="380.37" y="334.06" fill="#224099" width="41.166" height="6.76"/>
<rect x="397.721" y="340.82" fill="#224099" width="6.461" height="37.354"/>
<g>
	<defs>
		<rect id="SVGID_3_" x="4" y="4" width="790.5" height="592"/>
	</defs>
	<clipPath id="SVGID_4_">
		<use xlink:href="#SVGID_3_"  overflow="visible"/>
	</clipPath>
	<path clip-path="url(#SVGID_4_)" fill="#224099" d="M477.861,398.929h1.477v-6.102l2.674,4.004h0.047l2.697-4.027v6.125h1.502
		v-8.541h-1.6l-2.6,4.039l-2.598-4.039h-1.6V398.929z M471.516,399.064c2.234,0,3.674-1.281,3.674-3.832v-4.844h-1.502v4.918
		c0,1.574-0.816,2.379-2.146,2.379c-1.344,0-2.16-0.854-2.16-2.439v-4.857h-1.5v4.918
		C467.881,397.783,469.295,399.064,471.516,399.064 M459.229,398.929h6.395v-1.342h-4.895v-2.295h4.283v-1.342h-4.283v-2.221h4.832
		v-1.342h-6.332V398.929z M453.797,399.052c1.795,0,3.051-0.953,3.051-2.551v-0.023c0-1.416-0.939-2.062-2.746-2.502
		c-1.635-0.391-2.025-0.684-2.025-1.344v-0.023c0-0.562,0.514-1.014,1.393-1.014c0.781,0,1.549,0.307,2.316,0.879l0.807-1.135
		c-0.867-0.695-1.855-1.074-3.1-1.074c-1.695,0-2.916,1.014-2.916,2.479v0.023c0,1.574,1.025,2.111,2.844,2.551
		c1.586,0.367,1.928,0.695,1.928,1.307v0.023c0,0.646-0.586,1.074-1.514,1.074c-1.062,0-1.879-0.402-2.697-1.111l-0.902,1.074
		C451.26,398.599,452.49,399.052,453.797,399.052 M444.463,399.064c2.232,0,3.672-1.281,3.672-3.832v-4.844h-1.5v4.918
		c0,1.574-0.818,2.379-2.148,2.379c-1.342,0-2.16-0.854-2.16-2.439v-4.857h-1.502v4.918
		C440.824,397.783,442.24,399.064,444.463,399.064 M429.758,398.929h1.477v-6.102l2.672,4.004h0.049l2.697-4.027v6.125h1.5v-8.541
		h-1.598l-2.6,4.039l-2.6-4.039h-1.598V398.929z M417.322,398.929h5.992v-1.365h-4.49v-7.176h-1.502V398.929z M409.158,398.929
		h5.992v-1.365h-4.49v-7.176h-1.502V398.929z M400.373,398.929h6.395v-1.342h-4.893v-2.295h4.281v-1.342h-4.281v-2.221h4.832v-1.342
		h-6.334V398.929z M392.441,394.623v-2.867h2.184c1.111,0,1.77,0.5,1.77,1.414v0.025c0,0.867-0.684,1.428-1.758,1.428H392.441z
		 M390.94,398.929h1.501v-2.977h1.855h0.024l2.099,2.977h1.769l-2.306-3.232c1.196-0.342,2.038-1.186,2.038-2.588v-0.023
		c0-0.746-0.256-1.379-0.708-1.844c-0.549-0.537-1.391-0.854-2.465-0.854h-3.807V398.929z M383.008,394.623v-2.867h2.184
		c1.111,0,1.77,0.5,1.77,1.414v0.025c0,0.867-0.684,1.428-1.758,1.428H383.008z M381.507,398.929h1.501v-2.977h1.855h0.024
		l2.099,2.977h1.77l-2.307-3.232c1.196-0.342,2.038-1.186,2.038-2.588v-0.023c0-0.746-0.256-1.379-0.708-1.844
		c-0.549-0.537-1.391-0.854-2.465-0.854h-3.807V398.929z M375.161,399.064c2.234,0,3.674-1.281,3.674-3.832v-4.844h-1.501v4.918
		c0,1.574-0.818,2.379-2.148,2.379c-1.343,0-2.16-0.854-2.16-2.439v-4.857h-1.501v4.918
		C371.525,397.783,372.94,399.064,375.161,399.064 M365.24,398.929h1.514v-7.15h2.709v-1.391h-6.932v1.391h2.709V398.929z
		 M353.44,399.052c1.794,0,3.051-0.953,3.051-2.551v-0.023c0-1.416-0.94-2.062-2.746-2.502c-1.635-0.391-2.026-0.684-2.026-1.344
		v-0.023c0-0.562,0.513-1.014,1.392-1.014c0.781,0,1.549,0.307,2.318,0.879l0.806-1.135c-0.867-0.695-1.855-1.074-3.1-1.074
		c-1.696,0-2.917,1.014-2.917,2.479v0.023c0,1.574,1.026,2.111,2.844,2.551c1.586,0.367,1.928,0.695,1.928,1.307v0.023
		c0,0.646-0.586,1.074-1.513,1.074c-1.062,0-1.88-0.402-2.697-1.111l-0.903,1.074C350.902,398.599,352.134,399.052,353.44,399.052
		 M341.664,398.929h6.395v-1.342h-4.894v-2.295h4.283v-1.342h-4.283v-2.221h4.833v-1.342h-6.334V398.929z M330.462,398.929h1.476
		v-6.102l2.673,4.004h0.049l2.697-4.027v6.125h1.5v-8.541h-1.598l-2.599,4.039l-2.6-4.039h-1.598V398.929z M322.444,395.539
		l1.465-3.418l1.476,3.418H322.444z M319.479,398.929h1.538l0.878-2.061h4.039l0.867,2.061h1.586l-3.758-8.602h-1.391
		L319.479,398.929z M314.975,399.052c0.854,0,1.574-0.256,2.075-0.758c0.5-0.5,0.793-1.256,0.793-2.268v-5.639h-1.538v5.602
		c0,1.135-0.549,1.672-1.354,1.672c-0.72,0-1.221-0.367-1.721-1.002l-0.988,1.014C312.803,398.443,313.657,399.052,314.975,399.052"
		/>
</g>
</svg>
